# Buildings and bardas mesh for tecate_core_z14_x2883_y6623
v -874.493 -5.233 1403.304
v -859.231 -5.233 1401.812
v -859.231 -5.233 1379.122
v -877.153 -5.233 1379.716
v -874.493 -5.233 1403.304
v -874.493 -1.733 1403.304
v -859.231 -1.733 1401.812
v -859.231 -1.733 1379.122
v -877.153 -1.733 1379.716
v -874.493 -1.733 1403.304
v -868.920 -1.733 1393.452
v -912.976 -5.016 1319.702
v -912.720 -5.016 1340.490
v -894.207 -5.016 1340.490
v -894.463 -5.016 1318.210
v -912.976 -5.016 1319.702
v -912.976 -1.516 1319.702
v -912.720 -1.516 1340.490
v -894.207 -1.516 1340.490
v -894.463 -1.516 1318.210
v -912.976 -1.516 1319.702
v -905.468 -1.516 1327.719
v -2776.386 -11.336 221.999
v -2770.319 -11.336 227.666
v -2744.115 -11.336 199.597
v -2750.181 -11.336 193.931
v -2776.386 -11.336 221.999
v -2776.386 -7.836 221.999
v -2770.319 -7.836 227.666
v -2744.115 -7.836 199.597
v -2750.181 -7.836 193.931
v -2776.386 -7.836 221.999
v -2763.477 -7.836 213.038
v -1378.369 -7.355 289.389
v -1374.952 -7.355 299.269
v -1367.950 -7.355 297.301
v -1350.884 -7.355 351.178
v -1316.041 -7.355 339.502
v -1333.607 -7.355 282.085
v -1335.444 -7.355 276.101
v -1378.369 -7.355 289.389
v -1378.369 -3.855 289.389
v -1374.952 -3.855 299.269
v -1367.950 -3.855 297.301
v -1350.884 -3.855 351.178
v -1316.041 -3.855 339.502
v -1333.607 -3.855 282.085
v -1335.444 -3.855 276.101
v -1378.369 -3.855 289.389
v -1354.452 -3.855 303.027
v -2923.595 -11.654 390.130
v -2905.227 -11.654 370.687
v -2905.005 -11.654 356.858
v -2912.352 -11.654 350.584
v -2912.574 -11.654 334.602
v -2916.760 -11.654 330.032
v -2897.368 -11.654 308.687
v -2883.030 -11.654 307.234
v -2873.546 -11.654 296.720
v -2847.964 -11.654 295.782
v -2843.935 -11.654 292.070
v -2843.211 -11.654 264.636
v -2819.077 -11.654 238.536
v -2804.427 -11.654 236.066
v -2796.691 -11.654 227.600
v -2834.550 -11.654 202.437
v -2866.377 -11.654 236.330
v -2902.956 -11.654 200.046
v -2940.426 -11.654 239.910
v -2923.595 -11.654 390.130
v -2923.595 -8.154 390.130
v -2905.227 -8.154 370.687
v -2905.005 -8.154 356.858
v -2912.352 -8.154 350.584
v -2912.574 -8.154 334.602
v -2916.760 -8.154 330.032
v -2897.368 -8.154 308.687
v -2883.030 -8.154 307.234
v -2873.546 -8.154 296.720
v -2847.964 -8.154 295.782
v -2843.935 -8.154 292.070
v -2843.211 -8.154 264.636
v -2819.077 -8.154 238.536
v -2804.427 -8.154 236.066
v -2796.691 -8.154 227.600
v -2834.550 -8.154 202.437
v -2866.377 -8.154 236.330
v -2902.956 -8.154 200.046
v -2940.426 -8.154 239.910
v -2923.595 -8.154 390.130
v -2877.633 -8.154 293.454
v -2940.326 -11.974 623.085
v -2927.157 -11.974 621.460
v -2932.000 -11.974 582.271
v -2927.135 -11.974 581.677
v -2928.070 -11.974 574.069
v -2932.857 -11.974 574.663
v -2940.471 -11.974 513.034
v -2927.936 -11.974 511.488
v -2917.561 -11.974 510.207
v -2920.378 -11.974 487.476
v -2929.283 -11.974 488.585
v -2935.796 -11.974 489.391
v -2935.339 -11.974 493.036
v -2945.926 -11.974 494.357
v -2945.113 -11.974 500.882
v -2952.538 -11.974 501.794
v -2951.948 -11.974 506.535
v -2959.963 -11.974 507.526
v -2958.983 -11.974 515.425
v -2967.722 -11.974 516.508
v -2966.865 -11.974 523.429
v -2975.158 -11.974 524.446
v -2974.590 -11.974 529.069
v -2983.618 -11.974 530.178
v -2968.969 -11.974 648.576
v -2962.579 -11.974 647.784
v -2932.946 -11.974 644.112
v -2934.337 -11.974 632.951
v -2957.291 -11.974 635.791
v -2957.603 -11.974 633.281
v -2952.004 -11.974 632.581
v -2952.928 -11.974 625.066
v -2959.251 -11.974 625.858
v -2964.048 -11.974 587.106
v -2958.182 -11.974 586.392
v -2959.184 -11.974 578.296
v -2965.763 -11.974 579.101
v -2967.343 -11.974 566.316
v -2967.889 -11.974 561.931
v -2970.728 -11.974 562.274
v -2972.041 -11.974 551.694
v -2959.551 -11.974 550.149
v -2959.362 -11.974 551.694
v -2949.310 -11.974 550.453
v -2947.618 -11.974 564.137
v -2940.326 -11.974 623.085
v -2940.326 -8.474 623.085
v -2927.157 -8.474 621.460
v -2932.000 -8.474 582.271
v -2927.135 -8.474 581.677
v -2928.070 -8.474 574.069
v -2932.857 -8.474 574.663
v -2940.471 -8.474 513.034
v -2927.936 -8.474 511.488
v -2917.561 -8.474 510.207
v -2920.378 -8.474 487.476
v -2929.283 -8.474 488.585
v -2935.796 -8.474 489.391
v -2935.339 -8.474 493.036
v -2945.926 -8.474 494.357
v -2945.113 -8.474 500.882
v -2952.538 -8.474 501.794
v -2951.948 -8.474 506.535
v -2959.963 -8.474 507.526
v -2958.983 -8.474 515.425
v -2967.722 -8.474 516.508
v -2966.865 -8.474 523.429
v -2975.158 -8.474 524.446
v -2974.590 -8.474 529.069
v -2983.618 -8.474 530.178
v -2968.969 -8.474 648.576
v -2962.579 -8.474 647.784
v -2932.946 -8.474 644.112
v -2934.337 -8.474 632.951
v -2957.291 -8.474 635.791
v -2957.603 -8.474 633.281
v -2952.004 -8.474 632.581
v -2952.928 -8.474 625.066
v -2959.251 -8.474 625.858
v -2964.048 -8.474 587.106
v -2958.182 -8.474 586.392
v -2959.184 -8.474 578.296
v -2965.763 -8.474 579.101
v -2967.343 -8.474 566.316
v -2967.889 -8.474 561.931
v -2970.728 -8.474 562.274
v -2972.041 -8.474 551.694
v -2959.551 -8.474 550.149
v -2959.362 -8.474 551.694
v -2949.310 -8.474 550.453
v -2947.618 -8.474 564.137
v -2940.326 -8.474 623.085
v -2950.782 -8.474 561.722
v -3042.095 -12.005 588.823
v -2983.618 -12.005 530.178
v -2968.969 -12.005 648.576
v -2962.579 -12.005 647.784
v -2956.913 -12.005 703.641
v -3024.094 -12.005 711.619
v -3042.095 -12.005 588.823
v -3042.095 -8.505 588.823
v -2983.618 -8.505 530.178
v -2968.969 -8.505 648.576
v -2962.579 -8.505 647.784
v -2956.913 -8.505 703.641
v -3024.094 -8.505 711.619
v -3042.095 -8.505 588.823
v -2997.195 -8.505 631.349
v -1987.454 -9.178 289.495
v -1982.288 -9.178 329.279
v -1967.539 -9.178 327.364
v -1967.950 -9.178 324.180
v -1953.078 -9.178 322.252
v -1943.249 -9.178 309.717
v -1949.026 -9.178 261.136
v -1980.340 -9.178 264.861
v -1979.472 -9.178 272.126
v -2005.131 -9.178 275.177
v -2005.855 -9.178 269.114
v -2035.644 -9.178 272.654
v -2034.965 -9.178 278.360
v -2041.087 -9.178 282.019
v -2047.989 -9.178 270.448
v -2055.169 -9.178 274.728
v -2053.444 -9.178 277.607
v -2058.642 -9.178 280.711
v -2053.845 -9.178 288.768
v -2076.064 -9.178 302.017
v -2068.016 -9.178 315.516
v -2056.861 -9.178 308.859
v -2058.164 -9.178 306.653
v -2032.382 -9.178 291.265
v -2030.634 -9.178 304.790
v -1995.658 -9.178 300.260
v -1996.894 -9.178 290.710
v -1987.454 -9.178 289.495
v -1987.454 -5.678 289.495
v -1982.288 -5.678 329.279
v -1967.539 -5.678 327.364
v -1967.950 -5.678 324.180
v -1953.078 -5.678 322.252
v -1943.249 -5.678 309.717
v -1949.026 -5.678 261.136
v -1980.340 -5.678 264.861
v -1979.472 -5.678 272.126
v -2005.131 -5.678 275.177
v -2005.855 -5.678 269.114
v -2035.644 -5.678 272.654
v -2034.965 -5.678 278.360
v -2041.087 -5.678 282.019
v -2047.989 -5.678 270.448
v -2055.169 -5.678 274.728
v -2053.444 -5.678 277.607
v -2058.642 -5.678 280.711
v -2053.845 -5.678 288.768
v -2076.064 -5.678 302.017
v -2068.016 -5.678 315.516
v -2056.861 -5.678 308.859
v -2058.164 -5.678 306.653
v -2032.382 -5.678 291.265
v -2030.634 -5.678 304.790
v -1995.658 -5.678 300.260
v -1996.894 -5.678 290.710
v -1987.454 -5.678 289.495
v -2014.439 -5.678 292.127
v -2092.617 -9.337 320.640
v -2081.352 -9.337 319.254
v -2080.806 -9.337 323.678
v -2077.288 -9.337 323.243
v -2076.309 -9.337 331.154
v -2079.359 -9.337 331.524
v -2076.175 -9.337 357.281
v -2067.303 -9.337 356.198
v -2065.522 -9.337 370.674
v -2088.799 -9.337 373.554
v -2090.625 -9.337 358.747
v -2087.964 -9.337 358.417
v -2092.617 -9.337 320.640
v -2092.617 -5.837 320.640
v -2081.352 -5.837 319.254
v -2080.806 -5.837 323.678
v -2077.288 -5.837 323.243
v -2076.309 -5.837 331.154
v -2079.359 -5.837 331.524
v -2076.175 -5.837 357.281
v -2067.303 -5.837 356.198
v -2065.522 -5.837 370.674
v -2088.799 -5.837 373.554
v -2090.625 -5.837 358.747
v -2087.964 -5.837 358.417
v -2092.617 -5.837 320.640
v -2081.287 -5.837 341.923
v -2061.659 -9.244 350.373
v -2059.722 -9.244 369.300
v -2044.583 -9.244 367.755
v -2045.095 -9.244 362.776
v -2034.542 -9.244 361.706
v -2033.996 -9.244 367.042
v -2019.814 -9.244 365.602
v -2021.785 -9.244 346.278
v -2016.363 -9.244 345.723
v -2016.642 -9.244 342.923
v -2031.948 -9.244 344.495
v -2031.447 -9.244 349.316
v -2051.240 -9.244 351.337
v -2051.451 -9.244 349.329
v -2061.659 -9.244 350.373
v -2061.659 -5.744 350.373
v -2059.722 -5.744 369.300
v -2044.583 -5.744 367.755
v -2045.095 -5.744 362.776
v -2034.542 -5.744 361.706
v -2033.996 -5.744 367.042
v -2019.814 -5.744 365.602
v -2021.785 -5.744 346.278
v -2016.363 -5.744 345.723
v -2016.642 -5.744 342.923
v -2031.948 -5.744 344.495
v -2031.447 -5.744 349.316
v -2051.240 -5.744 351.337
v -2051.451 -5.744 349.329
v -2061.659 -5.744 350.373
v -2038.796 -5.744 354.955
v -875.346 -5.233 1404.814
v -857.917 -5.233 1402.945
v -858.259 -5.233 1377.685
v -878.045 -5.233 1378.228
v -875.346 -5.233 1404.814
v -875.346 -3.233 1404.814
v -857.917 -3.233 1402.945
v -858.259 -3.233 1377.685
v -878.045 -3.233 1378.228
v -875.346 -3.233 1404.814
v -914.261 -5.016 1318.329
v -913.648 -5.016 1342.126
v -892.963 -5.016 1341.901
v -893.040 -5.016 1316.980
v -914.261 -5.016 1318.329
v -914.261 -2.886 1318.329
v -913.648 -2.886 1342.126
v -892.963 -2.886 1341.901
v -893.040 -2.886 1316.980
v -914.261 -2.886 1318.329
v -1380.396 -7.355 288.233
v -1377.247 -7.355 298.848
v -1370.098 -7.355 296.390
v -1350.712 -7.355 353.506
v -1314.349 -7.355 341.109
v -1331.961 -7.355 280.431
v -1334.098 -7.355 274.195
v -1380.396 -7.355 288.233
v -1380.396 -4.958 288.233
v -1377.247 -4.958 298.848
v -1370.098 -4.958 296.390
v -1350.712 -4.958 353.506
v -1314.349 -4.958 341.109
v -1331.961 -4.958 280.431
v -1334.098 -4.958 274.195
v -1380.396 -4.958 288.233
v -2924.299 -11.654 391.612
v -2905.779 -11.654 372.233
v -2905.655 -11.654 358.365
v -2913.204 -11.654 351.986
v -2913.636 -11.654 335.853
v -2917.959 -11.654 331.152
v -2898.667 -11.654 309.689
v -2883.628 -11.654 308.762
v -2872.264 -11.654 297.744
v -2846.329 -11.654 295.910
v -2842.295 -11.654 292.003
v -2841.953 -11.654 263.583
v -2817.880 -11.654 237.414
v -2803.136 -11.654 235.054
v -2795.418 -11.654 226.564
v -2833.848 -11.654 200.954
v -2866.059 -11.654 234.721
v -2903.386 -11.654 198.463
v -2941.675 -11.654 238.845
v -2924.299 -11.654 391.612
v -2924.299 -9.533 391.612
v -2905.779 -9.533 372.233
v -2905.655 -9.533 358.365
v -2913.204 -9.533 351.986
v -2913.636 -9.533 335.853
v -2917.959 -9.533 331.152
v -2898.667 -9.533 309.689
v -2883.628 -9.533 308.762
v -2872.264 -9.533 297.744
v -2846.329 -9.533 295.910
v -2842.295 -9.533 292.003
v -2841.953 -9.533 263.583
v -2817.880 -9.533 237.414
v -2803.136 -9.533 235.054
v -2795.418 -9.533 226.564
v -2833.848 -9.533 200.954
v -2866.059 -9.533 234.721
v -2903.386 -9.533 198.463
v -2941.675 -9.533 238.845
v -2924.299 -9.533 391.612
v -3043.733 -12.005 587.271
v -2983.318 -12.005 527.941
v -2967.042 -12.005 649.752
v -2960.540 -12.005 648.752
v -2955.814 -12.005 705.612
v -3024.811 -12.005 713.758
v -3043.733 -12.005 587.271
v -3043.733 -9.697 587.271
v -2983.318 -9.697 527.941
v -2967.042 -9.697 649.752
v -2960.540 -9.697 648.752
v -2955.814 -9.697 705.612
v -3024.811 -9.697 713.758
v -3043.733 -9.697 587.271
v -1985.271 -9.178 289.282
v -1980.854 -9.178 330.937
v -1965.785 -9.178 328.681
v -1966.145 -9.178 325.425
v -1951.110 -9.178 323.218
v -1941.120 -9.178 310.243
v -1947.045 -9.178 260.197
v -1978.628 -9.178 263.491
v -1977.569 -9.178 271.037
v -2004.076 -9.178 273.255
v -2005.088 -9.178 267.060
v -2037.259 -9.178 271.171
v -2036.786 -9.178 277.139
v -2043.138 -9.178 281.241
v -2049.831 -9.178 269.258
v -2057.186 -9.178 273.866
v -2055.499 -9.178 276.842
v -2060.766 -9.178 280.163
v -2056.029 -9.178 288.582
v -2078.229 -9.178 302.364
v -2070.025 -9.178 316.393
v -2058.901 -9.178 309.663
v -2060.245 -9.178 307.344
v -2034.572 -9.178 291.160
v -2032.362 -9.178 306.141
v -1993.646 -9.178 301.131
v -1994.708 -9.178 290.533
v -1985.271 -9.178 289.282
v -1985.271 -6.727 289.282
v -1980.854 -6.727 330.937
v -1965.785 -6.727 328.681
v -1966.145 -6.727 325.425
v -1951.110 -6.727 323.218
v -1941.120 -6.727 310.243
v -1947.045 -6.727 260.197
v -1978.628 -6.727 263.491
v -1977.569 -6.727 271.037
v -2004.076 -6.727 273.255
v -2005.088 -6.727 267.060
v -2037.259 -6.727 271.171
v -2036.786 -6.727 277.139
v -2043.138 -6.727 281.241
v -2049.831 -6.727 269.258
v -2057.186 -6.727 273.866
v -2055.499 -6.727 276.842
v -2060.766 -6.727 280.163
v -2056.029 -6.727 288.582
v -2078.229 -6.727 302.364
v -2070.025 -6.727 316.393
v -2058.901 -6.727 309.663
v -2060.245 -6.727 307.344
v -2034.572 -6.727 291.160
v -2032.362 -6.727 306.141
v -1993.646 -6.727 301.131
v -1994.708 -6.727 290.533
v -1985.271 -6.727 289.282
v -2093.550 -9.337 318.888
v -2081.357 -9.337 317.269
v -2080.754 -9.337 321.694
v -2076.873 -9.337 321.302
v -2075.476 -9.337 329.353
v -2078.997 -9.337 329.573
v -2075.548 -9.337 359.164
v -2065.914 -9.337 357.615
v -2064.568 -9.337 372.414
v -2089.258 -9.337 375.485
v -2091.588 -9.337 360.482
v -2088.709 -9.337 360.256
v -2093.550 -9.337 318.888
v -2093.550 -7.290 318.888
v -2081.357 -7.290 317.269
v -2080.754 -7.290 321.694
v -2076.873 -7.290 321.302
v -2075.476 -7.290 329.353
v -2078.997 -7.290 329.573
v -2075.548 -7.290 359.164
v -2065.914 -7.290 357.615
v -2064.568 -7.290 372.414
v -2089.258 -7.290 375.485
v -2091.588 -7.290 360.482
v -2088.709 -7.290 360.256
v -2093.550 -7.290 318.888
v -2063.914 -9.244 349.921
v -2061.619 -9.244 370.601
v -2045.530 -9.244 369.851
v -2046.538 -9.244 364.567
v -2033.315 -9.244 363.651
v -2033.147 -9.244 369.179
v -2017.808 -9.244 366.727
v -2019.736 -9.244 345.233
v -2014.236 -9.244 344.848
v -2014.620 -9.244 341.826
v -2030.688 -9.244 342.571
v -2029.622 -9.244 347.916
v -2053.448 -9.244 350.695
v -2053.553 -9.244 348.395
v -2063.914 -9.244 349.921
v -2063.914 -6.802 349.921
v -2061.619 -6.802 370.601
v -2045.530 -6.802 369.851
v -2046.538 -6.802 364.567
v -2033.315 -6.802 363.651
v -2033.147 -6.802 369.179
v -2017.808 -6.802 366.727
v -2019.736 -6.802 345.233
v -2014.236 -6.802 344.848
v -2014.620 -6.802 341.826
v -2030.688 -6.802 342.571
v -2029.622 -6.802 347.916
v -2053.448 -6.802 350.695
v -2053.553 -6.802 348.395
v -2063.914 -6.802 349.921
g building_0
f 1 2 7
f 7 6 1
f 2 3 8
f 8 7 2
f 3 4 9
f 9 8 3
f 4 5 10
f 10 9 4
f 6 7 11
f 7 8 11
f 8 9 11
f 9 10 11
g building_1
f 12 13 18
f 18 17 12
f 13 14 19
f 19 18 13
f 14 15 20
f 20 19 14
f 15 16 21
f 21 20 15
f 17 18 22
f 18 19 22
f 19 20 22
f 20 21 22
g building_2
f 23 24 29
f 29 28 23
f 24 25 30
f 30 29 24
f 25 26 31
f 31 30 25
f 26 27 32
f 32 31 26
f 28 29 33
f 29 30 33
f 30 31 33
f 31 32 33
g building_3
f 34 35 43
f 43 42 34
f 35 36 44
f 44 43 35
f 36 37 45
f 45 44 36
f 37 38 46
f 46 45 37
f 38 39 47
f 47 46 38
f 39 40 48
f 48 47 39
f 40 41 49
f 49 48 40
f 42 43 50
f 43 44 50
f 44 45 50
f 45 46 50
f 46 47 50
f 47 48 50
f 48 49 50
g building_4
f 51 52 72
f 72 71 51
f 52 53 73
f 73 72 52
f 53 54 74
f 74 73 53
f 54 55 75
f 75 74 54
f 55 56 76
f 76 75 55
f 56 57 77
f 77 76 56
f 57 58 78
f 78 77 57
f 58 59 79
f 79 78 58
f 59 60 80
f 80 79 59
f 60 61 81
f 81 80 60
f 61 62 82
f 82 81 61
f 62 63 83
f 83 82 62
f 63 64 84
f 84 83 63
f 64 65 85
f 85 84 64
f 65 66 86
f 86 85 65
f 66 67 87
f 87 86 66
f 67 68 88
f 88 87 67
f 68 69 89
f 89 88 68
f 69 70 90
f 90 89 69
f 71 72 91
f 72 73 91
f 73 74 91
f 74 75 91
f 75 76 91
f 76 77 91
f 77 78 91
f 78 79 91
f 79 80 91
f 80 81 91
f 81 82 91
f 82 83 91
f 83 84 91
f 84 85 91
f 85 86 91
f 86 87 91
f 87 88 91
f 88 89 91
f 89 90 91
g building_5
f 92 93 139
f 139 138 92
f 93 94 140
f 140 139 93
f 94 95 141
f 141 140 94
f 95 96 142
f 142 141 95
f 96 97 143
f 143 142 96
f 97 98 144
f 144 143 97
f 98 99 145
f 145 144 98
f 99 100 146
f 146 145 99
f 100 101 147
f 147 146 100
f 101 102 148
f 148 147 101
f 102 103 149
f 149 148 102
f 103 104 150
f 150 149 103
f 104 105 151
f 151 150 104
f 105 106 152
f 152 151 105
f 106 107 153
f 153 152 106
f 107 108 154
f 154 153 107
f 108 109 155
f 155 154 108
f 109 110 156
f 156 155 109
f 110 111 157
f 157 156 110
f 111 112 158
f 158 157 111
f 112 113 159
f 159 158 112
f 113 114 160
f 160 159 113
f 114 115 161
f 161 160 114
f 115 116 162
f 162 161 115
f 116 117 163
f 163 162 116
f 117 118 164
f 164 163 117
f 118 119 165
f 165 164 118
f 119 120 166
f 166 165 119
f 120 121 167
f 167 166 120
f 121 122 168
f 168 167 121
f 122 123 169
f 169 168 122
f 123 124 170
f 170 169 123
f 124 125 171
f 171 170 124
f 125 126 172
f 172 171 125
f 126 127 173
f 173 172 126
f 127 128 174
f 174 173 127
f 128 129 175
f 175 174 128
f 129 130 176
f 176 175 129
f 130 131 177
f 177 176 130
f 131 132 178
f 178 177 131
f 132 133 179
f 179 178 132
f 133 134 180
f 180 179 133
f 134 135 181
f 181 180 134
f 135 136 182
f 182 181 135
f 136 137 183
f 183 182 136
f 138 139 184
f 139 140 184
f 140 141 184
f 141 142 184
f 142 143 184
f 143 144 184
f 144 145 184
f 145 146 184
f 146 147 184
f 147 148 184
f 148 149 184
f 149 150 184
f 150 151 184
f 151 152 184
f 152 153 184
f 153 154 184
f 154 155 184
f 155 156 184
f 156 157 184
f 157 158 184
f 158 159 184
f 159 160 184
f 160 161 184
f 161 162 184
f 162 163 184
f 163 164 184
f 164 165 184
f 165 166 184
f 166 167 184
f 167 168 184
f 168 169 184
f 169 170 184
f 170 171 184
f 171 172 184
f 172 173 184
f 173 174 184
f 174 175 184
f 175 176 184
f 176 177 184
f 177 178 184
f 178 179 184
f 179 180 184
f 180 181 184
f 181 182 184
f 182 183 184
g building_6
f 185 186 193
f 193 192 185
f 186 187 194
f 194 193 186
f 187 188 195
f 195 194 187
f 188 189 196
f 196 195 188
f 189 190 197
f 197 196 189
f 190 191 198
f 198 197 190
f 192 193 199
f 193 194 199
f 194 195 199
f 195 196 199
f 196 197 199
f 197 198 199
g building_7
f 200 201 229
f 229 228 200
f 201 202 230
f 230 229 201
f 202 203 231
f 231 230 202
f 203 204 232
f 232 231 203
f 204 205 233
f 233 232 204
f 205 206 234
f 234 233 205
f 206 207 235
f 235 234 206
f 207 208 236
f 236 235 207
f 208 209 237
f 237 236 208
f 209 210 238
f 238 237 209
f 210 211 239
f 239 238 210
f 211 212 240
f 240 239 211
f 212 213 241
f 241 240 212
f 213 214 242
f 242 241 213
f 214 215 243
f 243 242 214
f 215 216 244
f 244 243 215
f 216 217 245
f 245 244 216
f 217 218 246
f 246 245 217
f 218 219 247
f 247 246 218
f 219 220 248
f 248 247 219
f 220 221 249
f 249 248 220
f 221 222 250
f 250 249 221
f 222 223 251
f 251 250 222
f 223 224 252
f 252 251 223
f 224 225 253
f 253 252 224
f 225 226 254
f 254 253 225
f 226 227 255
f 255 254 226
f 228 229 256
f 229 230 256
f 230 231 256
f 231 232 256
f 232 233 256
f 233 234 256
f 234 235 256
f 235 236 256
f 236 237 256
f 237 238 256
f 238 239 256
f 239 240 256
f 240 241 256
f 241 242 256
f 242 243 256
f 243 244 256
f 244 245 256
f 245 246 256
f 246 247 256
f 247 248 256
f 248 249 256
f 249 250 256
f 250 251 256
f 251 252 256
f 252 253 256
f 253 254 256
f 254 255 256
g building_8
f 257 258 271
f 271 270 257
f 258 259 272
f 272 271 258
f 259 260 273
f 273 272 259
f 260 261 274
f 274 273 260
f 261 262 275
f 275 274 261
f 262 263 276
f 276 275 262
f 263 264 277
f 277 276 263
f 264 265 278
f 278 277 264
f 265 266 279
f 279 278 265
f 266 267 280
f 280 279 266
f 267 268 281
f 281 280 267
f 268 269 282
f 282 281 268
f 270 271 283
f 271 272 283
f 272 273 283
f 273 274 283
f 274 275 283
f 275 276 283
f 276 277 283
f 277 278 283
f 278 279 283
f 279 280 283
f 280 281 283
f 281 282 283
g building_9
f 284 285 300
f 300 299 284
f 285 286 301
f 301 300 285
f 286 287 302
f 302 301 286
f 287 288 303
f 303 302 287
f 288 289 304
f 304 303 288
f 289 290 305
f 305 304 289
f 290 291 306
f 306 305 290
f 291 292 307
f 307 306 291
f 292 293 308
f 308 307 292
f 293 294 309
f 309 308 293
f 294 295 310
f 310 309 294
f 295 296 311
f 311 310 295
f 296 297 312
f 312 311 296
f 297 298 313
f 313 312 297
f 299 300 314
f 300 301 314
f 301 302 314
f 302 303 314
f 303 304 314
f 304 305 314
f 305 306 314
f 306 307 314
f 307 308 314
f 308 309 314
f 309 310 314
f 310 311 314
f 311 312 314
f 312 313 314
g barda_10
f 315 316 321
f 321 320 315
f 316 317 322
f 322 321 316
f 317 318 323
f 323 322 317
f 318 319 324
f 324 323 318
g barda_11
f 325 326 331
f 331 330 325
f 326 327 332
f 332 331 326
f 327 328 333
f 333 332 327
f 328 329 334
f 334 333 328
g barda_12
f 335 336 344
f 344 343 335
f 336 337 345
f 345 344 336
f 337 338 346
f 346 345 337
f 338 339 347
f 347 346 338
f 339 340 348
f 348 347 339
f 340 341 349
f 349 348 340
f 341 342 350
f 350 349 341
g barda_13
f 351 352 372
f 372 371 351
f 352 353 373
f 373 372 352
f 353 354 374
f 374 373 353
f 354 355 375
f 375 374 354
f 355 356 376
f 376 375 355
f 356 357 377
f 377 376 356
f 357 358 378
f 378 377 357
f 358 359 379
f 379 378 358
f 359 360 380
f 380 379 359
f 360 361 381
f 381 380 360
f 361 362 382
f 382 381 361
f 362 363 383
f 383 382 362
f 363 364 384
f 384 383 363
f 364 365 385
f 385 384 364
f 365 366 386
f 386 385 365
f 366 367 387
f 387 386 366
f 367 368 388
f 388 387 367
f 368 369 389
f 389 388 368
f 369 370 390
f 390 389 369
g barda_14
f 391 392 399
f 399 398 391
f 392 393 400
f 400 399 392
f 393 394 401
f 401 400 393
f 394 395 402
f 402 401 394
f 395 396 403
f 403 402 395
f 396 397 404
f 404 403 396
g barda_15
f 405 406 434
f 434 433 405
f 406 407 435
f 435 434 406
f 407 408 436
f 436 435 407
f 408 409 437
f 437 436 408
f 409 410 438
f 438 437 409
f 410 411 439
f 439 438 410
f 411 412 440
f 440 439 411
f 412 413 441
f 441 440 412
f 413 414 442
f 442 441 413
f 414 415 443
f 443 442 414
f 415 416 444
f 444 443 415
f 416 417 445
f 445 444 416
f 417 418 446
f 446 445 417
f 418 419 447
f 447 446 418
f 419 420 448
f 448 447 419
f 420 421 449
f 449 448 420
f 421 422 450
f 450 449 421
f 422 423 451
f 451 450 422
f 423 424 452
f 452 451 423
f 424 425 453
f 453 452 424
f 425 426 454
f 454 453 425
f 426 427 455
f 455 454 426
f 427 428 456
f 456 455 427
f 428 429 457
f 457 456 428
f 429 430 458
f 458 457 429
f 430 431 459
f 459 458 430
f 431 432 460
f 460 459 431
g barda_16
f 461 462 475
f 475 474 461
f 462 463 476
f 476 475 462
f 463 464 477
f 477 476 463
f 464 465 478
f 478 477 464
f 465 466 479
f 479 478 465
f 466 467 480
f 480 479 466
f 467 468 481
f 481 480 467
f 468 469 482
f 482 481 468
f 469 470 483
f 483 482 469
f 470 471 484
f 484 483 470
f 471 472 485
f 485 484 471
f 472 473 486
f 486 485 472
g barda_17
f 487 488 503
f 503 502 487
f 488 489 504
f 504 503 488
f 489 490 505
f 505 504 489
f 490 491 506
f 506 505 490
f 491 492 507
f 507 506 491
f 492 493 508
f 508 507 492
f 493 494 509
f 509 508 493
f 494 495 510
f 510 509 494
f 495 496 511
f 511 510 495
f 496 497 512
f 512 511 496
f 497 498 513
f 513 512 497
f 498 499 514
f 514 513 498
f 499 500 515
f 515 514 499
f 500 501 516
f 516 515 500
