# Buildings and bardas mesh for tecate_core_z14_x2885_y6623
v 2790.935 4.462 251.375
v 2812.431 4.462 251.071
v 2811.240 4.462 278.796
v 2789.444 4.462 278.545
v 2790.935 4.462 251.375
v 2790.935 7.962 251.375
v 2812.431 7.962 251.071
v 2811.240 7.962 278.796
v 2789.444 7.962 278.545
v 2790.935 7.962 251.375
v 2798.997 7.962 262.232
v 4246.761 8.550 268.203
v 4263.481 8.550 255.668
v 4269.158 8.550 263.276
v 4252.438 8.550 276.260
v 4246.761 8.550 268.203
v 4246.761 12.050 268.203
v 4263.481 12.050 255.668
v 4269.158 12.050 263.276
v 4252.438 12.050 276.260
v 4246.761 12.050 268.203
v 4255.720 12.050 266.322
v 4262.590 8.580 289.997
v 4268.256 8.580 298.952
v 4287.971 8.580 285.664
v 4281.693 8.580 276.418
v 4262.590 8.580 289.997
v 4262.590 12.080 289.997
v 4268.256 12.080 298.952
v 4287.971 12.080 285.664
v 4281.693 12.080 276.418
v 4262.590 12.080 289.997
v 4272.620 12.080 288.206
v 4224.074 8.466 283.736
v 4230.942 8.466 278.651
v 4236.909 8.466 287.606
v 4229.450 8.466 292.387
v 4224.074 8.466 283.736
v 4224.074 11.966 283.736
v 4230.942 11.966 278.651
v 4236.909 11.966 287.606
v 4229.450 11.966 292.387
v 4224.074 11.966 283.736
v 4229.090 11.966 285.223
v 4246.738 8.522 290.776
v 4253.907 8.522 285.545
v 4259.885 8.522 293.008
v 4253.017 8.522 297.790
v 4246.738 8.522 290.776
v 4246.738 12.022 290.776
v 4253.907 12.022 285.545
v 4259.885 12.022 293.008
v 4253.017 12.022 297.790
v 4246.738 12.022 290.776
v 4252.057 12.022 291.579
v 4235.395 8.489 300.775
v 4245.848 8.489 293.312
v 4251.525 8.489 299.137
v 4240.772 8.489 307.194
v 4235.395 8.489 300.775
v 4235.395 11.989 300.775
v 4245.848 11.989 293.312
v 4251.525 11.989 299.137
v 4240.772 11.989 307.194
v 4235.395 11.989 300.775
v 4241.787 11.989 300.239
v 4241.206 8.502 308.489
v 4245.692 8.502 314.763
v 4259.418 8.502 305.213
v 4254.642 8.502 298.490
v 4241.206 8.502 308.489
v 4241.206 12.002 308.489
v 4245.692 12.002 314.763
v 4259.418 12.002 305.213
v 4254.642 12.002 298.490
v 4241.206 12.002 308.489
v 4248.433 12.002 307.089
v 4250.768 8.526 313.270
v 4260.319 8.526 327.007
v 4272.565 8.526 318.052
v 4263.904 8.526 303.866
v 4250.768 8.526 313.270
v 4250.768 12.026 313.270
v 4260.319 12.026 327.007
v 4272.565 12.026 318.052
v 4263.904 12.026 303.866
v 4250.768 12.026 313.270
v 4259.665 12.026 315.093
v 4261.811 8.537 327.601
v 4266.286 8.537 334.774
v 4276.438 8.537 327.601
v 4271.963 8.537 320.588
v 4261.811 8.537 327.601
v 4261.811 12.037 327.601
v 4266.286 12.037 334.774
v 4276.438 12.037 327.601
v 4271.963 12.037 320.588
v 4261.811 12.037 327.601
v 4267.662 12.037 327.633
v 4263.603 8.544 340.585
v 4267.488 8.544 346.410
v 4277.095 8.544 339.410
v 4285.099 8.544 333.572
v 4281.214 8.544 328.790
v 4263.603 8.544 340.585
v 4263.603 12.044 340.585
v 4267.488 12.044 346.410
v 4277.095 12.044 339.410
v 4285.099 12.044 333.572
v 4281.214 12.044 328.790
v 4263.603 12.044 340.585
v 4273.017 12.044 338.225
v 3746.903 7.307 951.105
v 3758.647 7.307 956.982
v 3754.717 7.307 964.841
v 3742.973 7.307 958.950
v 3744.999 7.307 954.895
v 3746.903 7.307 951.105
v 3746.903 10.807 951.105
v 3758.647 10.807 956.982
v 3754.717 10.807 964.841
v 3742.973 10.807 958.950
v 3744.999 10.807 954.895
v 3746.903 10.807 951.105
v 3749.190 10.807 956.313
v 2789.901 4.462 249.982
v 2813.765 4.462 249.963
v 2812.271 4.462 280.191
v 2788.567 4.462 280.042
v 2789.901 4.462 249.982
v 2789.901 6.462 249.982
v 2813.765 6.462 249.963
v 2812.271 6.462 280.191
v 2788.567 6.462 280.042
v 2789.901 6.462 249.982
v 4244.920 8.550 268.589
v 4264.588 8.550 254.148
v 4270.992 8.550 262.860
v 4251.848 8.550 278.046
v 4244.920 8.550 268.589
v 4244.920 10.680 268.589
v 4264.588 10.680 254.148
v 4270.992 10.680 262.860
v 4251.848 10.680 278.046
v 4244.920 10.680 268.589
v 4260.293 8.580 290.407
v 4267.378 8.580 301.114
v 4290.273 8.580 285.283
v 4283.116 8.580 274.569
v 4260.293 8.580 290.407
v 4260.293 10.977 290.407
v 4267.378 10.977 301.114
v 4290.273 10.977 285.283
v 4283.116 10.977 274.569
v 4260.293 10.977 290.407
v 4222.501 8.466 283.269
v 4231.387 8.466 277.071
v 4238.478 8.466 288.084
v 4229.533 8.466 294.026
v 4222.501 8.466 283.269
v 4222.501 10.587 283.269
v 4231.387 10.587 277.071
v 4238.478 10.587 288.084
v 4229.533 10.587 294.026
v 4222.501 10.587 283.269
v 4244.507 8.522 290.439
v 4254.569 8.522 283.388
v 4262.105 8.522 293.414
v 4253.361 8.522 300.020
v 4244.507 8.522 290.439
v 4244.507 10.831 290.439
v 4254.569 10.831 283.388
v 4262.105 10.831 293.414
v 4253.361 10.831 300.020
v 4244.507 10.831 290.439
v 4233.210 8.489 300.958
v 4246.957 8.489 291.420
v 4253.704 8.489 298.891
v 4240.455 8.489 309.364
v 4233.210 8.489 300.958
v 4233.210 10.939 300.958
v 4246.957 10.939 291.420
v 4253.704 10.939 298.891
v 4240.455 10.939 309.364
v 4233.210 10.939 300.958
v 4239.257 8.502 308.866
v 4245.024 8.502 316.632
v 4261.374 8.502 304.879
v 4255.804 8.502 296.881
v 4239.257 8.502 308.866
v 4239.257 10.549 308.866
v 4245.024 10.549 316.632
v 4261.374 10.549 304.879
v 4255.804 10.549 296.881
v 4239.257 10.549 308.866
v 4248.515 8.526 312.809
v 4260.446 8.526 329.304
v 4274.806 8.526 318.566
v 4264.716 8.526 301.714
v 4248.515 8.526 312.809
v 4248.515 10.968 312.809
v 4260.446 10.968 329.304
v 4274.806 10.968 318.566
v 4264.716 10.968 301.714
v 4248.515 10.968 312.809
v 4260.298 8.537 327.593
v 4266.000 8.537 336.259
v 4277.951 8.537 327.596
v 4272.752 8.537 319.296
v 4260.298 8.537 327.593
v 4260.298 10.773 327.593
v 4266.000 10.773 336.259
v 4277.951 10.773 327.596
v 4272.752 10.773 319.296
v 4260.298 10.773 327.593
v 4262.027 8.544 340.980
v 4266.579 8.544 347.757
v 4278.656 8.544 339.863
v 4286.615 8.544 332.988
v 4282.280 8.544 327.564
v 4262.027 8.544 340.980
v 4262.027 10.708 340.980
v 4266.579 10.708 347.757
v 4278.656 10.708 339.863
v 4286.615 10.708 332.988
v 4282.280 10.708 327.564
v 4262.027 10.708 340.980
v 3745.926 7.307 948.882
v 3761.069 7.307 957.154
v 3756.038 7.307 966.878
v 3740.738 7.307 959.898
v 3742.699 7.307 954.117
v 3745.926 7.307 948.882
v 3745.926 9.621 948.882
v 3761.069 9.621 957.154
v 3756.038 9.621 966.878
v 3740.738 9.621 959.898
v 3742.699 9.621 954.117
v 3745.926 9.621 948.882
g building_0
f 1 2 7
f 7 6 1
f 2 3 8
f 8 7 2
f 3 4 9
f 9 8 3
f 4 5 10
f 10 9 4
f 6 7 11
f 7 8 11
f 8 9 11
f 9 10 11
g building_1
f 12 13 18
f 18 17 12
f 13 14 19
f 19 18 13
f 14 15 20
f 20 19 14
f 15 16 21
f 21 20 15
f 17 18 22
f 18 19 22
f 19 20 22
f 20 21 22
g building_2
f 23 24 29
f 29 28 23
f 24 25 30
f 30 29 24
f 25 26 31
f 31 30 25
f 26 27 32
f 32 31 26
f 28 29 33
f 29 30 33
f 30 31 33
f 31 32 33
g building_3
f 34 35 40
f 40 39 34
f 35 36 41
f 41 40 35
f 36 37 42
f 42 41 36
f 37 38 43
f 43 42 37
f 39 40 44
f 40 41 44
f 41 42 44
f 42 43 44
g building_4
f 45 46 51
f 51 50 45
f 46 47 52
f 52 51 46
f 47 48 53
f 53 52 47
f 48 49 54
f 54 53 48
f 50 51 55
f 51 52 55
f 52 53 55
f 53 54 55
g building_5
f 56 57 62
f 62 61 56
f 57 58 63
f 63 62 57
f 58 59 64
f 64 63 58
f 59 60 65
f 65 64 59
f 61 62 66
f 62 63 66
f 63 64 66
f 64 65 66
g building_6
f 67 68 73
f 73 72 67
f 68 69 74
f 74 73 68
f 69 70 75
f 75 74 69
f 70 71 76
f 76 75 70
f 72 73 77
f 73 74 77
f 74 75 77
f 75 76 77
g building_7
f 78 79 84
f 84 83 78
f 79 80 85
f 85 84 79
f 80 81 86
f 86 85 80
f 81 82 87
f 87 86 81
f 83 84 88
f 84 85 88
f 85 86 88
f 86 87 88
g building_8
f 89 90 95
f 95 94 89
f 90 91 96
f 96 95 90
f 91 92 97
f 97 96 91
f 92 93 98
f 98 97 92
f 94 95 99
f 95 96 99
f 96 97 99
f 97 98 99
g building_9
f 100 101 107
f 107 106 100
f 101 102 108
f 108 107 101
f 102 103 109
f 109 108 102
f 103 104 110
f 110 109 103
f 104 105 111
f 111 110 104
f 106 107 112
f 107 108 112
f 108 109 112
f 109 110 112
f 110 111 112
g building_10
f 113 114 120
f 120 119 113
f 114 115 121
f 121 120 114
f 115 116 122
f 122 121 115
f 116 117 123
f 123 122 116
f 117 118 124
f 124 123 117
f 119 120 125
f 120 121 125
f 121 122 125
f 122 123 125
f 123 124 125
g barda_11
f 126 127 132
f 132 131 126
f 127 128 133
f 133 132 127
f 128 129 134
f 134 133 128
f 129 130 135
f 135 134 129
g barda_12
f 136 137 142
f 142 141 136
f 137 138 143
f 143 142 137
f 138 139 144
f 144 143 138
f 139 140 145
f 145 144 139
g barda_13
f 146 147 152
f 152 151 146
f 147 148 153
f 153 152 147
f 148 149 154
f 154 153 148
f 149 150 155
f 155 154 149
g barda_14
f 156 157 162
f 162 161 156
f 157 158 163
f 163 162 157
f 158 159 164
f 164 163 158
f 159 160 165
f 165 164 159
g barda_15
f 166 167 172
f 172 171 166
f 167 168 173
f 173 172 167
f 168 169 174
f 174 173 168
f 169 170 175
f 175 174 169
g barda_16
f 176 177 182
f 182 181 176
f 177 178 183
f 183 182 177
f 178 179 184
f 184 183 178
f 179 180 185
f 185 184 179
g barda_17
f 186 187 192
f 192 191 186
f 187 188 193
f 193 192 187
f 188 189 194
f 194 193 188
f 189 190 195
f 195 194 189
g barda_18
f 196 197 202
f 202 201 196
f 197 198 203
f 203 202 197
f 198 199 204
f 204 203 198
f 199 200 205
f 205 204 199
g barda_19
f 206 207 212
f 212 211 206
f 207 208 213
f 213 212 207
f 208 209 214
f 214 213 208
f 209 210 215
f 215 214 209
g barda_20
f 216 217 223
f 223 222 216
f 217 218 224
f 224 223 217
f 218 219 225
f 225 224 218
f 219 220 226
f 226 225 219
f 220 221 227
f 227 226 220
g barda_21
f 228 229 235
f 235 234 228
f 229 230 236
f 236 235 229
f 230 231 237
f 237 236 230
f 231 232 238
f 238 237 231
f 232 233 239
f 239 238 232
