# Buildings and bardas mesh for tecate_core_z14_x2886_y6622
v 4279.355 8.708 -398.174
v 4265.819 8.708 -315.947
v 4375.145 8.708 -297.943
v 4390.352 8.708 -390.354
v 4319.541 8.708 -402.005
v 4317.872 8.708 -391.834
v 4279.355 8.708 -398.174
v 4279.355 12.208 -398.174
v 4265.819 12.208 -315.947
v 4375.145 12.208 -297.943
v 4390.352 12.208 -390.354
v 4319.541 12.208 -402.005
v 4317.872 12.208 -391.834
v 4279.355 12.208 -398.174
v 4318.205 12.208 -370.633
v 4279.355 12.808 -398.174
v 4265.819 12.808 -315.947
v 4375.145 12.808 -297.943
v 4390.352 12.808 -390.354
v 4319.541 12.808 -402.005
v 4317.872 12.808 -391.834
v 4279.355 12.808 -398.174
v 4277.752 8.816 -274.509
v 4258.984 8.816 -171.412
v 4264.739 8.816 -170.369
v 4339.011 8.816 -156.843
v 4339.790 8.816 -161.096
v 4361.809 8.816 -157.081
v 4362.733 8.816 -162.127
v 4443.930 8.816 -147.332
v 4461.017 8.816 -241.130
v 4277.752 8.816 -274.509
v 4277.752 12.316 -274.509
v 4258.984 12.316 -171.412
v 4264.739 12.316 -170.369
v 4339.011 12.316 -156.843
v 4339.790 12.316 -161.096
v 4361.809 12.316 -157.081
v 4362.733 12.316 -162.127
v 4443.930 12.316 -147.332
v 4461.017 12.316 -241.130
v 4277.752 12.316 -274.509
v 4338.752 12.316 -191.641
v 4277.752 12.916 -274.509
v 4258.984 12.916 -171.412
v 4264.739 12.916 -170.369
v 4339.011 12.916 -156.843
v 4339.790 12.916 -161.096
v 4361.809 12.916 -157.081
v 4362.733 12.916 -162.127
v 4443.930 12.916 -147.332
v 4461.017 12.916 -241.130
v 4277.752 12.916 -274.509
v 4483.070 9.257 128.786
v 4478.583 9.257 136.552
v 4503.664 9.257 149.682
v 4508.150 9.257 142.074
v 4483.070 9.257 128.786
v 4483.070 12.757 128.786
v 4478.583 12.757 136.552
v 4503.664 12.757 149.682
v 4508.150 12.757 142.074
v 4483.070 12.757 128.786
v 4491.307 12.757 137.176
v 4488.747 9.244 152.522
v 4496.806 9.244 156.709
v 4486.354 9.244 175.808
v 4478.294 9.244 171.331
v 4488.747 9.244 152.522
v 4488.747 12.744 152.522
v 4496.806 12.744 156.709
v 4486.354 12.744 175.808
v 4478.294 12.744 171.331
v 4488.747 12.744 152.522
v 4487.790 12.744 161.778
v 4442.906 9.112 122.366
v 4449.473 9.112 124.902
v 4440.523 9.112 147.291
v 4437.529 9.112 145.798
v 4434.545 9.112 144.306
v 4442.906 9.112 122.366
v 4442.906 12.612 122.366
v 4449.473 12.612 124.902
v 4440.523 12.612 147.291
v 4437.529 12.612 145.798
v 4434.545 12.612 144.306
v 4442.906 12.612 122.366
v 4441.314 12.612 134.505
v 4442.906 13.212 122.366
v 4449.473 13.212 124.902
v 4440.523 13.212 147.291
v 4437.529 13.212 145.798
v 4434.545 13.212 144.306
v 4442.906 13.212 122.366
v 4433.354 9.100 147.595
v 4452.167 9.100 154.609
v 4446.190 9.100 169.983
v 4427.377 9.100 162.521
v 4433.354 9.100 147.595
v 4433.354 12.600 147.595
v 4452.167 12.600 154.609
v 4446.190 12.600 169.983
v 4427.377 12.600 162.521
v 4433.354 12.600 147.595
v 4438.488 12.600 156.460
v 4433.354 13.200 147.595
v 4452.167 13.200 154.609
v 4446.190 13.200 169.983
v 4427.377 13.200 162.521
v 4433.354 13.200 147.595
v 4426.787 9.068 176.403
v 4422.011 9.068 188.343
v 4430.070 9.068 191.778
v 4434.846 9.068 179.692
v 4426.787 9.068 176.403
v 4426.787 12.568 176.403
v 4422.011 12.568 188.343
v 4430.070 12.568 191.778
v 4434.846 12.568 179.692
v 4426.787 12.568 176.403
v 4428.100 12.568 182.524
v 4426.787 13.168 176.403
v 4422.011 13.168 188.343
v 4430.070 13.168 191.778
v 4434.846 13.168 179.692
v 4426.787 13.168 176.403
v 4360.529 8.922 166.179
v 4371.806 8.922 150.012
v 4395.884 8.922 166.562
v 4385.353 8.922 183.113
v 4360.529 8.922 166.179
v 4360.529 12.422 166.179
v 4371.806 12.422 150.012
v 4395.884 12.422 166.562
v 4385.353 12.422 183.113
v 4360.529 12.422 166.179
v 4374.820 12.422 166.409
v 4360.529 13.022 166.179
v 4371.806 13.022 150.012
v 4395.884 13.022 166.562
v 4385.353 13.022 183.113
v 4360.529 13.022 166.179
v 4434.267 9.108 96.675
v 4429.781 9.108 107.427
v 4444.420 9.108 114.441
v 4448.895 9.108 103.993
v 4434.267 9.108 96.675
v 4434.267 12.608 96.675
v 4429.781 12.608 107.427
v 4444.420 12.608 114.441
v 4448.895 12.608 103.993
v 4434.267 12.608 96.675
v 4438.326 12.608 103.842
v 4488.602 9.260 68.171
v 4485.619 9.260 74.432
v 4492.788 9.260 78.024
v 4495.471 9.260 71.446
v 4488.602 9.260 68.171
v 4488.602 12.760 68.171
v 4485.619 12.760 74.432
v 4492.788 12.760 78.024
v 4495.471 12.760 71.446
v 4488.602 12.760 68.171
v 4490.216 12.760 72.049
v 4488.602 13.360 68.171
v 4485.619 13.360 74.432
v 4492.788 13.360 78.024
v 4495.471 13.360 71.446
v 4488.602 13.360 68.171
v 4498.198 9.292 81.287
v 4496.918 9.292 83.731
v 4504.721 9.292 87.812
v 4508.506 9.292 80.561
v 4503.352 9.292 77.879
v 4500.847 9.292 82.674
v 4498.198 9.292 81.287
v 4498.198 12.792 81.287
v 4496.918 12.792 83.731
v 4504.721 12.792 87.812
v 4508.506 12.792 80.561
v 4503.352 12.792 77.879
v 4500.847 12.792 82.674
v 4498.198 12.792 81.287
v 4501.534 12.792 82.176
v 4498.198 13.392 81.287
v 4496.918 13.392 83.731
v 4504.721 13.392 87.812
v 4508.506 13.392 80.561
v 4503.352 13.392 77.879
v 4500.847 13.392 82.674
v 4498.198 13.392 81.287
v 4243.900 8.731 -85.250
v 4240.582 8.731 -71.262
v 4345.323 8.731 -13.209
v 4356.700 8.731 -55.147
v 4333.000 8.731 -61.316
v 4332.054 8.731 -56.336
v 4319.731 8.731 -59.651
v 4321.623 8.731 -67.233
v 4243.900 8.731 -85.250
v 4243.900 12.231 -85.250
v 4240.582 12.231 -71.262
v 4345.323 12.231 -13.209
v 4356.700 12.231 -55.147
v 4333.000 12.231 -61.316
v 4332.054 12.231 -56.336
v 4319.731 12.231 -59.651
v 4321.623 12.231 -67.233
v 4243.900 12.231 -85.250
v 4304.090 12.231 -61.628
v 4243.900 12.831 -85.250
v 4240.582 12.831 -71.262
v 4345.323 12.831 -13.209
v 4356.700 12.831 -55.147
v 4333.000 12.831 -61.316
v 4332.054 12.831 -56.336
v 4319.731 12.831 -59.651
v 4321.623 12.831 -67.233
v 4243.900 12.831 -85.250
v 4347.783 8.921 -20.487
v 4400.203 8.921 9.590
v 4413.339 8.921 -40.881
v 4364.069 8.921 -53.113
v 4362.577 8.921 -49.084
v 4356.043 8.921 -50.999
v 4347.783 8.921 -20.487
v 4347.783 12.421 -20.487
v 4400.203 12.421 9.590
v 4413.339 12.421 -40.881
v 4364.069 12.421 -53.113
v 4362.577 12.421 -49.084
v 4356.043 12.421 -50.999
v 4347.783 12.421 -20.487
v 4370.257 12.421 -32.209
v 4347.783 13.021 -20.487
v 4400.203 13.021 9.590
v 4413.339 13.021 -40.881
v 4364.069 13.021 -53.113
v 4362.577 13.021 -49.084
v 4356.043 13.021 -50.999
v 4347.783 13.021 -20.487
v 4401.172 9.047 10.276
v 4404.745 9.047 13.856
v 4412.081 9.047 15.256
v 4417.914 9.047 12.350
v 4422.044 9.047 -4.491
v 4424.115 9.047 -4.015
v 4432.019 9.047 -37.117
v 4414.341 9.047 -41.449
v 4401.172 9.047 10.276
v 4401.172 12.547 10.276
v 4404.745 12.547 13.856
v 4412.081 12.547 15.256
v 4417.914 12.547 12.350
v 4422.044 12.547 -4.491
v 4424.115 12.547 -4.015
v 4432.019 12.547 -37.117
v 4414.341 12.547 -41.449
v 4401.172 12.547 10.276
v 4414.400 12.547 -2.784
v 4401.172 13.147 10.276
v 4404.745 13.147 13.856
v 4412.081 13.147 15.256
v 4417.914 13.147 12.350
v 4422.044 13.147 -4.491
v 4424.115 13.147 -4.015
v 4432.019 13.147 -37.117
v 4414.341 13.147 -41.449
v 4401.172 13.147 10.276
v 4450.453 9.193 -33.551
v 4446.690 9.193 -18.691
v 4487.322 9.193 -9.563
v 4493.523 9.193 -23.578
v 4450.453 9.193 -33.551
v 4450.453 12.693 -33.551
v 4446.690 12.693 -18.691
v 4487.322 12.693 -9.563
v 4493.523 12.693 -23.578
v 4450.453 12.693 -33.551
v 4465.688 12.693 -23.787
v 4450.453 13.293 -33.551
v 4446.690 13.293 -18.691
v 4487.322 13.293 -9.563
v 4493.523 13.293 -23.578
v 4450.453 13.293 -33.551
v 4538.841 9.406 6.776
v 4536.158 9.406 23.499
v 4543.917 9.406 26.035
v 4546.611 9.406 7.674
v 4538.841 9.406 6.776
v 4538.841 12.906 6.776
v 4536.158 12.906 23.499
v 4543.917 12.906 26.035
v 4546.611 12.906 7.674
v 4538.841 12.906 6.776
v 4540.873 12.906 14.152
v 4536.314 9.372 10.911
v 4534.054 9.372 25.110
v 4520.328 9.372 24.159
v 4518.636 9.372 19.364
v 4523.712 9.372 15.137
v 4529.913 9.372 15.230
v 4531.794 9.372 10.527
v 4536.314 9.372 10.911
v 4536.314 12.872 10.911
v 4534.054 12.872 25.110
v 4520.328 12.872 24.159
v 4518.636 12.872 19.364
v 4523.712 12.872 15.137
v 4529.913 12.872 15.230
v 4531.794 12.872 10.527
v 4536.314 12.872 10.911
v 4528.883 12.872 16.419
v 4548.347 9.433 10.620
v 4558.132 9.433 13.156
v 4553.802 9.433 31.411
v 4543.839 9.433 28.307
v 4548.347 9.433 10.620
v 4548.347 12.933 10.620
v 4558.132 12.933 13.156
v 4553.802 12.933 31.411
v 4543.839 12.933 28.307
v 4548.347 12.933 10.620
v 4550.494 12.933 18.823
v 4560.014 9.463 8.084
v 4568.852 9.463 10.620
v 4562.084 9.463 33.194
v 4553.802 9.463 31.411
v 4560.014 9.463 8.084
v 4560.014 12.963 8.084
v 4568.852 12.963 10.620
v 4562.084 12.963 33.194
v 4553.802 12.963 31.411
v 4560.014 12.963 8.084
v 4560.953 12.963 18.278
v 4562.084 9.483 33.194
v 4568.852 9.483 10.620
v 4577.313 9.483 12.509
v 4569.988 9.483 35.637
v 4562.084 9.483 33.194
v 4562.084 12.983 33.194
v 4568.852 12.983 10.620
v 4577.313 12.983 12.509
v 4569.988 12.983 35.637
v 4562.084 12.983 33.194
v 4568.064 12.983 25.031
v 4577.313 9.509 12.509
v 4584.281 9.509 14.754
v 4577.135 9.509 36.866
v 4569.988 9.509 35.637
v 4577.313 9.509 12.509
v 4577.313 13.009 12.509
v 4584.281 13.009 14.754
v 4577.135 13.009 36.866
v 4569.988 13.009 35.637
v 4577.313 13.009 12.509
v 4577.206 13.009 22.455
v 4577.135 9.524 36.866
v 4582.767 9.524 38.174
v 4590.293 9.524 16.551
v 4584.281 9.524 14.754
v 4577.135 9.524 36.866
v 4577.135 13.024 36.866
v 4582.767 13.024 38.174
v 4590.293 13.024 16.551
v 4584.281 13.024 14.754
v 4577.135 13.024 36.866
v 4582.322 13.024 28.642
v 4590.293 9.548 16.551
v 4599.142 9.548 19.272
v 4592.742 9.548 40.062
v 4582.767 9.548 38.174
v 4590.293 9.548 16.551
v 4590.293 13.048 16.551
v 4599.142 13.048 19.272
v 4592.742 13.048 40.062
v 4582.767 13.048 38.174
v 4590.293 13.048 16.551
v 4591.047 13.048 26.122
v 4613.792 9.420 -425.980
v 4589.447 9.420 -435.147
v 4566.036 9.420 -372.984
v 4574.864 9.420 -369.669
v 4567.940 9.420 -351.295
v 4559.312 9.420 -354.544
v 4546.533 9.420 -320.610
v 4551.932 9.420 -318.575
v 4547.134 9.420 -305.815
v 4554.092 9.420 -303.200
v 4544.752 9.420 -278.419
v 4537.627 9.420 -281.101
v 4520.874 9.420 -236.612
v 4528.844 9.420 -233.601
v 4516.488 9.420 -200.803
v 4506.992 9.420 -204.369
v 4480.643 9.420 -134.401
v 4484.405 9.420 -132.987
v 4478.884 9.420 -118.325
v 4474.042 9.420 -120.148
v 4468.231 9.420 -104.720
v 4522.488 9.420 -84.286
v 4653.800 9.420 -433.020
v 4621.084 9.420 -445.332
v 4613.792 9.420 -425.980
v 4613.792 12.920 -425.980
v 4589.447 12.920 -435.147
v 4566.036 12.920 -372.984
v 4574.864 12.920 -369.669
v 4567.940 12.920 -351.295
v 4559.312 12.920 -354.544
v 4546.533 12.920 -320.610
v 4551.932 12.920 -318.575
v 4547.134 12.920 -305.815
v 4554.092 12.920 -303.200
v 4544.752 12.920 -278.419
v 4537.627 12.920 -281.101
v 4520.874 12.920 -236.612
v 4528.844 12.920 -233.601
v 4516.488 12.920 -200.803
v 4506.992 12.920 -204.369
v 4480.643 12.920 -134.401
v 4484.405 12.920 -132.987
v 4478.884 12.920 -118.325
v 4474.042 12.920 -120.148
v 4468.231 12.920 -104.720
v 4522.488 12.920 -84.286
v 4653.800 12.920 -433.020
v 4621.084 12.920 -445.332
v 4613.792 12.920 -425.980
v 4544.961 12.920 -279.677
v 4613.792 13.520 -425.980
v 4589.447 13.520 -435.147
v 4566.036 13.520 -372.984
v 4574.864 13.520 -369.669
v 4567.940 13.520 -351.295
v 4559.312 13.520 -354.544
v 4546.533 13.520 -320.610
v 4551.932 13.520 -318.575
v 4547.134 13.520 -305.815
v 4554.092 13.520 -303.200
v 4544.752 13.520 -278.419
v 4537.627 13.520 -281.101
v 4520.874 13.520 -236.612
v 4528.844 13.520 -233.601
v 4516.488 13.520 -200.803
v 4506.992 13.520 -204.369
v 4480.643 13.520 -134.401
v 4484.405 13.520 -132.987
v 4478.884 13.520 -118.325
v 4474.042 13.520 -120.148
v 4468.231 13.520 -104.720
v 4522.488 13.520 -84.286
v 4653.800 13.520 -433.020
v 4621.084 13.520 -445.332
v 4613.792 13.520 -425.980
v 4433.412 9.108 95.166
v 4428.182 9.108 108.098
v 4445.284 9.108 115.945
v 4450.629 9.108 104.018
v 4433.412 9.108 95.166
v 4433.412 11.108 95.166
v 4428.182 11.108 108.098
v 4445.284 11.108 115.945
v 4450.629 11.108 104.018
v 4433.412 11.108 95.166
v 4538.341 9.406 4.963
v 4535.311 9.406 25.178
v 4544.384 9.406 27.857
v 4547.858 9.406 6.266
v 4538.341 9.406 4.963
v 4538.341 11.536 4.963
v 4535.311 11.536 25.178
v 4544.384 11.536 27.857
v 4547.858 11.536 6.266
v 4538.341 11.536 4.963
v 4538.188 9.372 9.521
v 4535.247 9.372 27.116
v 4518.598 9.372 25.725
v 4516.393 9.372 20.009
v 4521.447 9.372 14.576
v 4531.441 9.372 13.466
v 4532.828 9.372 8.435
v 4538.188 9.372 9.521
v 4538.188 11.769 9.521
v 4535.247 11.769 27.116
v 4518.598 11.769 25.725
v 4516.393 11.769 20.009
v 4521.447 11.769 14.576
v 4531.441 11.769 13.466
v 4532.828 11.769 8.435
v 4538.188 11.769 9.521
v 4547.932 9.433 9.033
v 4559.450 9.433 12.178
v 4554.219 9.433 32.998
v 4542.897 9.433 29.650
v 4547.932 9.433 9.033
v 4547.932 11.554 9.033
v 4559.450 11.554 12.178
v 4554.219 11.554 32.998
v 4542.897 11.554 29.650
v 4547.932 11.554 9.033
v 4559.807 9.463 5.837
v 4570.473 9.463 9.049
v 4562.255 9.463 35.444
v 4552.723 9.463 33.393
v 4559.807 9.463 5.837
v 4559.807 11.772 5.837
v 4570.473 11.772 9.049
v 4562.255 11.772 35.444
v 4552.723 11.772 33.393
v 4559.807 11.772 5.837
v 4560.788 9.483 34.963
v 4568.972 9.483 8.430
v 4578.615 9.483 10.745
v 4570.379 9.483 37.795
v 4560.788 9.483 34.963
v 4560.788 11.933 34.963
v 4568.972 11.933 8.430
v 4578.615 11.933 10.745
v 4570.379 11.933 37.795
v 4560.788 11.933 34.963
v 4577.334 9.509 10.524
v 4585.624 9.509 13.293
v 4577.125 9.509 38.851
v 4569.035 9.509 37.378
v 4577.334 9.509 10.524
v 4577.334 11.556 10.524
v 4585.624 11.556 13.293
v 4577.125 11.556 38.851
v 4569.035 11.556 37.378
v 4577.334 11.556 10.524
v 4575.908 9.524 38.811
v 4582.875 9.524 40.471
v 4591.558 9.524 14.630
v 4584.603 9.524 12.477
v 4575.908 9.524 38.811
v 4575.908 11.966 38.811
v 4582.875 11.966 40.471
v 4591.558 11.966 14.630
v 4584.603 11.966 12.477
v 4575.908 11.966 38.811
v 4590.174 9.548 15.043
v 4600.297 9.548 18.294
v 4592.924 9.548 41.564
v 4581.911 9.548 39.420
v 4590.174 9.548 15.043
v 4590.174 11.783 15.043
v 4600.297 11.783 18.294
v 4592.924 11.783 41.564
v 4581.911 11.783 39.420
v 4590.174 11.783 15.043
g building_0
f 1 2 9
f 9 8 1
f 2 3 10
f 10 9 2
f 3 4 11
f 11 10 3
f 4 5 12
f 12 11 4
f 5 6 13
f 13 12 5
f 6 7 14
f 14 13 6
f 8 9 15
f 9 10 15
f 10 11 15
f 11 12 15
f 12 13 15
f 13 14 15
f 8 9 17
f 17 16 8
f 9 10 18
f 18 17 9
f 10 11 19
f 19 18 10
f 11 12 20
f 20 19 11
f 12 13 21
f 21 20 12
f 13 14 22
f 22 21 13
g building_1
f 23 24 34
f 34 33 23
f 24 25 35
f 35 34 24
f 25 26 36
f 36 35 25
f 26 27 37
f 37 36 26
f 27 28 38
f 38 37 27
f 28 29 39
f 39 38 28
f 29 30 40
f 40 39 29
f 30 31 41
f 41 40 30
f 31 32 42
f 42 41 31
f 33 34 43
f 34 35 43
f 35 36 43
f 36 37 43
f 37 38 43
f 38 39 43
f 39 40 43
f 40 41 43
f 41 42 43
f 33 34 45
f 45 44 33
f 34 35 46
f 46 45 34
f 35 36 47
f 47 46 35
f 36 37 48
f 48 47 36
f 37 38 49
f 49 48 37
f 38 39 50
f 50 49 38
f 39 40 51
f 51 50 39
f 40 41 52
f 52 51 40
f 41 42 53
f 53 52 41
g building_2
f 54 55 60
f 60 59 54
f 55 56 61
f 61 60 55
f 56 57 62
f 62 61 56
f 57 58 63
f 63 62 57
f 59 60 64
f 60 61 64
f 61 62 64
f 62 63 64
g building_3
f 65 66 71
f 71 70 65
f 66 67 72
f 72 71 66
f 67 68 73
f 73 72 67
f 68 69 74
f 74 73 68
f 70 71 75
f 71 72 75
f 72 73 75
f 73 74 75
g building_4
f 76 77 83
f 83 82 76
f 77 78 84
f 84 83 77
f 78 79 85
f 85 84 78
f 79 80 86
f 86 85 79
f 80 81 87
f 87 86 80
f 82 83 88
f 83 84 88
f 84 85 88
f 85 86 88
f 86 87 88
f 82 83 90
f 90 89 82
f 83 84 91
f 91 90 83
f 84 85 92
f 92 91 84
f 85 86 93
f 93 92 85
f 86 87 94
f 94 93 86
g building_5
f 95 96 101
f 101 100 95
f 96 97 102
f 102 101 96
f 97 98 103
f 103 102 97
f 98 99 104
f 104 103 98
f 100 101 105
f 101 102 105
f 102 103 105
f 103 104 105
f 100 101 107
f 107 106 100
f 101 102 108
f 108 107 101
f 102 103 109
f 109 108 102
f 103 104 110
f 110 109 103
g building_6
f 111 112 117
f 117 116 111
f 112 113 118
f 118 117 112
f 113 114 119
f 119 118 113
f 114 115 120
f 120 119 114
f 116 117 121
f 117 118 121
f 118 119 121
f 119 120 121
f 116 117 123
f 123 122 116
f 117 118 124
f 124 123 117
f 118 119 125
f 125 124 118
f 119 120 126
f 126 125 119
g building_7
f 127 128 133
f 133 132 127
f 128 129 134
f 134 133 128
f 129 130 135
f 135 134 129
f 130 131 136
f 136 135 130
f 132 133 137
f 133 134 137
f 134 135 137
f 135 136 137
f 132 133 139
f 139 138 132
f 133 134 140
f 140 139 133
f 134 135 141
f 141 140 134
f 135 136 142
f 142 141 135
g building_8
f 143 144 149
f 149 148 143
f 144 145 150
f 150 149 144
f 145 146 151
f 151 150 145
f 146 147 152
f 152 151 146
f 148 149 153
f 149 150 153
f 150 151 153
f 151 152 153
g building_9
f 154 155 160
f 160 159 154
f 155 156 161
f 161 160 155
f 156 157 162
f 162 161 156
f 157 158 163
f 163 162 157
f 159 160 164
f 160 161 164
f 161 162 164
f 162 163 164
f 159 160 166
f 166 165 159
f 160 161 167
f 167 166 160
f 161 162 168
f 168 167 161
f 162 163 169
f 169 168 162
g building_10
f 170 171 178
f 178 177 170
f 171 172 179
f 179 178 171
f 172 173 180
f 180 179 172
f 173 174 181
f 181 180 173
f 174 175 182
f 182 181 174
f 175 176 183
f 183 182 175
f 177 178 184
f 178 179 184
f 179 180 184
f 180 181 184
f 181 182 184
f 182 183 184
f 177 178 186
f 186 185 177
f 178 179 187
f 187 186 178
f 179 180 188
f 188 187 179
f 180 181 189
f 189 188 180
f 181 182 190
f 190 189 181
f 182 183 191
f 191 190 182
g building_11
f 192 193 202
f 202 201 192
f 193 194 203
f 203 202 193
f 194 195 204
f 204 203 194
f 195 196 205
f 205 204 195
f 196 197 206
f 206 205 196
f 197 198 207
f 207 206 197
f 198 199 208
f 208 207 198
f 199 200 209
f 209 208 199
f 201 202 210
f 202 203 210
f 203 204 210
f 204 205 210
f 205 206 210
f 206 207 210
f 207 208 210
f 208 209 210
f 201 202 212
f 212 211 201
f 202 203 213
f 213 212 202
f 203 204 214
f 214 213 203
f 204 205 215
f 215 214 204
f 205 206 216
f 216 215 205
f 206 207 217
f 217 216 206
f 207 208 218
f 218 217 207
f 208 209 219
f 219 218 208
g building_12
f 220 221 228
f 228 227 220
f 221 222 229
f 229 228 221
f 222 223 230
f 230 229 222
f 223 224 231
f 231 230 223
f 224 225 232
f 232 231 224
f 225 226 233
f 233 232 225
f 227 228 234
f 228 229 234
f 229 230 234
f 230 231 234
f 231 232 234
f 232 233 234
f 227 228 236
f 236 235 227
f 228 229 237
f 237 236 228
f 229 230 238
f 238 237 229
f 230 231 239
f 239 238 230
f 231 232 240
f 240 239 231
f 232 233 241
f 241 240 232
g building_13
f 242 243 252
f 252 251 242
f 243 244 253
f 253 252 243
f 244 245 254
f 254 253 244
f 245 246 255
f 255 254 245
f 246 247 256
f 256 255 246
f 247 248 257
f 257 256 247
f 248 249 258
f 258 257 248
f 249 250 259
f 259 258 249
f 251 252 260
f 252 253 260
f 253 254 260
f 254 255 260
f 255 256 260
f 256 257 260
f 257 258 260
f 258 259 260
f 251 252 262
f 262 261 251
f 252 253 263
f 263 262 252
f 253 254 264
f 264 263 253
f 254 255 265
f 265 264 254
f 255 256 266
f 266 265 255
f 256 257 267
f 267 266 256
f 257 258 268
f 268 267 257
f 258 259 269
f 269 268 258
g building_14
f 270 271 276
f 276 275 270
f 271 272 277
f 277 276 271
f 272 273 278
f 278 277 272
f 273 274 279
f 279 278 273
f 275 276 280
f 276 277 280
f 277 278 280
f 278 279 280
f 275 276 282
f 282 281 275
f 276 277 283
f 283 282 276
f 277 278 284
f 284 283 277
f 278 279 285
f 285 284 278
g building_15
f 286 287 292
f 292 291 286
f 287 288 293
f 293 292 287
f 288 289 294
f 294 293 288
f 289 290 295
f 295 294 289
f 291 292 296
f 292 293 296
f 293 294 296
f 294 295 296
g building_16
f 297 298 306
f 306 305 297
f 298 299 307
f 307 306 298
f 299 300 308
f 308 307 299
f 300 301 309
f 309 308 300
f 301 302 310
f 310 309 301
f 302 303 311
f 311 310 302
f 303 304 312
f 312 311 303
f 305 306 313
f 306 307 313
f 307 308 313
f 308 309 313
f 309 310 313
f 310 311 313
f 311 312 313
g building_17
f 314 315 320
f 320 319 314
f 315 316 321
f 321 320 315
f 316 317 322
f 322 321 316
f 317 318 323
f 323 322 317
f 319 320 324
f 320 321 324
f 321 322 324
f 322 323 324
g building_18
f 325 326 331
f 331 330 325
f 326 327 332
f 332 331 326
f 327 328 333
f 333 332 327
f 328 329 334
f 334 333 328
f 330 331 335
f 331 332 335
f 332 333 335
f 333 334 335
g building_19
f 336 337 342
f 342 341 336
f 337 338 343
f 343 342 337
f 338 339 344
f 344 343 338
f 339 340 345
f 345 344 339
f 341 342 346
f 342 343 346
f 343 344 346
f 344 345 346
g building_20
f 347 348 353
f 353 352 347
f 348 349 354
f 354 353 348
f 349 350 355
f 355 354 349
f 350 351 356
f 356 355 350
f 352 353 357
f 353 354 357
f 354 355 357
f 355 356 357
g building_21
f 358 359 364
f 364 363 358
f 359 360 365
f 365 364 359
f 360 361 366
f 366 365 360
f 361 362 367
f 367 366 361
f 363 364 368
f 364 365 368
f 365 366 368
f 366 367 368
g building_22
f 369 370 375
f 375 374 369
f 370 371 376
f 376 375 370
f 371 372 377
f 377 376 371
f 372 373 378
f 378 377 372
f 374 375 379
f 375 376 379
f 376 377 379
f 377 378 379
g building_23
f 380 381 406
f 406 405 380
f 381 382 407
f 407 406 381
f 382 383 408
f 408 407 382
f 383 384 409
f 409 408 383
f 384 385 410
f 410 409 384
f 385 386 411
f 411 410 385
f 386 387 412
f 412 411 386
f 387 388 413
f 413 412 387
f 388 389 414
f 414 413 388
f 389 390 415
f 415 414 389
f 390 391 416
f 416 415 390
f 391 392 417
f 417 416 391
f 392 393 418
f 418 417 392
f 393 394 419
f 419 418 393
f 394 395 420
f 420 419 394
f 395 396 421
f 421 420 395
f 396 397 422
f 422 421 396
f 397 398 423
f 423 422 397
f 398 399 424
f 424 423 398
f 399 400 425
f 425 424 399
f 400 401 426
f 426 425 400
f 401 402 427
f 427 426 401
f 402 403 428
f 428 427 402
f 403 404 429
f 429 428 403
f 405 406 430
f 406 407 430
f 407 408 430
f 408 409 430
f 409 410 430
f 410 411 430
f 411 412 430
f 412 413 430
f 413 414 430
f 414 415 430
f 415 416 430
f 416 417 430
f 417 418 430
f 418 419 430
f 419 420 430
f 420 421 430
f 421 422 430
f 422 423 430
f 423 424 430
f 424 425 430
f 425 426 430
f 426 427 430
f 427 428 430
f 428 429 430
f 405 406 432
f 432 431 405
f 406 407 433
f 433 432 406
f 407 408 434
f 434 433 407
f 408 409 435
f 435 434 408
f 409 410 436
f 436 435 409
f 410 411 437
f 437 436 410
f 411 412 438
f 438 437 411
f 412 413 439
f 439 438 412
f 413 414 440
f 440 439 413
f 414 415 441
f 441 440 414
f 415 416 442
f 442 441 415
f 416 417 443
f 443 442 416
f 417 418 444
f 444 443 417
f 418 419 445
f 445 444 418
f 419 420 446
f 446 445 419
f 420 421 447
f 447 446 420
f 421 422 448
f 448 447 421
f 422 423 449
f 449 448 422
f 423 424 450
f 450 449 423
f 424 425 451
f 451 450 424
f 425 426 452
f 452 451 425
f 426 427 453
f 453 452 426
f 427 428 454
f 454 453 427
f 428 429 455
f 455 454 428
g barda_24
f 456 457 462
f 462 461 456
f 457 458 463
f 463 462 457
f 458 459 464
f 464 463 458
f 459 460 465
f 465 464 459
g barda_25
f 466 467 472
f 472 471 466
f 467 468 473
f 473 472 467
f 468 469 474
f 474 473 468
f 469 470 475
f 475 474 469
g barda_26
f 476 477 485
f 485 484 476
f 477 478 486
f 486 485 477
f 478 479 487
f 487 486 478
f 479 480 488
f 488 487 479
f 480 481 489
f 489 488 480
f 481 482 490
f 490 489 481
f 482 483 491
f 491 490 482
g barda_27
f 492 493 498
f 498 497 492
f 493 494 499
f 499 498 493
f 494 495 500
f 500 499 494
f 495 496 501
f 501 500 495
g barda_28
f 502 503 508
f 508 507 502
f 503 504 509
f 509 508 503
f 504 505 510
f 510 509 504
f 505 506 511
f 511 510 505
g barda_29
f 512 513 518
f 518 517 512
f 513 514 519
f 519 518 513
f 514 515 520
f 520 519 514
f 515 516 521
f 521 520 515
g barda_30
f 522 523 528
f 528 527 522
f 523 524 529
f 529 528 523
f 524 525 530
f 530 529 524
f 525 526 531
f 531 530 525
g barda_31
f 532 533 538
f 538 537 532
f 533 534 539
f 539 538 533
f 534 535 540
f 540 539 534
f 535 536 541
f 541 540 535
g barda_32
f 542 543 548
f 548 547 542
f 543 544 549
f 549 548 543
f 544 545 550
f 550 549 544
f 545 546 551
f 551 550 545
