# Buildings mesh for tecate_core_z14_x2883_y6620
v -1773.509 29.162 -4713.922
v -1776.971 29.162 -4704.130
v -1776.815 29.162 -4704.077
v -1779.097 29.162 -4697.615
v -1780.845 29.162 -4698.250
v -1782.103 29.162 -4694.669
v -1785.142 29.162 -4695.752
v -1785.954 29.162 -4693.453
v -1790.374 29.162 -4695.025
v -1789.706 29.162 -4696.915
v -1794.960 29.162 -4698.791
v -1792.355 29.162 -4706.178
v -1789.628 29.162 -4705.213
v -1785.097 29.162 -4718.058
v -1773.509 29.162 -4713.922
v -1773.509 33.162 -4713.922
v -1776.971 33.162 -4704.130
v -1776.815 33.162 -4704.077
v -1779.097 33.162 -4697.615
v -1780.845 33.162 -4698.250
v -1782.103 33.162 -4694.669
v -1785.142 33.162 -4695.752
v -1785.954 33.162 -4693.453
v -1790.374 33.162 -4695.025
v -1789.706 33.162 -4696.915
v -1794.960 33.162 -4698.791
v -1792.355 33.162 -4706.178
v -1789.628 33.162 -4705.213
v -1785.097 33.162 -4718.058
v -1773.509 33.162 -4713.922
f 1 2 17
f 17 16 1
f 2 3 18
f 18 17 2
f 3 4 19
f 19 18 3
f 4 5 20
f 20 19 4
f 5 6 21
f 21 20 5
f 6 7 22
f 22 21 6
f 7 8 23
f 23 22 7
f 8 9 24
f 24 23 8
f 9 10 25
f 25 24 9
f 10 11 26
f 26 25 10
f 11 12 27
f 27 26 11
f 12 13 28
f 28 27 12
f 13 14 29
f 29 28 13
f 14 15 30
f 30 29 14
v -1783.738 33.162 -4702.398
f 16 17 31
f 17 18 31
f 18 19 31
f 19 20 31
f 20 21 31
f 21 22 31
f 22 23 31
f 23 24 31
f 24 25 31
f 25 26 31
f 26 27 31
f 27 28 31
f 28 29 31
f 29 30 31
v -1944.874 39.696 -4879.892
v -1950.006 39.696 -4870.272
v -1967.416 39.696 -4879.641
v -1962.273 39.696 -4889.261
v -1944.874 39.696 -4879.892
v -1944.874 43.696 -4879.892
v -1950.006 43.696 -4870.272
v -1967.416 43.696 -4879.641
v -1962.273 43.696 -4889.261
v -1944.874 43.696 -4879.892
f 32 33 38
f 38 37 32
f 33 34 39
f 39 38 33
f 34 35 40
f 40 39 34
f 35 36 41
f 41 40 35
v -1953.889 43.696 -4879.791
f 37 38 42
f 38 39 42
f 39 40 42
f 40 41 42
v -1982.333 38.133 -4787.313
v -1980.496 38.133 -4783.600
v -1986.686 38.133 -4780.494
v -1988.522 38.133 -4784.208
v -1982.333 38.133 -4787.313
v -1982.333 42.133 -4787.313
v -1980.496 42.133 -4783.600
v -1986.686 42.133 -4780.494
v -1988.522 42.133 -4784.208
v -1982.333 42.133 -4787.313
f 43 44 49
f 49 48 43
f 44 45 50
f 50 49 44
f 45 46 51
f 51 50 45
f 46 47 52
f 52 51 46
v -1984.074 42.133 -4784.586
f 48 49 53
f 49 50 53
f 50 51 53
f 51 52 53
