# Buildings mesh for tecate_core_z14_x2886_y6623
v 4411.257 9.025 204.167
v 4421.410 9.025 208.949
v 4417.825 9.025 217.614
v 4407.673 9.025 212.832
v 4411.257 9.025 204.167
v 4411.257 13.025 204.167
v 4421.410 13.025 208.949
v 4417.825 13.025 217.614
v 4407.673 13.025 212.832
v 4411.257 13.025 204.167
f 1 2 7
f 7 6 1
f 2 3 8
f 8 7 2
f 3 4 9
f 9 8 3
f 4 5 10
f 10 9 4
v 4413.885 13.025 209.546
f 6 7 11
f 7 8 11
f 8 9 11
f 9 10 11
v 4405.435 9.040 226.582
v 4452.323 9.040 246.131
v 4438.286 9.040 279.271
v 4391.409 9.040 261.215
v 4405.435 9.040 226.582
v 4405.435 13.040 226.582
v 4452.323 13.040 246.131
v 4438.286 13.040 279.271
v 4391.409 13.040 261.215
v 4405.435 13.040 226.582
f 12 13 18
f 18 17 12
f 13 14 19
f 19 18 13
f 14 15 20
f 20 19 14
f 15 16 21
f 21 20 15
v 4418.578 13.040 247.957
f 17 18 22
f 18 19 22
f 19 20 22
f 20 21 22
v 4544.863 9.446 181.607
v 4516.900 9.446 231.853
v 4567.138 9.446 259.815
v 4595.569 9.446 209.808
v 4544.863 9.446 181.607
v 4544.863 13.446 181.607
v 4516.900 13.446 231.853
v 4567.138 13.446 259.815
v 4595.569 13.446 209.808
v 4544.863 13.446 181.607
f 23 24 29
f 29 28 23
f 24 25 30
f 30 29 24
f 25 26 31
f 31 30 25
f 26 27 32
f 32 31 26
v 4553.867 13.446 212.938
f 28 29 33
f 29 30 33
f 30 31 33
f 31 32 33
v 4598.419 9.585 212.172
v 4585.617 9.585 235.168
v 4595.102 9.585 240.610
v 4587.042 9.585 255.787
v 4582.300 9.585 253.171
v 4576.144 9.585 265.019
v 4628.753 9.585 293.220
v 4657.663 9.585 244.176
v 4598.419 9.585 212.172
v 4598.419 13.585 212.172
v 4585.617 13.585 235.168
v 4595.102 13.585 240.610
v 4587.042 13.585 255.787
v 4582.300 13.585 253.171
v 4576.144 13.585 265.019
v 4628.753 13.585 293.220
v 4657.663 13.585 244.176
v 4598.419 13.585 212.172
f 34 35 44
f 44 43 34
f 35 36 45
f 45 44 35
f 36 37 46
f 46 45 36
f 37 38 47
f 47 46 37
f 38 39 48
f 48 47 38
f 39 40 49
f 49 48 39
f 40 41 50
f 50 49 40
f 41 42 51
f 51 50 41
v 4601.051 13.585 245.722
f 43 44 52
f 44 45 52
f 45 46 52
f 46 47 52
f 47 48 52
f 48 49 52
f 49 50 52
f 50 51 52
v 4669.040 9.795 225.922
v 4663.352 9.795 237.295
v 4671.411 9.795 242.512
v 4675.675 9.795 234.693
v 4672.357 9.795 232.553
v 4674.250 9.795 228.524
v 4669.040 9.795 225.922
v 4669.040 13.795 225.922
v 4663.352 13.795 237.295
v 4671.411 13.795 242.512
v 4675.675 13.795 234.693
v 4672.357 13.795 232.553
v 4674.250 13.795 228.524
v 4669.040 13.795 225.922
f 53 54 61
f 61 60 53
f 54 55 62
f 62 61 54
f 55 56 63
f 63 62 55
f 56 57 64
f 64 63 56
f 57 58 65
f 65 64 57
f 58 59 66
f 66 65 58
v 4670.732 13.795 232.489
f 60 61 67
f 61 62 67
f 62 63 67
f 63 64 67
f 64 65 67
f 65 66 67
v 4661.927 9.769 238.721
v 4684.680 9.769 252.234
v 4664.298 9.769 293.220
v 4675.196 9.769 299.150
v 4666.190 9.769 315.265
v 4630.178 9.769 295.359
v 4661.927 9.769 238.721
v 4661.927 13.769 238.721
v 4684.680 13.769 252.234
v 4664.298 13.769 293.220
v 4675.196 13.769 299.150
v 4666.190 13.769 315.265
v 4630.178 13.769 295.359
v 4661.927 13.769 238.721
f 68 69 76
f 76 75 68
f 69 70 77
f 77 76 69
f 70 71 78
f 78 77 70
f 71 72 79
f 79 78 71
f 72 73 80
f 80 79 72
f 73 74 81
f 81 80 73
v 4663.485 13.769 276.096
f 75 76 82
f 76 77 82
f 77 78 82
f 78 79 82
f 79 80 82
f 80 81 82
v 4617.844 9.653 323.322
v 4633.963 9.653 332.330
v 4648.780 9.653 307.287
v 4631.292 9.653 297.314
v 4617.844 9.653 323.322
v 4617.844 13.653 323.322
v 4633.963 13.653 332.330
v 4648.780 13.653 307.287
v 4631.292 13.653 297.314
v 4617.844 13.653 323.322
f 83 84 89
f 89 88 83
f 84 85 90
f 90 89 84
f 85 86 91
f 91 90 85
f 86 87 92
f 92 91 86
v 4629.945 13.653 316.715
f 88 89 93
f 89 90 93
f 90 91 93
f 91 92 93
v 4541.479 9.465 260.145
v 4522.989 9.465 293.088
v 4594.556 9.465 330.520
v 4612.100 9.465 297.816
v 4541.479 9.465 260.145
v 4541.479 13.465 260.145
v 4522.989 13.465 293.088
v 4594.556 13.465 330.520
v 4612.100 13.465 297.816
v 4541.479 13.465 260.145
f 94 95 100
f 100 99 94
f 95 96 101
f 101 100 95
f 96 97 102
f 102 101 96
f 97 98 103
f 103 102 97
v 4562.521 13.465 288.343
f 99 100 104
f 100 101 104
f 101 102 104
f 102 103 104
v 4710.685 9.926 305.266
v 4701.679 9.926 322.569
v 4709.738 9.926 327.311
v 4718.744 9.926 310.245
v 4710.685 9.926 305.266
v 4710.685 13.926 305.266
v 4701.679 13.926 322.569
v 4709.738 13.926 327.311
v 4718.744 13.926 310.245
v 4710.685 13.926 305.266
f 105 106 111
f 111 110 105
f 106 107 112
f 112 111 106
f 107 108 113
f 113 112 107
f 108 109 114
f 114 113 108
v 4710.306 13.926 314.131
f 110 111 115
f 111 112 115
f 112 113 115
f 113 114 115
v 4682.242 9.814 295.544
v 4690.781 9.814 299.348
v 4676.554 9.814 322.331
v 4670.866 9.814 318.303
v 4673.715 9.814 314.274
v 4672.168 9.814 313.032
v 4682.242 9.814 295.544
v 4682.242 13.814 295.544
v 4690.781 13.814 299.348
v 4676.554 13.814 322.331
v 4670.866 13.814 318.303
v 4673.715 13.814 314.274
v 4672.168 13.814 313.032
v 4682.242 13.814 295.544
f 116 117 124
f 124 123 116
f 117 118 125
f 125 124 117
f 118 119 126
f 126 125 118
f 119 120 127
f 127 126 119
f 120 121 128
f 128 127 120
f 121 122 129
f 129 128 121
v 4678.367 13.814 308.340
f 123 124 130
f 124 125 130
f 125 126 130
f 126 127 130
f 127 128 130
f 128 129 130
v 4713.033 9.923 251.296
v 4718.722 9.923 254.373
v 4713.033 9.923 263.619
v 4707.824 9.923 261.480
v 4713.033 9.923 251.296
v 4713.033 13.923 251.296
v 4718.722 13.923 254.373
v 4713.033 13.923 263.619
v 4707.824 13.923 261.480
v 4713.033 13.923 251.296
f 131 132 137
f 137 136 131
f 132 133 138
f 138 137 132
f 133 134 139
f 139 138 133
f 134 135 140
f 140 139 134
v 4713.129 13.923 256.413
f 136 137 141
f 137 138 141
f 138 139 141
f 139 140 141
v 4358.136 8.840 269.748
v 4366.674 8.840 281.596
v 4354.818 8.840 290.604
v 4360.039 8.840 299.613
v 4354.351 8.840 304.103
v 4339.657 8.840 282.785
v 4358.136 8.840 269.748
v 4358.136 12.840 269.748
v 4366.674 12.840 281.596
v 4354.818 12.840 290.604
v 4360.039 12.840 299.613
v 4354.351 12.840 304.103
v 4339.657 12.840 282.785
v 4358.136 12.840 269.748
f 142 143 150
f 150 149 142
f 143 144 151
f 151 150 143
f 144 145 152
f 152 151 144
f 145 146 153
f 153 152 145
f 146 147 154
f 154 153 146
f 147 148 155
f 155 154 147
v 4355.973 12.840 285.457
f 149 150 156
f 150 151 156
f 151 152 156
f 152 153 156
f 153 154 156
f 154 155 156
v 4324.484 8.780 258.851
v 4342.028 8.780 246.290
v 4345.345 8.780 251.032
v 4327.812 8.780 263.817
v 4324.484 8.780 258.851
v 4324.484 12.780 258.851
v 4342.028 12.780 246.290
v 4345.345 12.780 251.032
v 4327.812 12.780 263.817
v 4324.484 12.780 258.851
f 157 158 163
f 163 162 157
f 158 159 164
f 164 163 158
f 159 160 165
f 165 164 159
f 160 161 166
f 166 165 160
v 4332.831 12.780 255.768
f 162 163 167
f 163 164 167
f 164 165 167
f 165 166 167
v 4333.356 8.799 263.580
v 4338.733 8.799 270.593
v 4350.076 8.799 261.929
v 4344.399 8.799 254.770
v 4333.356 8.799 263.580
v 4333.356 12.799 263.580
v 4338.733 12.799 270.593
v 4350.076 12.799 261.929
v 4344.399 12.799 254.770
v 4333.356 12.799 263.580
f 168 169 174
f 174 173 168
f 169 170 175
f 175 174 169
f 170 171 176
f 176 175 170
f 171 172 177
f 177 176 171
v 4339.984 12.799 262.890
f 173 174 178
f 174 175 178
f 175 176 178
f 176 177 178
v 4345.590 8.797 302.835
v 4352.169 8.797 312.847
v 4347.382 8.797 321.208
v 4338.132 8.797 308.211
v 4345.590 8.797 302.835
v 4345.590 12.797 302.835
v 4352.169 12.797 312.847
v 4347.382 12.797 321.208
v 4338.132 12.797 308.211
v 4345.590 12.797 302.835
f 179 180 185
f 185 184 179
f 180 181 186
f 186 185 180
f 181 182 187
f 187 186 181
f 182 183 188
f 188 187 182
v 4345.773 12.797 309.588
f 184 185 189
f 185 186 189
f 186 187 189
f 187 188 189
v 4330.362 8.762 313.283
v 4341.416 8.762 328.222
v 4345.590 8.762 321.803
v 4336.339 8.762 308.964
v 4330.362 8.762 313.283
v 4330.362 12.762 313.283
v 4341.416 12.762 328.222
v 4345.590 12.762 321.803
v 4336.339 12.762 308.964
v 4330.362 12.762 313.283
f 190 191 196
f 196 195 190
f 191 192 197
f 197 196 191
f 192 193 198
f 198 197 192
f 193 194 199
f 199 198 193
v 4336.814 12.762 317.111
f 195 196 200
f 196 197 200
f 197 198 200
f 198 199 200
v 4322.603 8.721 271.188
v 4328.580 8.721 278.954
v 4310.658 8.721 292.387
v 4304.992 8.721 283.736
v 4322.603 8.721 271.188
v 4322.603 12.721 271.188
v 4328.580 12.721 278.954
v 4310.658 12.721 292.387
v 4304.992 12.721 283.736
v 4322.603 12.721 271.188
f 201 202 207
f 207 206 201
f 202 203 208
f 208 207 202
f 203 204 209
f 209 208 203
f 204 205 210
f 210 209 204
v 4317.887 12.721 279.491
f 206 207 211
f 207 208 211
f 208 209 211
f 209 210 211
v 4294.539 8.687 270.290
v 4298.424 8.687 276.115
v 4317.526 8.687 262.827
v 4313.942 8.687 257.306
v 4294.539 8.687 270.290
v 4294.539 12.687 270.290
v 4298.424 12.687 276.115
v 4317.526 12.687 262.827
v 4313.942 12.687 257.306
v 4294.539 12.687 270.290
f 212 213 218
f 218 217 212
f 213 214 219
f 219 218 213
f 214 215 220
f 220 219 214
f 215 216 221
f 221 220 215
v 4303.794 12.687 267.365
f 217 218 222
f 218 219 222
f 219 220 222
f 220 221 222
v 4287.971 8.676 260.436
v 4293.637 8.676 268.203
v 4312.751 8.676 254.915
v 4306.784 8.676 247.148
v 4287.971 8.676 260.436
v 4287.971 12.676 260.436
v 4293.637 12.676 268.203
v 4312.751 12.676 254.915
v 4306.784 12.676 247.148
v 4287.971 12.676 260.436
f 223 224 229
f 229 228 223
f 224 225 230
f 230 229 224
f 225 226 231
f 231 230 225
f 226 227 232
f 232 231 226
v 4297.823 12.676 258.228
f 228 229 233
f 229 230 233
f 230 231 233
f 231 232 233
v 4262.590 8.580 289.997
v 4268.256 8.580 298.952
v 4287.971 8.580 285.664
v 4281.693 8.580 276.418
v 4262.590 8.580 289.997
v 4262.590 12.580 289.997
v 4268.256 12.580 298.952
v 4287.971 12.580 285.664
v 4281.693 12.580 276.418
v 4262.590 12.580 289.997
f 234 235 240
f 240 239 234
f 235 236 241
f 241 240 235
f 236 237 242
f 242 241 236
f 237 238 243
f 243 242 237
v 4272.620 12.580 288.206
f 239 240 244
f 240 241 244
f 241 242 244
f 242 243 244
v 4273.633 8.599 305.371
v 4279.310 8.599 313.442
v 4297.823 8.599 301.198
v 4292.146 8.599 292.837
v 4273.633 8.599 305.371
v 4273.633 12.599 305.371
v 4279.310 12.599 313.442
v 4297.823 12.599 301.198
v 4292.146 12.599 292.837
v 4273.633 12.599 305.371
f 245 246 251
f 251 250 245
f 246 247 252
f 252 251 246
f 247 248 253
f 253 252 247
f 248 249 254
f 254 253 248
v 4283.309 12.599 303.644
f 250 251 255
f 251 252 255
f 252 253 255
f 253 254 255
v 4261.811 8.537 327.601
v 4266.286 8.537 334.774
v 4276.438 8.537 327.601
v 4271.963 8.537 320.588
v 4261.811 8.537 327.601
v 4261.811 12.537 327.601
v 4266.286 12.537 334.774
v 4276.438 12.537 327.601
v 4271.963 12.537 320.588
v 4261.811 12.537 327.601
f 256 257 262
f 262 261 256
f 257 258 263
f 263 262 257
f 258 259 264
f 264 263 258
f 259 260 265
f 265 264 259
v 4267.662 12.537 327.633
f 261 262 266
f 262 263 266
f 263 264 266
f 264 265 266
v 4263.603 8.544 340.585
v 4267.488 8.544 346.410
v 4277.095 8.544 339.410
v 4285.099 8.544 333.572
v 4281.214 8.544 328.790
v 4263.603 8.544 340.585
v 4263.603 12.544 340.585
v 4267.488 12.544 346.410
v 4277.095 12.544 339.410
v 4285.099 12.544 333.572
v 4281.214 12.544 328.790
v 4263.603 12.544 340.585
f 267 268 274
f 274 273 267
f 268 269 275
f 275 274 268
f 269 270 276
f 276 275 269
f 270 271 277
f 277 276 270
f 271 272 278
f 278 277 271
v 4273.017 12.544 338.225
f 273 274 279
f 274 275 279
f 275 276 279
f 276 277 279
f 277 278 279
v 4277.095 8.572 339.410
v 4282.416 8.572 347.005
v 4291.667 8.572 340.136
v 4286.446 8.572 332.753
v 4277.095 8.572 339.410
v 4277.095 12.572 339.410
v 4282.416 12.572 347.005
v 4291.667 12.572 340.136
v 4286.446 12.572 332.753
v 4277.095 12.572 339.410
f 280 281 286
f 286 285 280
f 281 282 287
f 287 286 281
f 282 283 288
f 288 287 282
f 283 284 289
f 289 288 283
v 4282.944 12.572 339.743
f 285 286 290
f 286 287 290
f 287 288 290
f 288 289 290
v 4271.774 8.552 354.309
v 4276.661 8.552 362.392
v 4290.209 8.552 353.648
v 4285.311 8.552 345.750
v 4271.774 8.552 354.309
v 4271.774 12.552 354.309
v 4276.661 12.552 362.392
v 4290.209 12.552 353.648
v 4285.311 12.552 345.750
v 4271.774 12.552 354.309
f 291 292 297
f 297 296 291
f 292 293 298
f 298 297 292
f 293 294 299
f 299 298 293
f 294 295 300
f 300 299 294
v 4279.146 12.552 354.082
f 296 297 301
f 297 298 301
f 298 299 301
f 299 300 301
v 4277.229 8.569 364.559
v 4282.683 8.569 372.365
v 4299.415 8.569 360.424
v 4293.593 8.569 352.513
v 4277.229 8.569 364.559
v 4277.229 12.569 364.559
v 4282.683 12.569 372.365
v 4299.415 12.569 360.424
v 4293.593 12.569 352.513
v 4277.229 12.569 364.559
f 302 303 308
f 308 307 302
f 303 304 309
f 309 308 303
f 304 305 310
f 310 309 304
f 305 306 311
f 311 310 305
v 4286.030 12.569 362.884
f 307 308 312
f 308 309 312
f 309 310 312
f 310 311 312
v 4305.626 8.671 353.926
v 4310.703 8.671 361.547
v 4331.965 8.671 347.057
v 4326.699 8.671 339.542
v 4305.626 8.671 353.926
v 4305.626 12.671 353.926
v 4310.703 12.671 361.547
v 4331.965 12.671 347.057
v 4326.699 12.671 339.542
v 4305.626 12.671 353.926
f 313 314 319
f 319 318 313
f 314 315 320
f 320 319 314
f 315 316 321
f 321 320 315
f 316 317 322
f 322 321 316
v 4316.124 12.671 351.200
f 318 319 323
f 319 320 323
f 320 321 323
f 321 322 323
v 4307.697 8.644 316.969
v 4313.530 8.644 325.052
v 4295.474 8.644 337.653
v 4289.641 8.644 329.477
v 4307.697 8.644 316.969
v 4307.697 12.644 316.969
v 4313.530 12.644 325.052
v 4295.474 12.644 337.653
v 4289.641 12.644 329.477
v 4307.697 12.644 316.969
f 324 325 330
f 330 329 324
f 325 326 331
f 331 330 325
f 326 327 332
f 332 331 326
f 327 328 333
f 333 332 327
v 4302.808 12.644 325.224
f 329 330 334
f 330 331 334
f 331 332 334
f 332 333 334
v 4305.749 8.658 331.181
v 4310.224 8.658 338.049
v 4300.038 8.658 345.512
v 4305.014 8.658 352.209
v 4325.987 8.658 338.168
v 4315.679 8.658 324.061
v 4305.749 8.658 331.181
v 4305.749 12.658 331.181
v 4310.224 12.658 338.049
v 4300.038 12.658 345.512
v 4305.014 12.658 352.209
v 4325.987 12.658 338.168
v 4315.679 12.658 324.061
v 4305.749 12.658 331.181
f 335 336 343
f 343 342 335
f 336 337 344
f 344 343 336
f 337 338 345
f 345 344 337
f 338 339 346
f 346 345 338
f 339 340 347
f 347 346 339
f 340 341 348
f 348 347 340
v 4309.777 12.658 337.194
f 342 343 349
f 343 344 349
f 344 345 349
f 345 346 349
f 346 347 349
f 347 348 349
v 4302.175 8.634 383.315
v 4306.305 8.634 389.707
v 4317.593 8.634 381.611
v 4313.085 8.634 375.310
v 4302.175 8.634 383.315
v 4302.175 12.634 383.315
v 4306.305 12.634 389.707
v 4317.593 12.634 381.611
v 4313.085 12.634 375.310
v 4302.175 12.634 383.315
f 350 351 356
f 356 355 350
f 351 352 357
f 357 356 351
f 352 353 358
f 358 357 352
f 353 354 359
f 359 358 353
v 4308.267 12.634 382.652
f 355 356 360
f 356 357 360
f 357 358 360
f 358 359 360
v 4305.370 8.609 365.906
v 4310.636 8.609 373.527
v 4292.580 8.609 386.696
v 4287.314 8.609 378.982
v 4305.370 8.609 365.906
v 4305.370 12.609 365.906
v 4310.636 12.609 373.527
v 4292.580 12.609 386.696
v 4287.314 12.609 378.982
v 4305.370 12.609 365.906
f 361 362 367
f 367 366 361
f 362 363 368
f 368 367 362
f 363 364 369
f 369 368 363
f 364 365 370
f 370 369 364
v 4300.254 12.609 374.203
f 366 367 371
f 367 368 371
f 368 369 371
f 369 370 371
