# Roads mesh for tecate_core_z14_x2885_y6624
v 3993.070 0.050 5112.309
v 4001.028 0.050 5113.124
v 4007.151 0.050 5053.340
v 3999.192 0.050 5052.525
f 1 2 3
f 3 4 1
v 3999.404 0.050 5051.588
v 4006.939 0.050 5054.277
v 4010.468 0.050 5044.388
v 4002.933 0.050 5041.699
f 5 6 7
f 7 8 5
v 4002.916 0.050 5041.748
v 4010.485 0.050 5044.338
v 4016.674 0.050 5026.250
v 4009.105 0.050 5023.660
f 9 10 11
f 11 12 9
v 4012.325 0.050 5020.995
v 4013.454 0.050 5028.915
v 4019.198 0.050 5028.096
v 4018.069 0.050 5020.176
f 13 14 15
f 15 16 13
v 4017.610 0.050 5020.269
v 4019.657 0.050 5028.003
v 4030.934 0.050 5025.019
v 4028.887 0.050 5017.286
f 17 18 19
f 19 20 17
v 4028.491 0.050 5017.413
v 4031.330 0.050 5024.892
v 4039.991 0.050 5021.604
v 4037.151 0.050 5014.125
f 21 22 23
f 23 24 21
v 4037.740 0.050 5013.952
v 4039.402 0.050 5021.777
v 4045.369 0.050 5020.510
v 4043.706 0.050 5012.685
f 25 26 27
f 27 28 25
v 4044.127 0.050 5012.618
v 4044.948 0.050 5020.576
v 4052.117 0.050 5019.837
v 4051.296 0.050 5011.879
f 29 30 31
f 31 32 29
v 4051.740 0.050 5011.858
v 4051.674 0.050 5019.858
v 4059.655 0.050 5019.924
v 4059.721 0.050 5011.924
f 33 34 35
f 35 36 33
v 4059.978 0.050 5011.934
v 4059.399 0.050 5019.913
v 4081.050 0.050 5021.485
v 4081.629 0.050 5013.506
f 37 38 39
f 39 40 37
v 4081.669 0.050 5013.509
v 4081.011 0.050 5021.482
v 4095.416 0.050 5022.670
v 4096.073 0.050 5014.697
f 41 42 43
f 43 44 41
v 4095.598 0.050 5014.686
v 4095.891 0.050 5022.681
v 4138.360 0.050 5021.123
v 4138.066 0.050 5013.128
f 45 46 47
f 47 48 45
v 4138.195 0.050 5013.125
v 4138.231 0.050 5021.125
v 4156.298 0.050 5021.046
v 4156.263 0.050 5013.046
f 49 50 51
f 51 52 49
v 4156.669 0.050 5013.065
v 4155.891 0.050 5021.027
v 4166.567 0.050 5022.070
v 4167.345 0.050 5014.108
f 53 54 55
f 55 56 53
v 4167.510 0.050 5014.128
v 4166.402 0.050 5022.051
v 4180.283 0.050 5023.992
v 4181.391 0.050 5016.069
f 57 58 59
f 59 60 57
v 4181.649 0.050 5016.113
v 4180.026 0.050 5023.947
v 4253.185 0.050 5039.104
v 4254.808 0.050 5031.271
f 61 62 63
f 63 64 61
v 4254.982 0.050 5031.311
v 4253.011 0.050 5039.064
v 4266.514 0.050 5042.497
v 4268.485 0.050 5034.744
f 65 66 67
f 67 68 65
v 1834.870 0.050 3890.425
v 1826.984 0.050 3891.771
v 1828.398 0.050 3900.050
v 1836.284 0.050 3898.704
f 69 70 71
f 71 72 69
v 1836.331 0.050 3899.092
v 1828.351 0.050 3899.662
v 1828.886 0.050 3907.136
v 1836.865 0.050 3906.566
f 73 74 75
f 75 76 73
v 1836.468 0.050 3908.610
v 1829.283 0.050 3905.092
v 1824.719 0.050 3914.414
v 1831.904 0.050 3917.932
f 77 78 79
f 79 80 77
v 1831.481 0.050 3962.744
v 1823.494 0.050 3963.195
v 1824.173 0.050 3975.224
v 1832.160 0.050 3974.774
f 81 82 83
f 83 84 81
v 1832.100 0.050 3975.727
v 1824.233 0.050 3974.272
v 1822.218 0.050 3985.165
v 1830.085 0.050 3986.620
f 85 86 87
f 87 88 85
v 2755.148 -95.095 2689.045
v 2756.859 -94.872 2696.860
v 2760.599 -94.851 2696.041
v 2758.888 -95.077 2688.226
f 89 90 91
f 91 92 89
v 2757.790 -95.078 2688.643
v 2761.698 -94.850 2695.624
v 2764.080 -94.859 2694.290
v 2760.172 -95.074 2687.309
f 93 94 95
f 95 96 93
v 2759.423 -95.082 2687.851
v 2764.829 -94.866 2693.748
v 2767.523 -94.904 2691.279
v 2762.117 -95.032 2685.381
f 97 98 99
f 99 100 97
v 2760.906 -95.031 2689.157
v 2768.733 -94.989 2687.503
v 2764.993 -94.819 2669.807
v 2757.166 -94.926 2671.461
f 101 102 103
f 103 104 101
v 2757.167 -94.926 2671.466
v 2764.992 -94.819 2669.802
v 2760.072 -94.227 2646.665
v 2752.247 -94.415 2648.330
f 105 106 107
f 107 108 105
v 2752.172 -94.393 2647.819
v 2760.146 -94.250 2647.176
v 2759.245 -93.732 2635.978
v 2751.270 -93.894 2636.620
f 109 110 111
f 111 112 109
v 2689.604 -92.150 2637.444
v 2682.274 -91.830 2640.647
v 2691.079 -92.433 2660.799
v 2698.410 -92.863 2657.596
f 113 114 115
f 115 116 113
v 2698.132 -92.843 2657.071
v 2691.357 -92.451 2661.325
v 2694.641 -92.666 2666.555
v 2701.416 -93.063 2662.300
f 117 118 119
f 119 120 117
v 2700.906 -93.029 2661.649
v 2695.151 -92.699 2667.206
v 2699.181 -92.963 2671.379
v 2704.935 -93.294 2665.822
f 121 122 123
f 123 124 121
v 2702.657 -93.149 2664.646
v 2701.459 -93.110 2672.555
v 2707.036 -93.462 2673.401
v 2708.234 -93.480 2665.491
f 125 126 127
f 127 128 125
v 2708.587 -93.493 2665.561
v 2706.683 -93.440 2673.331
v 2715.789 -93.818 2675.562
v 2717.693 -93.837 2667.792
f 129 130 131
f 131 132 129
v 2718.647 -93.874 2668.161
v 2714.835 -93.780 2675.194
v 2754.098 -94.914 2696.469
v 2757.909 -95.055 2689.435
f 133 134 135
f 135 136 133
v 1993.438 0.050 4332.962
v 1993.714 0.050 4324.967
v 1950.422 0.050 4323.475
v 1950.146 0.050 4331.470
f 137 138 139
f 139 140 137
v 1950.078 0.050 4331.467
v 1950.490 0.050 4323.478
v 1895.398 0.050 4320.639
v 1894.986 0.050 4328.628
f 141 142 143
f 143 144 141
v 1894.753 0.050 4328.610
v 1895.632 0.050 4320.658
v 1875.327 0.050 4318.413
v 1874.448 0.050 4326.365
f 145 146 147
f 147 148 145
v 1873.640 0.050 4326.189
v 1876.135 0.050 4318.589
v 1865.237 0.050 4315.010
v 1862.741 0.050 4322.611
f 149 150 151
f 151 152 149
v 1861.709 0.050 4322.097
v 1866.269 0.050 4315.524
v 1857.018 0.050 4309.107
v 1852.459 0.050 4315.680
f 153 154 155
f 155 156 153
v 1851.128 0.050 4314.114
v 1858.350 0.050 4310.673
v 1856.034 0.050 4305.814
v 1848.812 0.050 4309.255
f 157 158 159
f 159 160 157
v 1848.501 0.050 4308.320
v 1856.345 0.050 4306.749
v 1855.076 0.050 4300.411
v 1847.232 0.050 4301.982
f 161 162 163
f 163 164 161
v 1847.169 0.050 4300.852
v 1855.139 0.050 4301.541
v 1856.186 0.050 4289.446
v 1848.215 0.050 4288.757
f 165 166 167
f 167 168 165
v 1848.249 0.050 4288.481
v 1856.152 0.050 4289.722
v 1863.911 0.050 4240.312
v 1856.008 0.050 4239.071
f 169 170 171
f 171 172 169
v 1856.009 0.050 4239.062
v 1863.910 0.050 4240.321
v 1870.477 0.050 4199.111
v 1862.577 0.050 4197.852
f 173 174 175
f 175 176 173
v 1862.569 0.050 4199.061
v 1870.485 0.050 4197.902
v 1869.372 0.050 4190.297
v 1861.456 0.050 4191.455
f 177 178 179
f 179 180 177
v 1862.426 0.050 4193.535
v 1868.403 0.050 4188.217
v 1864.150 0.050 4183.438
v 1858.173 0.050 4188.755
f 181 182 183
f 183 184 181
v 1859.519 0.050 4189.743
v 1862.804 0.050 4182.449
v 1858.318 0.050 4180.429
v 1855.033 0.050 4187.723
f 185 186 187
f 187 188 185
v 1855.925 0.050 4188.005
v 1857.426 0.050 4180.147
v 1844.145 0.050 4177.612
v 1842.645 0.050 4185.470
f 189 190 191
f 191 192 189
v 1843.336 0.050 4185.540
v 1843.454 0.050 4177.541
v 1818.519 0.050 4177.172
v 1818.400 0.050 4185.171
f 193 194 195
f 195 196 193
v 1839.134 0.050 3931.182
v 1837.036 0.050 3938.902
v 1851.374 0.050 3942.798
v 1853.472 0.050 3935.078
f 197 198 199
f 199 200 197
v 1853.237 0.050 3935.021
v 1851.610 0.050 3942.854
v 1860.638 0.050 3944.729
v 1862.265 0.050 3936.896
f 201 202 203
f 203 204 201
v 1861.360 0.050 3936.814
v 1861.542 0.050 3944.812
v 1871.394 0.050 3944.587
v 1871.212 0.050 3936.589
f 205 206 207
f 207 208 205
v 1870.102 0.050 3936.773
v 1872.503 0.050 3944.404
v 1881.988 0.050 3941.420
v 1879.587 0.050 3933.788
f 209 210 211
f 211 212 209
v 1879.300 0.050 3933.891
v 1882.275 0.050 3941.317
v 1891.603 0.050 3937.580
v 1888.628 0.050 3930.154
f 213 214 215
f 215 216 213
v 1889.115 0.050 3929.995
v 1891.117 0.050 3937.740
v 1901.793 0.050 3934.980
v 1899.790 0.050 3927.235
f 217 218 219
f 219 220 217
v 1900.340 0.050 3927.133
v 1901.243 0.050 3935.082
v 1913.109 0.050 3933.735
v 1912.207 0.050 3925.786
f 221 222 223
f 223 224 221
v 1913.136 0.050 3925.789
v 1912.180 0.050 3933.732
v 1922.711 0.050 3935.000
v 1923.667 0.050 3927.057
f 225 226 227
f 227 228 225
v 1923.984 0.050 3927.108
v 1922.394 0.050 3934.948
v 1934.183 0.050 3937.339
v 1935.772 0.050 3929.498
f 229 230 231
f 231 232 229
v 1935.499 0.050 3929.452
v 1934.457 0.050 3937.384
v 1945.210 0.050 3938.797
v 1946.252 0.050 3930.865
f 233 234 235
f 235 236 233
v 1945.345 0.050 3930.850
v 1946.118 0.050 3938.812
v 1956.047 0.050 3937.848
v 1955.274 0.050 3929.886
f 237 238 239
f 239 240 237
v 1954.498 0.050 3930.040
v 1956.824 0.050 3937.694
v 1974.290 0.050 3932.386
v 1971.964 0.050 3924.732
f 241 242 243
f 243 244 241
v 1971.514 0.050 3924.899
v 1974.740 0.050 3932.219
v 1997.427 0.050 3922.224
v 1994.201 0.050 3914.903
f 245 246 247
f 247 248 245
v 1994.460 0.050 3914.799
v 1997.167 0.050 3922.327
v 2006.496 0.050 3918.973
v 2003.789 0.050 3911.445
f 249 250 251
f 251 252 249
v 2004.848 0.050 3911.220
v 2005.436 0.050 3919.198
v 2012.605 0.050 3918.670
v 2012.017 0.050 3910.692
f 253 254 255
f 255 256 253
v 2012.853 0.050 3910.718
v 2011.769 0.050 3918.644
v 2024.905 0.050 3920.440
v 2025.989 0.050 3912.514
f 257 258 259
f 259 260 257
v 2026.367 0.050 3912.584
v 2024.527 0.050 3920.370
v 2047.893 0.050 3925.889
v 2049.733 0.050 3918.104
f 261 262 263
f 263 264 261
v 2049.770 0.050 3918.113
v 2047.856 0.050 3925.880
v 2059.055 0.050 3928.640
v 2060.969 0.050 3920.872
f 265 266 267
f 267 268 265
v 2061.722 0.050 3921.140
v 2058.302 0.050 3928.372
v 2064.948 0.050 3931.515
v 2068.367 0.050 3924.283
f 269 270 271
f 271 272 269
v 2069.333 0.050 3924.925
v 2063.982 0.050 3930.873
v 2069.281 0.050 3935.639
v 2074.631 0.050 3929.692
f 273 274 275
f 275 276 273
v 2074.138 0.050 3929.313
v 2069.775 0.050 3936.019
v 2075.519 0.050 3939.755
v 2079.882 0.050 3933.050
f 277 278 279
f 279 280 277
v 2079.088 0.050 3932.651
v 2076.312 0.050 3940.154
v 2081.166 0.050 3941.950
v 2083.942 0.050 3934.447
f 281 282 283
f 283 284 281
v 2083.270 0.050 3934.263
v 2081.838 0.050 3942.134
v 2087.137 0.050 3943.098
v 2088.569 0.050 3935.227
f 285 286 287
f 287 288 285
v 2087.544 0.050 3935.174
v 2088.161 0.050 3943.150
v 2097.723 0.050 3942.411
v 2097.107 0.050 3934.435
f 289 290 291
f 291 292 289
v 2097.073 0.050 3934.437
v 2097.757 0.050 3942.408
v 2107.308 0.050 3941.589
v 2106.625 0.050 3933.619
f 293 294 295
f 295 296 293
v 2107.164 0.050 3933.609
v 2106.768 0.050 3941.599
v 2114.227 0.050 3941.969
v 2114.623 0.050 3933.979
f 297 298 299
f 299 300 297
v 2115.308 0.050 3934.073
v 2113.541 0.050 3941.875
v 2119.141 0.050 3943.143
v 2120.907 0.050 3935.340
f 301 302 303
f 303 304 301
v 2121.880 0.050 3935.698
v 2118.168 0.050 3942.785
v 2124.447 0.050 3946.073
v 2128.158 0.050 3938.986
f 305 306 307
f 307 308 305
v 2129.531 0.050 3940.167
v 2123.074 0.050 3944.891
v 2126.948 0.050 3950.186
v 2133.405 0.050 3945.462
f 309 310 311
f 311 312 309
v 2133.886 0.050 3946.327
v 2126.467 0.050 3949.321
v 2130.352 0.050 3958.947
v 2137.771 0.050 3955.953
f 313 314 315
f 315 316 313
v 2137.784 0.050 3955.987
v 2130.339 0.050 3958.913
v 2133.478 0.050 3966.902
v 2140.924 0.050 3963.976
f 317 318 319
f 319 320 317
v 2140.103 0.050 3962.687
v 2134.298 0.050 3968.191
v 2138.617 0.050 3972.747
v 2144.423 0.050 3967.242
f 321 322 323
f 323 324 321
v 2143.512 0.050 3966.526
v 2139.528 0.050 3973.463
v 2147.966 0.050 3978.309
v 2151.950 0.050 3971.372
f 325 326 327
f 327 328 325
v 2152.413 0.050 3971.682
v 2147.503 0.050 3977.999
v 2159.225 0.050 3987.110
v 2164.135 0.050 3980.793
f 329 330 331
f 331 332 329
v 2164.235 0.050 3980.875
v 2159.124 0.050 3987.029
v 2165.325 0.050 3992.178
v 2170.436 0.050 3986.024
f 333 334 335
f 335 336 333
v 2171.297 0.050 3987.022
v 2164.463 0.050 3991.181
v 2168.193 0.050 3997.308
v 2175.026 0.050 3993.148
f 337 338 339
f 339 340 337
v 2175.308 0.050 3993.705
v 2167.911 0.050 3996.751
v 2173.287 0.050 4009.810
v 2180.685 0.050 4006.764
f 341 342 343
f 343 344 341
v 2180.697 0.050 4006.794
v 2173.275 0.050 4009.780
v 2190.964 0.050 4053.751
v 2198.386 0.050 4050.765
f 345 346 347
f 347 348 345
v 2197.643 0.050 4049.577
v 2191.707 0.050 4054.939
v 2195.213 0.050 4058.821
v 2201.150 0.050 4053.459
f 349 350 351
f 351 352 349
v 2200.112 0.050 4052.637
v 2196.251 0.050 4059.643
v 2201.928 0.050 4062.772
v 2205.790 0.050 4055.766
f 353 354 355
f 355 356 353
v 2204.604 0.050 4055.339
v 2203.113 0.050 4063.199
v 2211.395 0.050 4064.771
v 2212.887 0.050 4056.911
f 357 358 359
f 359 360 357
v 2212.508 0.050 4056.858
v 2211.774 0.050 4064.824
v 2234.394 0.050 4066.910
v 2235.128 0.050 4058.944
f 361 362 363
f 363 364 361
v 2235.485 0.050 4058.993
v 2234.037 0.050 4066.861
v 2289.196 0.050 4077.015
v 2290.644 0.050 4069.147
f 365 366 367
f 367 368 365
v 2290.472 0.050 4069.119
v 2289.367 0.050 4077.043
v 2358.942 0.050 4086.748
v 2360.047 0.050 4078.825
f 369 370 371
f 371 372 369
v 2359.843 0.050 4078.801
v 2359.146 0.050 4086.771
v 2383.024 0.050 4088.857
v 2383.721 0.050 4080.888
f 373 374 375
f 375 376 373
v 2383.462 0.050 4080.874
v 2383.283 0.050 4088.872
v 2403.287 0.050 4089.320
v 2403.466 0.050 4081.322
f 377 378 379
f 379 380 377
v 2403.297 0.050 4081.322
v 2403.457 0.050 4089.321
v 2421.969 0.050 4088.951
v 2421.809 0.050 4080.953
f 381 382 383
f 383 384 381
v 2421.816 0.050 4080.952
v 2421.963 0.050 4088.951
v 2446.375 0.050 4088.502
v 2446.228 0.050 4080.503
f 385 386 387
f 387 388 385
v 2446.617 0.050 4080.515
v 2445.986 0.050 4088.490
v 2463.007 0.050 4089.837
v 2463.638 0.050 4081.862
f 389 390 391
f 391 392 389
v 2463.842 0.050 4081.884
v 2462.802 0.050 4089.816
v 2481.537 0.050 4092.272
v 2482.577 0.050 4084.340
f 393 394 395
f 395 396 393
v 2482.296 0.050 4084.313
v 2481.819 0.050 4092.299
v 2493.096 0.050 4092.972
v 2493.572 0.050 4084.986
f 397 398 399
f 399 400 397
v 2492.268 0.050 4085.124
v 2494.400 0.050 4092.835
v 2502.760 0.050 4090.524
v 2500.628 0.050 4082.813
f 401 402 403
f 403 404 401
v 2499.203 0.050 4083.539
v 2504.185 0.050 4089.798
v 2510.007 0.050 4085.163
v 2505.025 0.050 4078.904
f 405 406 407
f 407 408 405
v 2504.380 0.050 4079.551
v 2510.652 0.050 4084.516
v 2514.081 0.050 4080.185
v 2507.808 0.050 4075.220
f 409 410 411
f 411 412 409
v 2507.554 0.050 4075.580
v 2514.335 0.050 4079.825
v 2521.949 0.050 4067.664
v 2515.169 0.050 4063.419
f 413 414 415
f 415 416 413
v 2515.374 0.050 4063.121
v 2521.743 0.050 4067.962
v 2526.742 0.050 4061.386
v 2520.373 0.050 4056.545
f 417 418 419
f 419 420 417
v 2520.835 0.050 4056.035
v 2526.279 0.050 4061.897
v 2537.923 0.050 4051.082
v 2532.479 0.050 4045.220
f 421 422 423
f 423 424 421
v 2533.738 0.050 4044.429
v 2536.665 0.050 4051.874
v 2554.131 0.050 4045.008
v 2551.204 0.050 4037.562
f 425 426 427
f 427 428 425
v 2551.828 0.050 4037.374
v 2553.507 0.050 4045.196
v 2568.145 0.050 4042.053
v 2566.466 0.050 4034.232
f 429 430 431
f 431 432 429
v 2567.051 0.050 4034.151
v 2567.560 0.050 4042.134
v 2586.217 0.050 4040.946
v 2585.709 0.050 4032.962
f 433 434 435
f 435 436 433
v 2586.119 0.050 4032.957
v 2585.807 0.050 4040.951
v 2601.035 0.050 4041.545
v 2601.347 0.050 4033.551
f 437 438 439
f 439 440 437
v 1836.788 0.050 3906.018
v 1828.963 0.050 3907.684
v 1832.536 0.050 3924.467
v 1840.361 0.050 3922.801
f 441 442 443
f 443 444 441
v 1840.408 0.050 3923.066
v 1832.489 0.050 3924.202
v 1834.126 0.050 3935.610
v 1842.045 0.050 3934.474
f 445 446 447
f 447 448 445
v 1842.044 0.050 3934.473
v 1834.126 0.050 3935.612
v 1835.406 0.050 3944.512
v 1843.325 0.050 3943.373
f 449 450 451
f 451 452 449
v 1843.364 0.050 3943.844
v 1835.367 0.050 3944.040
v 1835.812 0.050 3962.249
v 1843.809 0.050 3962.053
f 453 454 455
f 455 456 453
v 1843.776 0.050 3962.677
v 1835.845 0.050 3961.625
v 1832.261 0.050 3988.655
v 1840.191 0.050 3989.706
f 457 458 459
f 459 460 457
v 1840.164 0.050 3989.880
v 1832.288 0.050 3988.481
v 1828.258 0.050 4011.166
v 1836.135 0.050 4012.565
f 461 462 463
f 463 464 461
v 1836.086 0.050 4012.801
v 1828.307 0.050 4010.931
v 1823.532 0.050 4030.790
v 1831.310 0.050 4032.660
f 465 466 467
f 467 468 465
v 1850.480 0.050 3703.670
v 1853.031 0.050 3711.252
v 1868.771 0.050 3705.957
v 1866.220 0.050 3698.375
f 469 470 471
f 471 472 469
v 1866.503 0.050 3698.291
v 1868.489 0.050 3706.041
v 1882.449 0.050 3702.462
v 1880.462 0.050 3694.713
f 473 474 475
f 475 476 473
v 1880.346 0.050 3694.744
v 1882.564 0.050 3702.431
v 1897.347 0.050 3698.166
v 1895.130 0.050 3690.479
f 477 478 479
f 479 480 477
v 1895.063 0.050 3690.499
v 1897.414 0.050 3698.146
v 1907.121 0.050 3695.162
v 1904.770 0.050 3687.515
f 481 482 483
f 483 484 481
v 1904.129 0.050 3687.775
v 1907.762 0.050 3694.902
v 1915.377 0.050 3691.020
v 1911.743 0.050 3683.893
f 485 486 487
f 487 488 485
v 1911.098 0.050 3684.303
v 1916.021 0.050 3690.609
v 1923.480 0.050 3684.786
v 1918.557 0.050 3678.480
f 489 490 491
f 491 492 489
v 1917.647 0.050 3679.480
v 1924.389 0.050 3683.786
v 1930.445 0.050 3674.305
v 1923.703 0.050 3669.999
f 493 494 495
f 495 496 493
v 1923.637 0.050 3670.105
v 1930.511 0.050 3674.198
v 1938.192 0.050 3661.297
v 1931.318 0.050 3657.204
f 497 498 499
f 499 500 497
v 1931.682 0.050 3656.690
v 1937.828 0.050 3661.812
v 1944.552 0.050 3653.743
v 1938.406 0.050 3648.622
f 501 502 503
f 503 504 501
v 1938.504 0.050 3648.509
v 1944.454 0.050 3653.856
v 1955.051 0.050 3642.064
v 1949.101 0.050 3636.717
f 505 506 507
f 507 508 505
v 1948.876 0.050 3636.991
v 1955.277 0.050 3641.790
v 1962.445 0.050 3632.230
v 1956.045 0.050 3627.431
f 509 510 511
f 511 512 509
v 1955.741 0.050 3627.901
v 1962.749 0.050 3631.760
v 1970.063 0.050 3618.476
v 1963.055 0.050 3614.617
f 513 514 515
f 515 516 513
v 1962.805 0.050 3615.165
v 1970.313 0.050 3617.928
v 1975.534 0.050 3603.746
v 1968.026 0.050 3600.983
f 517 518 519
f 519 520 517
v 1967.890 0.050 3601.430
v 1975.669 0.050 3603.299
v 1981.191 0.050 3580.309
v 1973.412 0.050 3578.441
f 521 522 523
f 523 524 521
v 1973.356 0.050 3578.717
v 1981.247 0.050 3580.033
v 1984.386 0.050 3561.216
v 1976.495 0.050 3559.900
f 525 526 527
f 527 528 525
v 1976.558 0.050 3559.597
v 1984.323 0.050 3561.518
v 1987.463 0.050 3548.829
v 1979.697 0.050 3546.907
f 529 530 531
f 531 532 529
v 1979.879 0.050 3546.350
v 1987.281 0.050 3549.386
v 1990.709 0.050 3541.027
v 1983.308 -89.106 3537.991
f 533 534 535
f 535 536 533
v 1983.214 -89.105 3538.242
v 1990.802 0.050 3540.776
v 1993.942 -89.119 3531.374
v 1986.353 -89.180 3528.841
f 537 538 539
f 539 540 537
v 1986.149 -89.166 3529.997
v 1994.146 -89.144 3530.218
v 1994.435 -89.384 3519.773
v 1986.439 -89.296 3519.551
f 541 542 543
f 543 544 541
v 1986.484 -89.287 3520.273
v 1994.390 -89.400 3519.052
v 1992.453 -89.636 3506.507
v 1984.547 -89.393 3507.728
f 545 546 547
f 547 548 545
v 1984.683 -89.390 3508.312
v 1992.318 -89.645 3505.923
v 1981.575 -89.539 3471.590
v 1973.940 -88.957 3473.979
f 549 550 551
f 551 552 549
v 1974.008 -88.963 3474.178
v 1981.507 -89.535 3471.392
v 1974.182 -88.894 3451.677
v 1966.683 -88.160 3454.463
f 553 554 555
f 555 556 553
v 1966.752 -88.169 3454.636
v 1974.113 -88.887 3451.503
v 1960.833 -87.062 3420.300
v 1953.472 -86.206 3423.433
f 557 558 559
f 559 560 557
v 1953.569 -86.222 3423.644
v 1960.736 -87.047 3420.088
v 1926.850 -82.543 3351.792
v 1919.684 -81.588 3355.347
f 561 562 563
f 563 564 561
v 4188.694 -104.112 2630.280
v 4181.351 -103.886 2627.105
v 4171.800 -104.925 2649.198
v 4179.143 -105.174 2652.373
f 565 566 567
f 567 568 565
v 4178.810 -105.202 2652.989
v 4172.133 -104.898 2648.583
v 4154.210 -105.315 2675.747
v 4160.888 -105.458 2680.153
f 569 570 571
f 571 572 569
v 4160.834 -105.458 2680.232
v 4154.264 -105.315 2675.668
v 4114.857 -101.730 2732.401
v 4121.427 -101.901 2736.964
f 573 574 575
f 575 576 573
v 4122.141 -102.023 2734.776
v 4114.143 -101.617 2734.589
v 4113.242 -99.953 2773.110
v 4121.239 -100.105 2773.297
f 577 578 579
f 579 580 577
v 4120.871 -100.193 2771.525
v 4113.610 -99.877 2774.883
v 4119.131 -99.310 2786.821
v 4126.392 -99.581 2783.463
f 581 582 583
f 583 584 581
v 4125.646 -99.644 2782.370
v 4119.878 -99.251 2787.913
v 4138.390 -97.863 2807.180
v 4144.159 -98.247 2801.638
f 585 586 587
f 587 588 585
v 4144.456 -98.216 2801.984
v 4138.093 -97.894 2806.834
v 4176.320 -93.002 2856.989
v 4182.683 -93.182 2852.139
f 589 590 591
f 591 592 589
v 4182.534 -93.200 2851.956
v 4176.469 -92.984 2857.172
v 4201.248 -90.901 2885.987
v 4207.314 -91.186 2880.771
f 593 594 595
f 595 596 593
v 4208.027 -91.148 2881.977
v 4200.535 -90.939 2884.781
v 4219.192 -90.789 2934.645
v 4226.685 -90.795 2931.842
f 597 598 599
f 599 600 597
v 4226.061 -90.759 2930.743
v 4219.816 -90.842 2935.743
v 4223.400 -91.070 2940.220
v 4229.645 -90.970 2935.220
f 601 602 603
f 603 604 601
v 4229.177 -90.944 2934.727
v 4223.869 -91.096 2940.713
v 4230.437 -91.408 2946.537
v 4235.744 -91.258 2940.551
f 605 606 607
f 607 608 605
v 4283.847 -94.362 2861.781
v 4277.289 -94.174 2857.199
v 4258.254 -92.557 2884.442
v 4264.812 -92.791 2889.024
f 609 610 611
f 611 612 609
v 4264.883 -92.797 2888.918
v 4258.182 -92.550 2884.548
v 4235.640 -90.894 2919.107
v 4242.341 -91.265 2923.478
f 613 614 615
f 615 616 613
v 4242.443 -91.271 2923.313
v 4235.539 -90.893 2919.271
v 4232.477 -90.852 2924.501
v 4239.381 -91.102 2928.542
f 617 618 619
f 619 620 617
v 4239.636 -91.116 2928.024
v 4232.222 -90.849 2925.019
v 4229.985 -90.822 2930.539
v 4237.399 -91.078 2933.544
f 621 622 623
f 623 624 621
v 4237.627 -91.062 2932.759
v 4229.757 -90.824 2931.324
v 4228.788 -91.011 2936.632
v 4236.658 -91.201 2938.068
f 625 626 627
f 627 628 625
v 4236.716 -91.169 2937.113
v 4228.730 -91.046 2937.587
v 4229.098 -91.286 2943.780
v 4237.084 -91.413 2943.307
f 629 630 631
f 631 632 629
v 4236.852 -91.361 2942.183
v 4229.329 -91.332 2944.904
v 4230.977 -91.525 2949.460
v 4238.500 -91.609 2946.739
f 633 634 635
f 635 636 633
v 4237.701 -91.521 2945.412
v 4231.775 -91.585 2950.787
v 4245.657 -92.709 2966.092
v 4251.583 -92.681 2960.718
f 637 638 639
f 639 640 637
v 4251.780 -92.697 2960.953
v 4245.459 -92.687 2965.856
v 4249.567 -93.142 2971.152
v 4255.888 -93.125 2966.249
f 641 642 643
f 643 644 641
v 4256.278 -93.171 2966.858
v 4249.177 -93.095 2970.543
v 4252.082 -93.495 2976.142
v 4259.183 -93.548 2972.457
f 645 646 647
f 647 648 645
v 4259.550 -93.609 2973.490
v 4251.716 -93.429 2975.109
v 4254.554 -94.218 2988.843
v 4262.389 -94.314 2987.223
f 649 650 651
f 651 652 649
v 4261.884 -94.245 2985.946
v 4255.059 -94.293 2990.120
v 4266.558 -95.489 3008.925
v 4273.383 -95.309 3004.751
f 653 654 655
f 655 656 653
v 4273.824 -95.357 3005.763
v 4266.118 -95.435 3007.912
v 4269.992 -96.121 3021.804
v 4277.698 -95.940 3019.656
f 657 658 659
f 659 660 657
v 4277.755 -96.018 3021.571
v 4269.934 -96.029 3019.889
v 4268.298 -96.442 3027.495
v 4276.119 -96.374 3029.178
f 661 662 663
f 663 664 661
v 4274.135 -96.539 3031.842
v 4270.282 -96.270 3024.831
v 4250.723 -97.346 3035.580
v 4254.576 -97.719 3042.591
f 665 666 667
f 667 668 665
v 4256.187 -97.554 3040.952
v 4249.112 -97.511 3037.219
v 4246.429 -97.979 3042.303
v 4253.504 -97.994 3046.036
f 669 670 671
f 671 672 669
v 4253.733 -97.764 3042.823
v 4246.200 -98.235 3045.516
v 4248.438 -98.618 3051.775
v 4255.971 -98.102 3049.083
f 673 674 675
f 675 676 673
v 4255.601 -98.066 3048.317
v 4248.807 -98.658 3052.541
v 4267.097 -99.240 3081.963
v 4273.891 -98.563 3077.739
f 677 678 679
f 679 680 677
v 1878.498 -91.977 2652.203
v 1871.277 -91.498 2648.761
v 1849.781 -91.254 2693.845
v 1857.002 -91.452 2697.288
f 681 682 683
f 683 684 681
v 1857.386 -91.512 2695.779
v 1849.397 -91.194 2695.355
v 1848.796 -90.838 2706.699
v 1856.785 -91.156 2707.122
f 685 686 687
f 687 688 685
v 1856.176 -91.200 2704.781
v 1849.405 -90.795 2709.040
v 1855.984 -90.711 2719.499
v 1862.755 -91.167 2715.240
f 689 690 691
f 691 692 689
v 1861.410 -91.149 2713.929
v 1857.329 -90.680 2720.810
v 1900.621 -90.117 2746.482
v 1904.702 -90.520 2739.601
f 693 694 695
f 695 696 693
v 1902.763 -90.545 2739.043
v 1902.560 -90.099 2747.040
v 1914.505 -90.168 2747.344
v 1914.708 -90.567 2739.347
f 697 698 699
f 699 700 697
v 1911.354 -90.470 2741.016
v 1917.858 -90.272 2745.675
v 1948.014 -90.678 2703.575
v 1941.511 -91.045 2698.916
f 701 702 703
f 703 704 701
v 1921.175 -81.672 3356.979
v 1925.359 -82.404 3350.160
v 1919.525 -81.896 3346.581
v 1915.342 -81.245 3353.400
f 705 706 707
f 707 708 705
v 1916.339 -81.323 3353.838
v 1918.529 -81.820 3346.144
v 1913.007 -81.369 3344.572
v 1910.817 -80.858 3352.267
f 709 710 711
f 711 712 709
v 1912.159 -80.980 3352.412
v 1911.666 -81.251 3344.427
v 1906.745 -80.786 3344.731
v 1907.238 -80.499 3352.716
f 713 714 715
f 715 716 713
v 1908.442 -80.624 3352.451
v 1905.542 -80.663 3344.995
v 1898.819 -79.926 3347.610
v 1901.718 -79.870 3355.066
f 717 718 719
f 719 720 717
v 1902.480 -79.961 3354.671
v 1898.056 -79.837 3348.005
v 1890.297 -78.864 3353.155
v 1894.721 -79.067 3359.821
f 721 722 723
f 723 724 721
v 1893.984 -78.991 3360.206
v 1891.035 -78.953 3352.770
v 1883.343 -78.065 3355.820
v 1886.292 -78.208 3363.257
f 725 726 727
f 727 728 725
v 1885.856 -78.164 3363.401
v 1883.778 -78.115 3355.675
v 1879.604 -77.754 3356.798
v 1881.681 -77.744 3364.523
f 729 730 731
f 731 732 729
v 1880.241 -77.669 3364.640
v 1881.044 -77.822 3356.681
v 1877.382 -77.684 3356.311
v 1876.578 -77.516 3364.271
f 733 734 735
f 735 736 733
v 1875.352 -77.468 3363.945
v 1878.608 -77.720 3356.637
v 1872.564 -77.599 3353.943
v 1869.307 -77.240 3361.251
f 737 738 739
f 739 740 737
v 1867.948 -77.193 3360.257
v 1873.923 -77.606 3354.937
v 1864.294 -77.750 3344.122
v 1858.319 -77.220 3349.442
f 741 742 743
f 743 744 741
v 1858.965 -77.218 3350.025
v 1863.648 -77.753 3343.539
v 1843.789 -77.642 3329.198
v 1839.105 -77.157 3335.684
f 745 746 747
f 747 748 745
v 1919.704 -81.588 3355.387
v 1926.830 -82.542 3351.752
v 1894.581 -83.477 3288.526
v 1887.454 -82.696 3292.161
f 749 750 751
f 751 752 749
v 1887.165 -82.748 3291.418
v 1894.870 -83.428 3289.268
v 1892.332 -84.110 3280.170
v 1884.627 -83.478 3282.320
f 753 754 755
f 755 756 753
v 1884.668 -83.704 3280.031
v 1892.291 -83.897 3282.459
v 1894.528 -84.658 3275.434
v 1886.906 -84.501 3273.006
f 757 758 759
f 759 760 757
v 1888.749 -84.807 3270.737
v 1892.685 -84.355 3277.702
v 1899.554 -85.055 3273.820
v 1895.617 -85.482 3266.855
f 761 762 763
f 763 764 761
v 1897.961 -85.631 3266.355
v 1897.210 -84.894 3274.320
v 1946.324 -87.299 3278.955
v 1947.075 -87.656 3270.990
f 765 766 767
f 767 768 765
v 1946.240 -87.613 3270.999
v 1947.159 -87.350 3278.946
v 1962.688 -88.334 3277.150
v 1961.769 -88.445 3269.203
f 769 770 771
f 771 772 769
v 1959.246 -88.290 3270.511
v 1965.211 -88.505 3275.842
v 1971.478 -88.920 3268.830
v 1965.514 -88.719 3263.499
f 773 774 775
f 775 776 773
v 1964.623 -88.654 3265.165
v 1972.369 -88.973 3267.164
v 1979.382 -89.205 3239.988
v 1971.636 -89.158 3237.989
f 777 778 779
f 779 780 777
v 1972.024 -89.167 3237.025
v 1978.994 -89.204 3240.951
v 1987.065 -89.098 3226.624
v 1980.095 -89.145 3222.697
f 781 782 783
f 783 784 781
v 1980.858 -89.130 3221.730
v 1986.302 -89.115 3227.591
v 2011.382 -88.080 3204.297
v 2005.938 -88.064 3198.436
f 785 786 787
f 787 788 785
v 2007.064 -88.021 3197.699
v 2010.256 -88.121 3205.034
v 2035.626 -87.168 3193.995
v 2032.434 -86.977 3186.659
f 789 790 791
f 791 792 789
v 2031.570 -87.023 3187.172
v 2036.489 -87.125 3193.481
v 2055.458 -86.193 3178.691
v 2050.539 -85.953 3172.382
f 793 794 795
f 795 796 793
v 2052.062 -85.946 3171.648
v 2053.935 -86.223 3179.426
v 2061.995 -86.158 3177.484
v 2060.121 -85.939 3169.707
f 797 798 799
f 799 800 797
v 2061.264 -85.941 3169.601
v 2060.852 -86.159 3177.590
v 2072.641 -86.234 3178.198
v 2073.053 -85.979 3170.208
f 801 802 803
f 803 804 801
v 2074.071 -85.984 3170.395
v 2071.623 -86.220 3178.011
v 2088.343 -86.606 3183.386
v 2090.791 -86.301 3175.770
f 805 806 807
f 807 808 805
v 2089.690 -86.231 3175.580
v 2089.444 -86.675 3183.576
v 2132.747 -89.146 3184.909
v 2132.993 -88.777 3176.913
f 809 810 811
f 811 812 809
v 2132.442 -88.725 3176.934
v 2133.298 -89.196 3184.888
v 2149.863 -90.655 3183.106
v 2149.007 -90.253 3175.152
f 813 814 815
f 815 816 813
v 2148.324 -90.192 3175.286
v 2150.545 -90.713 3182.971
v 2158.315 -91.359 3180.727
v 2156.094 -90.909 3173.041
f 817 818 819
f 819 820 817
v 2157.724 -91.068 3172.918
v 2156.686 -91.209 3180.850
v 2166.983 -92.224 3182.197
v 2168.021 -92.089 3174.264
f 821 822 823
f 823 824 821
v 2167.725 -92.060 3174.237
v 2167.279 -92.253 3182.224
v 2228.783 -99.079 3185.658
v 2229.229 -99.239 3177.670
f 825 826 827
f 827 828 825
v 2229.947 -99.317 3177.776
v 2228.065 -99.005 3185.552
v 2242.848 -100.478 3189.130
v 2244.730 -100.869 3181.355
f 829 830 831
f 831 832 829
v 2244.367 -100.832 3181.285
v 2243.211 -100.514 3189.201
v 2256.503 -101.710 3191.142
v 2257.659 -102.057 3183.226
f 833 834 835
f 835 836 833
v 2255.544 -101.894 3183.491
v 2258.617 -101.865 3190.877
v 2270.105 -102.852 3186.097
v 2267.032 -102.916 3178.711
f 837 838 839
f 839 840 837
v 2265.183 -102.718 3180.273
v 2271.954 -103.048 3184.534
v 2281.060 -104.216 3170.061
v 2274.289 -103.740 3165.800
f 841 842 843
f 843 844 841
v 2273.688 -103.663 3168.262
v 2281.661 -104.296 3167.599
v 2280.915 -104.356 3158.633
v 2272.943 -103.713 3159.296
f 845 846 847
f 847 848 845
v 2272.953 -103.712 3159.399
v 2280.905 -104.356 3158.529
v 2278.523 -104.195 3136.741
v 2270.570 -103.575 3137.610
f 849 850 851
f 851 852 849
v 2270.628 -103.556 3136.374
v 2278.465 -104.215 3137.977
v 2279.657 -104.189 3132.153
v 2271.819 -103.540 3130.550
f 853 854 855
f 855 856 853
v 2272.762 -103.578 3128.679
v 2278.714 -104.154 3134.025
v 2293.196 -104.914 3117.901
v 2287.245 -104.301 3112.555
f 857 858 859
f 859 860 857
v 2286.383 -104.314 3114.098
v 2294.058 -104.942 3116.358
v 2296.740 -104.568 3107.246
v 2289.066 -104.006 3104.987
f 861 862 863
f 863 864 861
v 2288.903 -104.062 3106.161
v 2296.903 -104.500 3106.071
v 2296.313 -100.562 3053.527
v 2288.313 -100.344 3053.617
f 865 866 867
f 867 868 865
v 2289.323 -100.589 3056.229
v 2295.303 -100.304 3050.915
v 2288.134 -99.366 3042.847
v 2282.154 -99.682 3048.160
f 869 870 871
f 871 872 869
v 2282.157 -99.682 3048.163
v 2288.132 -99.366 3042.844
v 2259.167 -96.647 3010.305
v 2253.191 -96.982 3015.625
f 873 874 875
f 875 876 873
v 2252.688 -96.944 3014.919
v 2259.670 -96.687 3011.012
v 2214.886 -96.682 2930.986
v 2207.904 -97.224 2934.893
f 877 878 879
f 879 880 877
v 2207.918 -97.223 2934.916
v 2214.872 -96.683 2930.963
v 2207.403 -97.267 2917.823
v 2200.448 -97.800 2921.777
f 881 882 883
f 883 884 881
v 2199.947 -97.839 2920.210
v 2207.905 -97.228 2919.390
v 2207.014 -97.297 2910.741
v 2199.056 -97.910 2911.560
f 885 886 887
f 887 888 885
v 2199.199 -97.899 2910.018
v 2206.871 -97.308 2912.283
v 2209.254 -97.125 2904.214
v 2201.581 -97.717 2901.949
f 889 890 891
f 891 892 889
v 2202.096 -97.678 2900.853
v 2208.739 -97.165 2905.311
v 2216.653 -96.560 2893.518
v 2210.011 -97.067 2889.060
f 893 894 895
f 895 896 893
v 2209.600 -97.096 2889.849
v 2217.064 -96.531 2892.729
v 2227.372 -96.014 2866.014
v 2219.908 -96.499 2863.134
f 897 898 899
f 899 900 897
v 2219.667 -96.504 2864.113
v 2227.614 -96.016 2865.035
v 2229.105 -96.168 2852.186
v 2221.159 -96.557 2851.264
f 901 902 903
f 903 904 901
v 2221.148 -96.549 2852.087
v 2229.115 -96.183 2851.363
v 2227.624 -96.564 2834.948
v 2219.657 -96.789 2835.672
f 905 906 907
f 907 908 905
v 2219.640 -96.793 2835.352
v 2227.640 -96.556 2835.268
v 2227.339 -97.206 2806.599
v 2219.340 -97.150 2806.683
f 909 910 911
f 911 912 909
v 2219.851 -97.181 2804.683
v 2226.828 -97.157 2808.598
v 2233.697 -97.581 2796.356
v 2226.720 -97.526 2792.442
f 913 914 915
f 915 916 913
v 2227.688 -97.579 2791.292
v 2232.728 -97.525 2797.506
v 2286.473 -102.025 2753.913
v 2281.433 -102.223 2747.700
f 917 918 919
f 919 920 917
v 2282.339 -102.304 2747.147
v 2285.567 -101.935 2754.467
v 2293.025 -102.594 2751.179
v 2289.798 -102.920 2743.858
f 921 922 923
f 923 924 921
v 2291.871 -103.060 2743.545
v 2290.952 -102.457 2751.492
v 2298.722 -102.635 2752.390
v 2299.641 -103.247 2744.443
f 925 926 927
f 927 928 925
v 2299.730 -103.247 2744.454
v 2298.633 -102.635 2752.379
v 2326.697 -102.709 2756.261
v 2327.793 -103.460 2748.337
f 929 930 931
f 931 932 929
v 2326.522 -103.437 2748.365
v 2327.969 -102.730 2756.233
v 2339.312 -102.966 2754.147
v 2337.865 -103.679 2746.279
f 933 934 935
f 935 936 933
v 2336.079 -103.671 2747.098
v 2341.098 -103.000 2753.327
v 2351.852 -103.404 2744.664
v 2346.833 -103.942 2738.435
f 937 938 939
f 939 940 937
v 2346.615 -103.936 2738.623
v 2352.069 -103.410 2744.476
v 2426.709 -99.974 2674.907
v 2421.255 -100.587 2669.055
f 941 942 943
f 943 944 941
v 2420.831 -100.638 2669.517
v 2427.132 -99.924 2674.446
v 2434.602 -99.041 2664.898
v 2428.301 -99.751 2659.969
f 945 946 947
f 947 948 945
v 2427.456 -99.853 2662.236
v 2435.447 -98.941 2662.631
v 2436.037 -98.834 2650.679
v 2428.046 -99.697 2650.285
f 949 950 951
f 951 952 949
v 2527.767 -93.286 2600.011
v 2523.244 -93.017 2606.610
v 2645.662 -89.687 2690.507
v 2650.185 -89.942 2683.908
f 953 954 955
f 955 956 953
v 2649.189 -89.885 2683.413
v 2646.658 -89.752 2691.002
v 2658.302 -90.463 2694.885
v 2660.833 -90.565 2687.295
f 957 958 959
f 959 960 957
v 2658.727 -90.439 2687.179
v 2660.408 -90.584 2695.001
v 2668.768 -91.069 2693.205
v 2667.087 -90.947 2685.383
f 961 962 963
f 963 964 961
v 2665.073 -90.821 2686.491
v 2670.781 -91.193 2692.097
v 2686.901 -92.208 2675.682
v 2681.192 -91.845 2670.077
f 965 966 967
f 967 968 965
v 2683.308 -91.974 2668.948
v 2684.785 -92.077 2676.810
v 2688.370 -92.301 2676.137
v 2686.892 -92.194 2668.274
f 969 970 971
f 971 972 969
v 2688.306 -92.281 2668.263
v 2686.956 -92.212 2676.148
v 2696.140 -92.796 2677.720
v 2697.490 -92.853 2669.834
f 973 974 975
f 975 976 973
v 2696.878 -92.815 2669.778
v 2696.752 -92.835 2677.777
v 2700.926 -93.099 2677.843
v 2701.053 -93.073 2669.844
f 977 978 979
f 979 980 977
v 2698.782 -92.935 2670.507
v 2703.197 -93.240 2677.179
v 2709.842 -93.579 2672.781
v 2705.428 -93.325 2666.110
f 981 982 983
f 983 984 981
v 3234.743 -81.194 2647.328
v 3229.157 -81.237 2653.055
v 3272.004 -82.229 2694.851
v 3277.590 -82.375 2689.125
f 985 986 987
f 987 988 985
v 3276.673 -82.398 2688.455
v 3272.921 -82.207 2695.521
v 3277.697 -82.119 2698.057
v 3281.448 -82.309 2690.991
f 989 990 991
f 991 992 989
v 3280.990 -82.317 2690.783
v 3278.155 -82.112 2698.264
v 3333.692 -79.208 2719.314
v 3336.527 -79.148 2711.833
f 993 994 995
f 995 996 993
v 3337.852 -79.041 2712.662
v 3332.367 -79.330 2718.486
v 3345.058 -78.133 2730.437
v 3350.542 -77.937 2724.613
f 997 998 999
f 999 1000 997
v 3351.800 -77.794 2727.571
v 3343.800 -78.289 2727.479
v 3343.645 -77.921 2741.055
v 3351.644 -77.518 2741.146
f 1001 1002 1003
f 1003 1004 1001
v 3351.435 -77.503 2742.376
v 3343.853 -77.944 2739.825
v 3338.476 -77.612 2755.804
v 3346.059 -77.254 2758.355
f 1005 1006 1007
f 1007 1008 1005
v 3346.268 -77.293 2757.080
v 3338.268 -77.562 2757.080
v 3338.268 -77.258 2763.801
v 3346.268 -77.054 2763.801
f 1009 1010 1011
f 1011 1012 1009
v 3346.200 -77.082 2763.068
v 3338.335 -77.223 2764.534
v 3350.436 -74.792 2829.467
v 3358.300 -75.278 2828.001
f 1013 1014 1015
f 1015 1016 1013
v 3358.045 -75.283 2827.160
v 3350.691 -74.780 2830.308
v 3381.292 -76.995 2901.816
v 3388.647 -77.908 2898.669
f 1017 1018 1019
f 1019 1020 1017
v 3386.479 -77.625 2896.538
v 3383.460 -77.268 2903.947
v 3397.041 -78.977 2909.480
v 3400.060 -79.361 2902.071
f 1021 1022 1023
f 1023 1024 1021
v 3401.126 -79.495 2902.715
v 3395.975 -78.843 2908.836
v 3437.486 -83.080 2943.765
v 3442.637 -83.802 2937.644
f 1025 1026 1027
f 1027 1028 1025
v 3442.595 -83.798 2937.609
v 3437.528 -83.084 2943.800
v 3470.368 -84.191 2970.673
v 3475.434 -84.924 2964.482
f 1029 1030 1031
f 1031 1032 1029
v 3473.580 -84.884 2963.636
v 3472.222 -84.228 2971.520
v 3480.882 -84.576 2973.012
v 3482.241 -85.252 2965.128
f 1033 1034 1035
f 1035 1036 1033
v 3482.597 -85.265 2965.206
v 3480.526 -84.563 2972.934
v 3571.897 -84.310 2997.417
v 3573.968 -84.650 2989.689
f 1037 1038 1039
f 1039 1040 1037
v 3574.812 -84.637 2990.022
v 3571.053 -84.322 2997.084
v 3580.604 -84.127 3002.168
v 3584.363 -84.364 2995.106
f 1041 1042 1043
f 1043 1044 1041
v 3585.905 -84.309 2996.565
v 3579.062 -84.181 3000.709
v 3605.634 -84.009 3044.591
v 3612.477 -84.398 3040.447
f 1045 1046 1047
f 1047 1048 1045
v 3611.556 -84.344 3039.397
v 3606.555 -84.061 3045.641
v 3614.025 -84.566 3051.623
v 3619.026 -84.826 3045.379
f 1049 1050 1051
f 1051 1052 1049
v 3617.996 -84.755 3044.781
v 3615.055 -84.644 3052.221
v 3642.217 -86.982 3062.957
v 3645.158 -86.906 3055.517
f 1053 1054 1055
f 1055 1056 1053
v 3644.398 -86.841 3055.301
v 3642.977 -87.054 3063.173
v 3679.412 -90.256 3069.750
v 3680.833 -89.773 3061.877
f 1057 1058 1059
f 1059 1060 1057
v 3682.130 -89.897 3062.354
v 3678.114 -90.126 3069.273
v 3683.781 -90.794 3072.561
v 3687.796 -90.545 3065.642
f 1061 1062 1063
f 1063 1064 1061
v 3688.415 -90.624 3066.085
v 3683.161 -90.713 3072.118
v 3701.674 -93.332 3088.242
v 3706.928 -93.176 3082.209
f 1065 1066 1067
f 1067 1068 1065
v 3704.478 -92.973 3081.229
v 3704.124 -93.510 3089.221
v 3710.692 -93.844 3089.512
v 3711.045 -93.310 3081.520
f 1069 1070 1071
f 1071 1072 1069
v 3708.665 -93.256 3082.177
v 3713.072 -93.916 3088.854
v 3728.000 -93.885 3079.003
v 3723.593 -93.072 3072.326
f 1073 1074 1075
f 1075 1076 1073
v 3722.049 -93.176 3074.267
v 3729.544 -93.780 3077.062
v 3734.331 -92.829 3064.227
v 3726.835 -92.233 3061.431
f 1077 1078 1079
f 1079 1080 1077
v 3726.594 -92.374 3063.115
v 3734.573 -92.686 3062.543
v 3731.879 -88.785 3024.921
v 3723.900 -88.511 3025.492
f 1081 1082 1083
f 1083 1084 1081
v 3723.945 -88.415 3024.540
v 3731.833 -88.881 3025.873
v 3744.379 -83.386 2951.672
v 3736.491 -82.861 2950.338
f 1085 1086 1087
f 1087 1088 1085
v 3737.139 -82.814 2948.739
v 3743.732 -83.400 2953.270
v 3748.351 -83.504 2946.549
v 3741.758 -82.752 2942.017
f 1089 1090 1091
f 1091 1092 1089
v 3742.792 -82.797 2940.985
v 3747.318 -83.460 2947.581
v 3770.161 -84.828 2931.906
v 3765.634 -84.392 2925.310
f 1093 1094 1095
f 1095 1096 1093
v 3766.540 -84.472 2924.845
v 3769.255 -84.764 2932.371
v 3836.291 -92.923 2908.191
v 3833.577 -92.545 2900.666
f 1097 1098 1099
f 1099 1100 1097
v 3833.785 -92.574 2900.597
v 3836.083 -92.894 2908.260
v 3916.701 -101.915 2884.081
v 3914.403 -101.510 2876.418
f 1101 1102 1103
f 1103 1104 1101
v 3915.378 -101.567 2876.253
v 3915.726 -101.856 2884.245
v 3943.344 -103.630 2883.044
v 3942.996 -103.290 2875.051
f 1105 1106 1107
f 1107 1108 1105
v 3944.143 -103.368 2875.167
v 3942.198 -103.550 2882.927
v 4000.574 -104.165 2897.559
v 4002.519 -103.812 2889.799
f 1109 1110 1111
f 1111 1112 1109
v 4000.490 -103.909 2889.821
v 4002.602 -104.063 2897.537
v 4007.523 -103.775 2896.190
v 4005.410 -103.633 2888.474
f 1113 1114 1115
f 1115 1116 1113
v 4003.622 -103.751 2889.520
v 4009.311 -103.654 2895.145
v 4022.446 -102.661 2881.860
v 4016.758 -102.758 2876.235
f 1117 1118 1119
f 1119 1120 1117
v 4021.938 -102.525 2875.801
v 4017.266 -102.905 2882.294
v 4024.735 -102.706 2887.669
v 4029.408 -102.334 2881.175
f 1121 1122 1123
f 1123 1124 1121
v 4030.270 -102.291 2882.020
v 4023.873 -102.725 2886.825
v 4043.276 -101.543 2912.655
v 4049.673 -100.969 2907.850
f 1125 1126 1127
f 1127 1128 1125
v 4049.034 -101.027 2907.178
v 4043.915 -101.485 2913.326
v 4060.045 -100.027 2926.756
v 4065.164 -99.569 2920.608
f 1129 1130 1131
f 1131 1132 1129
v 4064.626 -99.617 2920.230
v 4060.584 -99.979 2927.134
v 4097.308 -96.650 2948.633
v 4101.350 -96.186 2941.729
f 1133 1134 1135
f 1135 1136 1133
v 4099.662 -96.336 2941.195
v 4098.996 -96.507 2949.167
v 4104.373 -96.036 2949.616
v 4105.039 -95.841 2941.644
f 1137 1138 1139
f 1139 1140 1137
v 4104.463 -95.894 2941.638
v 4104.949 -95.985 2949.623
v 4131.822 -93.907 2947.985
v 4131.335 -93.708 2940.000
f 1141 1142 1143
f 1143 1144 1141
v 4131.751 -93.677 2939.996
v 4131.405 -93.937 2947.989
v 4171.035 -91.857 2949.706
v 4171.381 -91.518 2941.713
f 1145 1146 1147
f 1147 1148 1145
v 4173.876 -91.476 2942.729
v 4168.540 -91.897 2948.690
v 4172.125 -91.912 2951.899
v 4177.461 -91.491 2945.938
f 1149 1150 1151
f 1151 1152 1149
v 4178.431 -91.514 2947.257
v 4171.154 -91.889 2950.580
v 4196.312 -95.402 3005.673
v 4203.589 -95.036 3002.350
f 1153 1154 1155
f 1155 1156 1153
v 4203.813 -95.096 3002.972
v 4196.088 -95.341 3005.051
v 4208.623 -99.865 3051.627
v 4216.348 -99.464 3049.548
f 1157 1158 1159
f 1159 1160 1157
v 4215.919 -99.376 3048.535
v 4209.052 -99.955 3052.640
v 4223.691 -101.598 3077.123
v 4230.557 -101.023 3073.018
f 1161 1162 1163
f 1163 1164 1161
v 4229.352 -100.962 3071.749
v 4224.895 -101.659 3078.392
v 4248.929 -101.186 3094.516
v 4253.386 -100.532 3087.872
f 1165 1166 1167
f 1167 1168 1165
v 4250.976 -100.691 3087.198
v 4251.340 -101.016 3095.190
v 4261.192 -100.179 3094.741
v 4260.827 -99.907 3086.749
f 1169 1170 1171
f 1171 1172 1169
v 4257.432 -100.402 3092.534
v 4264.587 -99.693 3088.956
v 4247.266 -98.851 3054.318
v 4240.111 -99.454 3057.896
f 1173 1174 1175
f 1175 1176 1173
v 4239.707 -99.313 3055.716
v 4247.669 -98.978 3056.499
v 4248.270 -98.521 3050.385
v 4240.309 -98.800 3049.602
f 1177 1178 1179
f 1179 1180 1177
v 4241.425 -98.555 3047.201
v 4247.154 -98.752 3052.785
v 4252.831 -98.085 3046.962
v 4247.102 -97.886 3041.377
f 1181 1182 1183
f 1183 1184 1181
