# Roads mesh for tecate_core_z14_x2883_y6620
v -887.051 0.050 -4708.786
v -875.582 0.050 -4712.318
v -881.482 0.050 -4731.478
v -892.951 0.050 -4727.947
f 1 2 3
f 3 4 1
v -892.639 0.050 -4727.145
v -881.793 0.050 -4732.280
v -890.365 0.050 -4750.383
v -901.211 0.050 -4745.248
f 5 6 7
f 7 8 5
v -900.123 0.050 -4743.668
v -891.453 0.050 -4751.964
v -929.981 0.050 -4792.228
v -938.651 0.050 -4783.931
f 9 10 11
f 11 12 9
v -939.288 0.050 -4784.722
v -929.343 0.050 -4791.437
v -945.161 0.050 -4814.866
v -955.107 0.050 -4808.151
f 13 14 15
f 15 16 13
v -955.824 0.050 -4809.605
v -944.444 0.050 -4813.411
v -951.880 0.050 -4835.650
v -963.261 0.050 -4831.845
f 17 18 19
f 19 20 17
v -963.567 0.050 -4833.932
v -951.573 0.050 -4833.564
v -950.760 0.050 -4860.032
v -962.755 0.050 -4860.400
f 21 22 23
f 23 24 21
v -962.639 0.050 -4861.403
v -950.876 0.050 -4859.029
v -943.329 0.050 -4896.425
v -955.092 0.050 -4898.799
f 25 26 27
f 27 28 25
v -955.101 0.050 -4898.751
v -943.319 0.050 -4896.473
v -926.198 0.050 -4985.023
v -937.980 0.050 -4987.301
f 29 30 31
f 31 32 29
v -937.641 0.050 -4988.436
v -926.537 0.050 -4983.887
v -907.256 0.050 -5030.957
v -918.361 0.050 -5035.506
f 33 34 35
f 35 36 33
v -918.178 0.050 -5035.909
v -907.439 0.050 -5030.555
v -848.551 0.050 -5148.679
v -859.290 0.050 -5154.033
f 37 38 39
f 39 40 37
v -859.009 0.050 -5154.536
v -848.833 0.050 -5148.176
v -833.760 0.050 -5172.293
v -843.936 0.050 -5178.653
f 41 42 43
f 43 44 41
v -843.572 0.050 -5179.173
v -834.124 0.050 -5171.773
v -816.436 0.050 -5194.357
v -825.883 0.050 -5201.756
f 45 46 47
f 47 48 45
v -825.393 0.050 -5202.308
v -816.926 0.050 -5193.805
v -795.241 0.050 -5215.398
v -803.708 0.050 -5223.901
f 49 50 51
f 51 52 49
v -803.040 0.050 -5224.475
v -795.909 0.050 -5214.824
v -773.678 0.050 -5231.250
v -780.809 0.050 -5240.901
f 53 54 55
f 55 56 53
v -780.804 0.050 -5240.905
v -773.684 0.050 -5231.246
v -769.955 0.050 -5233.994
v -777.074 0.050 -5243.654
f 57 58 59
f 59 60 57
v -777.021 0.050 -5243.693
v -770.009 0.050 -5233.955
v -744.884 0.050 -5252.046
v -751.896 0.050 -5261.784
f 61 62 63
f 63 64 61
v -752.644 0.050 -5261.146
v -744.136 0.050 -5252.684
v -730.978 0.050 -5265.911
v -739.486 0.050 -5274.374
f 65 66 67
f 67 68 65
v -740.732 0.050 -5272.542
v -729.732 0.050 -5267.744
v -722.752 0.050 -5283.747
v -733.752 0.050 -5288.545
f 69 70 71
f 71 72 69
v -734.082 0.050 -5287.565
v -722.422 0.050 -5284.726
v -697.865 0.050 -5385.582
v -709.525 0.050 -5388.421
f 73 74 75
f 75 76 73
v -709.487 0.050 -5388.567
v -697.903 0.050 -5385.435
v -689.053 0.050 -5418.169
v -700.637 0.050 -5421.301
f 77 78 79
f 79 80 77
v -700.418 0.050 -5421.959
v -689.273 0.050 -5417.510
v -679.978 0.050 -5440.795
v -691.122 0.050 -5445.244
f 81 82 83
f 83 84 81
v -690.520 0.050 -5446.381
v -680.580 0.050 -5439.657
v -667.322 0.050 -5459.255
v -677.261 0.050 -5465.979
f 85 86 87
f 87 88 85
v -677.059 0.050 -5466.260
v -667.524 0.050 -5458.974
v -644.047 0.050 -5489.699
v -653.582 0.050 -5496.985
f 89 90 91
f 91 92 89
v -652.488 0.050 -5498.086
v -645.141 0.050 -5488.598
v -614.372 0.050 -5512.424
v -621.719 0.050 -5521.912
f 93 94 95
f 95 96 93
v -1937.337 0.050 -4869.489
v -1944.997 0.050 -4871.795
v -1947.268 0.050 -4864.249
v -1939.608 0.050 -4861.944
f 97 98 99
f 99 100 97
v -1940.441 0.050 -4860.448
v -1946.435 0.050 -4865.745
v -1955.730 0.050 -4855.227
v -1949.736 0.050 -4849.929
f 101 102 103
f 103 104 101
v -1950.786 0.050 -4849.084
v -1954.680 0.050 -4856.072
v -1963.809 0.050 -4850.984
v -1959.914 0.050 -4843.997
f 105 106 107
f 107 108 105
v -1961.355 0.050 -4843.523
v -1962.367 0.050 -4851.458
v -1972.007 0.050 -4850.229
v -1970.996 0.050 -4842.294
f 109 110 111
f 111 112 109
v -1970.065 0.050 -4842.528
v -1972.938 0.050 -4849.995
v -1979.773 0.050 -4847.365
v -1976.900 0.050 -4839.899
f 113 114 115
f 115 116 113
v -1976.549 0.050 -4840.054
v -1980.124 0.050 -4847.210
v -1982.584 0.050 -4845.981
v -1979.009 0.050 -4838.825
f 117 118 119
f 119 120 117
v -1976.974 0.050 -4841.227
v -1984.620 0.050 -4843.579
v -1986.023 0.050 -4839.020
v -1978.376 0.050 -4836.668
f 121 122 123
f 123 124 121
v -1978.210 0.050 -4837.555
v -1986.189 0.050 -4838.133
v -1986.545 0.050 -4833.218
v -1978.566 0.050 -4832.639
f 125 126 127
f 127 128 125
v -1978.570 0.050 -4833.272
v -1986.541 0.050 -4832.585
v -1985.906 0.050 -4825.225
v -1977.936 0.050 -4825.912
f 129 130 131
f 131 132 129
v -1978.040 0.050 -4826.538
v -1985.802 0.050 -4824.598
v -1976.084 0.050 -4785.709
v -1968.322 0.050 -4787.648
f 133 134 135
f 135 136 133
v -1968.286 0.050 -4787.491
v -1976.120 0.050 -4785.866
v -1970.253 0.050 -4757.575
v -1962.420 0.050 -4759.199
f 137 138 139
f 139 140 137
v -1962.443 0.050 -4757.470
v -1970.230 0.050 -4759.304
v -1973.903 0.050 -4743.712
v -1966.116 0.050 -4741.877
f 141 142 143
f 143 144 141
v -1966.261 0.050 -4741.399
v -1973.759 0.050 -4744.190
v -1980.226 0.050 -4726.813
v -1972.729 0.050 -4724.023
f 145 146 147
f 147 148 145
v -1972.669 0.050 -4724.196
v -1980.286 0.050 -4726.640
v -1983.759 0.050 -4715.818
v -1976.142 0.050 -4713.373
f 149 150 151
f 151 152 149
v -1975.953 0.050 -4714.474
v -1983.949 0.050 -4714.717
v -1984.873 0.050 -4684.272
v -1976.877 0.050 -4684.029
f 153 154 155
f 155 156 153
v -1671.730 0.050 -5719.968
v -1671.194 0.050 -5727.950
v -1709.544 0.050 -5730.527
v -1710.080 0.050 -5722.545
f 157 158 159
f 159 160 157
v -1710.906 0.050 -5722.688
v -1708.717 0.050 -5730.383
v -1759.946 0.050 -5744.959
v -1762.136 0.050 -5737.265
f 161 162 163
f 163 164 161
v -1760.812 0.050 -5737.119
v -1761.270 0.050 -5745.105
v -1782.922 0.050 -5743.863
v -1782.463 0.050 -5735.876
f 165 166 167
f 167 168 165
v -1781.748 0.050 -5735.983
v -1783.637 0.050 -5743.757
v -1812.792 0.050 -5736.673
v -1810.903 0.050 -5728.899
f 169 170 171
f 171 172 169
v -1813.113 0.050 -5728.992
v -1810.581 0.050 -5736.581
v -1826.823 0.050 -5741.999
v -1829.355 0.050 -5734.410
f 173 174 175
f 175 176 173
v -1830.919 0.050 -5735.378
v -1825.259 0.050 -5741.032
v -1831.081 0.050 -5746.860
v -1836.741 0.050 -5741.206
f 177 178 179
f 179 180 177
v -1837.910 0.050 -5744.128
v -1829.912 0.050 -5743.938
v -1828.665 0.050 -5796.402
v -1836.663 0.050 -5796.592
f 181 182 183
f 183 184 181
v -1832.996 0.050 -5792.511
v -1832.332 0.050 -5800.483
v -1852.325 0.050 -5802.149
v -1852.989 0.050 -5794.176
f 185 186 187
f 187 188 185
v -1851.839 0.050 -5794.247
v -1853.475 0.050 -5802.078
v -1881.372 0.050 -5796.250
v -1879.736 0.050 -5788.419
f 189 190 191
f 191 192 189
v -1877.902 0.050 -5789.340
v -1883.205 0.050 -5795.329
v -1897.788 0.050 -5782.418
v -1892.485 0.050 -5776.428
f 193 194 195
f 195 196 193
v -1894.937 0.050 -5775.428
v -1895.336 0.050 -5783.418
v -1928.643 0.050 -5781.753
v -1928.243 0.050 -5773.763
f 197 198 199
f 199 200 197
v -1929.378 0.050 -5773.869
v -1927.509 0.050 -5781.647
v -2066.191 0.050 -5814.963
v -2068.059 0.050 -5807.184
f 201 202 203
f 203 204 201
v -2068.189 0.050 -5807.218
v -2066.061 0.050 -5814.930
v -2150.597 0.050 -5838.255
v -2152.725 0.050 -5830.543
f 205 206 207
f 207 208 205
v -2153.773 0.050 -5831.002
v -2149.549 0.050 -5837.796
v -2168.295 0.050 -5849.452
v -2172.519 0.050 -5842.658
f 209 210 211
f 211 212 209
v -2173.108 0.050 -5843.104
v -2167.707 0.050 -5849.006
v -2182.279 0.050 -5862.340
v -2187.679 0.050 -5856.438
f 213 214 215
f 215 216 213
v -2185.161 0.050 -5855.393
v -2184.797 0.050 -5863.385
v -2221.444 0.050 -5865.050
v -2221.807 0.050 -5857.058
f 217 218 219
f 219 220 217
v -2222.030 0.050 -5857.075
v -2221.221 0.050 -5865.034
v -2245.789 0.050 -5867.531
v -2246.598 0.050 -5859.572
f 221 222 223
f 223 224 221
v -2247.329 0.050 -5859.716
v -2245.058 0.050 -5867.387
v -2319.609 0.050 -5889.457
v -2321.880 0.050 -5881.786
f 225 226 227
f 227 228 225
v -2322.346 0.050 -5881.957
v -2319.142 0.050 -5889.287
v -2368.690 0.050 -5910.947
v -2371.895 0.050 -5903.617
f 229 230 231
f 231 232 229
v -2368.879 0.050 -5903.540
v -2371.706 0.050 -5911.024
v -2381.468 0.050 -5907.337
v -2378.642 0.050 -5899.853
f 233 234 235
f 235 236 233
v -2378.641 0.050 -5899.853
v -2381.470 0.050 -5907.336
v -2390.453 0.050 -5903.940
v -2387.624 0.050 -5896.457
f 237 238 239
f 239 240 237
v -2386.292 0.050 -5897.290
v -2391.785 0.050 -5903.106
v -2496.726 0.050 -5803.991
v -2491.233 0.050 -5798.175
f 241 242 243
f 243 244 241
v -2490.097 0.050 -5800.122
v -2497.863 0.050 -5802.044
v -2508.271 0.050 -5759.979
v -2500.505 0.050 -5758.058
f 245 246 247
f 247 248 245
v -2500.672 0.050 -5760.498
v -2508.104 0.050 -5757.540
v -2491.863 0.050 -5716.731
v -2484.430 0.050 -5719.689
f 249 250 251
f 251 252 249
v -2485.145 0.050 -5720.854
v -2491.148 0.050 -5715.566
v -2466.580 0.050 -5687.669
v -2460.576 0.050 -5692.956
f 253 254 255
f 255 256 253
v -2459.650 0.050 -5691.068
v -2467.506 0.050 -5689.558
v -2463.343 0.050 -5667.898
v -2455.487 0.050 -5669.408
f 257 258 259
f 259 260 257
v -2455.415 0.050 -5668.653
v -2463.415 0.050 -5668.653
v -2463.415 0.050 -5646.584
v -2455.415 0.050 -5646.584
f 261 262 263
f 263 264 261
v -2455.558 0.050 -5647.643
v -2463.272 0.050 -5645.524
v -2452.864 0.050 -5607.623
v -2445.149 0.050 -5609.742
f 265 266 267
f 267 268 265
v -2445.018 0.050 -5608.990
v -2452.995 0.050 -5608.376
v -2450.078 0.050 -5570.475
v -2442.102 0.050 -5571.089
f 269 270 271
f 271 272 269
v -2444.033 0.050 -5567.351
v -2448.147 0.050 -5574.213
v -2462.718 0.050 -5565.477
v -2458.605 0.050 -5558.616
f 273 274 275
f 275 276 273
v -2459.411 0.050 -5558.247
v -2461.912 0.050 -5565.846
v -2492.313 0.050 -5555.842
v -2489.813 0.050 -5548.243
f 277 278 279
f 279 280 277
v -2489.713 0.050 -5548.277
v -2492.413 0.050 -5555.808
v -2542.595 0.050 -5537.823
v -2539.896 0.050 -5530.292
f 281 282 283
f 283 284 281
v -2538.487 0.050 -5531.161
v -2544.005 0.050 -5536.953
v -2594.188 0.050 -5489.141
v -2588.670 0.050 -5483.349
f 285 286 287
f 287 288 285
v -2589.718 0.050 -5482.630
v -2593.139 0.050 -5489.861
v -2644.836 0.050 -5465.400
v -2641.415 0.050 -5458.169
f 289 290 291
f 291 292 289
v -2640.268 0.050 -5458.985
v -2645.983 0.050 -5464.583
v -2673.412 0.050 -5436.581
v -2667.697 0.050 -5430.983
f 293 294 295
f 295 296 293
v -2668.062 0.050 -5430.654
v -2673.048 0.050 -5436.910
v -2710.239 0.050 -5407.269
v -2705.253 0.050 -5401.013
f 297 298 299
f 299 300 297
v -2703.747 0.050 -5404.093
v -2711.746 0.050 -5404.189
v -2712.036 0.050 -5380.098
v -2704.036 0.050 -5380.002
f 301 302 303
f 303 304 301
v -2704.426 0.050 -5381.772
v -2711.646 0.050 -5378.328
v -2689.995 0.050 -5332.935
v -2682.774 0.050 -5336.379
f 305 306 307
f 307 308 305
v -2682.517 0.050 -5335.678
v -2690.252 0.050 -5333.637
v -2686.077 0.050 -5317.819
v -2678.342 0.050 -5319.860
f 309 310 311
f 311 312 309
v -2678.210 0.050 -5318.839
v -2686.210 0.050 -5318.839
v -2686.210 0.050 -5305.506
v -2678.210 0.050 -5305.506
f 313 314 315
f 315 316 313
v -2680.351 0.050 -5301.964
v -2684.068 0.050 -5309.048
v -2708.648 0.050 -5296.150
v -2704.930 0.050 -5289.066
f 317 318 319
f 319 320 317
v -2704.387 0.050 -5289.409
v -2709.191 0.050 -5295.807
v -2719.187 0.050 -5288.301
v -2714.384 0.050 -5281.903
f 321 322 323
f 323 324 321
v -2714.182 0.050 -5282.065
v -2719.389 0.050 -5288.139
v -2731.044 0.050 -5278.149
v -2725.838 0.050 -5272.075
f 325 326 327
f 327 328 325
v -2725.186 0.050 -5277.437
v -2731.695 0.050 -5272.786
v -2723.369 0.050 -5261.131
v -2716.859 0.050 -5265.781
f 329 330 331
f 331 332 329
v -2720.114 0.050 -5267.456
v -2720.114 0.050 -5259.456
v -2700.956 0.050 -5259.456
v -2700.956 0.050 -5267.456
f 333 334 335
f 335 336 333
v -2698.445 0.050 -5266.570
v -2703.467 0.050 -5260.342
v -2690.554 0.050 -5249.929
v -2685.532 0.050 -5256.157
f 337 338 339
f 339 340 337
v -2684.069 0.050 -5253.495
v -2692.017 0.050 -5252.591
v -2690.359 0.050 -5238.015
v -2682.410 0.050 -5238.919
f 341 342 343
f 343 344 341
v -2682.482 0.050 -5237.589
v -2690.287 0.050 -5239.345
v -2693.192 0.050 -5226.435
v -2685.387 0.050 -5224.678
f 345 346 347
f 347 348 345
v -2685.962 0.050 -5223.337
v -2692.618 0.050 -5227.776
v -2698.451 0.050 -5219.027
v -2691.795 0.050 -5214.589
f 349 350 351
f 351 352 349
v -2693.781 0.050 -5213.040
v -2696.465 0.050 -5220.577
v -2721.033 0.050 -5211.828
v -2718.349 0.050 -5204.292
f 353 354 355
f 355 356 353
v -2718.067 0.050 -5204.405
v -2721.315 0.050 -5211.716
v -2747.553 0.050 -5200.060
v -2744.305 0.050 -5192.749
f 357 358 359
f 359 360 357
v -2743.529 0.050 -5193.205
v -2748.329 0.050 -5199.605
v -2759.995 0.050 -5190.857
v -2755.196 0.050 -5184.457
f 361 362 363
f 363 364 361
v -2758.208 0.050 -5183.704
v -2756.983 0.050 -5191.610
v -2791.960 0.050 -5197.028
v -2793.184 0.050 -5189.122
f 365 366 367
f 367 368 365
v -2792.951 0.050 -5189.093
v -2792.193 0.050 -5197.057
v -2809.681 0.050 -5198.722
v -2810.439 0.050 -5190.758
f 369 370 371
f 371 372 369
v -2810.060 0.050 -5190.740
v -2810.060 0.050 -5198.740
v -2818.810 0.050 -5198.740
v -2818.810 0.050 -5190.740
f 373 374 375
f 375 376 373
v -2816.321 0.050 -5191.609
v -2821.299 0.050 -5197.871
v -2837.540 0.050 -5184.960
v -2832.562 0.050 -5178.698
f 377 378 379
f 379 380 377
v -2831.203 0.050 -5180.739
v -2838.900 0.050 -5182.920
v -2845.980 0.050 -5157.931
v -2838.283 0.050 -5155.750
f 381 382 383
f 383 384 381
v -2840.072 0.050 -5153.411
v -2844.190 0.050 -5160.270
v -2858.762 0.050 -5151.522
v -2854.644 0.050 -5144.663
f 385 386 387
f 387 388 385
v -2853.580 0.050 -5145.593
v -2859.826 0.050 -5150.592
v -2871.492 0.050 -5136.016
v -2865.246 0.050 -5131.017
f 389 390 391
f 391 392 389
v -2865.169 0.050 -5131.117
v -2871.570 0.050 -5135.916
v -2880.308 0.050 -5124.261
v -2873.908 0.050 -5119.462
f 393 394 395
f 395 396 393
v -2873.693 0.050 -5119.779
v -2880.523 0.050 -5123.944
v -2911.759 0.050 -5072.724
v -2904.929 0.050 -5068.559
f 397 398 399
f 399 400 397
v -2906.326 0.050 -5067.188
v -2910.362 0.050 -5074.095
v -2952.419 0.050 -5049.516
v -2948.382 0.050 -5042.609
f 401 402 403
f 403 404 401
v -2947.737 0.050 -5043.079
v -2953.064 0.050 -5049.047
v -2964.731 0.050 -5038.634
v -2959.403 0.050 -5032.666
f 405 406 407
f 407 408 405
v -2962.067 0.050 -5031.650
v -2962.067 0.050 -5039.650
v -2987.058 0.050 -5039.650
v -2987.058 0.050 -5031.650
f 409 410 411
f 411 412 409
v -2988.463 0.050 -5031.905
v -2985.653 0.050 -5039.395
v -3008.975 0.050 -5048.143
v -3011.784 0.050 -5040.653
f 413 414 415
f 415 416 413
v -3010.877 0.050 -5040.429
v -3009.882 0.050 -5048.367
v -3033.193 0.050 -5051.287
v -3034.187 0.050 -5043.349
f 417 418 419
f 419 420 417
v -3032.798 0.050 -5043.419
v -3034.582 0.050 -5051.218
v -3078.319 0.050 -5041.214
v -3076.535 0.050 -5033.416
f 421 422 423
f 423 424 421
v -2968.754 0.050 -4971.043
v -2971.210 0.050 -4978.657
v -2984.112 0.050 -4974.494
v -2981.656 0.050 -4966.881
f 425 426 427
f 427 428 425
v -2979.685 0.050 -4968.286
v -2986.083 0.050 -4973.089
v -2994.832 0.050 -4961.434
v -2988.434 0.050 -4956.631
f 429 430 431
f 431 432 429
v -2987.786 0.050 -4960.126
v -2995.481 0.050 -4957.939
v -2984.238 0.050 -4918.375
v -2976.542 0.050 -4920.562
f 433 434 435
f 435 436 433
v -2977.270 0.050 -4916.966
v -2983.510 0.050 -4921.972
v -3013.912 0.050 -4884.073
v -3007.671 0.050 -4879.067
f 437 438 439
f 439 440 437
v -3009.306 0.050 -4877.856
v -3012.277 0.050 -4885.284
v -3026.848 0.050 -4879.457
v -3023.878 0.050 -4872.029
f 441 442 443
f 443 444 441
v -3024.736 0.050 -4871.792
v -3025.990 0.050 -4879.693
v -3052.228 0.050 -4875.531
v -3050.974 0.050 -4867.630
f 445 446 447
f 447 448 445
v -3047.611 0.050 -4871.306
v -3055.592 0.050 -4871.854
v -3058.508 0.050 -4829.370
v -3050.527 0.050 -4828.822
f 449 450 451
f 451 452 449
v -2958.100 0.050 -5035.133
v -2966.033 0.050 -5036.166
v -2973.948 0.050 -4975.367
v -2966.015 0.050 -4974.334
f 453 454 455
f 455 456 453
v -2966.384 0.050 -4976.598
v -2973.580 0.050 -4973.103
v -2966.500 0.050 -4958.527
v -2959.304 0.050 -4962.022
f 457 458 459
f 459 460 457
v -2962.063 0.050 -4964.186
v -2963.740 0.050 -4956.364
v -2922.930 0.050 -4947.616
v -2921.254 0.050 -4955.438
f 461 462 463
f 463 464 461
v -2920.828 0.050 -4955.322
v -2923.356 0.050 -4947.732
v -2905.856 0.050 -4941.904
v -2903.329 0.050 -4949.494
f 465 466 467
f 467 468 465
v -2904.765 0.050 -4949.696
v -2904.421 0.050 -4941.703
v -2875.277 0.050 -4942.958
v -2875.621 0.050 -4950.951
f 469 470 471
f 471 472 469
v -2877.302 0.050 -4950.500
v -2873.597 0.050 -4943.409
v -2864.847 0.050 -4947.982
v -2868.552 0.050 -4955.072
f 473 474 475
f 475 476 473
v -2866.612 0.050 -4955.526
v -2866.787 0.050 -4947.528
v -2809.735 0.050 -4946.286
v -2809.561 0.050 -4954.284
f 477 478 479
f 479 480 477
v -2809.850 0.050 -4954.280
v -2809.446 0.050 -4946.290
v -2784.878 0.050 -4947.532
v -2785.282 0.050 -4955.522
f 481 482 483
f 483 484 481
v -2787.017 0.050 -4955.026
v -2783.143 0.050 -4948.027
v -2759.821 0.050 -4960.938
v -2763.696 0.050 -4967.937
f 485 486 487
f 487 488 485
v -2762.467 0.050 -4968.374
v -2761.051 0.050 -4960.500
v -2744.809 0.050 -4963.421
v -2746.225 0.050 -4971.295
f 489 490 491
f 491 492 489
v -2745.871 0.050 -4971.342
v -2745.163 0.050 -4963.373
v -2726.417 0.050 -4965.038
v -2727.125 0.050 -4973.007
f 493 494 495
f 495 496 493
v -2725.971 0.050 -4972.942
v -2727.570 0.050 -4965.103
v -2707.166 0.050 -4960.941
v -2705.567 0.050 -4968.779
f 497 498 499
f 499 500 497
v -2704.207 0.050 -4968.227
v -2708.525 0.050 -4961.493
v -2692.283 0.050 -4951.080
v -2687.966 0.050 -4957.815
f 501 502 503
f 503 504 501
v -2686.410 0.050 -4955.931
v -2693.839 0.050 -4952.963
v -2688.017 0.050 -4938.388
v -2680.588 0.050 -4941.356
f 505 506 507
f 507 508 505
v -2680.991 0.050 -4942.116
v -2687.614 0.050 -4937.628
v -2678.864 0.050 -4924.717
v -2672.242 0.050 -4929.205
f 509 510 511
f 511 512 509
v -2673.842 0.050 -4930.577
v -2677.264 0.050 -4923.346
v -2661.434 0.050 -4915.853
v -2658.012 0.050 -4923.084
f 513 514 515
f 515 516 513
v -2658.146 0.050 -4923.145
v -2661.300 0.050 -4915.793
v -2637.979 0.050 -4905.789
v -2634.825 0.050 -4913.142
f 517 518 519
f 519 520 517
v -2635.653 0.050 -4913.395
v -2637.150 0.050 -4905.536
v -2628.412 0.050 -4903.871
v -2626.915 0.050 -4911.730
f 521 522 523
f 523 524 521
v -2624.836 0.050 -4910.630
v -2630.490 0.050 -4904.971
v -2624.657 0.050 -4899.143
v -2619.003 0.050 -4904.803
f 525 526 527
f 527 528 525
v -2617.964 0.050 -4900.948
v -2625.696 0.050 -4902.998
v -2631.107 0.050 -4882.595
v -2623.374 0.050 -4880.545
f 529 530 531
f 531 532 529
v -2624.494 0.050 -4878.661
v -2629.986 0.050 -4884.479
v -2637.489 0.050 -4877.396
v -2631.997 0.050 -4871.579
f 533 534 535
f 535 536 533
v -2633.555 0.050 -4870.668
v -2635.931 0.050 -4878.307
v -2654.666 0.050 -4872.479
v -2652.290 0.050 -4864.840
f 537 538 539
f 539 540 537
v -2650.406 0.050 -4866.099
v -2656.551 0.050 -4871.221
v -2671.134 0.050 -4853.725
v -2664.988 0.050 -4848.603
f 541 542 543
f 543 544 541
v -2664.124 0.050 -4850.460
v -2671.999 0.050 -4851.868
v -2674.904 0.050 -4835.628
v -2667.029 0.050 -4834.219
f 545 546 547
f 547 548 545
v -2667.459 0.050 -4836.847
v -2674.474 0.050 -4833.000
v -2667.394 0.050 -4820.090
v -2660.379 0.050 -4823.937
f 549 550 551
f 551 552 549
v -2660.210 0.050 -4823.589
v -2667.563 0.050 -4820.438
v -2657.578 0.050 -4797.129
v -2650.224 0.050 -4800.279
f 553 554 555
f 555 556 553
v -2650.558 0.050 -4800.900
v -2657.244 0.050 -4796.507
v -2638.086 0.050 -4767.344
v -2631.400 0.050 -4771.736
f 557 558 559
f 559 560 557
v -2630.844 0.050 -4770.431
v -2638.642 0.050 -4768.648
v -2628.646 0.050 -4724.923
v -2620.847 0.050 -4726.706
f 561 562 563
f 563 564 561
v -2621.358 0.050 -4727.939
v -2628.136 0.050 -4723.690
v -2610.647 0.050 -4695.795
v -2603.869 0.050 -4700.044
f 565 566 567
f 567 568 565
