# Terrain mesh for tecate_core_z14_x2883_y6623
v -3064.852 -3.516 2639.736
v -2911.978 -10.629 2639.736
v -2759.104 -7.738 2639.736
v -2606.230 -8.804 2639.736
v -2453.355 -4.740 2639.736
v -2300.481 -0.574 2639.736
v -2147.607 -1.678 2639.736
v -1994.733 1.178 2639.736
v -1841.859 -5.933 2639.736
v -1688.985 -3.591 2639.736
v -1536.111 -7.419 2639.736
v -1383.237 -2.681 2639.736
v -1230.363 -0.038 2639.736
v -1077.489 1.698 2639.736
v -924.615 4.946 2639.736
v -771.741 -0.764 2639.736
v -618.867 1.093 2639.736
v -3064.852 -9.371 2486.877
v -2911.978 -9.386 2486.877
v -2759.104 -12.077 2486.877
v -2606.230 -9.566 2486.877
v -2453.355 -7.049 2486.877
v -2300.481 -4.568 2486.877
v -2147.607 -2.031 2486.877
v -1994.733 -4.693 2486.877
v -1841.859 -4.698 2486.877
v -1688.985 -8.692 2486.877
v -1536.111 -6.988 2486.877
v -1383.237 -6.123 2486.877
v -1230.363 -2.586 2486.877
v -1077.489 0.363 2486.877
v -924.615 -0.408 2486.877
v -771.741 -0.037 2486.877
v -618.867 -4.446 2486.877
v -3064.852 -10.523 2334.015
v -2911.978 -11.492 2334.015
v -2759.104 -12.955 2334.015
v -2606.230 -11.241 2334.015
v -2453.355 -8.789 2334.015
v -2300.481 -6.348 2334.015
v -2147.607 -4.620 2334.015
v -1994.733 -6.068 2334.015
v -1841.859 -7.029 2334.015
v -1688.985 -9.509 2334.015
v -1536.111 -8.771 2334.015
v -1383.237 -7.411 2334.015
v -1230.363 -4.428 2334.015
v -1077.489 -1.998 2334.015
v -924.615 -2.028 2334.015
v -771.741 -2.519 2334.015
v -618.867 -5.367 2334.015
v -3064.852 -9.793 2181.152
v -2911.978 -14.219 2181.152
v -2759.104 -12.356 2181.152
v -2606.230 -12.787 2181.152
v -2453.355 -9.928 2181.152
v -2300.481 -7.005 2181.152
v -2147.607 -7.459 2181.152
v -1994.733 -5.617 2181.152
v -1841.859 -10.041 2181.152
v -1688.985 -8.591 2181.152
v -1536.111 -10.831 2181.152
v -1383.237 -7.617 2181.152
v -1230.363 -5.621 2181.152
v -1077.489 -4.235 2181.152
v -924.615 -2.053 2181.152
v -771.741 -5.562 2181.152
v -618.867 -4.442 2181.152
v -3064.852 -13.112 2028.287
v -2911.978 -11.825 2028.287
v -2759.104 -14.447 2028.287
v -2606.230 -12.003 2028.287
v -2453.355 -10.394 2028.287
v -2300.481 -8.832 2028.287
v -2147.607 -6.359 2028.287
v -1994.733 -8.952 2028.287
v -1841.859 -7.657 2028.287
v -1688.985 -11.297 2028.287
v -1536.111 -9.087 2028.287
v -1383.237 -8.991 2028.287
v -1230.363 -6.282 2028.287
v -1077.489 -3.925 2028.287
v -924.615 -4.975 2028.287
v -771.741 -3.590 2028.287
v -618.867 -7.502 2028.287
v -3064.852 -11.410 1875.420
v -2911.978 -13.378 1875.420
v -2759.104 -12.899 1875.420
v -2606.230 -12.454 1875.420
v -2453.355 -10.445 1875.420
v -2300.481 -8.412 1875.420
v -2147.607 -7.973 1875.420
v -1994.733 -7.499 1875.420
v -1841.859 -9.463 1875.420
v -1688.985 -9.446 1875.420
v -1536.111 -10.025 1875.420
v -1383.237 -8.182 1875.420
v -1230.363 -6.376 1875.420
v -1077.489 -4.979 1875.420
v -924.615 -3.959 1875.420
v -771.741 -5.411 1875.420
v -618.867 -5.635 1875.420
v -3064.852 -11.506 1722.551
v -2911.978 -13.143 1722.551
v -2759.104 -12.633 1722.551
v -2606.230 -12.215 1722.551
v -2453.355 -10.444 1722.551
v -2300.481 -8.652 1722.551
v -2147.607 -8.239 1722.551
v -1994.733 -7.733 1722.551
v -1841.859 -9.367 1722.551
v -1688.985 -9.241 1722.551
v -1536.111 -9.697 1722.551
v -1383.237 -8.051 1722.551
v -1230.363 -6.468 1722.551
v -1077.489 -5.231 1722.551
v -924.615 -4.276 1722.551
v -771.741 -5.472 1722.551
v -618.867 -5.550 1722.551
v -3064.852 -12.755 1569.680
v -2911.978 -11.806 1569.680
v -2759.104 -13.206 1569.680
v -2606.230 -11.566 1569.680
v -2453.355 -10.429 1569.680
v -2300.481 -9.321 1569.680
v -2147.607 -7.664 1569.680
v -1994.733 -9.046 1569.680
v -1841.859 -8.092 1569.680
v -1688.985 -10.102 1569.680
v -1536.111 -8.601 1569.680
v -1383.237 -8.372 1569.680
v -1230.363 -6.575 1569.680
v -1077.489 -4.989 1569.680
v -924.615 -5.446 1569.680
v -771.741 -4.439 1569.680
v -618.867 -6.612 1569.680
v -3064.852 -11.394 1416.807
v -2911.978 -13.004 1416.807
v -2759.104 -11.973 1416.807
v -2606.230 -11.900 1416.807
v -2453.355 -10.445 1416.807
v -2300.481 -8.962 1416.807
v -2147.607 -8.900 1416.807
v -1994.733 -7.876 1416.807
v -1841.859 -9.487 1416.807
v -1688.985 -8.630 1416.807
v -1536.111 -9.319 1416.807
v -1383.237 -7.716 1416.807
v -1230.363 -6.622 1416.807
v -1077.489 -5.785 1416.807
v -924.615 -4.618 1416.807
v -771.741 -5.842 1416.807
v -618.867 -5.125 1416.807
v -3064.852 -12.157 1263.932
v -2911.978 -12.160 1263.932
v -2759.104 -12.261 1263.932
v -2606.230 -11.466 1263.932
v -2453.355 -10.436 1263.932
v -2300.481 -9.408 1263.932
v -2147.607 -8.609 1263.932
v -1994.733 -8.706 1263.932
v -1841.859 -8.707 1263.932
v -1688.985 -9.103 1263.932
v -1536.111 -8.600 1263.932
v -1383.237 -7.881 1263.932
v -1230.363 -6.705 1263.932
v -1077.489 -5.691 1263.932
v -924.615 -5.379 1263.932
v -771.741 -5.238 1263.932
v -618.867 -5.742 1263.932
v -3064.852 -12.296 1111.054
v -2911.978 -11.933 1111.054
v -2759.104 -12.139 1111.054
v -2606.230 -11.280 1111.054
v -2453.355 -10.434 1111.054
v -2300.481 -9.596 1111.054
v -2147.607 -8.732 1111.054
v -1994.733 -8.932 1111.054
v -1841.859 -8.567 1111.054
v -1688.985 -9.035 1111.054
v -1536.111 -8.333 1111.054
v -1383.237 -7.823 1111.054
v -1230.363 -6.767 1111.054
v -1077.489 -5.827 1111.054
v -924.615 -5.645 1111.054
v -771.741 -5.208 1111.054
v -618.867 -5.759 1111.054
v -3064.852 -11.785 958.176
v -2911.978 -12.346 958.176
v -2759.104 -11.588 958.176
v -2606.230 -11.352 958.176
v -2453.355 -10.440 958.176
v -2300.481 -9.514 958.176
v -2147.607 -9.283 958.176
v -1994.733 -8.531 958.176
v -1841.859 -9.091 958.176
v -1688.985 -8.406 958.176
v -1536.111 -8.534 958.176
v -1383.237 -7.533 958.176
v -1230.363 -6.808 958.176
v -1077.489 -6.203 958.176
v -924.615 -5.398 958.176
v -771.741 -5.774 958.176
v -618.867 -5.153 958.176
v -3064.852 -12.292 805.295
v -2911.978 -11.786 805.295
v -2759.104 -11.781 805.295
v -2606.230 -11.064 805.295
v -2453.355 -10.434 805.295
v -2300.481 -9.810 805.295
v -2147.607 -9.090 805.295
v -1994.733 -9.080 805.295
v -1841.859 -8.574 805.295
v -1688.985 -8.721 805.295
v -1536.111 -8.058 805.295
v -1383.237 -7.643 805.295
v -1230.363 -6.862 805.295
v -1077.489 -6.139 805.295
v -924.615 -5.902 805.295
v -771.741 -5.373 805.295
v -618.867 -5.563 805.295
v -3064.852 -12.125 652.412
v -2911.978 -11.890 652.412
v -2759.104 -11.529 652.412
v -2606.230 -11.044 652.412
v -2453.355 -10.436 652.412
v -2300.481 -9.827 652.412
v -2147.607 -9.342 652.412
v -1994.733 -8.980 652.412
v -1841.859 -8.745 652.412
v -1688.985 -8.452 652.412
v -1536.111 -8.067 652.412
v -1383.237 -7.512 652.412
v -1230.363 -6.895 652.412
v -1077.489 -6.325 652.412
v -924.615 -5.875 652.412
v -771.741 -5.591 652.412
v -618.867 -5.326 652.412
v -3064.852 -12.090 499.527
v -2911.978 -11.878 499.527
v -2759.104 -11.398 499.527
v -2606.230 -10.991 499.527
v -2453.355 -10.436 499.527
v -2300.481 -9.879 499.527
v -2147.607 -9.473 499.527
v -1994.733 -8.994 499.527
v -1841.859 -8.781 499.527
v -1688.985 -8.328 499.527
v -1536.111 -8.007 499.527
v -1383.237 -7.445 499.527
v -1230.363 -6.924 499.527
v -1077.489 -6.432 499.527
v -924.615 -5.927 499.527
v -771.741 -5.671 499.527
v -618.867 -5.235 499.527
v -3064.852 -12.200 346.640
v -2911.978 -11.738 346.640
v -2759.104 -11.397 346.640
v -2606.230 -10.903 346.640
v -2453.355 -10.435 346.640
v -2300.481 -9.969 346.640
v -2147.607 -9.474 346.640
v -1994.733 -9.131 346.640
v -1841.859 -8.669 346.640
v -1688.985 -8.358 346.640
v -1536.111 -7.870 346.640
v -1383.237 -7.448 346.640
v -1230.363 -6.947 346.640
v -1077.489 -6.456 346.640
v -924.615 -6.068 346.640
v -771.741 -5.604 346.640
v -618.867 -5.300 346.640
v -3064.852 -12.158 193.751
v -2911.978 -11.757 193.751
v -2759.104 -11.317 193.751
v -2606.230 -10.887 193.751
v -2453.355 -10.435 193.751
v -2300.481 -9.983 193.751
v -2147.607 -9.554 193.751
v -1994.733 -9.113 193.751
v -1841.859 -8.713 193.751
v -1688.985 -8.276 193.751
v -1536.111 -7.859 193.751
v -1383.237 -7.407 193.751
v -1230.363 -6.960 193.751
v -1077.489 -6.517 193.751
v -924.615 -6.073 193.751
v -771.741 -5.666 193.751
v -618.867 -5.232 193.751
f 1 2 19
f 19 18 1
f 2 3 20
f 20 19 2
f 3 4 21
f 21 20 3
f 4 5 22
f 22 21 4
f 5 6 23
f 23 22 5
f 6 7 24
f 24 23 6
f 7 8 25
f 25 24 7
f 8 9 26
f 26 25 8
f 9 10 27
f 27 26 9
f 10 11 28
f 28 27 10
f 11 12 29
f 29 28 11
f 12 13 30
f 30 29 12
f 13 14 31
f 31 30 13
f 14 15 32
f 32 31 14
f 15 16 33
f 33 32 15
f 16 17 34
f 34 33 16
f 18 19 36
f 36 35 18
f 19 20 37
f 37 36 19
f 20 21 38
f 38 37 20
f 21 22 39
f 39 38 21
f 22 23 40
f 40 39 22
f 23 24 41
f 41 40 23
f 24 25 42
f 42 41 24
f 25 26 43
f 43 42 25
f 26 27 44
f 44 43 26
f 27 28 45
f 45 44 27
f 28 29 46
f 46 45 28
f 29 30 47
f 47 46 29
f 30 31 48
f 48 47 30
f 31 32 49
f 49 48 31
f 32 33 50
f 50 49 32
f 33 34 51
f 51 50 33
f 35 36 53
f 53 52 35
f 36 37 54
f 54 53 36
f 37 38 55
f 55 54 37
f 38 39 56
f 56 55 38
f 39 40 57
f 57 56 39
f 40 41 58
f 58 57 40
f 41 42 59
f 59 58 41
f 42 43 60
f 60 59 42
f 43 44 61
f 61 60 43
f 44 45 62
f 62 61 44
f 45 46 63
f 63 62 45
f 46 47 64
f 64 63 46
f 47 48 65
f 65 64 47
f 48 49 66
f 66 65 48
f 49 50 67
f 67 66 49
f 50 51 68
f 68 67 50
f 52 53 70
f 70 69 52
f 53 54 71
f 71 70 53
f 54 55 72
f 72 71 54
f 55 56 73
f 73 72 55
f 56 57 74
f 74 73 56
f 57 58 75
f 75 74 57
f 58 59 76
f 76 75 58
f 59 60 77
f 77 76 59
f 60 61 78
f 78 77 60
f 61 62 79
f 79 78 61
f 62 63 80
f 80 79 62
f 63 64 81
f 81 80 63
f 64 65 82
f 82 81 64
f 65 66 83
f 83 82 65
f 66 67 84
f 84 83 66
f 67 68 85
f 85 84 67
f 69 70 87
f 87 86 69
f 70 71 88
f 88 87 70
f 71 72 89
f 89 88 71
f 72 73 90
f 90 89 72
f 73 74 91
f 91 90 73
f 74 75 92
f 92 91 74
f 75 76 93
f 93 92 75
f 76 77 94
f 94 93 76
f 77 78 95
f 95 94 77
f 78 79 96
f 96 95 78
f 79 80 97
f 97 96 79
f 80 81 98
f 98 97 80
f 81 82 99
f 99 98 81
f 82 83 100
f 100 99 82
f 83 84 101
f 101 100 83
f 84 85 102
f 102 101 84
f 86 87 104
f 104 103 86
f 87 88 105
f 105 104 87
f 88 89 106
f 106 105 88
f 89 90 107
f 107 106 89
f 90 91 108
f 108 107 90
f 91 92 109
f 109 108 91
f 92 93 110
f 110 109 92
f 93 94 111
f 111 110 93
f 94 95 112
f 112 111 94
f 95 96 113
f 113 112 95
f 96 97 114
f 114 113 96
f 97 98 115
f 115 114 97
f 98 99 116
f 116 115 98
f 99 100 117
f 117 116 99
f 100 101 118
f 118 117 100
f 101 102 119
f 119 118 101
f 103 104 121
f 121 120 103
f 104 105 122
f 122 121 104
f 105 106 123
f 123 122 105
f 106 107 124
f 124 123 106
f 107 108 125
f 125 124 107
f 108 109 126
f 126 125 108
f 109 110 127
f 127 126 109
f 110 111 128
f 128 127 110
f 111 112 129
f 129 128 111
f 112 113 130
f 130 129 112
f 113 114 131
f 131 130 113
f 114 115 132
f 132 131 114
f 115 116 133
f 133 132 115
f 116 117 134
f 134 133 116
f 117 118 135
f 135 134 117
f 118 119 136
f 136 135 118
f 120 121 138
f 138 137 120
f 121 122 139
f 139 138 121
f 122 123 140
f 140 139 122
f 123 124 141
f 141 140 123
f 124 125 142
f 142 141 124
f 125 126 143
f 143 142 125
f 126 127 144
f 144 143 126
f 127 128 145
f 145 144 127
f 128 129 146
f 146 145 128
f 129 130 147
f 147 146 129
f 130 131 148
f 148 147 130
f 131 132 149
f 149 148 131
f 132 133 150
f 150 149 132
f 133 134 151
f 151 150 133
f 134 135 152
f 152 151 134
f 135 136 153
f 153 152 135
f 137 138 155
f 155 154 137
f 138 139 156
f 156 155 138
f 139 140 157
f 157 156 139
f 140 141 158
f 158 157 140
f 141 142 159
f 159 158 141
f 142 143 160
f 160 159 142
f 143 144 161
f 161 160 143
f 144 145 162
f 162 161 144
f 145 146 163
f 163 162 145
f 146 147 164
f 164 163 146
f 147 148 165
f 165 164 147
f 148 149 166
f 166 165 148
f 149 150 167
f 167 166 149
f 150 151 168
f 168 167 150
f 151 152 169
f 169 168 151
f 152 153 170
f 170 169 152
f 154 155 172
f 172 171 154
f 155 156 173
f 173 172 155
f 156 157 174
f 174 173 156
f 157 158 175
f 175 174 157
f 158 159 176
f 176 175 158
f 159 160 177
f 177 176 159
f 160 161 178
f 178 177 160
f 161 162 179
f 179 178 161
f 162 163 180
f 180 179 162
f 163 164 181
f 181 180 163
f 164 165 182
f 182 181 164
f 165 166 183
f 183 182 165
f 166 167 184
f 184 183 166
f 167 168 185
f 185 184 167
f 168 169 186
f 186 185 168
f 169 170 187
f 187 186 169
f 171 172 189
f 189 188 171
f 172 173 190
f 190 189 172
f 173 174 191
f 191 190 173
f 174 175 192
f 192 191 174
f 175 176 193
f 193 192 175
f 176 177 194
f 194 193 176
f 177 178 195
f 195 194 177
f 178 179 196
f 196 195 178
f 179 180 197
f 197 196 179
f 180 181 198
f 198 197 180
f 181 182 199
f 199 198 181
f 182 183 200
f 200 199 182
f 183 184 201
f 201 200 183
f 184 185 202
f 202 201 184
f 185 186 203
f 203 202 185
f 186 187 204
f 204 203 186
f 188 189 206
f 206 205 188
f 189 190 207
f 207 206 189
f 190 191 208
f 208 207 190
f 191 192 209
f 209 208 191
f 192 193 210
f 210 209 192
f 193 194 211
f 211 210 193
f 194 195 212
f 212 211 194
f 195 196 213
f 213 212 195
f 196 197 214
f 214 213 196
f 197 198 215
f 215 214 197
f 198 199 216
f 216 215 198
f 199 200 217
f 217 216 199
f 200 201 218
f 218 217 200
f 201 202 219
f 219 218 201
f 202 203 220
f 220 219 202
f 203 204 221
f 221 220 203
f 205 206 223
f 223 222 205
f 206 207 224
f 224 223 206
f 207 208 225
f 225 224 207
f 208 209 226
f 226 225 208
f 209 210 227
f 227 226 209
f 210 211 228
f 228 227 210
f 211 212 229
f 229 228 211
f 212 213 230
f 230 229 212
f 213 214 231
f 231 230 213
f 214 215 232
f 232 231 214
f 215 216 233
f 233 232 215
f 216 217 234
f 234 233 216
f 217 218 235
f 235 234 217
f 218 219 236
f 236 235 218
f 219 220 237
f 237 236 219
f 220 221 238
f 238 237 220
f 222 223 240
f 240 239 222
f 223 224 241
f 241 240 223
f 224 225 242
f 242 241 224
f 225 226 243
f 243 242 225
f 226 227 244
f 244 243 226
f 227 228 245
f 245 244 227
f 228 229 246
f 246 245 228
f 229 230 247
f 247 246 229
f 230 231 248
f 248 247 230
f 231 232 249
f 249 248 231
f 232 233 250
f 250 249 232
f 233 234 251
f 251 250 233
f 234 235 252
f 252 251 234
f 235 236 253
f 253 252 235
f 236 237 254
f 254 253 236
f 237 238 255
f 255 254 237
f 239 240 257
f 257 256 239
f 240 241 258
f 258 257 240
f 241 242 259
f 259 258 241
f 242 243 260
f 260 259 242
f 243 244 261
f 261 260 243
f 244 245 262
f 262 261 244
f 245 246 263
f 263 262 245
f 246 247 264
f 264 263 246
f 247 248 265
f 265 264 247
f 248 249 266
f 266 265 248
f 249 250 267
f 267 266 249
f 250 251 268
f 268 267 250
f 251 252 269
f 269 268 251
f 252 253 270
f 270 269 252
f 253 254 271
f 271 270 253
f 254 255 272
f 272 271 254
f 256 257 274
f 274 273 256
f 257 258 275
f 275 274 257
f 258 259 276
f 276 275 258
f 259 260 277
f 277 276 259
f 260 261 278
f 278 277 260
f 261 262 279
f 279 278 261
f 262 263 280
f 280 279 262
f 263 264 281
f 281 280 263
f 264 265 282
f 282 281 264
f 265 266 283
f 283 282 265
f 266 267 284
f 284 283 266
f 267 268 285
f 285 284 267
f 268 269 286
f 286 285 268
f 269 270 287
f 287 286 269
f 270 271 288
f 288 287 270
f 271 272 289
f 289 288 271
