# Terrain mesh for tecate_core_z14_x2884_y6621
v -618.867 199.545 -2252.234
v -465.993 184.845 -2252.234
v -313.119 168.553 -2252.234
v -160.245 137.400 -2252.234
v -7.371 95.081 -2252.234
v 145.503 59.965 -2252.234
v 298.378 22.229 -2252.234
v 451.252 -15.817 -2252.234
v 604.126 -36.758 -2252.234
v 757.000 -52.575 -2252.234
v 909.874 -67.217 -2252.234
v 1062.748 -66.981 -2252.234
v 1215.622 -66.121 -2252.234
v 1368.496 -72.125 -2252.234
v 1521.370 -70.586 -2252.234
v 1674.244 -72.676 -2252.234
v 1827.118 -84.717 -2252.234
v -618.867 158.878 -2405.093
v -465.993 142.249 -2405.093
v -313.119 134.197 -2405.093
v -160.245 107.413 -2405.093
v -7.371 65.585 -2405.093
v 145.503 39.867 -2405.093
v 298.378 7.247 -2405.093
v 451.252 -31.324 -2405.093
v 604.126 -44.758 -2405.093
v 757.000 -56.862 -2405.093
v 909.874 -74.316 -2405.093
v 1062.748 -68.945 -2405.093
v 1215.622 -65.543 -2405.093
v 1368.496 -75.931 -2405.093
v 1521.370 -70.728 -2405.093
v 1674.244 -70.502 -2405.093
v 1827.118 -87.588 -2405.093
v -618.867 113.022 -2557.954
v -465.993 115.123 -2557.954
v -313.119 92.547 -2557.954
v -160.245 70.725 -2557.954
v -7.371 51.222 -2557.954
v 145.503 13.495 -2557.954
v 298.378 -15.981 -2557.954
v 451.252 -32.157 -2557.954
v 604.126 -57.745 -2557.954
v 757.000 -70.827 -2557.954
v 909.874 -67.200 -2557.954
v 1062.748 -74.471 -2557.954
v 1215.622 -75.931 -2557.954
v 1368.496 -65.991 -2557.954
v 1521.370 -72.954 -2557.954
v 1674.244 -80.478 -2557.954
v 1827.118 -77.241 -2557.954
v -618.867 74.897 -2710.818
v -465.993 77.861 -2710.818
v -313.119 59.966 -2710.818
v -160.245 42.245 -2710.818
v -7.371 25.985 -2710.818
v 145.503 -5.822 -2710.818
v 298.378 -30.836 -2710.818
v 451.252 -44.566 -2710.818
v 604.126 -65.752 -2710.818
v 757.000 -76.012 -2710.818
v 909.874 -71.923 -2710.818
v 1062.748 -76.735 -2710.818
v 1215.622 -76.800 -2710.818
v 1368.496 -67.740 -2710.818
v 1521.370 -73.352 -2710.818
v 1674.244 -80.029 -2710.818
v 1827.118 -78.197 -2710.818
v -618.867 44.962 -2863.683
v -465.993 33.916 -2863.683
v -313.119 36.430 -2863.683
v -160.245 21.902 -2863.683
v -7.371 -7.106 -2863.683
v 145.503 -18.383 -2863.683
v 298.378 -38.049 -2863.683
v 451.252 -66.008 -2863.683
v 604.126 -69.253 -2863.683
v 757.000 -73.668 -2863.683
v 909.874 -86.253 -2863.683
v 1062.748 -76.187 -2863.683
v 1215.622 -69.726 -2863.683
v 1368.496 -79.111 -2863.683
v 1521.370 -72.213 -2863.683
v 1674.244 -70.946 -2863.683
v 1827.118 -88.491 -2863.683
v -618.867 13.423 -3016.550
v -465.993 10.402 -3016.550
v -313.119 8.460 -3016.550
v -160.245 -2.663 -3016.550
v -7.371 -21.375 -3016.550
v 145.503 -35.660 -3016.550
v 298.378 -52.553 -3016.550
v 451.252 -70.450 -3016.550
v 604.126 -77.264 -3016.550
v 757.000 -81.152 -3016.550
v 909.874 -84.872 -3016.550
v 1062.748 -79.218 -3016.550
v 1215.622 -74.306 -3016.550
v 1368.496 -75.582 -3016.550
v 1521.370 -73.264 -3016.550
v 1674.244 -74.920 -3016.550
v 1827.118 -84.531 -3016.550
v -618.867 -15.227 -3169.419
v -465.993 -2.899 -3169.419
v -313.119 -18.071 -3169.419
v -160.245 -26.086 -3169.419
v -7.371 -27.052 -3169.419
v 145.503 -52.784 -3169.419
v 298.378 -68.172 -3169.419
v 451.252 -68.066 -3169.419
v 604.126 -86.069 -3169.419
v 757.000 -91.470 -3169.419
v 909.874 -77.789 -3169.419
v 1062.748 -83.248 -3169.419
v 1215.622 -82.722 -3169.419
v 1368.496 -66.889 -3169.419
v 1521.370 -75.015 -3169.419
v 1674.244 -83.321 -3169.419
v 1827.118 -75.696 -3169.419
v -618.867 -31.732 -3322.290
v -465.993 -29.421 -3322.290
v -313.119 -30.729 -3322.290
v -160.245 -36.987 -3322.290
v -7.371 -47.369 -3322.290
v 145.503 -59.303 -3322.290
v 298.378 -71.454 -3322.290
v 451.252 -81.714 -3322.290
v 604.126 -87.565 -3322.290
v 757.000 -89.176 -3322.290
v 909.874 -87.348 -3322.290
v 1062.748 -82.583 -3322.290
v 1215.622 -77.611 -3322.290
v 1368.496 -74.719 -3322.290
v 1521.370 -74.161 -3322.290
v 1674.244 -76.950 -3322.290
v 1827.118 -82.862 -3322.290
v -618.867 -44.038 -3475.163
v -465.993 -51.101 -3475.163
v -313.119 -39.901 -3475.163
v -160.245 -44.853 -3475.163
v -7.371 -64.240 -3475.163
v 145.503 -63.825 -3475.163
v 298.378 -73.323 -3475.163
v 451.252 -93.409 -3475.163
v 604.126 -88.319 -3475.163
v 757.000 -86.633 -3475.163
v 909.874 -95.853 -3475.163
v 1062.748 -81.784 -3475.163
v 1215.622 -72.794 -3475.163
v 1368.496 -81.855 -3475.163
v 1521.370 -73.335 -3475.163
v 1674.244 -71.067 -3475.163
v 1827.118 -89.443 -3475.163
v -618.867 -59.531 -3628.038
v -465.993 -51.674 -3628.038
v -313.119 -55.169 -3628.038
v -160.245 -58.429 -3628.038
v -7.371 -61.327 -3628.038
v 145.503 -74.259 -3628.038
v 298.378 -83.775 -3628.038
v 451.252 -86.847 -3628.038
v 604.126 -94.336 -3628.038
v 757.000 -95.104 -3628.038
v 909.874 -87.236 -3628.038
v 1062.748 -85.012 -3628.038
v 1215.622 -80.840 -3628.038
v 1368.496 -72.648 -3628.038
v 1521.370 -74.936 -3628.038
v 1674.244 -79.545 -3628.038
v 1827.118 -80.365 -3628.038
v -618.867 -69.414 -3780.915
v -465.993 -55.437 -3780.915
v -313.119 -64.435 -3780.915
v -160.245 -66.622 -3780.915
v -7.371 -62.540 -3780.915
v 145.503 -80.313 -3780.915
v 298.378 -89.413 -3780.915
v 451.252 -85.366 -3780.915
v 604.126 -97.530 -3780.915
v 757.000 -99.024 -3780.915
v 909.874 -84.196 -3780.915
v 1062.748 -86.533 -3780.915
v 1215.622 -84.180 -3780.915
v 1368.496 -69.088 -3780.915
v 1521.370 -75.622 -3780.915
v 1674.244 -82.933 -3780.915
v 1827.118 -76.781 -3780.915
v -618.867 -70.526 -3933.794
v -465.993 -72.521 -3933.794
v -313.119 -63.159 -3933.794
v -160.245 -65.254 -3933.794
v -7.371 -77.735 -3933.794
v 145.503 -78.039 -3933.794
v 298.378 -84.998 -3933.794
v 451.252 -98.471 -3933.794
v 604.126 -94.730 -3933.794
v 757.000 -92.188 -3933.794
v 909.874 -95.902 -3933.794
v 1062.748 -84.066 -3933.794
v 1215.622 -75.757 -3933.794
v 1368.496 -80.028 -3933.794
v 1521.370 -74.053 -3933.794
v 1674.244 -73.412 -3933.794
v 1827.118 -87.203 -3933.794
v -618.867 -74.394 -4086.675
v -465.993 -76.387 -4086.675
v -313.119 -66.453 -4086.675
v -160.245 -68.132 -4086.675
v -7.371 -80.372 -4086.675
v 145.503 -79.984 -4086.675
v 298.378 -86.480 -4086.675
v 451.252 -99.797 -4086.675
v 604.126 -95.526 -4086.675
v 757.000 -92.677 -4086.675
v 909.874 -96.443 -4086.675
v 1062.748 -84.282 -4086.675
v 1215.622 -75.801 -4086.675
v 1368.496 -80.264 -4086.675
v 1521.370 -74.085 -4086.675
v 1674.244 -73.316 -4086.675
v 1827.118 -87.356 -4086.675
v -618.867 -81.624 -4239.558
v -465.993 -67.284 -4239.558
v -313.119 -74.882 -4239.558
v -160.245 -75.756 -4239.558
v -7.371 -70.544 -4239.558
v 145.503 -86.515 -4239.558
v 298.378 -94.197 -4239.558
v 451.252 -89.271 -4239.558
v 604.126 -100.111 -4239.558
v 757.000 -100.723 -4239.558
v 909.874 -85.645 -4239.558
v 1062.748 -87.272 -4239.558
v 1215.622 -84.504 -4239.558
v 1368.496 -69.589 -4239.558
v 1521.370 -75.758 -4239.558
v 1674.244 -82.841 -4239.558
v 1827.118 -77.030 -4239.558
v -618.867 -81.845 -4392.443
v -465.993 -72.441 -4392.443
v -313.119 -74.383 -4392.443
v -160.245 -75.241 -4392.443
v -7.371 -75.156 -4392.443
v 145.503 -85.750 -4392.443
v 298.378 -92.785 -4392.443
v 451.252 -93.279 -4392.443
v 604.126 -99.220 -4392.443
v 757.000 -98.595 -4392.443
v 909.874 -89.246 -4392.443
v 1062.748 -86.503 -4392.443
v 1215.622 -81.900 -4392.443
v 1368.496 -72.962 -4392.443
v 1521.370 -75.272 -4392.443
v 1674.244 -79.901 -4392.443
v 1827.118 -80.247 -4392.443
v -618.867 -78.672 -4545.330
v -465.993 -83.885 -4545.330
v -313.119 -69.646 -4545.330
v -160.245 -70.871 -4545.330
v -7.371 -86.203 -4545.330
v 145.503 -81.562 -4545.330
v 298.378 -87.141 -4545.330
v 451.252 -103.833 -4545.330
v 604.126 -95.795 -4545.330
v 757.000 -91.809 -4545.330
v 909.874 -99.373 -4545.330
v 1062.748 -84.010 -4545.330
v 1215.622 -74.146 -4545.330
v 1368.496 -82.719 -4545.330
v 1521.370 -73.802 -4545.330
v 1674.244 -71.293 -4545.330
v 1827.118 -89.619 -4545.330
v -618.867 -82.131 -4698.219
v -465.993 -77.389 -4698.219
v -313.119 -73.977 -4698.219
v -160.245 -74.813 -4698.219
v -7.371 -79.565 -4698.219
v 145.503 -85.067 -4698.219
v 298.378 -91.482 -4698.219
v 451.252 -97.091 -4698.219
v 604.126 -98.395 -4698.219
v 757.000 -96.594 -4698.219
v 909.874 -92.658 -4698.219
v 1062.748 -85.780 -4698.219
v 1215.622 -79.441 -4698.219
v 1368.496 -76.153 -4698.219
v 1521.370 -74.814 -4698.219
v 1674.244 -77.123 -4698.219
v 1827.118 -83.287 -4698.219
f 1 2 19
f 19 18 1
f 2 3 20
f 20 19 2
f 3 4 21
f 21 20 3
f 4 5 22
f 22 21 4
f 5 6 23
f 23 22 5
f 6 7 24
f 24 23 6
f 7 8 25
f 25 24 7
f 8 9 26
f 26 25 8
f 9 10 27
f 27 26 9
f 10 11 28
f 28 27 10
f 11 12 29
f 29 28 11
f 12 13 30
f 30 29 12
f 13 14 31
f 31 30 13
f 14 15 32
f 32 31 14
f 15 16 33
f 33 32 15
f 16 17 34
f 34 33 16
f 18 19 36
f 36 35 18
f 19 20 37
f 37 36 19
f 20 21 38
f 38 37 20
f 21 22 39
f 39 38 21
f 22 23 40
f 40 39 22
f 23 24 41
f 41 40 23
f 24 25 42
f 42 41 24
f 25 26 43
f 43 42 25
f 26 27 44
f 44 43 26
f 27 28 45
f 45 44 27
f 28 29 46
f 46 45 28
f 29 30 47
f 47 46 29
f 30 31 48
f 48 47 30
f 31 32 49
f 49 48 31
f 32 33 50
f 50 49 32
f 33 34 51
f 51 50 33
f 35 36 53
f 53 52 35
f 36 37 54
f 54 53 36
f 37 38 55
f 55 54 37
f 38 39 56
f 56 55 38
f 39 40 57
f 57 56 39
f 40 41 58
f 58 57 40
f 41 42 59
f 59 58 41
f 42 43 60
f 60 59 42
f 43 44 61
f 61 60 43
f 44 45 62
f 62 61 44
f 45 46 63
f 63 62 45
f 46 47 64
f 64 63 46
f 47 48 65
f 65 64 47
f 48 49 66
f 66 65 48
f 49 50 67
f 67 66 49
f 50 51 68
f 68 67 50
f 52 53 70
f 70 69 52
f 53 54 71
f 71 70 53
f 54 55 72
f 72 71 54
f 55 56 73
f 73 72 55
f 56 57 74
f 74 73 56
f 57 58 75
f 75 74 57
f 58 59 76
f 76 75 58
f 59 60 77
f 77 76 59
f 60 61 78
f 78 77 60
f 61 62 79
f 79 78 61
f 62 63 80
f 80 79 62
f 63 64 81
f 81 80 63
f 64 65 82
f 82 81 64
f 65 66 83
f 83 82 65
f 66 67 84
f 84 83 66
f 67 68 85
f 85 84 67
f 69 70 87
f 87 86 69
f 70 71 88
f 88 87 70
f 71 72 89
f 89 88 71
f 72 73 90
f 90 89 72
f 73 74 91
f 91 90 73
f 74 75 92
f 92 91 74
f 75 76 93
f 93 92 75
f 76 77 94
f 94 93 76
f 77 78 95
f 95 94 77
f 78 79 96
f 96 95 78
f 79 80 97
f 97 96 79
f 80 81 98
f 98 97 80
f 81 82 99
f 99 98 81
f 82 83 100
f 100 99 82
f 83 84 101
f 101 100 83
f 84 85 102
f 102 101 84
f 86 87 104
f 104 103 86
f 87 88 105
f 105 104 87
f 88 89 106
f 106 105 88
f 89 90 107
f 107 106 89
f 90 91 108
f 108 107 90
f 91 92 109
f 109 108 91
f 92 93 110
f 110 109 92
f 93 94 111
f 111 110 93
f 94 95 112
f 112 111 94
f 95 96 113
f 113 112 95
f 96 97 114
f 114 113 96
f 97 98 115
f 115 114 97
f 98 99 116
f 116 115 98
f 99 100 117
f 117 116 99
f 100 101 118
f 118 117 100
f 101 102 119
f 119 118 101
f 103 104 121
f 121 120 103
f 104 105 122
f 122 121 104
f 105 106 123
f 123 122 105
f 106 107 124
f 124 123 106
f 107 108 125
f 125 124 107
f 108 109 126
f 126 125 108
f 109 110 127
f 127 126 109
f 110 111 128
f 128 127 110
f 111 112 129
f 129 128 111
f 112 113 130
f 130 129 112
f 113 114 131
f 131 130 113
f 114 115 132
f 132 131 114
f 115 116 133
f 133 132 115
f 116 117 134
f 134 133 116
f 117 118 135
f 135 134 117
f 118 119 136
f 136 135 118
f 120 121 138
f 138 137 120
f 121 122 139
f 139 138 121
f 122 123 140
f 140 139 122
f 123 124 141
f 141 140 123
f 124 125 142
f 142 141 124
f 125 126 143
f 143 142 125
f 126 127 144
f 144 143 126
f 127 128 145
f 145 144 127
f 128 129 146
f 146 145 128
f 129 130 147
f 147 146 129
f 130 131 148
f 148 147 130
f 131 132 149
f 149 148 131
f 132 133 150
f 150 149 132
f 133 134 151
f 151 150 133
f 134 135 152
f 152 151 134
f 135 136 153
f 153 152 135
f 137 138 155
f 155 154 137
f 138 139 156
f 156 155 138
f 139 140 157
f 157 156 139
f 140 141 158
f 158 157 140
f 141 142 159
f 159 158 141
f 142 143 160
f 160 159 142
f 143 144 161
f 161 160 143
f 144 145 162
f 162 161 144
f 145 146 163
f 163 162 145
f 146 147 164
f 164 163 146
f 147 148 165
f 165 164 147
f 148 149 166
f 166 165 148
f 149 150 167
f 167 166 149
f 150 151 168
f 168 167 150
f 151 152 169
f 169 168 151
f 152 153 170
f 170 169 152
f 154 155 172
f 172 171 154
f 155 156 173
f 173 172 155
f 156 157 174
f 174 173 156
f 157 158 175
f 175 174 157
f 158 159 176
f 176 175 158
f 159 160 177
f 177 176 159
f 160 161 178
f 178 177 160
f 161 162 179
f 179 178 161
f 162 163 180
f 180 179 162
f 163 164 181
f 181 180 163
f 164 165 182
f 182 181 164
f 165 166 183
f 183 182 165
f 166 167 184
f 184 183 166
f 167 168 185
f 185 184 167
f 168 169 186
f 186 185 168
f 169 170 187
f 187 186 169
f 171 172 189
f 189 188 171
f 172 173 190
f 190 189 172
f 173 174 191
f 191 190 173
f 174 175 192
f 192 191 174
f 175 176 193
f 193 192 175
f 176 177 194
f 194 193 176
f 177 178 195
f 195 194 177
f 178 179 196
f 196 195 178
f 179 180 197
f 197 196 179
f 180 181 198
f 198 197 180
f 181 182 199
f 199 198 181
f 182 183 200
f 200 199 182
f 183 184 201
f 201 200 183
f 184 185 202
f 202 201 184
f 185 186 203
f 203 202 185
f 186 187 204
f 204 203 186
f 188 189 206
f 206 205 188
f 189 190 207
f 207 206 189
f 190 191 208
f 208 207 190
f 191 192 209
f 209 208 191
f 192 193 210
f 210 209 192
f 193 194 211
f 211 210 193
f 194 195 212
f 212 211 194
f 195 196 213
f 213 212 195
f 196 197 214
f 214 213 196
f 197 198 215
f 215 214 197
f 198 199 216
f 216 215 198
f 199 200 217
f 217 216 199
f 200 201 218
f 218 217 200
f 201 202 219
f 219 218 201
f 202 203 220
f 220 219 202
f 203 204 221
f 221 220 203
f 205 206 223
f 223 222 205
f 206 207 224
f 224 223 206
f 207 208 225
f 225 224 207
f 208 209 226
f 226 225 208
f 209 210 227
f 227 226 209
f 210 211 228
f 228 227 210
f 211 212 229
f 229 228 211
f 212 213 230
f 230 229 212
f 213 214 231
f 231 230 213
f 214 215 232
f 232 231 214
f 215 216 233
f 233 232 215
f 216 217 234
f 234 233 216
f 217 218 235
f 235 234 217
f 218 219 236
f 236 235 218
f 219 220 237
f 237 236 219
f 220 221 238
f 238 237 220
f 222 223 240
f 240 239 222
f 223 224 241
f 241 240 223
f 224 225 242
f 242 241 224
f 225 226 243
f 243 242 225
f 226 227 244
f 244 243 226
f 227 228 245
f 245 244 227
f 228 229 246
f 246 245 228
f 229 230 247
f 247 246 229
f 230 231 248
f 248 247 230
f 231 232 249
f 249 248 231
f 232 233 250
f 250 249 232
f 233 234 251
f 251 250 233
f 234 235 252
f 252 251 234
f 235 236 253
f 253 252 235
f 236 237 254
f 254 253 236
f 237 238 255
f 255 254 237
f 239 240 257
f 257 256 239
f 240 241 258
f 258 257 240
f 241 242 259
f 259 258 241
f 242 243 260
f 260 259 242
f 243 244 261
f 261 260 243
f 244 245 262
f 262 261 244
f 245 246 263
f 263 262 245
f 246 247 264
f 264 263 246
f 247 248 265
f 265 264 247
f 248 249 266
f 266 265 248
f 249 250 267
f 267 266 249
f 250 251 268
f 268 267 250
f 251 252 269
f 269 268 251
f 252 253 270
f 270 269 252
f 253 254 271
f 271 270 253
f 254 255 272
f 272 271 254
f 256 257 274
f 274 273 256
f 257 258 275
f 275 274 257
f 258 259 276
f 276 275 258
f 259 260 277
f 277 276 259
f 260 261 278
f 278 277 260
f 261 262 279
f 279 278 261
f 262 263 280
f 280 279 262
f 263 264 281
f 281 280 263
f 264 265 282
f 282 281 264
f 265 266 283
f 283 282 265
f 266 267 284
f 284 283 266
f 267 268 285
f 285 284 267
f 268 269 286
f 286 285 268
f 269 270 287
f 287 286 269
f 270 271 288
f 288 287 270
f 271 272 289
f 289 288 271
