# Roads and Streetscape mesh for tecate_core_z14_x2885_y6620
v 2247.004 0.050 -4886.752
v 2249.636 0.050 -4894.307
v 2220.804 0.050 -4904.350
v 2218.172 0.050 -4896.795
v 2246.346 0.200 -4884.863
v 2247.004 0.200 -4886.752
v 2218.172 0.200 -4896.795
v 2217.514 0.200 -4894.906
v 2249.636 0.200 -4894.307
v 2250.293 0.200 -4896.196
v 2221.462 0.200 -4906.238
v 2220.804 0.200 -4904.350
v 2246.262 0.200 -4885.202
v 2246.562 0.200 -4885.202
v 2246.562 0.200 -4884.902
v 2246.262 0.200 -4884.902
v 2246.262 8.200 -4885.202
v 2246.562 8.200 -4885.202
v 2246.562 8.200 -4884.902
v 2246.262 8.200 -4884.902
v 2250.078 0.200 -4896.157
v 2250.378 0.200 -4896.157
v 2250.378 0.200 -4895.857
v 2250.078 0.200 -4895.857
v 2250.078 8.200 -4896.157
v 2250.378 8.200 -4896.157
v 2250.378 8.200 -4895.857
v 2250.078 8.200 -4895.857
v 2217.145 0.050 -4897.330
v 2221.831 0.050 -4903.814
v 2214.150 0.050 -4909.365
v 2209.464 0.050 -4902.880
v 2215.974 0.200 -4895.709
v 2217.145 0.200 -4897.330
v 2209.464 0.200 -4902.880
v 2208.293 0.200 -4901.259
v 2221.831 0.200 -4903.814
v 2223.002 0.200 -4905.436
v 2215.321 0.200 -4910.986
v 2214.150 0.200 -4909.365
v 2210.098 0.050 -4902.506
v 2213.516 0.050 -4909.739
v 2188.915 0.050 -4921.367
v 2185.496 0.050 -4914.135
v 2209.243 0.200 -4900.698
v 2210.098 0.200 -4902.506
v 2185.496 0.200 -4914.135
v 2184.641 0.200 -4912.326
v 2213.516 0.200 -4909.739
v 2214.371 0.200 -4911.547
v 2189.769 0.200 -4923.175
v 2188.915 0.200 -4921.367
v 2209.178 0.200 -4901.029
v 2209.478 0.200 -4901.029
v 2209.478 0.200 -4900.729
v 2209.178 0.200 -4900.729
v 2209.178 8.200 -4901.029
v 2209.478 8.200 -4901.029
v 2209.478 8.200 -4900.729
v 2209.178 8.200 -4900.729
v 2214.136 0.200 -4911.516
v 2214.436 0.200 -4911.516
v 2214.436 0.200 -4911.216
v 2214.136 0.200 -4911.216
v 2214.136 8.200 -4911.516
v 2214.436 8.200 -4911.516
v 2214.436 8.200 -4911.216
v 2214.136 8.200 -4911.216
v 2186.383 0.050 -4913.836
v 2188.027 0.050 -4921.666
v 2173.556 0.050 -4924.705
v 2171.912 0.050 -4916.876
v 2185.972 0.200 -4911.879
v 2186.383 0.200 -4913.836
v 2171.912 0.200 -4916.876
v 2171.501 0.200 -4914.918
v 2188.027 0.200 -4921.666
v 2188.439 0.200 -4923.623
v 2173.967 0.200 -4926.662
v 2173.556 0.200 -4924.705
v 2172.455 0.050 -4916.800
v 2173.013 0.050 -4924.780
v 2080.507 0.050 -4931.255
v 2079.948 0.050 -4923.275
v 2172.315 0.200 -4914.805
v 2172.455 0.200 -4916.800
v 2079.948 0.200 -4923.275
v 2079.808 0.200 -4921.280
v 2173.013 0.200 -4924.780
v 2173.153 0.200 -4926.776
v 2080.646 0.200 -4933.251
v 2080.507 0.200 -4931.255
v 2172.179 0.200 -4915.154
v 2172.479 0.200 -4915.154
v 2172.479 0.200 -4914.854
v 2172.179 0.200 -4914.854
v 2172.179 8.200 -4915.154
v 2172.479 8.200 -4915.154
v 2172.479 8.200 -4914.854
v 2172.179 8.200 -4914.854
v 2172.989 0.200 -4926.726
v 2173.289 0.200 -4926.726
v 2173.289 0.200 -4926.426
v 2172.989 0.200 -4926.426
v 2172.989 8.200 -4926.726
v 2173.289 8.200 -4926.726
v 2173.289 8.200 -4926.426
v 2172.989 8.200 -4926.426
v 2079.756 0.050 -4923.293
v 2080.699 0.050 -4931.237
v 2033.945 0.050 -4936.787
v 2033.002 0.050 -4928.843
v 2079.520 0.200 -4921.307
v 2079.756 0.200 -4923.293
v 2033.002 0.200 -4928.843
v 2032.766 0.200 -4926.857
v 2080.699 0.200 -4931.237
v 2080.935 0.200 -4933.223
v 2034.180 0.200 -4938.773
v 2033.945 0.200 -4936.787
v 2079.394 0.200 -4921.656
v 2079.694 0.200 -4921.656
v 2079.694 0.200 -4921.356
v 2079.394 0.200 -4921.356
v 2079.394 8.200 -4921.656
v 2079.694 8.200 -4921.656
v 2079.694 8.200 -4921.356
v 2079.394 8.200 -4921.356
v 2080.761 0.200 -4933.175
v 2081.061 0.200 -4933.175
v 2081.061 0.200 -4932.875
v 2080.761 0.200 -4932.875
v 2080.761 8.200 -4933.175
v 2081.061 8.200 -4933.175
v 2081.061 8.200 -4932.875
v 2080.761 8.200 -4932.875
v 2032.391 0.050 -4928.965
v 2034.556 0.050 -4936.666
v 2021.865 0.050 -4940.234
v 2019.700 0.050 -4932.532
v 2031.849 0.200 -4927.039
v 2032.391 0.200 -4928.965
v 2019.700 0.200 -4932.532
v 2019.159 0.200 -4930.607
v 2034.556 0.200 -4936.666
v 2035.097 0.200 -4938.591
v 2022.407 0.200 -4942.159
v 2021.865 0.200 -4940.234
v 2019.961 0.050 -4932.469
v 2021.605 0.050 -4940.298
v 2007.133 0.050 -4943.337
v 2005.489 0.050 -4935.508
v 2019.550 0.200 -4930.511
v 2019.961 0.200 -4932.469
v 2005.489 0.200 -4935.508
v 2005.078 0.200 -4933.551
v 2021.605 0.200 -4940.298
v 2022.016 0.200 -4942.255
v 2007.544 0.200 -4945.294
v 2007.133 0.200 -4943.337
v 2006.311 0.050 -4935.422
v 2006.311 0.050 -4943.422
v 1990.170 0.050 -4943.422
v 1990.170 0.050 -4935.422
v 2006.311 0.200 -4933.422
v 2006.311 0.200 -4935.422
v 1990.170 0.200 -4935.422
v 1990.170 0.200 -4933.422
v 2006.311 0.200 -4943.422
v 2006.311 0.200 -4945.422
v 1990.170 0.200 -4945.422
v 1990.170 0.200 -4943.422
v 2006.161 0.200 -4933.772
v 2006.461 0.200 -4933.772
v 2006.461 0.200 -4933.472
v 2006.161 0.200 -4933.472
v 2006.161 8.200 -4933.772
v 2006.461 8.200 -4933.772
v 2006.461 8.200 -4933.472
v 2006.161 8.200 -4933.472
v 2006.161 0.200 -4945.372
v 2006.461 0.200 -4945.372
v 2006.461 0.200 -4945.072
v 2006.161 0.200 -4945.072
v 2006.161 8.200 -4945.372
v 2006.461 8.200 -4945.372
v 2006.461 8.200 -4945.072
v 2006.161 8.200 -4945.072
v 1991.308 0.050 -4935.588
v 1989.032 0.050 -4943.257
v 1980.572 0.050 -4940.746
v 1982.848 0.050 -4933.077
v 1991.877 0.200 -4933.670
v 1991.308 0.200 -4935.588
v 1982.848 0.200 -4933.077
v 1983.417 0.200 -4931.160
v 1989.032 0.200 -4943.257
v 1988.463 0.200 -4945.175
v 1980.003 0.200 -4942.664
v 1980.572 0.200 -4940.746
v 2112.951 0.050 -4999.280
v 2105.167 0.050 -4997.437
v 2113.738 0.050 -4961.230
v 2121.523 0.050 -4963.073
v 2114.898 0.200 -4999.741
v 2112.951 0.200 -4999.280
v 2121.523 0.200 -4963.073
v 2123.469 0.200 -4963.533
v 2105.167 0.200 -4997.437
v 2103.220 0.200 -4996.976
v 2111.792 0.200 -4960.769
v 2113.738 0.200 -4961.230
v 2114.553 0.200 -4999.845
v 2114.853 0.200 -4999.845
v 2114.853 0.200 -4999.545
v 2114.553 0.200 -4999.545
v 2114.553 8.200 -4999.845
v 2114.853 8.200 -4999.845
v 2114.853 8.200 -4999.545
v 2114.553 8.200 -4999.545
v 2103.265 0.200 -4997.173
v 2103.565 0.200 -4997.173
v 2103.565 0.200 -4996.873
v 2103.265 0.200 -4996.873
v 2103.265 8.200 -4997.173
v 2103.565 8.200 -4997.173
v 2103.565 8.200 -4996.873
v 2103.265 8.200 -4996.873
v 2113.786 0.050 -4963.257
v 2121.475 0.050 -4961.046
v 2132.495 0.050 -4999.367
v 2124.807 0.050 -5001.578
v 2111.864 0.200 -4963.809
v 2113.786 0.200 -4963.257
v 2124.807 0.200 -5001.578
v 2122.885 0.200 -5002.131
v 2121.475 0.200 -4961.046
v 2123.397 0.200 -4960.493
v 2134.418 0.200 -4998.815
v 2132.495 0.200 -4999.367
v 2111.907 0.200 -4963.904
v 2112.207 0.200 -4963.904
v 2112.207 0.200 -4963.604
v 2111.907 0.200 -4963.604
v 2111.907 8.200 -4963.904
v 2112.207 8.200 -4963.904
v 2112.207 8.200 -4963.604
v 2111.907 8.200 -4963.604
v 2123.055 0.200 -4960.698
v 2123.355 0.200 -4960.698
v 2123.355 0.200 -4960.398
v 2123.055 0.200 -4960.398
v 2123.055 8.200 -4960.698
v 2123.355 8.200 -4960.698
v 2123.355 8.200 -4960.398
v 2123.055 8.200 -4960.398
v 2124.651 0.050 -5000.473
v 2132.651 0.050 -5000.473
v 2132.651 0.050 -5013.027
v 2124.651 0.050 -5013.027
v 2122.651 0.200 -5000.473
v 2124.651 0.200 -5000.473
v 2124.651 0.200 -5013.027
v 2122.651 0.200 -5013.027
v 2132.651 0.200 -5000.473
v 2134.651 0.200 -5000.473
v 2134.651 0.200 -5013.027
v 2132.651 0.200 -5013.027
v 2125.776 0.050 -5010.246
v 2131.526 0.050 -5015.808
v 2128.076 0.050 -5019.375
v 2122.325 0.050 -5013.814
v 2124.339 0.200 -5008.855
v 2125.776 0.200 -5010.246
v 2122.325 0.200 -5013.814
v 2120.888 0.200 -5012.423
v 2131.526 0.200 -5015.808
v 2132.964 0.200 -5017.198
v 2129.513 0.200 -5020.766
v 2128.076 0.200 -5019.375
v 2124.346 0.050 -5012.687
v 2126.055 0.050 -5020.502
v 2121.825 0.050 -5021.427
v 2120.116 0.050 -5013.612
v 2123.919 0.200 -5010.733
v 2124.346 0.200 -5012.687
v 2120.116 0.200 -5013.612
v 2119.689 0.200 -5011.658
v 2126.055 0.200 -5020.502
v 2126.482 0.200 -5022.456
v 2122.252 0.200 -5023.381
v 2121.825 0.200 -5021.427
v 2122.323 0.050 -5013.755
v 2119.618 0.050 -5021.284
v 2111.158 0.050 -5018.245
v 2113.862 0.050 -5010.716
v 2122.999 0.200 -5011.873
v 2122.323 0.200 -5013.755
v 2113.862 0.200 -5010.716
v 2114.539 0.200 -5008.834
v 2119.618 0.200 -5021.284
v 2118.942 0.200 -5023.166
v 2110.481 0.200 -5020.127
v 2111.158 0.200 -5018.245
v 2122.781 0.200 -5012.211
v 2123.081 0.200 -5012.211
v 2123.081 0.200 -5011.911
v 2122.781 0.200 -5011.911
v 2122.781 8.200 -5012.211
v 2123.081 8.200 -5012.211
v 2123.081 8.200 -5011.911
v 2122.781 8.200 -5011.911
v 2118.859 0.200 -5023.128
v 2119.159 0.200 -5023.128
v 2119.159 0.200 -5022.828
v 2118.859 0.200 -5022.828
v 2118.859 8.200 -5023.128
v 2119.159 8.200 -5023.128
v 2119.159 8.200 -5022.828
v 2118.859 8.200 -5022.828
v 2116.421 0.050 -5013.643
v 2108.599 0.050 -5015.318
v 2105.148 0.050 -4999.196
v 2112.970 0.050 -4997.521
v 2118.377 0.200 -5013.224
v 2116.421 0.200 -5013.643
v 2112.970 0.200 -4997.521
v 2114.926 0.200 -4997.103
v 2108.599 0.200 -5015.318
v 2106.643 0.200 -5015.736
v 2103.192 0.200 -4999.615
v 2105.148 0.200 -4999.196
v 2020.334 0.050 -4940.358
v 2021.232 0.050 -4932.408
v 2101.938 0.050 -4941.526
v 2101.040 0.050 -4949.476
v 2020.109 0.200 -4942.345
v 2020.334 0.200 -4940.358
v 2101.040 0.200 -4949.476
v 2100.816 0.200 -4951.463
v 2021.232 0.200 -4932.408
v 2021.456 0.200 -4930.421
v 2102.163 0.200 -4939.539
v 2101.938 0.200 -4941.526
v 2019.982 0.200 -4942.296
v 2020.282 0.200 -4942.296
v 2020.282 0.200 -4941.996
v 2019.982 0.200 -4941.996
v 2019.982 8.200 -4942.296
v 2020.282 8.200 -4942.296
v 2020.282 8.200 -4941.996
v 2019.982 8.200 -4941.996
v 2021.284 0.200 -4930.770
v 2021.584 0.200 -4930.770
v 2021.584 0.200 -4930.470
v 2021.284 0.200 -4930.470
v 2021.284 8.200 -4930.770
v 2021.584 8.200 -4930.770
v 2021.584 8.200 -4930.470
v 2021.284 8.200 -4930.470
v 2099.178 0.050 -4948.766
v 2103.801 0.050 -4942.237
v 2116.491 0.050 -4951.222
v 2111.868 0.050 -4957.751
v 2098.022 0.200 -4950.398
v 2099.178 0.200 -4948.766
v 2111.868 0.200 -4957.751
v 2110.713 0.200 -4959.384
v 2103.801 0.200 -4942.237
v 2104.957 0.200 -4940.604
v 2117.647 0.200 -4949.590
v 2116.491 0.200 -4951.222
v 2110.532 0.050 -4956.129
v 2117.827 0.050 -4952.845
v 2121.278 0.050 -4960.509
v 2113.983 0.050 -4963.793
v 2108.709 0.200 -4956.950
v 2110.532 0.200 -4956.129
v 2113.983 0.200 -4963.793
v 2112.160 0.200 -4964.615
v 2117.827 0.200 -4952.845
v 2119.651 0.200 -4952.023
v 2123.102 0.200 -4959.688
v 2121.278 0.200 -4960.509
v 3698.778 0.050 -4690.262
v 3706.706 0.050 -4689.191
v 3711.437 0.050 -4724.182
v 3703.509 0.050 -4725.253
v 3696.796 0.200 -4690.530
v 3698.778 0.200 -4690.262
v 3703.509 0.200 -4725.253
v 3701.527 0.200 -4725.521
v 3706.706 0.200 -4689.191
v 3708.688 0.200 -4688.923
v 3713.419 0.200 -4723.914
v 3711.437 0.200 -4724.182
v 3696.845 0.200 -4690.654
v 3697.145 0.200 -4690.654
v 3697.145 0.200 -4690.354
v 3696.845 0.200 -4690.354
v 3696.845 8.200 -4690.654
v 3697.145 8.200 -4690.654
v 3697.145 8.200 -4690.354
v 3696.845 8.200 -4690.354
v 3708.340 0.200 -4689.099
v 3708.640 0.200 -4689.099
v 3708.640 0.200 -4688.799
v 3708.340 0.200 -4688.799
v 3708.340 8.200 -4689.099
v 3708.640 8.200 -4689.099
v 3708.640 8.200 -4688.799
v 3708.340 8.200 -4688.799
v 3703.568 0.050 -4725.583
v 3711.379 0.050 -4723.852
v 3719.828 0.050 -4761.988
v 3712.017 0.050 -4763.719
v 3701.615 0.200 -4726.015
v 3703.568 0.200 -4725.583
v 3712.017 0.200 -4763.719
v 3710.065 0.200 -4764.151
v 3711.379 0.200 -4723.852
v 3713.331 0.200 -4723.420
v 3721.780 0.200 -4761.556
v 3719.828 0.200 -4761.988
v 3701.661 0.200 -4726.122
v 3701.961 0.200 -4726.122
v 3701.961 0.200 -4725.822
v 3701.661 0.200 -4725.822
v 3701.661 8.200 -4726.122
v 3701.961 8.200 -4726.122
v 3701.961 8.200 -4725.822
v 3701.661 8.200 -4725.822
v 3712.986 0.200 -4723.613
v 3713.286 0.200 -4723.613
v 3713.286 0.200 -4723.313
v 3712.986 0.200 -4723.313
v 3712.986 8.200 -4723.613
v 3713.286 8.200 -4723.613
v 3713.286 8.200 -4723.313
v 3712.986 8.200 -4723.313
v 3713.303 0.050 -4759.831
v 3718.543 0.050 -4765.876
v 3699.396 0.050 -4782.473
v 3694.156 0.050 -4776.428
v 3711.993 0.200 -4758.320
v 3713.303 0.200 -4759.831
v 3694.156 0.200 -4776.428
v 3692.846 0.200 -4774.917
v 3718.543 0.200 -4765.876
v 3719.853 0.200 -4767.387
v 3700.706 0.200 -4783.984
v 3699.396 0.200 -4782.473
v 3693.224 0.050 -4777.611
v 3700.328 0.050 -4781.290
v 3687.203 0.050 -4806.635
v 3680.099 0.050 -4802.956
v 3691.448 0.200 -4776.691
v 3693.224 0.200 -4777.611
v 3680.099 0.200 -4802.956
v 3678.323 0.200 -4802.036
v 3700.328 0.200 -4781.290
v 3702.104 0.200 -4782.210
v 3688.979 0.200 -4807.554
v 3687.203 0.200 -4806.635
v 3691.475 0.200 -4776.933
v 3691.775 0.200 -4776.933
v 3691.775 0.200 -4776.633
v 3691.475 0.200 -4776.633
v 3691.475 8.200 -4776.933
v 3691.775 8.200 -4776.933
v 3691.775 8.200 -4776.633
v 3691.475 8.200 -4776.633
v 3701.776 0.200 -4782.268
v 3702.076 0.200 -4782.268
v 3702.076 0.200 -4781.968
v 3701.776 0.200 -4781.968
v 3701.776 8.200 -4782.268
v 3702.076 8.200 -4782.268
v 3702.076 8.200 -4781.968
v 3701.776 8.200 -4781.968
v 3415.271 0.050 -4684.988
v 3421.972 0.050 -4680.617
v 3443.345 0.050 -4713.388
v 3436.645 0.050 -4717.758
v 3413.596 0.200 -4686.080
v 3415.271 0.200 -4684.988
v 3436.645 0.200 -4717.758
v 3434.969 0.200 -4718.851
v 3421.972 0.200 -4680.617
v 3423.647 0.200 -4679.525
v 3445.020 0.200 -4712.296
v 3443.345 0.200 -4713.388
v 3413.613 0.200 -4686.121
v 3413.913 0.200 -4686.121
v 3413.913 0.200 -4685.821
v 3413.613 0.200 -4685.821
v 3413.613 8.200 -4686.121
v 3413.913 8.200 -4686.121
v 3413.913 8.200 -4685.821
v 3413.613 8.200 -4685.821
v 3423.330 0.200 -4679.784
v 3423.630 0.200 -4679.784
v 3423.630 0.200 -4679.484
v 3423.330 0.200 -4679.484
v 3423.330 8.200 -4679.784
v 3423.630 8.200 -4679.784
v 3423.630 8.200 -4679.484
v 3423.330 8.200 -4679.484
v 3436.091 0.050 -4716.446
v 3443.898 0.050 -4714.700
v 3452.470 0.050 -4753.021
v 3444.663 0.050 -4754.767
v 3434.140 0.200 -4716.883
v 3436.091 0.200 -4716.446
v 3444.663 0.200 -4754.767
v 3442.711 0.200 -4755.204
v 3443.898 0.200 -4714.700
v 3445.850 0.200 -4714.264
v 3454.422 0.200 -4752.585
v 3452.470 0.200 -4753.021
v 3434.185 0.200 -4716.989
v 3434.485 0.200 -4716.989
v 3434.485 0.200 -4716.689
v 3434.185 0.200 -4716.689
v 3434.185 8.200 -4716.989
v 3434.485 8.200 -4716.989
v 3434.485 8.200 -4716.689
v 3434.185 8.200 -4716.689
v 3445.505 0.200 -4714.457
v 3445.805 0.200 -4714.457
v 3445.805 0.200 -4714.157
v 3445.505 0.200 -4714.157
v 3445.505 8.200 -4714.457
v 3445.805 8.200 -4714.457
v 3445.805 8.200 -4714.157
v 3445.505 8.200 -4714.157
v 4028.194 0.050 -4663.859
v 4035.011 0.050 -4659.673
v 4086.385 0.050 -4743.344
v 4079.568 0.050 -4747.530
v 4026.489 0.200 -4664.905
v 4028.194 0.200 -4663.859
v 4079.568 0.200 -4747.530
v 4077.863 0.200 -4748.577
v 4035.011 0.200 -4659.673
v 4036.715 0.200 -4658.626
v 4088.089 0.200 -4742.298
v 4086.385 0.200 -4743.344
v 4026.510 0.200 -4664.950
v 4026.810 0.200 -4664.950
v 4026.810 0.200 -4664.650
v 4026.510 0.200 -4664.650
v 4026.510 8.200 -4664.950
v 4026.810 8.200 -4664.950
v 4026.810 8.200 -4664.650
v 4026.510 8.200 -4664.650
v 4036.395 0.200 -4658.881
v 4036.695 0.200 -4658.881
v 4036.695 0.200 -4658.581
v 4036.395 0.200 -4658.581
v 4036.395 8.200 -4658.881
v 4036.695 8.200 -4658.881
v 4036.695 8.200 -4658.581
v 4036.395 8.200 -4658.581
v 1820.163 0.050 -5048.544
v 1826.374 0.050 -5043.502
v 1841.625 0.050 -5062.293
v 1835.413 0.050 -5067.335
v 1818.610 0.200 -5049.804
v 1820.163 0.200 -5048.544
v 1835.413 0.200 -5067.335
v 1833.861 0.200 -5068.595
v 1826.374 0.200 -5043.502
v 1827.927 0.200 -5042.242
v 1843.178 0.200 -5061.033
v 1841.625 0.200 -5062.293
v 1834.522 0.050 -5064.952
v 1842.517 0.050 -5064.677
v 1844.421 0.050 -5120.059
v 1836.425 0.050 -5120.334
v 1832.523 0.200 -5065.020
v 1834.522 0.200 -5064.952
v 1836.425 0.200 -5120.334
v 1834.426 0.200 -5120.402
v 1842.517 0.200 -5064.677
v 1844.516 0.200 -5064.608
v 1846.419 0.200 -5119.990
v 1844.421 0.200 -5120.059
v 1832.573 0.200 -5065.163
v 1832.873 0.200 -5065.163
v 1832.873 0.200 -5064.863
v 1832.573 0.200 -5064.863
v 1832.573 8.200 -5065.163
v 1832.873 8.200 -5065.163
v 1832.873 8.200 -5064.863
v 1832.573 8.200 -5064.863
v 1844.166 0.200 -5064.765
v 1844.466 0.200 -5064.765
v 1844.466 0.200 -5064.465
v 1844.166 0.200 -5064.465
v 1844.166 8.200 -5064.765
v 1844.466 8.200 -5064.765
v 1844.466 8.200 -5064.465
v 1844.166 8.200 -5064.465
v 1843.644 0.050 -4981.233
v 1840.897 0.050 -4969.551
v 1862.816 0.050 -4964.398
v 1865.563 0.050 -4976.079
v 1844.102 0.200 -4983.180
v 1843.644 0.200 -4981.233
v 1865.563 0.200 -4976.079
v 1866.021 0.200 -4978.026
v 1840.897 0.200 -4969.551
v 1840.440 0.200 -4967.604
v 1862.359 0.200 -4962.451
v 1862.816 0.200 -4964.398
v 1842.288 0.070 -4975.465
v 1842.254 0.070 -4975.319
v 1864.172 0.070 -4970.165
v 1864.207 0.070 -4970.311
v 1865.576 0.050 -4976.076
v 1862.804 0.050 -4964.401
v 1877.609 0.050 -4960.886
v 1880.381 0.050 -4972.561
v 1866.038 0.200 -4978.022
v 1865.576 0.200 -4976.076
v 1880.381 0.200 -4972.561
v 1880.843 0.200 -4974.507
v 1862.804 0.200 -4964.401
v 1862.342 0.200 -4962.455
v 1877.147 0.200 -4958.940
v 1877.609 0.200 -4960.886
v 1864.207 0.070 -4970.311
v 1864.172 0.070 -4970.165
v 1878.978 0.070 -4966.650
v 1879.012 0.070 -4966.796
v 1865.841 0.200 -4977.977
v 1866.141 0.200 -4977.977
v 1866.141 0.200 -4977.677
v 1865.841 0.200 -4977.677
v 1865.841 8.200 -4977.977
v 1866.141 8.200 -4977.977
v 1866.141 8.200 -4977.677
v 1865.841 8.200 -4977.677
v 1862.238 0.200 -4962.799
v 1862.538 0.200 -4962.799
v 1862.538 0.200 -4962.499
v 1862.238 0.200 -4962.499
v 1862.238 8.200 -4962.799
v 1862.538 8.200 -4962.799
v 1862.538 8.200 -4962.499
v 1862.238 8.200 -4962.499
v 1880.364 0.050 -4972.565
v 1877.626 0.050 -4960.882
v 1887.779 0.050 -4958.503
v 1890.516 0.050 -4970.187
v 1880.820 0.200 -4974.512
v 1880.364 0.200 -4972.565
v 1890.516 0.200 -4970.187
v 1890.972 0.200 -4972.134
v 1877.626 0.200 -4960.882
v 1877.170 0.200 -4958.934
v 1887.323 0.200 -4956.556
v 1887.779 0.200 -4958.503
v 1879.012 0.070 -4966.796
v 1878.978 0.070 -4966.650
v 1889.130 0.070 -4964.272
v 1889.165 0.070 -4964.418
v 1890.739 0.050 -4970.130
v 1887.556 0.050 -4958.560
v 1923.390 0.050 -4948.702
v 1926.573 0.050 -4960.272
v 1891.269 0.200 -4972.058
v 1890.739 0.200 -4970.130
v 1926.573 0.200 -4960.272
v 1927.103 0.200 -4962.200
v 1887.556 0.200 -4958.560
v 1887.025 0.200 -4956.631
v 1922.859 0.200 -4946.773
v 1923.390 0.200 -4948.702
v 1889.167 0.070 -4964.417
v 1889.128 0.070 -4964.272
v 1924.961 0.070 -4954.415
v 1925.001 0.070 -4954.559
v 1891.066 0.200 -4972.015
v 1891.366 0.200 -4972.015
v 1891.366 0.200 -4971.715
v 1891.066 0.200 -4971.715
v 1891.066 8.200 -4972.015
v 1891.366 8.200 -4972.015
v 1891.366 8.200 -4971.715
v 1891.066 8.200 -4971.715
v 1886.928 0.200 -4956.974
v 1887.228 0.200 -4956.974
v 1887.228 0.200 -4956.674
v 1886.928 0.200 -4956.674
v 1886.928 8.200 -4956.974
v 1887.228 8.200 -4956.974
v 1887.228 8.200 -4956.674
v 1886.928 8.200 -4956.674
v 1926.521 0.050 -4960.286
v 1923.441 0.050 -4948.688
v 1947.030 0.050 -4942.424
v 1950.110 0.050 -4954.022
v 1927.034 0.200 -4962.219
v 1926.521 0.200 -4960.286
v 1950.110 0.200 -4954.022
v 1950.623 0.200 -4955.955
v 1923.441 0.200 -4948.688
v 1922.928 0.200 -4946.755
v 1946.517 0.200 -4940.491
v 1947.030 0.200 -4942.424
v 1925.000 0.070 -4954.559
v 1924.962 0.070 -4954.414
v 1948.551 0.070 -4948.151
v 1948.589 0.070 -4948.296
v 1950.508 0.050 -4953.902
v 1946.632 0.050 -4942.545
v 1979.771 0.050 -4931.233
v 1983.648 0.050 -4942.590
v 1951.154 0.200 -4955.794
v 1950.508 0.200 -4953.902
v 1983.648 0.200 -4942.590
v 1984.294 0.200 -4944.483
v 1946.632 0.200 -4942.545
v 1945.986 0.200 -4940.652
v 1979.125 0.200 -4929.341
v 1979.771 0.200 -4931.233
v 1948.594 0.070 -4948.294
v 1948.546 0.070 -4948.152
v 1981.685 0.070 -4936.841
v 1981.734 0.070 -4936.983
v 1950.939 0.200 -4955.755
v 1951.239 0.200 -4955.755
v 1951.239 0.200 -4955.455
v 1950.939 0.200 -4955.455
v 1950.939 8.200 -4955.755
v 1951.239 8.200 -4955.755
v 1951.239 8.200 -4955.455
v 1950.939 8.200 -4955.455
v 1945.900 0.200 -4940.991
v 1946.200 0.200 -4940.991
v 1946.200 0.200 -4940.691
v 1945.900 0.200 -4940.691
v 1945.900 8.200 -4940.991
v 1946.200 8.200 -4940.991
v 1946.200 8.200 -4940.691
v 1945.900 8.200 -4940.691
v 1984.324 0.050 -4942.312
v 1979.095 0.050 -4931.511
v 2002.027 0.050 -4920.411
v 2007.256 0.050 -4931.212
v 1985.195 0.200 -4944.113
v 1984.324 0.200 -4942.312
v 2007.256 0.200 -4931.212
v 2008.127 0.200 -4933.012
v 1979.095 0.200 -4931.511
v 1978.224 0.200 -4929.711
v 2001.156 0.200 -4918.611
v 2002.027 0.200 -4920.411
v 1981.742 0.070 -4936.979
v 1981.677 0.070 -4936.844
v 2004.609 0.070 -4925.744
v 2004.674 0.070 -4925.879
v 2008.267 0.050 -4930.593
v 2001.016 0.050 -4921.031
v 2022.278 0.050 -4904.909
v 2029.529 0.050 -4914.471
v 2009.475 0.200 -4932.186
v 2008.267 0.200 -4930.593
v 2029.529 0.200 -4914.471
v 2030.737 0.200 -4916.065
v 2001.016 0.200 -4921.031
v 1999.808 0.200 -4919.437
v 2021.070 0.200 -4903.315
v 2022.278 0.200 -4904.909
v 2004.687 0.070 -4925.871
v 2004.596 0.070 -4925.752
v 2025.858 0.070 -4909.630
v 2025.949 0.070 -4909.750
v 2009.204 0.200 -4932.177
v 2009.504 0.200 -4932.177
v 2009.504 0.200 -4931.877
v 2009.204 0.200 -4931.877
v 2009.204 8.200 -4932.177
v 2009.504 8.200 -4932.177
v 2009.504 8.200 -4931.877
v 2009.204 8.200 -4931.877
v 1999.779 0.200 -4919.746
v 2000.079 0.200 -4919.746
v 2000.079 0.200 -4919.446
v 1999.779 0.200 -4919.446
v 1999.779 8.200 -4919.746
v 2000.079 8.200 -4919.746
v 2000.079 8.200 -4919.446
v 1999.779 8.200 -4919.446
v 2029.997 0.050 -4914.077
v 2021.810 0.050 -4905.304
v 2037.951 0.050 -4890.239
v 2046.139 0.050 -4899.012
v 2031.362 0.200 -4915.539
v 2029.997 0.200 -4914.077
v 2046.139 0.200 -4899.012
v 2047.503 0.200 -4900.474
v 2021.810 0.200 -4905.304
v 2020.445 0.200 -4903.842
v 2036.586 0.200 -4888.777
v 2037.951 0.200 -4890.239
v 2025.955 0.070 -4909.745
v 2025.852 0.070 -4909.635
v 2041.994 0.070 -4894.571
v 2042.096 0.070 -4894.681
v 2046.604 0.050 -4898.526
v 2037.485 0.050 -4890.726
v 2081.568 0.050 -4839.190
v 2090.687 0.050 -4846.990
v 2048.124 0.200 -4899.826
v 2046.604 0.200 -4898.526
v 2090.687 0.200 -4846.990
v 2092.207 0.200 -4848.290
v 2037.485 0.200 -4890.726
v 2035.965 0.200 -4889.426
v 2080.048 0.200 -4837.890
v 2081.568 0.200 -4839.190
v 2042.102 0.070 -4894.675
v 2041.988 0.070 -4894.577
v 2086.070 0.070 -4843.041
v 2086.184 0.070 -4843.139
v 2047.822 0.200 -4899.846
v 2048.122 0.200 -4899.846
v 2048.122 0.200 -4899.546
v 2047.822 0.200 -4899.546
v 2047.822 8.200 -4899.846
v 2048.122 8.200 -4899.846
v 2048.122 8.200 -4899.546
v 2047.822 8.200 -4899.546
v 2035.967 0.200 -4889.706
v 2036.267 0.200 -4889.706
v 2036.267 0.200 -4889.406
v 2035.967 0.200 -4889.406
v 2035.967 8.200 -4889.706
v 2036.267 8.200 -4889.706
v 2036.267 8.200 -4889.406
v 2035.967 8.200 -4889.406
v 2090.218 0.050 -4847.480
v 2082.037 0.050 -4838.701
v 2093.948 0.050 -4827.601
v 2102.129 0.050 -4836.380
v 2091.581 0.200 -4848.943
v 2090.218 0.200 -4847.480
v 2102.129 0.200 -4836.380
v 2103.492 0.200 -4837.843
v 2082.037 0.200 -4838.701
v 2080.673 0.200 -4837.238
v 2092.584 0.200 -4826.138
v 2093.948 0.200 -4827.601
v 2086.178 0.070 -4843.145
v 2086.076 0.070 -4843.035
v 2097.987 0.070 -4831.935
v 2098.090 0.070 -4832.045
v 2101.092 0.050 -4837.155
v 2094.985 0.050 -4826.825
v 2123.817 0.050 -4809.779
v 2129.924 0.050 -4820.109
v 2102.110 0.200 -4838.877
v 2101.092 0.200 -4837.155
v 2129.924 0.200 -4820.109
v 2130.942 0.200 -4821.830
v 2094.985 0.200 -4826.825
v 2093.967 0.200 -4825.104
v 2122.799 0.200 -4808.057
v 2123.817 0.200 -4809.779
v 2098.077 0.070 -4832.055
v 2098.000 0.070 -4831.926
v 2126.832 0.070 -4814.879
v 2126.908 0.070 -4815.008
v 2101.858 0.200 -4838.854
v 2102.158 0.200 -4838.854
v 2102.158 0.200 -4838.554
v 2101.858 0.200 -4838.554
v 2101.858 8.200 -4838.854
v 2102.158 8.200 -4838.854
v 2102.158 8.200 -4838.554
v 2101.858 8.200 -4838.554
v 2093.919 0.200 -4825.426
v 2094.219 0.200 -4825.426
v 2094.219 0.200 -4825.126
v 2093.919 0.200 -4825.126
v 2093.919 8.200 -4825.426
v 2094.219 8.200 -4825.426
v 2094.219 8.200 -4825.126
v 2093.919 8.200 -4825.126
v 2128.252 0.050 -4820.783
v 2125.489 0.050 -4809.105
v 2159.552 0.050 -4801.044
v 2162.316 0.050 -4812.722
v 2128.712 0.200 -4822.729
v 2128.252 0.200 -4820.783
v 2162.316 0.200 -4812.722
v 2162.776 0.200 -4814.668
v 2125.489 0.200 -4809.105
v 2125.028 0.200 -4807.159
v 2159.092 0.200 -4799.098
v 2159.552 0.200 -4801.044
v 2126.887 0.070 -4815.017
v 2126.853 0.070 -4814.871
v 2160.917 0.070 -4806.810
v 2160.951 0.070 -4806.956
v 2128.516 0.200 -4822.684
v 2128.816 0.200 -4822.684
v 2128.816 0.200 -4822.384
v 2128.516 0.200 -4822.384
v 2128.516 8.200 -4822.684
v 2128.816 8.200 -4822.684
v 2128.816 8.200 -4822.384
v 2128.516 8.200 -4822.384
v 2124.924 0.200 -4807.503
v 2125.224 0.200 -4807.503
v 2125.224 0.200 -4807.203
v 2124.924 0.200 -4807.203
v 2124.924 8.200 -4807.503
v 2125.224 8.200 -4807.503
v 2125.224 8.200 -4807.203
v 2124.924 8.200 -4807.203
v 2161.434 0.050 -4812.862
v 2160.433 0.050 -4800.904
v 2239.359 0.050 -4794.297
v 2240.360 0.050 -4806.255
v 2161.601 0.200 -4814.855
v 2161.434 0.200 -4812.862
v 2240.360 0.200 -4806.255
v 2240.527 0.200 -4808.248
v 2160.433 0.200 -4800.904
v 2160.267 0.200 -4798.911
v 2239.192 0.200 -4792.304
v 2239.359 0.200 -4794.297
v 2160.940 0.070 -4806.958
v 2160.928 0.070 -4806.808
v 2239.853 0.070 -4800.201
v 2239.866 0.070 -4800.351
v 2161.435 0.200 -4814.806
v 2161.735 0.200 -4814.806
v 2161.735 0.200 -4814.506
v 2161.435 0.200 -4814.506
v 2161.435 8.200 -4814.806
v 2161.735 8.200 -4814.806
v 2161.735 8.200 -4814.506
v 2161.435 8.200 -4814.506
v 2160.133 0.200 -4799.260
v 2160.433 0.200 -4799.260
v 2160.433 0.200 -4798.960
v 2160.133 0.200 -4798.960
v 2160.133 8.200 -4799.260
v 2160.433 8.200 -4799.260
v 2160.433 8.200 -4798.960
v 2160.133 8.200 -4798.960
v 2240.814 0.050 -4806.200
v 2238.905 0.050 -4794.352
v 2263.507 0.050 -4790.388
v 2265.416 0.050 -4802.235
v 2241.132 0.200 -4808.174
v 2240.814 0.200 -4806.200
v 2265.416 0.200 -4802.235
v 2265.734 0.200 -4804.210
v 2238.905 0.200 -4794.352
v 2238.587 0.200 -4792.378
v 2263.188 0.200 -4788.414
v 2263.507 0.200 -4790.388
v 2239.871 0.070 -4800.350
v 2239.848 0.070 -4800.202
v 2264.449 0.070 -4796.238
v 2264.473 0.070 -4796.386
v 2266.445 0.050 -4801.974
v 2262.477 0.050 -4790.649
v 2316.021 0.050 -4771.885
v 2319.990 0.050 -4783.210
v 2267.107 0.200 -4803.862
v 2266.445 0.200 -4801.974
v 2319.990 0.200 -4783.210
v 2320.652 0.200 -4785.097
v 2262.477 0.200 -4790.649
v 2261.815 0.200 -4788.762
v 2315.360 0.200 -4769.998
v 2316.021 0.200 -4771.885
v 2264.486 0.070 -4796.383
v 2264.436 0.070 -4796.241
v 2317.981 0.070 -4777.477
v 2318.031 0.070 -4777.618
v 2266.891 0.200 -4803.823
v 2267.191 0.200 -4803.823
v 2267.191 0.200 -4803.523
v 2266.891 0.200 -4803.523
v 2266.891 8.200 -4803.823
v 2267.191 8.200 -4803.823
v 2267.191 8.200 -4803.523
v 2266.891 8.200 -4803.523
v 2261.731 0.200 -4789.101
v 2262.031 0.200 -4789.101
v 2262.031 0.200 -4788.801
v 2261.731 0.200 -4788.801
v 2261.731 8.200 -4789.101
v 2262.031 8.200 -4789.101
v 2262.031 8.200 -4788.801
v 2261.731 8.200 -4788.801
v 2321.878 0.050 -4782.131
v 2314.134 0.050 -4772.964
v 2432.244 0.050 -4673.197
v 2439.987 0.050 -4682.365
v 2323.168 0.200 -4783.659
v 2321.878 0.200 -4782.131
v 2439.987 0.200 -4682.365
v 2441.278 0.200 -4683.893
v 2314.134 0.200 -4772.964
v 2312.843 0.200 -4771.436
v 2430.953 0.200 -4671.670
v 2432.244 0.200 -4673.197
v 2318.054 0.070 -4777.605
v 2317.957 0.070 -4777.490
v 2436.067 0.070 -4677.724
v 2436.164 0.070 -4677.838
v 2322.889 0.200 -4783.656
v 2323.189 0.200 -4783.656
v 2323.189 0.200 -4783.356
v 2322.889 0.200 -4783.356
v 2322.889 8.200 -4783.656
v 2323.189 8.200 -4783.656
v 2323.189 8.200 -4783.356
v 2322.889 8.200 -4783.356
v 2312.822 0.200 -4771.739
v 2313.122 0.200 -4771.739
v 2313.122 0.200 -4771.439
v 2312.822 0.200 -4771.439
v 2312.822 8.200 -4771.739
v 2313.122 8.200 -4771.739
v 2313.122 8.200 -4771.439
v 2312.822 8.200 -4771.439
v 3245.335 0.050 -4709.800
v 3253.319 0.050 -4709.295
v 3256.302 0.050 -4756.470
v 3248.318 0.050 -4756.975
v 3243.339 0.200 -4709.926
v 3245.335 0.200 -4709.800
v 3248.318 0.200 -4756.975
v 3246.322 0.200 -4757.101
v 3253.319 0.200 -4709.295
v 3255.315 0.200 -4709.169
v 3258.298 0.200 -4756.343
v 3256.302 0.200 -4756.470
v 3243.388 0.200 -4710.064
v 3243.688 0.200 -4710.064
v 3243.688 0.200 -4709.764
v 3243.388 0.200 -4709.764
v 3243.388 8.200 -4710.064
v 3243.688 8.200 -4710.064
v 3243.688 8.200 -4709.764
v 3243.388 8.200 -4709.764
v 3254.965 0.200 -4709.332
v 3255.265 0.200 -4709.332
v 3255.265 0.200 -4709.032
v 3254.965 0.200 -4709.032
v 3254.965 8.200 -4709.332
v 3255.265 8.200 -4709.332
v 3255.265 8.200 -4709.032
v 3254.965 8.200 -4709.032
v 3248.509 0.050 -4757.967
v 3256.112 0.050 -4755.477
v 3267.455 0.050 -4790.111
v 3259.852 0.050 -4792.601
v 3246.608 0.200 -4758.590
v 3248.509 0.200 -4757.967
v 3259.852 0.200 -4792.601
v 3257.952 0.200 -4793.224
v 3256.112 0.200 -4755.477
v 3258.012 0.200 -4754.855
v 3269.356 0.200 -4789.489
v 3267.455 0.200 -4790.111
v 3246.648 0.200 -4758.677
v 3246.948 0.200 -4758.677
v 3246.948 0.200 -4758.377
v 3246.648 0.200 -4758.377
v 3246.648 8.200 -4758.677
v 3246.948 8.200 -4758.677
v 3246.948 8.200 -4758.377
v 3246.648 8.200 -4758.377
v 3257.672 0.200 -4755.067
v 3257.972 0.200 -4755.067
v 3257.972 0.200 -4754.767
v 3257.672 0.200 -4754.767
v 3257.672 8.200 -4755.067
v 3257.972 8.200 -4755.067
v 3257.972 8.200 -4754.767
v 3257.672 8.200 -4754.767
v 3262.504 0.050 -4795.188
v 3264.803 0.050 -4787.525
v 3294.659 0.050 -4796.484
v 3292.360 0.050 -4804.147
v 3261.929 0.200 -4797.103
v 3262.504 0.200 -4795.188
v 3292.360 0.200 -4804.147
v 3291.785 0.200 -4806.063
v 3264.803 0.200 -4787.525
v 3265.378 0.200 -4785.610
v 3295.234 0.200 -4794.569
v 3294.659 0.200 -4796.484
v 3261.837 0.200 -4797.062
v 3262.137 0.200 -4797.062
v 3262.137 0.200 -4796.762
v 3261.837 0.200 -4796.762
v 3261.837 8.200 -4797.062
v 3262.137 8.200 -4797.062
v 3262.137 8.200 -4796.762
v 3261.837 8.200 -4796.762
v 3265.171 0.200 -4785.951
v 3265.471 0.200 -4785.951
v 3265.471 0.200 -4785.651
v 3265.171 0.200 -4785.651
v 3265.171 8.200 -4785.951
v 3265.471 8.200 -4785.951
v 3265.471 8.200 -4785.651
v 3265.171 8.200 -4785.651
v 3290.848 0.050 -4803.301
v 3296.172 0.050 -4797.330
v 3318.269 0.050 -4817.033
v 3312.944 0.050 -4823.004
v 3289.517 0.200 -4804.794
v 3290.848 0.200 -4803.301
v 3312.944 0.200 -4823.004
v 3311.613 0.200 -4824.496
v 3296.172 0.200 -4797.330
v 3297.503 0.200 -4795.837
v 3319.600 0.200 -4815.540
v 3318.269 0.200 -4817.033
v 3312.383 0.050 -4822.387
v 3318.830 0.050 -4817.649
v 3342.585 0.050 -4849.971
v 3336.139 0.050 -4854.709
v 3310.772 0.200 -4823.571
v 3312.383 0.200 -4822.387
v 3336.139 0.200 -4854.709
v 3334.527 0.200 -4855.893
v 3318.830 0.200 -4817.649
v 3320.441 0.200 -4816.465
v 3344.197 0.200 -4848.787
v 3342.585 0.200 -4849.971
v 3310.783 0.200 -4823.603
v 3311.083 0.200 -4823.603
v 3311.083 0.200 -4823.303
v 3310.783 0.200 -4823.303
v 3310.783 8.200 -4823.603
v 3311.083 8.200 -4823.603
v 3311.083 8.200 -4823.303
v 3310.783 8.200 -4823.303
v 3320.130 0.200 -4816.733
v 3320.430 0.200 -4816.733
v 3320.430 0.200 -4816.433
v 3320.130 0.200 -4816.433
v 3320.130 8.200 -4816.733
v 3320.430 8.200 -4816.733
v 3320.430 8.200 -4816.433
v 3320.130 8.200 -4816.433
v 3337.547 0.050 -4855.904
v 3341.178 0.050 -4848.776
v 3371.011 0.050 -4863.972
v 3367.380 0.050 -4871.101
v 3336.639 0.200 -4857.687
v 3337.547 0.200 -4855.904
v 3367.380 0.200 -4871.101
v 3366.472 0.200 -4872.883
v 3341.178 0.200 -4848.776
v 3342.085 0.200 -4846.994
v 3371.919 0.200 -4862.190
v 3371.011 0.200 -4863.972
v 3336.580 0.200 -4857.658
v 3336.880 0.200 -4857.658
v 3336.880 0.200 -4857.358
v 3336.580 0.200 -4857.358
v 3336.580 8.200 -4857.658
v 3336.880 8.200 -4857.658
v 3336.880 8.200 -4857.358
v 3336.580 8.200 -4857.358
v 3341.845 0.200 -4847.322
v 3342.145 0.200 -4847.322
v 3342.145 0.200 -4847.022
v 3341.845 0.200 -4847.022
v 3341.845 8.200 -4847.322
v 3342.145 8.200 -4847.322
v 3342.145 8.200 -4847.022
v 3341.845 8.200 -4847.022
v 1818.445 0.050 -4915.833
v 1822.504 0.050 -4908.939
v 1859.529 0.050 -4930.743
v 1855.470 0.050 -4937.636
v 1817.430 0.200 -4917.556
v 1818.445 0.200 -4915.833
v 1855.470 0.200 -4937.636
v 1854.455 0.200 -4939.360
v 1822.504 0.200 -4908.939
v 1823.519 0.200 -4907.216
v 1860.544 0.200 -4929.019
v 1859.529 0.200 -4930.743
v 1817.381 0.200 -4917.534
v 1817.681 0.200 -4917.534
v 1817.681 0.200 -4917.234
v 1817.381 0.200 -4917.234
v 1817.381 8.200 -4917.534
v 1817.681 8.200 -4917.534
v 1817.681 8.200 -4917.234
v 1817.381 8.200 -4917.234
v 1823.268 0.200 -4907.538
v 1823.568 0.200 -4907.538
v 1823.568 0.200 -4907.238
v 1823.268 0.200 -4907.238
v 1823.268 8.200 -4907.538
v 1823.568 8.200 -4907.538
v 1823.568 8.200 -4907.238
v 1823.268 8.200 -4907.238
v 1881.710 0.050 -4902.353
v 1889.416 0.050 -4904.500
v 1884.340 0.050 -4922.723
v 1876.633 0.050 -4920.576
v 1879.783 0.200 -4901.817
v 1881.710 0.200 -4902.353
v 1876.633 0.200 -4920.576
v 1874.707 0.200 -4920.039
v 1889.416 0.200 -4904.500
v 1891.343 0.200 -4905.037
v 1886.267 0.200 -4923.259
v 1884.340 0.200 -4922.723
v 1876.516 0.050 -4921.164
v 1884.457 0.050 -4922.135
v 1882.376 0.050 -4939.155
v 1874.435 0.050 -4938.184
v 1874.531 0.200 -4920.921
v 1876.516 0.200 -4921.164
v 1874.435 0.200 -4938.184
v 1872.449 0.200 -4937.941
v 1884.457 0.200 -4922.135
v 1886.442 0.200 -4922.378
v 1884.361 0.200 -4939.398
v 1882.376 0.200 -4939.155
v 1874.580 0.200 -4921.095
v 1874.880 0.200 -4921.095
v 1874.880 0.200 -4920.795
v 1874.580 0.200 -4920.795
v 1874.580 8.200 -4921.095
v 1874.880 8.200 -4921.095
v 1874.880 8.200 -4920.795
v 1874.580 8.200 -4920.795
v 1886.094 0.200 -4922.503
v 1886.394 0.200 -4922.503
v 1886.394 0.200 -4922.203
v 1886.094 0.200 -4922.203
v 1886.094 8.200 -4922.503
v 1886.394 8.200 -4922.503
v 1886.394 8.200 -4922.203
v 1886.094 8.200 -4922.203
v 1874.468 0.050 -4939.373
v 1882.343 0.050 -4937.965
v 1884.424 0.050 -4949.607
v 1876.549 0.050 -4951.015
v 1872.499 0.200 -4939.725
v 1874.468 0.200 -4939.373
v 1876.549 0.200 -4951.015
v 1874.580 0.200 -4951.367
v 1882.343 0.200 -4937.965
v 1884.311 0.200 -4937.613
v 1886.393 0.200 -4949.255
v 1884.424 0.200 -4949.607
v 1877.083 0.050 -4952.412
v 1883.891 0.050 -4948.210
v 1892.551 0.050 -4962.244
v 1885.743 0.050 -4966.445
v 1875.381 0.200 -4953.462
v 1877.083 0.200 -4952.412
v 1885.743 0.200 -4966.445
v 1884.041 0.200 -4967.496
v 1883.891 0.200 -4948.210
v 1885.593 0.200 -4947.160
v 1894.253 0.200 -4961.194
v 1892.551 0.200 -4962.244
v 1922.967 0.050 -4900.177
v 1930.580 0.050 -4897.717
v 1933.864 0.050 -4907.879
v 1926.251 0.050 -4910.339
v 1921.064 0.200 -4900.792
v 1922.967 0.200 -4900.177
v 1926.251 0.200 -4910.339
v 1924.348 0.200 -4910.954
v 1930.580 0.200 -4897.717
v 1932.483 0.200 -4897.102
v 1935.767 0.200 -4907.264
v 1933.864 0.200 -4907.879
v 1926.099 0.050 -4909.687
v 1934.015 0.050 -4908.530
v 1934.950 0.050 -4914.926
v 1927.034 0.050 -4916.083
v 1924.120 0.200 -4909.977
v 1926.099 0.200 -4909.687
v 1927.034 0.200 -4916.083
v 1925.056 0.200 -4916.372
v 1934.015 0.200 -4908.530
v 1935.994 0.200 -4908.241
v 1936.929 0.200 -4914.636
v 1934.950 0.200 -4914.926
v 1927.036 0.050 -4916.091
v 1934.949 0.050 -4914.918
v 1935.506 0.050 -4918.671
v 1927.592 0.050 -4919.844
v 1925.057 0.200 -4916.385
v 1927.036 0.200 -4916.091
v 1927.592 0.200 -4919.844
v 1925.614 0.200 -4920.138
v 1934.949 0.200 -4914.918
v 1936.927 0.200 -4914.624
v 1937.484 0.200 -4918.377
v 1935.506 0.200 -4918.671
v 1927.549 0.050 -4919.257
v 1935.549 0.050 -4919.257
v 1935.549 0.050 -4932.088
v 1927.549 0.050 -4932.088
v 1925.549 0.200 -4919.257
v 1927.549 0.200 -4919.257
v 1927.549 0.200 -4932.088
v 1925.549 0.200 -4932.088
v 1935.549 0.200 -4919.257
v 1937.549 0.200 -4919.257
v 1937.549 0.200 -4932.088
v 1935.549 0.200 -4932.088
v 1925.599 0.200 -4919.407
v 1925.899 0.200 -4919.407
v 1925.899 0.200 -4919.107
v 1925.599 0.200 -4919.107
v 1925.599 8.200 -4919.407
v 1925.899 8.200 -4919.407
v 1925.899 8.200 -4919.107
v 1925.599 8.200 -4919.107
v 1937.199 0.200 -4919.407
v 1937.499 0.200 -4919.407
v 1937.499 0.200 -4919.107
v 1937.199 0.200 -4919.107
v 1937.199 8.200 -4919.407
v 1937.499 8.200 -4919.407
v 1937.499 8.200 -4919.107
v 1937.199 8.200 -4919.107
v 1927.556 0.050 -4931.859
v 1935.542 0.050 -4932.318
v 1934.941 0.050 -4942.771
v 1926.954 0.050 -4942.311
v 1925.559 0.200 -4931.744
v 1927.556 0.200 -4931.859
v 1926.954 0.200 -4942.311
v 1924.958 0.200 -4942.197
v 1935.542 0.200 -4932.318
v 1937.539 0.200 -4932.433
v 1936.938 0.200 -4942.886
v 1934.941 0.200 -4942.771
v 1893.055 0.050 -4965.201
v 1885.240 0.050 -4963.489
v 1887.333 0.050 -4953.935
v 1895.148 0.050 -4955.647
v 1895.008 0.200 -4965.629
v 1893.055 0.200 -4965.201
v 1895.148 0.200 -4955.647
v 1897.101 0.200 -4956.075
v 1885.240 0.200 -4963.489
v 1883.286 0.200 -4963.061
v 1885.379 0.200 -4953.507
v 1887.333 0.200 -4953.935
v 1893.164 0.050 -4958.298
v 1889.316 0.050 -4951.284
v 1898.567 0.050 -4946.209
v 1902.415 0.050 -4953.223
v 1894.126 0.200 -4960.051
v 1893.164 0.200 -4958.298
v 1902.415 0.200 -4953.223
v 1903.376 0.200 -4954.977
v 1889.316 0.200 -4951.284
v 1888.355 0.200 -4949.530
v 1897.605 0.200 -4944.456
v 1898.567 0.200 -4946.209
v 1901.408 0.050 -4953.610
v 1899.574 0.050 -4945.823
v 1930.031 0.050 -4938.648
v 1931.865 0.050 -4946.434
v 1901.867 0.200 -4955.557
v 1901.408 0.200 -4953.610
v 1931.865 0.200 -4946.434
v 1932.324 0.200 -4948.381
v 1899.574 0.200 -4945.823
v 1899.115 0.200 -4943.876
v 1929.572 0.200 -4936.701
v 1930.031 0.200 -4938.648
v 1901.671 0.200 -4955.512
v 1901.971 0.200 -4955.512
v 1901.971 0.200 -4955.212
v 1901.671 0.200 -4955.212
v 1901.671 8.200 -4955.512
v 1901.971 8.200 -4955.512
v 1901.971 8.200 -4955.212
v 1901.671 8.200 -4955.212
v 1899.011 0.200 -4944.221
v 1899.311 0.200 -4944.221
v 1899.311 0.200 -4943.921
v 1899.011 0.200 -4943.921
v 1899.011 8.200 -4944.221
v 1899.311 8.200 -4944.221
v 1899.311 8.200 -4943.921
v 1899.011 8.200 -4943.921
v 1932.055 0.050 -4946.385
v 1929.840 0.050 -4938.697
v 1943.277 0.050 -4934.826
v 1945.492 0.050 -4942.513
v 1932.609 0.200 -4948.306
v 1932.055 0.200 -4946.385
v 1945.492 0.200 -4942.513
v 1946.046 0.200 -4944.435
v 1929.840 0.200 -4938.697
v 1929.287 0.200 -4936.776
v 1942.723 0.200 -4932.904
v 1943.277 0.200 -4934.826
v 1945.343 0.050 -4942.553
v 1943.425 0.050 -4934.786
v 1964.031 0.050 -4929.698
v 1965.948 0.050 -4937.465
v 1945.822 0.200 -4944.494
v 1945.343 0.200 -4942.553
v 1965.948 0.200 -4937.465
v 1966.428 0.200 -4939.407
v 1943.425 0.200 -4934.786
v 1942.946 0.200 -4932.844
v 1963.551 0.200 -4927.757
v 1964.031 0.200 -4929.698
v 1945.624 0.200 -4944.450
v 1945.924 0.200 -4944.450
v 1945.924 0.200 -4944.150
v 1945.624 0.200 -4944.150
v 1945.624 8.200 -4944.450
v 1945.924 8.200 -4944.450
v 1945.924 8.200 -4944.150
v 1945.624 8.200 -4944.150
v 1942.844 0.200 -4933.188
v 1943.144 0.200 -4933.188
v 1943.144 0.200 -4932.888
v 1942.844 0.200 -4932.888
v 1942.844 8.200 -4933.188
v 1943.144 8.200 -4933.188
v 1943.144 8.200 -4932.888
v 1942.844 8.200 -4932.888
v 1967.018 0.050 -4937.029
v 1962.961 0.050 -4930.134
v 1973.113 0.050 -4924.161
v 1977.170 0.050 -4931.056
v 1968.032 0.200 -4938.753
v 1967.018 0.200 -4937.029
v 1977.170 0.200 -4931.056
v 1978.184 0.200 -4932.780
v 1962.961 0.200 -4930.134
v 1961.947 0.200 -4928.410
v 1972.099 0.200 -4922.437
v 1973.113 0.200 -4924.161
v 1978.025 0.050 -4930.382
v 1972.259 0.050 -4924.836
v 1979.428 0.050 -4917.383
v 1985.194 0.050 -4922.929
v 1979.466 0.200 -4931.768
v 1978.025 0.200 -4930.382
v 1985.194 0.200 -4922.929
v 1986.635 0.200 -4924.315
v 1972.259 0.200 -4924.836
v 1970.818 0.200 -4923.449
v 1977.986 0.200 -4915.996
v 1979.428 0.200 -4917.383
v 1986.106 0.050 -4921.421
v 1978.516 0.050 -4918.891
v 1980.308 0.050 -4913.513
v 1987.898 0.050 -4916.042
v 1988.003 0.200 -4922.053
v 1986.106 0.200 -4921.421
v 1987.898 0.200 -4916.042
v 1989.795 0.200 -4916.675
v 1978.516 0.200 -4918.891
v 1976.618 0.200 -4918.259
v 1978.411 0.200 -4912.881
v 1980.308 0.200 -4913.513
v 1988.097 0.050 -4914.991
v 1980.109 0.050 -4914.564
v 1980.699 0.050 -4903.517
v 1988.687 0.050 -4903.944
v 1990.094 0.200 -4915.098
v 1988.097 0.200 -4914.991
v 1988.687 0.200 -4903.944
v 1990.684 0.200 -4904.051
v 1980.109 0.200 -4914.564
v 1978.111 0.200 -4914.458
v 1978.701 0.200 -4903.411
v 1980.699 0.200 -4903.517
v 1989.745 0.200 -4915.237
v 1990.045 0.200 -4915.237
v 1990.045 0.200 -4914.937
v 1989.745 0.200 -4914.937
v 1989.745 8.200 -4915.237
v 1990.045 8.200 -4915.237
v 1990.045 8.200 -4914.937
v 1989.745 8.200 -4914.937
v 1978.161 0.200 -4914.618
v 1978.461 0.200 -4914.618
v 1978.461 0.200 -4914.318
v 1978.161 0.200 -4914.318
v 1978.161 8.200 -4914.618
v 1978.461 8.200 -4914.618
v 1978.461 8.200 -4914.318
v 1978.161 8.200 -4914.318
v 1988.582 0.050 -4902.795
v 1980.804 0.050 -4904.666
v 1978.722 0.050 -4896.010
v 1986.500 0.050 -4894.140
v 1990.527 0.200 -4902.327
v 1988.582 0.200 -4902.795
v 1986.500 0.200 -4894.140
v 1988.445 0.200 -4893.672
v 1980.804 0.200 -4904.666
v 1978.859 0.200 -4905.134
v 1976.778 0.200 -4896.478
v 1978.722 0.200 -4896.010
v 1986.221 0.050 -4893.353
v 1979.001 0.050 -4896.797
v 1976.007 0.050 -4890.521
v 1983.227 0.050 -4887.076
v 1988.027 0.200 -4892.492
v 1986.221 0.200 -4893.353
v 1983.227 0.200 -4887.076
v 1985.032 0.200 -4886.215
v 1979.001 0.200 -4896.797
v 1977.196 0.200 -4897.659
v 1974.201 0.200 -4891.382
v 1976.007 0.200 -4890.521
v 1982.229 0.050 -4885.769
v 1977.005 0.050 -4891.828
v 1968.344 0.050 -4884.362
v 1973.568 0.050 -4878.303
v 1983.534 0.200 -4884.254
v 1982.229 0.200 -4885.769
v 1973.568 0.200 -4878.303
v 1974.874 0.200 -4876.788
v 1977.005 0.200 -4891.828
v 1975.699 0.200 -4893.343
v 1967.038 0.200 -4885.877
v 1968.344 0.200 -4884.362
v 1973.391 0.050 -4878.158
v 1968.522 0.050 -4884.506
v 1963.457 0.050 -4880.621
v 1968.326 0.050 -4874.273
v 1974.608 0.200 -4876.571
v 1973.391 0.200 -4878.158
v 1968.326 0.200 -4874.273
v 1969.543 0.200 -4872.686
v 1968.522 0.200 -4884.506
v 1967.304 0.200 -4886.093
v 1962.239 0.200 -4882.208
v 1963.457 0.200 -4880.621
v 1974.336 0.200 -4876.880
v 1974.636 0.200 -4876.880
v 1974.636 0.200 -4876.580
v 1974.336 0.200 -4876.580
v 1974.336 8.200 -4876.880
v 1974.636 8.200 -4876.880
v 1974.636 8.200 -4876.580
v 1974.336 8.200 -4876.580
v 1967.276 0.200 -4886.084
v 1967.576 0.200 -4886.084
v 1967.576 0.200 -4885.784
v 1967.276 0.200 -4885.784
v 1967.276 8.200 -4886.084
v 1967.576 8.200 -4886.084
v 1967.576 8.200 -4885.784
v 1967.276 8.200 -4885.784
v 1969.763 0.050 -4876.442
v 1962.019 0.050 -4878.452
v 1959.927 0.050 -4870.392
v 1967.670 0.050 -4868.381
v 1971.699 0.200 -4875.939
v 1969.763 0.200 -4876.442
v 1967.670 0.200 -4868.381
v 1969.606 0.200 -4867.879
v 1962.019 0.200 -4878.452
v 1960.084 0.200 -4878.955
v 1957.991 0.200 -4870.894
v 1959.927 0.200 -4870.392
v 1967.271 0.050 -4871.372
v 1960.326 0.050 -4867.401
v 1965.102 0.050 -4859.050
v 1972.046 0.050 -4863.021
v 1969.007 0.200 -4872.365
v 1967.271 0.200 -4871.372
v 1972.046 0.200 -4863.021
v 1973.782 0.200 -4864.014
v 1960.326 0.200 -4867.401
v 1958.590 0.200 -4866.408
v 1963.365 0.200 -4858.057
v 1965.102 0.200 -4859.050
v 1969.264 0.050 -4864.975
v 1967.884 0.050 -4857.095
v 1974.752 0.050 -4855.893
v 1976.132 0.050 -4863.773
v 1969.609 0.200 -4866.945
v 1969.264 0.200 -4864.975
v 1976.132 0.200 -4863.773
v 1976.477 0.200 -4865.743
v 1967.884 0.200 -4857.095
v 1967.539 0.200 -4855.125
v 1974.408 0.200 -4853.923
v 1974.752 0.200 -4855.893
v 1975.915 0.050 -4863.805
v 1974.969 0.050 -4855.861
v 1987.504 0.050 -4854.368
v 1988.450 0.050 -4862.311
v 1976.152 0.200 -4865.791
v 1975.915 0.200 -4863.805
v 1988.450 0.200 -4862.311
v 1988.687 0.200 -4864.297
v 1974.969 0.200 -4855.861
v 1974.733 0.200 -4853.875
v 1987.267 0.200 -4852.382
v 1987.504 0.200 -4854.368
v 1975.978 0.200 -4865.742
v 1976.278 0.200 -4865.742
v 1976.278 0.200 -4865.442
v 1975.978 0.200 -4865.442
v 1975.978 8.200 -4865.742
v 1976.278 8.200 -4865.742
v 1976.278 8.200 -4865.442
v 1975.978 8.200 -4865.442
v 1974.606 0.200 -4854.223
v 1974.906 0.200 -4854.223
v 1974.906 0.200 -4853.923
v 1974.606 0.200 -4853.923
v 1974.606 8.200 -4854.223
v 1974.906 8.200 -4854.223
v 1974.906 8.200 -4853.923
v 1974.606 8.200 -4853.923
v 1987.164 0.050 -4862.256
v 1988.790 0.050 -4854.423
v 1997.450 0.050 -4856.220
v 1995.825 0.050 -4864.053
v 1986.758 0.200 -4864.214
v 1987.164 0.200 -4862.256
v 1995.825 0.200 -4864.053
v 1995.418 0.200 -4866.011
v 1988.790 0.200 -4854.423
v 1989.196 0.200 -4852.465
v 1997.857 0.200 -4854.262
v 1997.450 0.200 -4856.220
v 1994.582 0.050 -4863.568
v 1998.694 0.050 -4856.705
v 2009.146 0.050 -4862.969
v 2005.034 0.050 -4869.831
v 1993.554 0.200 -4865.283
v 1994.582 0.200 -4863.568
v 2005.034 0.200 -4869.831
v 2004.006 0.200 -4871.547
v 1998.694 0.200 -4856.705
v 1999.722 0.200 -4854.990
v 2010.174 0.200 -4861.253
v 2009.146 0.200 -4862.969
v 2003.889 0.050 -4868.799
v 2010.291 0.050 -4864.001
v 2013.876 0.050 -4868.785
v 2007.474 0.050 -4873.582
v 2002.289 0.200 -4869.998
v 2003.889 0.200 -4868.799
v 2007.474 0.200 -4873.582
v 2005.873 0.200 -4874.782
v 2010.291 0.200 -4864.001
v 2011.892 0.200 -4862.802
v 2015.476 0.200 -4867.586
v 2013.876 0.200 -4868.785
v 2006.683 0.050 -4871.435
v 2014.667 0.050 -4870.933
v 2014.968 0.050 -4875.716
v 2006.983 0.050 -4876.218
v 2004.687 0.200 -4871.560
v 2006.683 0.200 -4871.435
v 2006.983 0.200 -4876.218
v 2004.987 0.200 -4876.344
v 2014.667 0.200 -4870.933
v 2016.663 0.200 -4870.807
v 2016.964 0.200 -4875.591
v 2014.968 0.200 -4875.716
v 2004.736 0.200 -4871.697
v 2005.036 0.200 -4871.697
v 2005.036 0.200 -4871.397
v 2004.736 0.200 -4871.397
v 2004.736 8.200 -4871.697
v 2005.036 8.200 -4871.697
v 2005.036 8.200 -4871.397
v 2004.736 8.200 -4871.397
v 2016.313 0.200 -4870.970
v 2016.613 0.200 -4870.970
v 2016.613 0.200 -4870.670
v 2016.313 0.200 -4870.670
v 2016.313 8.200 -4870.970
v 2016.613 8.200 -4870.970
v 2016.613 8.200 -4870.670
v 2016.313 8.200 -4870.670
v 2007.614 0.050 -4873.799
v 2014.337 0.050 -4878.136
v 2011.643 0.050 -4882.311
v 2004.920 0.050 -4877.975
v 2005.934 0.200 -4872.715
v 2007.614 0.200 -4873.799
v 2004.920 0.200 -4877.975
v 2003.240 0.200 -4876.890
v 2014.337 0.200 -4878.136
v 2016.017 0.200 -4879.220
v 2013.323 0.200 -4883.396
v 2011.643 0.200 -4882.311
v 2006.928 0.050 -4876.379
v 2009.635 0.050 -4883.907
v 2002.177 0.050 -4886.589
v 1999.469 0.050 -4879.062
v 2006.251 0.200 -4874.497
v 2006.928 0.200 -4876.379
v 1999.469 0.200 -4879.062
v 1998.793 0.200 -4877.180
v 2009.635 0.200 -4883.907
v 2010.312 0.200 -4885.789
v 2002.854 0.200 -4888.471
v 2002.177 0.200 -4886.589
v 1999.640 0.050 -4879.004
v 2002.006 0.050 -4886.646
v 1989.461 0.050 -4890.531
v 1987.094 0.050 -4882.890
v 1999.048 0.200 -4877.094
v 1999.640 0.200 -4879.004
v 1987.094 0.200 -4882.890
v 1986.503 0.200 -4880.979
v 2002.006 0.200 -4886.646
v 2002.598 0.200 -4888.557
v 1990.052 0.200 -4892.442
v 1989.461 0.200 -4890.531
v 1987.340 0.050 -4882.822
v 1989.215 0.050 -4890.599
v 1980.554 0.050 -4892.687
v 1978.679 0.050 -4884.910
v 1986.871 0.200 -4880.878
v 1987.340 0.200 -4882.822
v 1978.679 0.200 -4884.910
v 1978.211 0.200 -4882.965
v 1989.215 0.200 -4890.599
v 1989.684 0.200 -4892.543
v 1981.023 0.200 -4894.631
v 1980.554 0.200 -4892.687
v 1986.768 0.200 -4881.222
v 1987.068 0.200 -4881.222
v 1987.068 0.200 -4880.922
v 1986.768 0.200 -4880.922
v 1986.768 8.200 -4881.222
v 1987.068 8.200 -4881.222
v 1987.068 8.200 -4880.922
v 1986.768 8.200 -4880.922
v 1989.487 0.200 -4892.499
v 1989.787 0.200 -4892.499
v 1989.787 0.200 -4892.199
v 1989.487 0.200 -4892.199
v 1989.487 8.200 -4892.499
v 1989.787 8.200 -4892.499
v 1989.787 8.200 -4892.199
v 1989.487 8.200 -4892.199
v 1982.227 0.050 -4900.581
v 1987.159 0.050 -4906.880
v 1980.291 0.050 -4912.258
v 1975.358 0.050 -4905.959
v 1980.994 0.200 -4899.006
v 1982.227 0.200 -4900.581
v 1975.358 0.200 -4905.959
v 1974.125 0.200 -4904.385
v 1987.159 0.200 -4906.880
v 1988.392 0.200 -4908.455
v 1981.524 0.200 -4913.833
v 1980.291 0.200 -4912.258
v 1976.268 0.050 -4905.424
v 1979.381 0.050 -4912.794
v 1971.622 0.050 -4916.071
v 1968.509 0.050 -4908.701
v 1975.490 0.200 -4903.582
v 1976.268 0.200 -4905.424
v 1968.509 0.200 -4908.701
v 1967.731 0.200 -4906.859
v 1979.381 0.200 -4912.794
v 1980.159 0.200 -4914.636
v 1972.400 0.200 -4917.913
v 1971.622 0.200 -4916.071
v 1969.547 0.050 -4908.420
v 1970.584 0.050 -4916.352
v 1963.716 0.050 -4917.251
v 1962.678 0.050 -4909.318
v 1969.287 0.200 -4906.437
v 1969.547 0.200 -4908.420
v 1962.678 0.200 -4909.318
v 1962.419 0.200 -4907.335
v 1970.584 0.200 -4916.352
v 1970.844 0.200 -4918.335
v 1963.975 0.200 -4919.234
v 1963.716 0.200 -4917.251
v 1963.197 0.050 -4909.284
v 1963.197 0.050 -4917.284
v 1950.362 0.050 -4917.284
v 1950.362 0.050 -4909.284
v 1963.197 0.200 -4907.284
v 1963.197 0.200 -4909.284
v 1950.362 0.200 -4909.284
v 1950.362 0.200 -4907.284
v 1963.197 0.200 -4917.284
v 1963.197 0.200 -4919.284
v 1950.362 0.200 -4919.284
v 1950.362 0.200 -4917.284
v 1963.047 0.200 -4907.634
v 1963.347 0.200 -4907.634
v 1963.347 0.200 -4907.334
v 1963.047 0.200 -4907.334
v 1963.047 8.200 -4907.634
v 1963.347 8.200 -4907.634
v 1963.347 8.200 -4907.334
v 1963.047 8.200 -4907.334
v 1963.047 0.200 -4919.234
v 1963.347 0.200 -4919.234
v 1963.347 0.200 -4918.934
v 1963.047 0.200 -4918.934
v 1963.047 8.200 -4919.234
v 1963.347 8.200 -4919.234
v 1963.347 8.200 -4918.934
v 1963.047 8.200 -4918.934
v 1950.097 0.050 -4909.293
v 1950.627 0.050 -4917.276
v 1941.666 0.050 -4917.870
v 1941.136 0.050 -4909.888
v 1949.965 0.200 -4907.298
v 1950.097 0.200 -4909.293
v 1941.136 0.200 -4909.888
v 1941.004 0.200 -4907.892
v 1950.627 0.200 -4917.276
v 1950.759 0.200 -4919.271
v 1941.798 0.200 -4919.866
v 1941.666 0.200 -4917.870
v 1940.784 0.050 -4909.927
v 1942.018 0.050 -4917.831
v 1931.610 0.050 -4919.457
v 1930.375 0.050 -4911.552
v 1940.475 0.200 -4907.951
v 1940.784 0.200 -4909.927
v 1930.375 0.200 -4911.552
v 1930.067 0.200 -4909.576
v 1942.018 0.200 -4917.831
v 1942.327 0.200 -4919.807
v 1931.918 0.200 -4921.433
v 1931.610 0.200 -4919.457
v 1946.719 0.050 -4910.695
v 1949.820 0.050 -4903.320
v 1964.748 0.050 -4909.597
v 1961.647 0.050 -4916.972
v 1945.944 0.200 -4912.539
v 1946.719 0.200 -4910.695
v 1961.647 0.200 -4916.972
v 1960.872 0.200 -4918.815
v 1949.820 0.200 -4903.320
v 1950.595 0.200 -4901.477
v 1965.523 0.200 -4907.754
v 1964.748 0.200 -4909.597
v 1961.711 0.050 -4916.998
v 1964.683 0.050 -4909.571
v 1970.661 0.050 -4911.963
v 1967.689 0.050 -4919.390
v 1960.968 0.200 -4918.855
v 1961.711 0.200 -4916.998
v 1967.689 0.200 -4919.390
v 1966.946 0.200 -4921.247
v 1964.683 0.200 -4909.571
v 1965.426 0.200 -4907.714
v 1971.404 0.200 -4910.106
v 1970.661 0.200 -4911.963
v 1965.920 0.050 -4918.002
v 1972.430 0.050 -4913.351
v 1975.413 0.050 -4917.527
v 1968.904 0.050 -4922.177
v 1964.293 0.200 -4919.164
v 1965.920 0.200 -4918.002
v 1968.904 0.200 -4922.177
v 1967.276 0.200 -4923.340
v 1972.430 0.200 -4913.351
v 1974.057 0.200 -4912.188
v 1977.040 0.200 -4916.364
v 1975.413 0.200 -4917.527
v 1968.425 0.050 -4921.288
v 1975.892 0.050 -4918.416
v 1978.875 0.050 -4926.173
v 1971.408 0.050 -4929.045
v 1966.558 0.200 -4922.006
v 1968.425 0.200 -4921.288
v 1971.408 0.200 -4929.045
v 1969.542 0.200 -4929.763
v 1975.892 0.200 -4918.416
v 1977.758 0.200 -4917.698
v 1980.742 0.200 -4925.455
v 1978.875 0.200 -4926.173
v 1966.595 0.200 -4922.084
v 1966.895 0.200 -4922.084
v 1966.895 0.200 -4921.784
v 1966.595 0.200 -4921.784
v 1966.595 8.200 -4922.084
v 1966.895 8.200 -4922.084
v 1966.895 8.200 -4921.784
v 1966.595 8.200 -4921.784
v 1977.422 0.200 -4917.920
v 1977.722 0.200 -4917.920
v 1977.722 0.200 -4917.620
v 1977.422 0.200 -4917.620
v 1977.422 8.200 -4917.920
v 1977.722 8.200 -4917.920
v 1977.722 8.200 -4917.620
v 1977.422 8.200 -4917.620
v 1824.413 0.050 -5033.078
v 1817.894 0.050 -5028.442
v 1860.930 0.050 -4967.920
v 1867.449 0.050 -4972.556
v 1826.043 0.200 -5034.238
v 1824.413 0.200 -5033.078
v 1867.449 0.200 -4972.556
v 1869.079 0.200 -4973.715
v 1817.894 0.200 -5028.442
v 1816.264 0.200 -5027.283
v 1859.300 0.200 -4966.761
v 1860.930 0.200 -4967.920
v 1825.730 0.200 -5034.272
v 1826.030 0.200 -5034.272
v 1826.030 0.200 -5033.972
v 1825.730 0.200 -5033.972
v 1825.730 8.200 -5034.272
v 1826.030 8.200 -5034.272
v 1826.030 8.200 -5033.972
v 1825.730 8.200 -5033.972
v 1816.277 0.200 -5027.549
v 1816.577 0.200 -5027.549
v 1816.577 0.200 -5027.249
v 1816.277 0.200 -5027.249
v 1816.277 8.200 -5027.549
v 1816.577 8.200 -5027.549
v 1816.577 8.200 -5027.249
v 1816.277 8.200 -5027.249
v 2779.269 0.050 -4687.503
v 2787.195 0.050 -4688.593
v 2783.911 0.050 -4712.471
v 2775.986 0.050 -4711.381
v 2777.288 0.200 -4687.231
v 2779.269 0.200 -4687.503
v 2775.986 0.200 -4711.381
v 2774.004 0.200 -4711.109
v 2787.195 0.200 -4688.593
v 2789.176 0.200 -4688.866
v 2785.892 0.200 -4712.744
v 2783.911 0.200 -4712.471
v 2775.948 0.050 -4711.909
v 2783.948 0.050 -4711.943
v 2783.514 0.050 -4813.019
v 2775.514 0.050 -4812.984
v 2773.948 0.200 -4711.900
v 2775.948 0.200 -4711.909
v 2775.514 0.200 -4812.984
v 2773.514 0.200 -4812.976
v 2783.948 0.200 -4711.943
v 2785.948 0.200 -4711.952
v 2785.514 0.200 -4813.027
v 2783.514 0.200 -4813.019
v 2773.998 0.200 -4712.051
v 2774.298 0.200 -4712.051
v 2774.298 0.200 -4711.751
v 2773.998 0.200 -4711.751
v 2773.998 8.200 -4712.051
v 2774.298 8.200 -4712.051
v 2774.298 8.200 -4711.751
v 2773.998 8.200 -4711.751
v 2785.598 0.200 -4712.101
v 2785.898 0.200 -4712.101
v 2785.898 0.200 -4711.801
v 2785.598 0.200 -4711.801
v 2785.598 8.200 -4712.101
v 2785.898 8.200 -4712.101
v 2785.898 8.200 -4711.801
v 2785.598 8.200 -4711.801
v 2775.514 0.050 -4812.950
v 2783.514 0.050 -4813.053
v 2781.822 0.050 -4943.610
v 2773.822 0.050 -4943.507
v 2773.515 0.200 -4812.924
v 2775.514 0.200 -4812.950
v 2773.822 0.200 -4943.507
v 2771.823 0.200 -4943.481
v 2783.514 0.200 -4813.053
v 2785.514 0.200 -4813.079
v 2783.822 0.200 -4943.636
v 2781.822 0.200 -4943.610
v 2773.565 0.200 -4813.076
v 2773.865 0.200 -4813.076
v 2773.865 0.200 -4812.776
v 2773.565 0.200 -4812.776
v 2773.565 8.200 -4813.076
v 2773.865 8.200 -4813.076
v 2773.865 8.200 -4812.776
v 2773.565 8.200 -4812.776
v 2785.164 0.200 -4813.227
v 2785.464 0.200 -4813.227
v 2785.464 0.200 -4812.927
v 2785.164 0.200 -4812.927
v 2785.164 8.200 -4813.227
v 2785.464 8.200 -4813.227
v 2785.464 8.200 -4812.927
v 2785.164 8.200 -4812.927
v 2773.828 0.050 -4943.338
v 2781.816 0.050 -4943.779
v 2780.892 0.050 -4960.535
v 2772.904 0.050 -4960.094
v 2771.831 0.200 -4943.228
v 2773.828 0.200 -4943.338
v 2772.904 0.200 -4960.094
v 2770.907 0.200 -4959.984
v 2781.816 0.200 -4943.779
v 2783.813 0.200 -4943.889
v 2782.889 0.200 -4960.645
v 2780.892 0.200 -4960.535
v 2775.459 0.050 -4956.582
v 2778.337 0.050 -4964.047
v 2767.884 0.050 -4968.077
v 2765.006 0.050 -4960.613
v 2774.740 0.200 -4954.716
v 2775.459 0.200 -4956.582
v 2765.006 0.200 -4960.613
v 2764.287 0.200 -4958.746
v 2778.337 0.200 -4964.047
v 2779.057 0.200 -4965.913
v 2768.604 0.200 -4969.943
v 2767.884 0.200 -4968.077
v 2766.837 0.050 -4960.364
v 2766.053 0.050 -4968.326
v 2710.772 0.050 -4962.881
v 2711.556 0.050 -4954.920
v 2767.033 0.200 -4958.374
v 2766.837 0.200 -4960.364
v 2711.556 0.200 -4954.920
v 2711.752 0.200 -4952.929
v 2766.053 0.200 -4968.326
v 2765.857 0.200 -4970.316
v 2710.576 0.200 -4964.872
v 2710.772 0.200 -4962.881
v 2766.864 0.200 -4958.723
v 2767.164 0.200 -4958.723
v 2767.164 0.200 -4958.423
v 2766.864 0.200 -4958.423
v 2766.864 8.200 -4958.723
v 2767.164 8.200 -4958.723
v 2767.164 8.200 -4958.423
v 2766.864 8.200 -4958.423
v 2765.727 0.200 -4970.267
v 2766.027 0.200 -4970.267
v 2766.027 0.200 -4969.967
v 2765.727 0.200 -4969.967
v 2765.727 8.200 -4970.267
v 2766.027 8.200 -4970.267
v 2766.027 8.200 -4969.967
v 2765.727 8.200 -4969.967
v 2711.348 0.050 -4954.905
v 2710.980 0.050 -4962.896
v 2607.787 0.050 -4958.152
v 2608.154 0.050 -4950.161
v 2711.439 0.200 -4952.907
v 2711.348 0.200 -4954.905
v 2608.154 0.200 -4950.161
v 2608.246 0.200 -4948.163
v 2710.980 0.200 -4962.896
v 2710.888 0.200 -4964.894
v 2607.695 0.200 -4960.150
v 2607.787 0.200 -4958.152
v 2711.280 0.200 -4953.257
v 2711.580 0.200 -4953.257
v 2711.580 0.200 -4952.957
v 2711.280 0.200 -4952.957
v 2711.280 8.200 -4953.257
v 2711.580 8.200 -4953.257
v 2711.580 8.200 -4952.957
v 2711.280 8.200 -4952.957
v 2710.748 0.200 -4964.844
v 2711.048 0.200 -4964.844
v 2711.048 0.200 -4964.544
v 2710.748 0.200 -4964.544
v 2710.748 8.200 -4964.844
v 2711.048 8.200 -4964.844
v 2711.048 8.200 -4964.544
v 2710.748 8.200 -4964.544
v 2607.765 0.050 -4950.162
v 2608.176 0.050 -4958.151
v 2533.214 0.050 -4962.010
v 2532.803 0.050 -4954.020
v 2607.662 0.200 -4948.164
v 2607.765 0.200 -4950.162
v 2532.803 0.200 -4954.020
v 2532.700 0.200 -4952.023
v 2608.176 0.200 -4958.151
v 2608.279 0.200 -4960.149
v 2533.317 0.200 -4964.007
v 2533.214 0.200 -4962.010
v 2607.523 0.200 -4948.514
v 2607.823 0.200 -4948.514
v 2607.823 0.200 -4948.214
v 2607.523 0.200 -4948.214
v 2607.523 8.200 -4948.514
v 2607.823 8.200 -4948.514
v 2607.823 8.200 -4948.214
v 2607.523 8.200 -4948.214
v 2608.119 0.200 -4960.099
v 2608.419 0.200 -4960.099
v 2608.419 0.200 -4959.799
v 2608.119 0.200 -4959.799
v 2608.119 8.200 -4960.099
v 2608.419 8.200 -4960.099
v 2608.419 8.200 -4959.799
v 2608.119 8.200 -4959.799
v 2532.619 0.050 -4954.034
v 2533.397 0.050 -4961.996
v 2443.707 0.050 -4970.757
v 2442.929 0.050 -4962.795
v 2532.425 0.200 -4952.043
v 2532.619 0.200 -4954.034
v 2442.929 0.200 -4962.795
v 2442.735 0.200 -4960.805
v 2533.397 0.200 -4961.996
v 2533.592 0.200 -4963.987
v 2443.901 0.200 -4972.748
v 2443.707 0.200 -4970.757
v 2532.294 0.200 -4952.393
v 2532.594 0.200 -4952.393
v 2532.594 0.200 -4952.093
v 2532.294 0.200 -4952.093
v 2532.294 8.200 -4952.393
v 2532.594 8.200 -4952.393
v 2532.594 8.200 -4952.093
v 2532.294 8.200 -4952.093
v 2533.422 0.200 -4963.938
v 2533.722 0.200 -4963.938
v 2533.722 0.200 -4963.638
v 2533.422 0.200 -4963.638
v 2533.422 8.200 -4963.938
v 2533.722 8.200 -4963.938
v 2533.722 8.200 -4963.638
v 2533.422 8.200 -4963.638
v 2443.162 0.050 -4962.779
v 2443.474 0.050 -4970.773
v 2331.520 0.050 -4975.134
v 2331.208 0.050 -4967.140
v 2443.085 0.200 -4960.781
v 2443.162 0.200 -4962.779
v 2331.208 0.200 -4967.140
v 2331.131 0.200 -4965.142
v 2443.474 0.200 -4970.773
v 2443.552 0.200 -4972.772
v 2331.598 0.200 -4977.132
v 2331.520 0.200 -4975.134
v 2442.942 0.200 -4961.131
v 2443.242 0.200 -4961.131
v 2443.242 0.200 -4960.831
v 2442.942 0.200 -4960.831
v 2442.942 8.200 -4961.131
v 2443.242 8.200 -4961.131
v 2443.242 8.200 -4960.831
v 2442.942 8.200 -4960.831
v 2443.394 0.200 -4972.722
v 2443.694 0.200 -4972.722
v 2443.694 0.200 -4972.422
v 2443.394 0.200 -4972.422
v 2443.394 8.200 -4972.722
v 2443.694 8.200 -4972.722
v 2443.694 8.200 -4972.422
v 2443.394 8.200 -4972.422
g asphalt
f 1 2 3
f 3 4 1
f 29 30 31
f 31 32 29
f 41 42 43
f 43 44 41
f 69 70 71
f 71 72 69
f 81 82 83
f 83 84 81
f 109 110 111
f 111 112 109
f 137 138 139
f 139 140 137
f 149 150 151
f 151 152 149
f 161 162 163
f 163 164 161
f 189 190 191
f 191 192 189
f 201 202 203
f 203 204 201
f 229 230 231
f 231 232 229
f 257 258 259
f 259 260 257
f 269 270 271
f 271 272 269
f 281 282 283
f 283 284 281
f 293 294 295
f 295 296 293
f 321 322 323
f 323 324 321
f 333 334 335
f 335 336 333
f 361 362 363
f 363 364 361
f 373 374 375
f 375 376 373
f 385 386 387
f 387 388 385
f 413 414 415
f 415 416 413
f 441 442 443
f 443 444 441
f 453 454 455
f 455 456 453
f 481 482 483
f 483 484 481
f 509 510 511
f 511 512 509
f 537 538 539
f 539 540 537
f 565 566 567
f 567 568 565
f 577 578 579
f 579 580 577
f 605 606 607
f 607 608 605
f 621 622 623
f 623 624 621
f 653 654 655
f 655 656 653
f 669 670 671
f 671 672 669
f 701 702 703
f 703 704 701
f 717 718 719
f 719 720 717
f 749 750 751
f 751 752 749
f 765 766 767
f 767 768 765
f 797 798 799
f 799 800 797
f 813 814 815
f 815 816 813
f 845 846 847
f 847 848 845
f 861 862 863
f 863 864 861
f 893 894 895
f 895 896 893
f 925 926 927
f 927 928 925
f 957 958 959
f 959 960 957
f 973 974 975
f 975 976 973
f 1005 1006 1007
f 1007 1008 1005
f 1037 1038 1039
f 1039 1040 1037
f 1065 1066 1067
f 1067 1068 1065
f 1093 1094 1095
f 1095 1096 1093
f 1121 1122 1123
f 1123 1124 1121
f 1133 1134 1135
f 1135 1136 1133
f 1161 1162 1163
f 1163 1164 1161
f 1189 1190 1191
f 1191 1192 1189
f 1217 1218 1219
f 1219 1220 1217
f 1229 1230 1231
f 1231 1232 1229
f 1257 1258 1259
f 1259 1260 1257
f 1269 1270 1271
f 1271 1272 1269
f 1281 1282 1283
f 1283 1284 1281
f 1293 1294 1295
f 1295 1296 1293
f 1305 1306 1307
f 1307 1308 1305
f 1317 1318 1319
f 1319 1320 1317
f 1345 1346 1347
f 1347 1348 1345
f 1357 1358 1359
f 1359 1360 1357
f 1369 1370 1371
f 1371 1372 1369
f 1381 1382 1383
f 1383 1384 1381
f 1409 1410 1411
f 1411 1412 1409
f 1421 1422 1423
f 1423 1424 1421
f 1449 1450 1451
f 1451 1452 1449
f 1461 1462 1463
f 1463 1464 1461
f 1473 1474 1475
f 1475 1476 1473
f 1485 1486 1487
f 1487 1488 1485
f 1513 1514 1515
f 1515 1516 1513
f 1525 1526 1527
f 1527 1528 1525
f 1537 1538 1539
f 1539 1540 1537
f 1549 1550 1551
f 1551 1552 1549
f 1577 1578 1579
f 1579 1580 1577
f 1589 1590 1591
f 1591 1592 1589
f 1601 1602 1603
f 1603 1604 1601
f 1613 1614 1615
f 1615 1616 1613
f 1641 1642 1643
f 1643 1644 1641
f 1653 1654 1655
f 1655 1656 1653
f 1665 1666 1667
f 1667 1668 1665
f 1677 1678 1679
f 1679 1680 1677
f 1705 1706 1707
f 1707 1708 1705
f 1717 1718 1719
f 1719 1720 1717
f 1729 1730 1731
f 1731 1732 1729
f 1741 1742 1743
f 1743 1744 1741
f 1769 1770 1771
f 1771 1772 1769
f 1781 1782 1783
f 1783 1784 1781
f 1793 1794 1795
f 1795 1796 1793
f 1805 1806 1807
f 1807 1808 1805
f 1833 1834 1835
f 1835 1836 1833
f 1845 1846 1847
f 1847 1848 1845
f 1857 1858 1859
f 1859 1860 1857
f 1869 1870 1871
f 1871 1872 1869
f 1881 1882 1883
f 1883 1884 1881
f 1893 1894 1895
f 1895 1896 1893
f 1921 1922 1923
f 1923 1924 1921
f 1949 1950 1951
f 1951 1952 1949
f 1961 1962 1963
f 1963 1964 1961
f 1989 1990 1991
f 1991 1992 1989
f 2017 2018 2019
f 2019 2020 2017
f 2029 2030 2031
f 2031 2032 2029
f 2041 2042 2043
f 2043 2044 2041
f 2069 2070 2071
f 2071 2072 2069
f 2097 2098 2099
f 2099 2100 2097
f 2125 2126 2127
f 2127 2128 2125
f 2153 2154 2155
f 2155 2156 2153
g sidewalks
f 5 6 7
f 7 8 5
f 9 10 11
f 11 12 9
f 33 34 35
f 35 36 33
f 37 38 39
f 39 40 37
f 45 46 47
f 47 48 45
f 49 50 51
f 51 52 49
f 73 74 75
f 75 76 73
f 77 78 79
f 79 80 77
f 85 86 87
f 87 88 85
f 89 90 91
f 91 92 89
f 113 114 115
f 115 116 113
f 117 118 119
f 119 120 117
f 141 142 143
f 143 144 141
f 145 146 147
f 147 148 145
f 153 154 155
f 155 156 153
f 157 158 159
f 159 160 157
f 165 166 167
f 167 168 165
f 169 170 171
f 171 172 169
f 193 194 195
f 195 196 193
f 197 198 199
f 199 200 197
f 205 206 207
f 207 208 205
f 209 210 211
f 211 212 209
f 233 234 235
f 235 236 233
f 237 238 239
f 239 240 237
f 261 262 263
f 263 264 261
f 265 266 267
f 267 268 265
f 273 274 275
f 275 276 273
f 277 278 279
f 279 280 277
f 285 286 287
f 287 288 285
f 289 290 291
f 291 292 289
f 297 298 299
f 299 300 297
f 301 302 303
f 303 304 301
f 325 326 327
f 327 328 325
f 329 330 331
f 331 332 329
f 337 338 339
f 339 340 337
f 341 342 343
f 343 344 341
f 365 366 367
f 367 368 365
f 369 370 371
f 371 372 369
f 377 378 379
f 379 380 377
f 381 382 383
f 383 384 381
f 389 390 391
f 391 392 389
f 393 394 395
f 395 396 393
f 417 418 419
f 419 420 417
f 421 422 423
f 423 424 421
f 445 446 447
f 447 448 445
f 449 450 451
f 451 452 449
f 457 458 459
f 459 460 457
f 461 462 463
f 463 464 461
f 485 486 487
f 487 488 485
f 489 490 491
f 491 492 489
f 513 514 515
f 515 516 513
f 517 518 519
f 519 520 517
f 541 542 543
f 543 544 541
f 545 546 547
f 547 548 545
f 569 570 571
f 571 572 569
f 573 574 575
f 575 576 573
f 581 582 583
f 583 584 581
f 585 586 587
f 587 588 585
f 609 610 611
f 611 612 609
f 613 614 615
f 615 616 613
f 625 626 627
f 627 628 625
f 629 630 631
f 631 632 629
f 657 658 659
f 659 660 657
f 661 662 663
f 663 664 661
f 673 674 675
f 675 676 673
f 677 678 679
f 679 680 677
f 705 706 707
f 707 708 705
f 709 710 711
f 711 712 709
f 721 722 723
f 723 724 721
f 725 726 727
f 727 728 725
f 753 754 755
f 755 756 753
f 757 758 759
f 759 760 757
f 769 770 771
f 771 772 769
f 773 774 775
f 775 776 773
f 801 802 803
f 803 804 801
f 805 806 807
f 807 808 805
f 817 818 819
f 819 820 817
f 821 822 823
f 823 824 821
f 849 850 851
f 851 852 849
f 853 854 855
f 855 856 853
f 865 866 867
f 867 868 865
f 869 870 871
f 871 872 869
f 897 898 899
f 899 900 897
f 901 902 903
f 903 904 901
f 929 930 931
f 931 932 929
f 933 934 935
f 935 936 933
f 961 962 963
f 963 964 961
f 965 966 967
f 967 968 965
f 977 978 979
f 979 980 977
f 981 982 983
f 983 984 981
f 1009 1010 1011
f 1011 1012 1009
f 1013 1014 1015
f 1015 1016 1013
f 1041 1042 1043
f 1043 1044 1041
f 1045 1046 1047
f 1047 1048 1045
f 1069 1070 1071
f 1071 1072 1069
f 1073 1074 1075
f 1075 1076 1073
f 1097 1098 1099
f 1099 1100 1097
f 1101 1102 1103
f 1103 1104 1101
f 1125 1126 1127
f 1127 1128 1125
f 1129 1130 1131
f 1131 1132 1129
f 1137 1138 1139
f 1139 1140 1137
f 1141 1142 1143
f 1143 1144 1141
f 1165 1166 1167
f 1167 1168 1165
f 1169 1170 1171
f 1171 1172 1169
f 1193 1194 1195
f 1195 1196 1193
f 1197 1198 1199
f 1199 1200 1197
f 1221 1222 1223
f 1223 1224 1221
f 1225 1226 1227
f 1227 1228 1225
f 1233 1234 1235
f 1235 1236 1233
f 1237 1238 1239
f 1239 1240 1237
f 1261 1262 1263
f 1263 1264 1261
f 1265 1266 1267
f 1267 1268 1265
f 1273 1274 1275
f 1275 1276 1273
f 1277 1278 1279
f 1279 1280 1277
f 1285 1286 1287
f 1287 1288 1285
f 1289 1290 1291
f 1291 1292 1289
f 1297 1298 1299
f 1299 1300 1297
f 1301 1302 1303
f 1303 1304 1301
f 1309 1310 1311
f 1311 1312 1309
f 1313 1314 1315
f 1315 1316 1313
f 1321 1322 1323
f 1323 1324 1321
f 1325 1326 1327
f 1327 1328 1325
f 1349 1350 1351
f 1351 1352 1349
f 1353 1354 1355
f 1355 1356 1353
f 1361 1362 1363
f 1363 1364 1361
f 1365 1366 1367
f 1367 1368 1365
f 1373 1374 1375
f 1375 1376 1373
f 1377 1378 1379
f 1379 1380 1377
f 1385 1386 1387
f 1387 1388 1385
f 1389 1390 1391
f 1391 1392 1389
f 1413 1414 1415
f 1415 1416 1413
f 1417 1418 1419
f 1419 1420 1417
f 1425 1426 1427
f 1427 1428 1425
f 1429 1430 1431
f 1431 1432 1429
f 1453 1454 1455
f 1455 1456 1453
f 1457 1458 1459
f 1459 1460 1457
f 1465 1466 1467
f 1467 1468 1465
f 1469 1470 1471
f 1471 1472 1469
f 1477 1478 1479
f 1479 1480 1477
f 1481 1482 1483
f 1483 1484 1481
f 1489 1490 1491
f 1491 1492 1489
f 1493 1494 1495
f 1495 1496 1493
f 1517 1518 1519
f 1519 1520 1517
f 1521 1522 1523
f 1523 1524 1521
f 1529 1530 1531
f 1531 1532 1529
f 1533 1534 1535
f 1535 1536 1533
f 1541 1542 1543
f 1543 1544 1541
f 1545 1546 1547
f 1547 1548 1545
f 1553 1554 1555
f 1555 1556 1553
f 1557 1558 1559
f 1559 1560 1557
f 1581 1582 1583
f 1583 1584 1581
f 1585 1586 1587
f 1587 1588 1585
f 1593 1594 1595
f 1595 1596 1593
f 1597 1598 1599
f 1599 1600 1597
f 1605 1606 1607
f 1607 1608 1605
f 1609 1610 1611
f 1611 1612 1609
f 1617 1618 1619
f 1619 1620 1617
f 1621 1622 1623
f 1623 1624 1621
f 1645 1646 1647
f 1647 1648 1645
f 1649 1650 1651
f 1651 1652 1649
f 1657 1658 1659
f 1659 1660 1657
f 1661 1662 1663
f 1663 1664 1661
f 1669 1670 1671
f 1671 1672 1669
f 1673 1674 1675
f 1675 1676 1673
f 1681 1682 1683
f 1683 1684 1681
f 1685 1686 1687
f 1687 1688 1685
f 1709 1710 1711
f 1711 1712 1709
f 1713 1714 1715
f 1715 1716 1713
f 1721 1722 1723
f 1723 1724 1721
f 1725 1726 1727
f 1727 1728 1725
f 1733 1734 1735
f 1735 1736 1733
f 1737 1738 1739
f 1739 1740 1737
f 1745 1746 1747
f 1747 1748 1745
f 1749 1750 1751
f 1751 1752 1749
f 1773 1774 1775
f 1775 1776 1773
f 1777 1778 1779
f 1779 1780 1777
f 1785 1786 1787
f 1787 1788 1785
f 1789 1790 1791
f 1791 1792 1789
f 1797 1798 1799
f 1799 1800 1797
f 1801 1802 1803
f 1803 1804 1801
f 1809 1810 1811
f 1811 1812 1809
f 1813 1814 1815
f 1815 1816 1813
f 1837 1838 1839
f 1839 1840 1837
f 1841 1842 1843
f 1843 1844 1841
f 1849 1850 1851
f 1851 1852 1849
f 1853 1854 1855
f 1855 1856 1853
f 1861 1862 1863
f 1863 1864 1861
f 1865 1866 1867
f 1867 1868 1865
f 1873 1874 1875
f 1875 1876 1873
f 1877 1878 1879
f 1879 1880 1877
f 1885 1886 1887
f 1887 1888 1885
f 1889 1890 1891
f 1891 1892 1889
f 1897 1898 1899
f 1899 1900 1897
f 1901 1902 1903
f 1903 1904 1901
f 1925 1926 1927
f 1927 1928 1925
f 1929 1930 1931
f 1931 1932 1929
f 1953 1954 1955
f 1955 1956 1953
f 1957 1958 1959
f 1959 1960 1957
f 1965 1966 1967
f 1967 1968 1965
f 1969 1970 1971
f 1971 1972 1969
f 1993 1994 1995
f 1995 1996 1993
f 1997 1998 1999
f 1999 2000 1997
f 2021 2022 2023
f 2023 2024 2021
f 2025 2026 2027
f 2027 2028 2025
f 2033 2034 2035
f 2035 2036 2033
f 2037 2038 2039
f 2039 2040 2037
f 2045 2046 2047
f 2047 2048 2045
f 2049 2050 2051
f 2051 2052 2049
f 2073 2074 2075
f 2075 2076 2073
f 2077 2078 2079
f 2079 2080 2077
f 2101 2102 2103
f 2103 2104 2101
f 2105 2106 2107
f 2107 2108 2105
f 2129 2130 2131
f 2131 2132 2129
f 2133 2134 2135
f 2135 2136 2133
f 2157 2158 2159
f 2159 2160 2157
f 2161 2162 2163
f 2163 2164 2161
g yellow_divider
f 617 618 619
f 619 620 617
f 633 634 635
f 635 636 633
f 665 666 667
f 667 668 665
f 681 682 683
f 683 684 681
f 713 714 715
f 715 716 713
f 729 730 731
f 731 732 729
f 761 762 763
f 763 764 761
f 777 778 779
f 779 780 777
f 809 810 811
f 811 812 809
f 825 826 827
f 827 828 825
f 857 858 859
f 859 860 857
f 873 874 875
f 875 876 873
f 905 906 907
f 907 908 905
f 937 938 939
f 939 940 937
f 969 970 971
f 971 972 969
f 985 986 987
f 987 988 985
f 1017 1018 1019
f 1019 1020 1017
g utility_poles
f 13 16 15
f 15 14 13
f 17 18 19
f 19 20 17
f 13 14 18
f 18 17 13
f 15 16 20
f 20 19 15
f 16 13 17
f 17 20 16
f 14 15 19
f 19 18 14
f 21 24 23
f 23 22 21
f 25 26 27
f 27 28 25
f 21 22 26
f 26 25 21
f 23 24 28
f 28 27 23
f 24 21 25
f 25 28 24
f 22 23 27
f 27 26 22
f 53 56 55
f 55 54 53
f 57 58 59
f 59 60 57
f 53 54 58
f 58 57 53
f 55 56 60
f 60 59 55
f 56 53 57
f 57 60 56
f 54 55 59
f 59 58 54
f 61 64 63
f 63 62 61
f 65 66 67
f 67 68 65
f 61 62 66
f 66 65 61
f 63 64 68
f 68 67 63
f 64 61 65
f 65 68 64
f 62 63 67
f 67 66 62
f 93 96 95
f 95 94 93
f 97 98 99
f 99 100 97
f 93 94 98
f 98 97 93
f 95 96 100
f 100 99 95
f 96 93 97
f 97 100 96
f 94 95 99
f 99 98 94
f 101 104 103
f 103 102 101
f 105 106 107
f 107 108 105
f 101 102 106
f 106 105 101
f 103 104 108
f 108 107 103
f 104 101 105
f 105 108 104
f 102 103 107
f 107 106 102
f 121 124 123
f 123 122 121
f 125 126 127
f 127 128 125
f 121 122 126
f 126 125 121
f 123 124 128
f 128 127 123
f 124 121 125
f 125 128 124
f 122 123 127
f 127 126 122
f 129 132 131
f 131 130 129
f 133 134 135
f 135 136 133
f 129 130 134
f 134 133 129
f 131 132 136
f 136 135 131
f 132 129 133
f 133 136 132
f 130 131 135
f 135 134 130
f 173 176 175
f 175 174 173
f 177 178 179
f 179 180 177
f 173 174 178
f 178 177 173
f 175 176 180
f 180 179 175
f 176 173 177
f 177 180 176
f 174 175 179
f 179 178 174
f 181 184 183
f 183 182 181
f 185 186 187
f 187 188 185
f 181 182 186
f 186 185 181
f 183 184 188
f 188 187 183
f 184 181 185
f 185 188 184
f 182 183 187
f 187 186 182
f 213 216 215
f 215 214 213
f 217 218 219
f 219 220 217
f 213 214 218
f 218 217 213
f 215 216 220
f 220 219 215
f 216 213 217
f 217 220 216
f 214 215 219
f 219 218 214
f 221 224 223
f 223 222 221
f 225 226 227
f 227 228 225
f 221 222 226
f 226 225 221
f 223 224 228
f 228 227 223
f 224 221 225
f 225 228 224
f 222 223 227
f 227 226 222
f 241 244 243
f 243 242 241
f 245 246 247
f 247 248 245
f 241 242 246
f 246 245 241
f 243 244 248
f 248 247 243
f 244 241 245
f 245 248 244
f 242 243 247
f 247 246 242
f 249 252 251
f 251 250 249
f 253 254 255
f 255 256 253
f 249 250 254
f 254 253 249
f 251 252 256
f 256 255 251
f 252 249 253
f 253 256 252
f 250 251 255
f 255 254 250
f 305 308 307
f 307 306 305
f 309 310 311
f 311 312 309
f 305 306 310
f 310 309 305
f 307 308 312
f 312 311 307
f 308 305 309
f 309 312 308
f 306 307 311
f 311 310 306
f 313 316 315
f 315 314 313
f 317 318 319
f 319 320 317
f 313 314 318
f 318 317 313
f 315 316 320
f 320 319 315
f 316 313 317
f 317 320 316
f 314 315 319
f 319 318 314
f 345 348 347
f 347 346 345
f 349 350 351
f 351 352 349
f 345 346 350
f 350 349 345
f 347 348 352
f 352 351 347
f 348 345 349
f 349 352 348
f 346 347 351
f 351 350 346
f 353 356 355
f 355 354 353
f 357 358 359
f 359 360 357
f 353 354 358
f 358 357 353
f 355 356 360
f 360 359 355
f 356 353 357
f 357 360 356
f 354 355 359
f 359 358 354
f 397 400 399
f 399 398 397
f 401 402 403
f 403 404 401
f 397 398 402
f 402 401 397
f 399 400 404
f 404 403 399
f 400 397 401
f 401 404 400
f 398 399 403
f 403 402 398
f 405 408 407
f 407 406 405
f 409 410 411
f 411 412 409
f 405 406 410
f 410 409 405
f 407 408 412
f 412 411 407
f 408 405 409
f 409 412 408
f 406 407 411
f 411 410 406
f 425 428 427
f 427 426 425
f 429 430 431
f 431 432 429
f 425 426 430
f 430 429 425
f 427 428 432
f 432 431 427
f 428 425 429
f 429 432 428
f 426 427 431
f 431 430 426
f 433 436 435
f 435 434 433
f 437 438 439
f 439 440 437
f 433 434 438
f 438 437 433
f 435 436 440
f 440 439 435
f 436 433 437
f 437 440 436
f 434 435 439
f 439 438 434
f 465 468 467
f 467 466 465
f 469 470 471
f 471 472 469
f 465 466 470
f 470 469 465
f 467 468 472
f 472 471 467
f 468 465 469
f 469 472 468
f 466 467 471
f 471 470 466
f 473 476 475
f 475 474 473
f 477 478 479
f 479 480 477
f 473 474 478
f 478 477 473
f 475 476 480
f 480 479 475
f 476 473 477
f 477 480 476
f 474 475 479
f 479 478 474
f 493 496 495
f 495 494 493
f 497 498 499
f 499 500 497
f 493 494 498
f 498 497 493
f 495 496 500
f 500 499 495
f 496 493 497
f 497 500 496
f 494 495 499
f 499 498 494
f 501 504 503
f 503 502 501
f 505 506 507
f 507 508 505
f 501 502 506
f 506 505 501
f 503 504 508
f 508 507 503
f 504 501 505
f 505 508 504
f 502 503 507
f 507 506 502
f 521 524 523
f 523 522 521
f 525 526 527
f 527 528 525
f 521 522 526
f 526 525 521
f 523 524 528
f 528 527 523
f 524 521 525
f 525 528 524
f 522 523 527
f 527 526 522
f 529 532 531
f 531 530 529
f 533 534 535
f 535 536 533
f 529 530 534
f 534 533 529
f 531 532 536
f 536 535 531
f 532 529 533
f 533 536 532
f 530 531 535
f 535 534 530
f 549 552 551
f 551 550 549
f 553 554 555
f 555 556 553
f 549 550 554
f 554 553 549
f 551 552 556
f 556 555 551
f 552 549 553
f 553 556 552
f 550 551 555
f 555 554 550
f 557 560 559
f 559 558 557
f 561 562 563
f 563 564 561
f 557 558 562
f 562 561 557
f 559 560 564
f 564 563 559
f 560 557 561
f 561 564 560
f 558 559 563
f 563 562 558
f 589 592 591
f 591 590 589
f 593 594 595
f 595 596 593
f 589 590 594
f 594 593 589
f 591 592 596
f 596 595 591
f 592 589 593
f 593 596 592
f 590 591 595
f 595 594 590
f 597 600 599
f 599 598 597
f 601 602 603
f 603 604 601
f 597 598 602
f 602 601 597
f 599 600 604
f 604 603 599
f 600 597 601
f 601 604 600
f 598 599 603
f 603 602 598
f 637 640 639
f 639 638 637
f 641 642 643
f 643 644 641
f 637 638 642
f 642 641 637
f 639 640 644
f 644 643 639
f 640 637 641
f 641 644 640
f 638 639 643
f 643 642 638
f 645 648 647
f 647 646 645
f 649 650 651
f 651 652 649
f 645 646 650
f 650 649 645
f 647 648 652
f 652 651 647
f 648 645 649
f 649 652 648
f 646 647 651
f 651 650 646
f 685 688 687
f 687 686 685
f 689 690 691
f 691 692 689
f 685 686 690
f 690 689 685
f 687 688 692
f 692 691 687
f 688 685 689
f 689 692 688
f 686 687 691
f 691 690 686
f 693 696 695
f 695 694 693
f 697 698 699
f 699 700 697
f 693 694 698
f 698 697 693
f 695 696 700
f 700 699 695
f 696 693 697
f 697 700 696
f 694 695 699
f 699 698 694
f 733 736 735
f 735 734 733
f 737 738 739
f 739 740 737
f 733 734 738
f 738 737 733
f 735 736 740
f 740 739 735
f 736 733 737
f 737 740 736
f 734 735 739
f 739 738 734
f 741 744 743
f 743 742 741
f 745 746 747
f 747 748 745
f 741 742 746
f 746 745 741
f 743 744 748
f 748 747 743
f 744 741 745
f 745 748 744
f 742 743 747
f 747 746 742
f 781 784 783
f 783 782 781
f 785 786 787
f 787 788 785
f 781 782 786
f 786 785 781
f 783 784 788
f 788 787 783
f 784 781 785
f 785 788 784
f 782 783 787
f 787 786 782
f 789 792 791
f 791 790 789
f 793 794 795
f 795 796 793
f 789 790 794
f 794 793 789
f 791 792 796
f 796 795 791
f 792 789 793
f 793 796 792
f 790 791 795
f 795 794 790
f 829 832 831
f 831 830 829
f 833 834 835
f 835 836 833
f 829 830 834
f 834 833 829
f 831 832 836
f 836 835 831
f 832 829 833
f 833 836 832
f 830 831 835
f 835 834 830
f 837 840 839
f 839 838 837
f 841 842 843
f 843 844 841
f 837 838 842
f 842 841 837
f 839 840 844
f 844 843 839
f 840 837 841
f 841 844 840
f 838 839 843
f 843 842 838
f 877 880 879
f 879 878 877
f 881 882 883
f 883 884 881
f 877 878 882
f 882 881 877
f 879 880 884
f 884 883 879
f 880 877 881
f 881 884 880
f 878 879 883
f 883 882 878
f 885 888 887
f 887 886 885
f 889 890 891
f 891 892 889
f 885 886 890
f 890 889 885
f 887 888 892
f 892 891 887
f 888 885 889
f 889 892 888
f 886 887 891
f 891 890 886
f 909 912 911
f 911 910 909
f 913 914 915
f 915 916 913
f 909 910 914
f 914 913 909
f 911 912 916
f 916 915 911
f 912 909 913
f 913 916 912
f 910 911 915
f 915 914 910
f 917 920 919
f 919 918 917
f 921 922 923
f 923 924 921
f 917 918 922
f 922 921 917
f 919 920 924
f 924 923 919
f 920 917 921
f 921 924 920
f 918 919 923
f 923 922 918
f 941 944 943
f 943 942 941
f 945 946 947
f 947 948 945
f 941 942 946
f 946 945 941
f 943 944 948
f 948 947 943
f 944 941 945
f 945 948 944
f 942 943 947
f 947 946 942
f 949 952 951
f 951 950 949
f 953 954 955
f 955 956 953
f 949 950 954
f 954 953 949
f 951 952 956
f 956 955 951
f 952 949 953
f 953 956 952
f 950 951 955
f 955 954 950
f 989 992 991
f 991 990 989
f 993 994 995
f 995 996 993
f 989 990 994
f 994 993 989
f 991 992 996
f 996 995 991
f 992 989 993
f 993 996 992
f 990 991 995
f 995 994 990
f 997 1000 999
f 999 998 997
f 1001 1002 1003
f 1003 1004 1001
f 997 998 1002
f 1002 1001 997
f 999 1000 1004
f 1004 1003 999
f 1000 997 1001
f 1001 1004 1000
f 998 999 1003
f 1003 1002 998
f 1021 1024 1023
f 1023 1022 1021
f 1025 1026 1027
f 1027 1028 1025
f 1021 1022 1026
f 1026 1025 1021
f 1023 1024 1028
f 1028 1027 1023
f 1024 1021 1025
f 1025 1028 1024
f 1022 1023 1027
f 1027 1026 1022
f 1029 1032 1031
f 1031 1030 1029
f 1033 1034 1035
f 1035 1036 1033
f 1029 1030 1034
f 1034 1033 1029
f 1031 1032 1036
f 1036 1035 1031
f 1032 1029 1033
f 1033 1036 1032
f 1030 1031 1035
f 1035 1034 1030
f 1049 1052 1051
f 1051 1050 1049
f 1053 1054 1055
f 1055 1056 1053
f 1049 1050 1054
f 1054 1053 1049
f 1051 1052 1056
f 1056 1055 1051
f 1052 1049 1053
f 1053 1056 1052
f 1050 1051 1055
f 1055 1054 1050
f 1057 1060 1059
f 1059 1058 1057
f 1061 1062 1063
f 1063 1064 1061
f 1057 1058 1062
f 1062 1061 1057
f 1059 1060 1064
f 1064 1063 1059
f 1060 1057 1061
f 1061 1064 1060
f 1058 1059 1063
f 1063 1062 1058
f 1077 1080 1079
f 1079 1078 1077
f 1081 1082 1083
f 1083 1084 1081
f 1077 1078 1082
f 1082 1081 1077
f 1079 1080 1084
f 1084 1083 1079
f 1080 1077 1081
f 1081 1084 1080
f 1078 1079 1083
f 1083 1082 1078
f 1085 1088 1087
f 1087 1086 1085
f 1089 1090 1091
f 1091 1092 1089
f 1085 1086 1090
f 1090 1089 1085
f 1087 1088 1092
f 1092 1091 1087
f 1088 1085 1089
f 1089 1092 1088
f 1086 1087 1091
f 1091 1090 1086
f 1105 1108 1107
f 1107 1106 1105
f 1109 1110 1111
f 1111 1112 1109
f 1105 1106 1110
f 1110 1109 1105
f 1107 1108 1112
f 1112 1111 1107
f 1108 1105 1109
f 1109 1112 1108
f 1106 1107 1111
f 1111 1110 1106
f 1113 1116 1115
f 1115 1114 1113
f 1117 1118 1119
f 1119 1120 1117
f 1113 1114 1118
f 1118 1117 1113
f 1115 1116 1120
f 1120 1119 1115
f 1116 1113 1117
f 1117 1120 1116
f 1114 1115 1119
f 1119 1118 1114
f 1145 1148 1147
f 1147 1146 1145
f 1149 1150 1151
f 1151 1152 1149
f 1145 1146 1150
f 1150 1149 1145
f 1147 1148 1152
f 1152 1151 1147
f 1148 1145 1149
f 1149 1152 1148
f 1146 1147 1151
f 1151 1150 1146
f 1153 1156 1155
f 1155 1154 1153
f 1157 1158 1159
f 1159 1160 1157
f 1153 1154 1158
f 1158 1157 1153
f 1155 1156 1160
f 1160 1159 1155
f 1156 1153 1157
f 1157 1160 1156
f 1154 1155 1159
f 1159 1158 1154
f 1173 1176 1175
f 1175 1174 1173
f 1177 1178 1179
f 1179 1180 1177
f 1173 1174 1178
f 1178 1177 1173
f 1175 1176 1180
f 1180 1179 1175
f 1176 1173 1177
f 1177 1180 1176
f 1174 1175 1179
f 1179 1178 1174
f 1181 1184 1183
f 1183 1182 1181
f 1185 1186 1187
f 1187 1188 1185
f 1181 1182 1186
f 1186 1185 1181
f 1183 1184 1188
f 1188 1187 1183
f 1184 1181 1185
f 1185 1188 1184
f 1182 1183 1187
f 1187 1186 1182
f 1201 1204 1203
f 1203 1202 1201
f 1205 1206 1207
f 1207 1208 1205
f 1201 1202 1206
f 1206 1205 1201
f 1203 1204 1208
f 1208 1207 1203
f 1204 1201 1205
f 1205 1208 1204
f 1202 1203 1207
f 1207 1206 1202
f 1209 1212 1211
f 1211 1210 1209
f 1213 1214 1215
f 1215 1216 1213
f 1209 1210 1214
f 1214 1213 1209
f 1211 1212 1216
f 1216 1215 1211
f 1212 1209 1213
f 1213 1216 1212
f 1210 1211 1215
f 1215 1214 1210
f 1241 1244 1243
f 1243 1242 1241
f 1245 1246 1247
f 1247 1248 1245
f 1241 1242 1246
f 1246 1245 1241
f 1243 1244 1248
f 1248 1247 1243
f 1244 1241 1245
f 1245 1248 1244
f 1242 1243 1247
f 1247 1246 1242
f 1249 1252 1251
f 1251 1250 1249
f 1253 1254 1255
f 1255 1256 1253
f 1249 1250 1254
f 1254 1253 1249
f 1251 1252 1256
f 1256 1255 1251
f 1252 1249 1253
f 1253 1256 1252
f 1250 1251 1255
f 1255 1254 1250
f 1329 1332 1331
f 1331 1330 1329
f 1333 1334 1335
f 1335 1336 1333
f 1329 1330 1334
f 1334 1333 1329
f 1331 1332 1336
f 1336 1335 1331
f 1332 1329 1333
f 1333 1336 1332
f 1330 1331 1335
f 1335 1334 1330
f 1337 1340 1339
f 1339 1338 1337
f 1341 1342 1343
f 1343 1344 1341
f 1337 1338 1342
f 1342 1341 1337
f 1339 1340 1344
f 1344 1343 1339
f 1340 1337 1341
f 1341 1344 1340
f 1338 1339 1343
f 1343 1342 1338
f 1393 1396 1395
f 1395 1394 1393
f 1397 1398 1399
f 1399 1400 1397
f 1393 1394 1398
f 1398 1397 1393
f 1395 1396 1400
f 1400 1399 1395
f 1396 1393 1397
f 1397 1400 1396
f 1394 1395 1399
f 1399 1398 1394
f 1401 1404 1403
f 1403 1402 1401
f 1405 1406 1407
f 1407 1408 1405
f 1401 1402 1406
f 1406 1405 1401
f 1403 1404 1408
f 1408 1407 1403
f 1404 1401 1405
f 1405 1408 1404
f 1402 1403 1407
f 1407 1406 1402
f 1433 1436 1435
f 1435 1434 1433
f 1437 1438 1439
f 1439 1440 1437
f 1433 1434 1438
f 1438 1437 1433
f 1435 1436 1440
f 1440 1439 1435
f 1436 1433 1437
f 1437 1440 1436
f 1434 1435 1439
f 1439 1438 1434
f 1441 1444 1443
f 1443 1442 1441
f 1445 1446 1447
f 1447 1448 1445
f 1441 1442 1446
f 1446 1445 1441
f 1443 1444 1448
f 1448 1447 1443
f 1444 1441 1445
f 1445 1448 1444
f 1442 1443 1447
f 1447 1446 1442
f 1497 1500 1499
f 1499 1498 1497
f 1501 1502 1503
f 1503 1504 1501
f 1497 1498 1502
f 1502 1501 1497
f 1499 1500 1504
f 1504 1503 1499
f 1500 1497 1501
f 1501 1504 1500
f 1498 1499 1503
f 1503 1502 1498
f 1505 1508 1507
f 1507 1506 1505
f 1509 1510 1511
f 1511 1512 1509
f 1505 1506 1510
f 1510 1509 1505
f 1507 1508 1512
f 1512 1511 1507
f 1508 1505 1509
f 1509 1512 1508
f 1506 1507 1511
f 1511 1510 1506
f 1561 1564 1563
f 1563 1562 1561
f 1565 1566 1567
f 1567 1568 1565
f 1561 1562 1566
f 1566 1565 1561
f 1563 1564 1568
f 1568 1567 1563
f 1564 1561 1565
f 1565 1568 1564
f 1562 1563 1567
f 1567 1566 1562
f 1569 1572 1571
f 1571 1570 1569
f 1573 1574 1575
f 1575 1576 1573
f 1569 1570 1574
f 1574 1573 1569
f 1571 1572 1576
f 1576 1575 1571
f 1572 1569 1573
f 1573 1576 1572
f 1570 1571 1575
f 1575 1574 1570
f 1625 1628 1627
f 1627 1626 1625
f 1629 1630 1631
f 1631 1632 1629
f 1625 1626 1630
f 1630 1629 1625
f 1627 1628 1632
f 1632 1631 1627
f 1628 1625 1629
f 1629 1632 1628
f 1626 1627 1631
f 1631 1630 1626
f 1633 1636 1635
f 1635 1634 1633
f 1637 1638 1639
f 1639 1640 1637
f 1633 1634 1638
f 1638 1637 1633
f 1635 1636 1640
f 1640 1639 1635
f 1636 1633 1637
f 1637 1640 1636
f 1634 1635 1639
f 1639 1638 1634
f 1689 1692 1691
f 1691 1690 1689
f 1693 1694 1695
f 1695 1696 1693
f 1689 1690 1694
f 1694 1693 1689
f 1691 1692 1696
f 1696 1695 1691
f 1692 1689 1693
f 1693 1696 1692
f 1690 1691 1695
f 1695 1694 1690
f 1697 1700 1699
f 1699 1698 1697
f 1701 1702 1703
f 1703 1704 1701
f 1697 1698 1702
f 1702 1701 1697
f 1699 1700 1704
f 1704 1703 1699
f 1700 1697 1701
f 1701 1704 1700
f 1698 1699 1703
f 1703 1702 1698
f 1753 1756 1755
f 1755 1754 1753
f 1757 1758 1759
f 1759 1760 1757
f 1753 1754 1758
f 1758 1757 1753
f 1755 1756 1760
f 1760 1759 1755
f 1756 1753 1757
f 1757 1760 1756
f 1754 1755 1759
f 1759 1758 1754
f 1761 1764 1763
f 1763 1762 1761
f 1765 1766 1767
f 1767 1768 1765
f 1761 1762 1766
f 1766 1765 1761
f 1763 1764 1768
f 1768 1767 1763
f 1764 1761 1765
f 1765 1768 1764
f 1762 1763 1767
f 1767 1766 1762
f 1817 1820 1819
f 1819 1818 1817
f 1821 1822 1823
f 1823 1824 1821
f 1817 1818 1822
f 1822 1821 1817
f 1819 1820 1824
f 1824 1823 1819
f 1820 1817 1821
f 1821 1824 1820
f 1818 1819 1823
f 1823 1822 1818
f 1825 1828 1827
f 1827 1826 1825
f 1829 1830 1831
f 1831 1832 1829
f 1825 1826 1830
f 1830 1829 1825
f 1827 1828 1832
f 1832 1831 1827
f 1828 1825 1829
f 1829 1832 1828
f 1826 1827 1831
f 1831 1830 1826
f 1905 1908 1907
f 1907 1906 1905
f 1909 1910 1911
f 1911 1912 1909
f 1905 1906 1910
f 1910 1909 1905
f 1907 1908 1912
f 1912 1911 1907
f 1908 1905 1909
f 1909 1912 1908
f 1906 1907 1911
f 1911 1910 1906
f 1913 1916 1915
f 1915 1914 1913
f 1917 1918 1919
f 1919 1920 1917
f 1913 1914 1918
f 1918 1917 1913
f 1915 1916 1920
f 1920 1919 1915
f 1916 1913 1917
f 1917 1920 1916
f 1914 1915 1919
f 1919 1918 1914
f 1933 1936 1935
f 1935 1934 1933
f 1937 1938 1939
f 1939 1940 1937
f 1933 1934 1938
f 1938 1937 1933
f 1935 1936 1940
f 1940 1939 1935
f 1936 1933 1937
f 1937 1940 1936
f 1934 1935 1939
f 1939 1938 1934
f 1941 1944 1943
f 1943 1942 1941
f 1945 1946 1947
f 1947 1948 1945
f 1941 1942 1946
f 1946 1945 1941
f 1943 1944 1948
f 1948 1947 1943
f 1944 1941 1945
f 1945 1948 1944
f 1942 1943 1947
f 1947 1946 1942
f 1973 1976 1975
f 1975 1974 1973
f 1977 1978 1979
f 1979 1980 1977
f 1973 1974 1978
f 1978 1977 1973
f 1975 1976 1980
f 1980 1979 1975
f 1976 1973 1977
f 1977 1980 1976
f 1974 1975 1979
f 1979 1978 1974
f 1981 1984 1983
f 1983 1982 1981
f 1985 1986 1987
f 1987 1988 1985
f 1981 1982 1986
f 1986 1985 1981
f 1983 1984 1988
f 1988 1987 1983
f 1984 1981 1985
f 1985 1988 1984
f 1982 1983 1987
f 1987 1986 1982
f 2001 2004 2003
f 2003 2002 2001
f 2005 2006 2007
f 2007 2008 2005
f 2001 2002 2006
f 2006 2005 2001
f 2003 2004 2008
f 2008 2007 2003
f 2004 2001 2005
f 2005 2008 2004
f 2002 2003 2007
f 2007 2006 2002
f 2009 2012 2011
f 2011 2010 2009
f 2013 2014 2015
f 2015 2016 2013
f 2009 2010 2014
f 2014 2013 2009
f 2011 2012 2016
f 2016 2015 2011
f 2012 2009 2013
f 2013 2016 2012
f 2010 2011 2015
f 2015 2014 2010
f 2053 2056 2055
f 2055 2054 2053
f 2057 2058 2059
f 2059 2060 2057
f 2053 2054 2058
f 2058 2057 2053
f 2055 2056 2060
f 2060 2059 2055
f 2056 2053 2057
f 2057 2060 2056
f 2054 2055 2059
f 2059 2058 2054
f 2061 2064 2063
f 2063 2062 2061
f 2065 2066 2067
f 2067 2068 2065
f 2061 2062 2066
f 2066 2065 2061
f 2063 2064 2068
f 2068 2067 2063
f 2064 2061 2065
f 2065 2068 2064
f 2062 2063 2067
f 2067 2066 2062
f 2081 2084 2083
f 2083 2082 2081
f 2085 2086 2087
f 2087 2088 2085
f 2081 2082 2086
f 2086 2085 2081
f 2083 2084 2088
f 2088 2087 2083
f 2084 2081 2085
f 2085 2088 2084
f 2082 2083 2087
f 2087 2086 2082
f 2089 2092 2091
f 2091 2090 2089
f 2093 2094 2095
f 2095 2096 2093
f 2089 2090 2094
f 2094 2093 2089
f 2091 2092 2096
f 2096 2095 2091
f 2092 2089 2093
f 2093 2096 2092
f 2090 2091 2095
f 2095 2094 2090
f 2109 2112 2111
f 2111 2110 2109
f 2113 2114 2115
f 2115 2116 2113
f 2109 2110 2114
f 2114 2113 2109
f 2111 2112 2116
f 2116 2115 2111
f 2112 2109 2113
f 2113 2116 2112
f 2110 2111 2115
f 2115 2114 2110
f 2117 2120 2119
f 2119 2118 2117
f 2121 2122 2123
f 2123 2124 2121
f 2117 2118 2122
f 2122 2121 2117
f 2119 2120 2124
f 2124 2123 2119
f 2120 2117 2121
f 2121 2124 2120
f 2118 2119 2123
f 2123 2122 2118
f 2137 2140 2139
f 2139 2138 2137
f 2141 2142 2143
f 2143 2144 2141
f 2137 2138 2142
f 2142 2141 2137
f 2139 2140 2144
f 2144 2143 2139
f 2140 2137 2141
f 2141 2144 2140
f 2138 2139 2143
f 2143 2142 2138
f 2145 2148 2147
f 2147 2146 2145
f 2149 2150 2151
f 2151 2152 2149
f 2145 2146 2150
f 2150 2149 2145
f 2147 2148 2152
f 2152 2151 2147
f 2148 2145 2149
f 2149 2152 2148
f 2146 2147 2151
f 2151 2150 2146
f 2165 2168 2167
f 2167 2166 2165
f 2169 2170 2171
f 2171 2172 2169
f 2165 2166 2170
f 2170 2169 2165
f 2167 2168 2172
f 2172 2171 2167
f 2168 2165 2169
f 2169 2172 2168
f 2166 2167 2171
f 2171 2170 2166
f 2173 2176 2175
f 2175 2174 2173
f 2177 2178 2179
f 2179 2180 2177
f 2173 2174 2178
f 2178 2177 2173
f 2175 2176 2180
f 2180 2179 2175
f 2176 2173 2177
f 2177 2180 2176
f 2174 2175 2179
f 2179 2178 2174
