# Terrain mesh for tecate_core_z14_x2882_y6621
v -5510.837 0.000 -2252.234
v -5357.963 0.000 -2252.234
v -5205.088 0.000 -2252.234
v -5052.214 0.000 -2252.234
v -4899.340 -90.514 -2252.234
v -4746.466 -99.420 -2252.234
v -4593.592 -100.342 -2252.234
v -4440.718 -92.460 -2252.234
v -4287.844 -91.687 -2252.234
v -4134.970 -85.925 -2252.234
v -3982.096 -74.869 -2252.234
v -3829.222 -75.957 -2252.234
v -3676.348 -77.384 -2252.234
v -3523.474 -75.237 -2252.234
v -3370.600 -84.469 -2252.234
v -3217.726 -91.789 -2252.234
v -3064.852 -89.659 -2252.234
v -5510.837 0.000 -2405.093
v -5357.963 0.000 -2405.093
v -5205.088 0.000 -2405.093
v -5052.214 0.000 -2405.093
v -4899.340 -87.475 -2405.093
v -4746.466 -100.881 -2405.093
v -4593.592 -101.972 -2405.093
v -4440.718 -89.391 -2405.093
v -4287.844 -92.882 -2405.093
v -4134.970 -87.798 -2405.093
v -3982.096 -71.859 -2405.093
v -3829.222 -76.888 -2405.093
v -3676.348 -79.515 -2405.093
v -3523.474 -72.412 -2405.093
v -3370.600 -85.247 -2405.093
v -3217.726 -94.392 -2405.093
v -3064.852 -87.439 -2405.093
v -5510.837 0.000 -2557.954
v -5357.963 0.000 -2557.954
v -5205.088 0.000 -2557.954
v -5052.214 0.000 -2557.954
v -4899.340 -99.286 -2557.954
v -4746.466 -95.204 -2557.954
v -4593.592 -95.636 -2557.954
v -4440.718 -101.321 -2557.954
v -4287.844 -88.248 -2557.954
v -4134.970 -80.538 -2557.954
v -3982.096 -83.601 -2557.954
v -3829.222 -73.364 -2557.954
v -3676.348 -71.430 -2557.954
v -3523.474 -83.792 -2557.954
v -3370.600 -83.013 -2557.954
v -3217.726 -85.767 -2557.954
v -3064.852 -98.773 -2557.954
v -5510.837 0.000 -2710.818
v -5357.963 0.000 -2710.818
v -5205.088 0.000 -2710.818
v -5052.214 0.000 -2710.818
v -4899.340 -98.384 -2710.818
v -4746.466 -95.637 -2710.818
v -4593.592 -96.120 -2710.818
v -4440.718 -100.411 -2710.818
v -4287.844 -88.603 -2710.818
v -4134.970 -81.096 -2710.818
v -3982.096 -82.714 -2710.818
v -3829.222 -73.652 -2710.818
v -3676.348 -72.087 -2710.818
v -3523.474 -83.005 -2710.818
v -3370.600 -83.344 -2710.818
v -3217.726 -86.729 -2710.818
v -3064.852 -98.460 -2710.818
v -5510.837 0.000 -2863.683
v -5357.963 0.000 -2863.683
v -5205.088 0.000 -2863.683
v -5052.214 0.000 -2863.683
v -4899.340 -86.972 -2863.683
v -4746.466 -101.123 -2863.683
v -4593.592 -102.243 -2863.683
v -4440.718 -88.885 -2863.683
v -4287.844 -93.083 -2863.683
v -4134.970 -88.117 -2863.683
v -3982.096 -71.383 -2863.683
v -3829.222 -77.090 -2863.683
v -3676.348 -79.971 -2863.683
v -3523.474 -72.156 -2863.683
v -3370.600 -85.789 -2863.683
v -3217.726 -95.605 -2863.683
v -3064.852 -88.493 -2863.683
v -5510.837 0.000 -3016.550
v -5357.963 0.000 -3016.550
v -5205.088 0.000 -3016.550
v -5052.214 0.000 -3016.550
v -4899.340 -91.555 -3016.550
v -4746.466 -98.920 -3016.550
v -4593.592 -99.784 -3016.550
v -4440.718 -93.514 -3016.550
v -4287.844 -91.286 -3016.550
v -4134.970 -85.302 -3016.550
v -3982.096 -75.942 -3016.550
v -3829.222 -75.730 -3016.550
v -3676.348 -76.847 -3016.550
v -3523.474 -76.598 -3016.550
v -3370.600 -84.975 -3016.550
v -3217.726 -92.359 -3016.550
v -3064.852 -93.073 -3016.550
v -5510.837 0.000 -3169.419
v -5357.963 0.000 -3169.419
v -5205.088 0.000 -3169.419
v -5052.214 0.000 -3169.419
v -4899.340 -101.592 -3169.419
v -4746.466 -94.095 -3169.419
v -4593.592 -94.399 -3169.419
v -4440.718 -103.652 -3169.419
v -4287.844 -87.347 -3169.419
v -4134.970 -79.131 -3169.419
v -3982.096 -85.919 -3169.419
v -3829.222 -72.730 -3169.419
v -3676.348 -69.967 -3169.419
v -3523.474 -86.249 -3169.419
v -3370.600 -83.037 -3169.419
v -3217.726 -84.954 -3169.419
v -3064.852 -102.568 -3169.419
v -5510.837 0.000 -3322.290
v -5357.963 0.000 -3322.290
v -5205.088 0.000 -3322.290
v -5052.214 0.000 -3322.290
v -4899.340 -93.629 -3322.290
v -4746.466 -97.924 -3322.290
v -4593.592 -98.672 -3322.290
v -4440.718 -95.609 -3322.290
v -4287.844 -90.474 -3322.290
v -4134.970 -84.030 -3322.290
v -3982.096 -78.011 -3322.290
v -3829.222 -75.128 -3322.290
v -3676.348 -75.464 -3322.290
v -3523.474 -78.669 -3322.290
v -3370.600 -84.726 -3322.290
v -3217.726 -91.116 -3322.290
v -3064.852 -95.555 -3322.290
v -5510.837 0.000 -3475.163
v -5357.963 0.000 -3475.163
v -5205.088 0.000 -3475.163
v -5052.214 0.000 -3475.163
v -4899.340 -86.303 -3475.163
v -4746.466 -101.446 -3475.163
v -4593.592 -102.603 -3475.163
v -4440.718 -88.210 -3475.163
v -4287.844 -93.349 -3475.163
v -4134.970 -88.537 -3475.163
v -3982.096 -70.736 -3475.163
v -3829.222 -77.332 -3475.163
v -3676.348 -80.518 -3475.163
v -3523.474 -71.691 -3475.163
v -3370.600 -86.269 -3475.163
v -3217.726 -96.763 -3475.163
v -3064.852 -89.065 -3475.163
v -5510.837 0.000 -3628.038
v -5357.963 0.000 -3628.038
v -5205.088 0.000 -3628.038
v -5052.214 0.000 -3628.038
v -4899.340 -96.554 -3628.038
v -4746.466 -96.517 -3628.038
v -4593.592 -97.102 -3628.038
v -4440.718 -98.564 -3628.038
v -4287.844 -89.326 -3628.038
v -4134.970 -82.233 -3628.038
v -3982.096 -80.923 -3628.038
v -3829.222 -74.263 -3628.038
v -3676.348 -73.477 -3628.038
v -3523.474 -81.521 -3628.038
v -3370.600 -84.237 -3628.038
v -3217.726 -89.099 -3628.038
v -3064.852 -98.581 -3628.038
v -5510.837 0.000 -3780.915
v -5357.963 0.000 -3780.915
v -5205.088 0.000 -3780.915
v -5052.214 0.000 -3780.915
v -4899.340 -100.618 -3780.915
v -4746.466 -94.564 -3780.915
v -4593.592 -94.922 -3780.915
v -4440.718 -102.669 -3780.915
v -4287.844 -87.732 -3780.915
v -4134.970 -79.735 -3780.915
v -3982.096 -84.963 -3780.915
v -3829.222 -73.047 -3780.915
v -3676.348 -70.689 -3780.915
v -3523.474 -85.425 -3780.915
v -3370.600 -83.445 -3780.915
v -3217.726 -86.088 -3780.915
v -3064.852 -102.403 -3780.915
v -5510.837 0.000 -3933.794
v -5357.963 0.000 -3933.794
v -5205.088 0.000 -3933.794
v -5052.214 0.000 -3933.794
v -4899.340 -88.933 -3933.794
v -4746.466 -100.181 -3933.794
v -4593.592 -101.191 -3933.794
v -4440.718 -90.868 -3933.794
v -4287.844 -92.318 -3933.794
v -4134.970 -86.922 -3933.794
v -3982.096 -73.355 -3933.794
v -3829.222 -76.555 -3933.794
v -3676.348 -78.733 -3933.794
v -3523.474 -74.257 -3933.794
v -3370.600 -85.835 -3933.794
v -3217.726 -94.961 -3933.794
v -3064.852 -91.805 -3933.794
v -5510.837 0.000 -4086.675
v -5357.963 0.000 -4086.675
v -5205.088 0.000 -4086.675
v -5052.214 0.000 -4086.675
v -4899.340 -88.780 -4086.675
v -4746.466 -100.255 -4086.675
v -4593.592 -101.274 -4086.675
v -4440.718 -90.713 -4086.675
v -4287.844 -92.378 -4086.675
v -4134.970 -87.016 -4086.675
v -3982.096 -73.203 -4086.675
v -3829.222 -76.602 -4086.675
v -3676.348 -78.842 -4086.675
v -3523.474 -74.118 -4086.675
v -3370.600 -85.881 -4086.675
v -3217.726 -95.106 -4086.675
v -3064.852 -91.717 -4086.675
v -5510.837 0.000 -4239.558
v -5357.963 0.000 -4239.558
v -5205.088 0.000 -4239.558
v -5052.214 0.000 -4239.558
v -4899.340 -100.393 -4239.558
v -4746.466 -94.672 -4239.558
v -4593.592 -95.043 -4239.558
v -4440.718 -102.442 -4239.558
v -4287.844 -87.821 -4239.558
v -4134.970 -79.874 -4239.558
v -3982.096 -84.741 -4239.558
v -3829.222 -73.121 -4239.558
v -3676.348 -70.856 -4239.558
v -3523.474 -85.234 -4239.558
v -3370.600 -83.538 -4239.558
v -3217.726 -86.348 -4239.558
v -3064.852 -102.360 -4239.558
v -5510.837 0.000 -4392.443
v -5357.963 0.000 -4392.443
v -5205.088 0.000 -4392.443
v -5052.214 0.000 -4392.443
v -4899.340 -96.787 -4392.443
v -4746.466 -96.406 -4392.443
v -4593.592 -96.978 -4392.443
v -4440.718 -98.799 -4392.443
v -4287.844 -89.236 -4392.443
v -4134.970 -82.092 -4392.443
v -3982.096 -81.159 -4392.443
v -3829.222 -74.203 -4392.443
v -3676.348 -73.339 -4392.443
v -3523.474 -81.787 -4392.443
v -3370.600 -84.275 -4392.443
v -3217.726 -89.086 -4392.443
v -3064.852 -99.088 -4392.443
v -5510.837 0.000 -4545.330
v -5357.963 0.000 -4545.330
v -5205.088 0.000 -4545.330
v -5052.214 0.000 -4545.330
v -4899.340 -86.260 -4545.330
v -4746.466 -101.466 -4545.330
v -4593.592 -102.626 -4545.330
v -4440.718 -88.168 -4545.330
v -4287.844 -93.367 -4545.330
v -4134.970 -88.566 -4545.330
v -3982.096 -70.701 -4545.330
v -3829.222 -77.360 -4545.330
v -3676.348 -80.581 -4545.330
v -3523.474 -71.718 -4545.330
v -3370.600 -86.412 -4545.330
v -3217.726 -97.048 -4545.330
v -3064.852 -89.486 -4545.330
v -5510.837 0.000 -4698.219
v -5357.963 0.000 -4698.219
v -5205.088 0.000 -4698.219
v -5052.214 0.000 -4698.219
v -4899.340 -93.378 -4698.219
v -4746.466 -98.045 -4698.219
v -4593.592 -98.807 -4698.219
v -4440.718 -95.356 -4698.219
v -4287.844 -90.574 -4698.219
v -4134.970 -84.189 -4698.219
v -3982.096 -77.772 -4698.219
v -3829.222 -75.226 -4698.219
v -3676.348 -75.685 -4698.219
v -3523.474 -78.528 -4698.219
v -3370.600 -84.972 -4698.219
v -3217.726 -91.674 -4698.219
v -3064.852 -95.995 -4698.219
f 1 2 19
f 19 18 1
f 2 3 20
f 20 19 2
f 3 4 21
f 21 20 3
f 4 5 22
f 22 21 4
f 5 6 23
f 23 22 5
f 6 7 24
f 24 23 6
f 7 8 25
f 25 24 7
f 8 9 26
f 26 25 8
f 9 10 27
f 27 26 9
f 10 11 28
f 28 27 10
f 11 12 29
f 29 28 11
f 12 13 30
f 30 29 12
f 13 14 31
f 31 30 13
f 14 15 32
f 32 31 14
f 15 16 33
f 33 32 15
f 16 17 34
f 34 33 16
f 18 19 36
f 36 35 18
f 19 20 37
f 37 36 19
f 20 21 38
f 38 37 20
f 21 22 39
f 39 38 21
f 22 23 40
f 40 39 22
f 23 24 41
f 41 40 23
f 24 25 42
f 42 41 24
f 25 26 43
f 43 42 25
f 26 27 44
f 44 43 26
f 27 28 45
f 45 44 27
f 28 29 46
f 46 45 28
f 29 30 47
f 47 46 29
f 30 31 48
f 48 47 30
f 31 32 49
f 49 48 31
f 32 33 50
f 50 49 32
f 33 34 51
f 51 50 33
f 35 36 53
f 53 52 35
f 36 37 54
f 54 53 36
f 37 38 55
f 55 54 37
f 38 39 56
f 56 55 38
f 39 40 57
f 57 56 39
f 40 41 58
f 58 57 40
f 41 42 59
f 59 58 41
f 42 43 60
f 60 59 42
f 43 44 61
f 61 60 43
f 44 45 62
f 62 61 44
f 45 46 63
f 63 62 45
f 46 47 64
f 64 63 46
f 47 48 65
f 65 64 47
f 48 49 66
f 66 65 48
f 49 50 67
f 67 66 49
f 50 51 68
f 68 67 50
f 52 53 70
f 70 69 52
f 53 54 71
f 71 70 53
f 54 55 72
f 72 71 54
f 55 56 73
f 73 72 55
f 56 57 74
f 74 73 56
f 57 58 75
f 75 74 57
f 58 59 76
f 76 75 58
f 59 60 77
f 77 76 59
f 60 61 78
f 78 77 60
f 61 62 79
f 79 78 61
f 62 63 80
f 80 79 62
f 63 64 81
f 81 80 63
f 64 65 82
f 82 81 64
f 65 66 83
f 83 82 65
f 66 67 84
f 84 83 66
f 67 68 85
f 85 84 67
f 69 70 87
f 87 86 69
f 70 71 88
f 88 87 70
f 71 72 89
f 89 88 71
f 72 73 90
f 90 89 72
f 73 74 91
f 91 90 73
f 74 75 92
f 92 91 74
f 75 76 93
f 93 92 75
f 76 77 94
f 94 93 76
f 77 78 95
f 95 94 77
f 78 79 96
f 96 95 78
f 79 80 97
f 97 96 79
f 80 81 98
f 98 97 80
f 81 82 99
f 99 98 81
f 82 83 100
f 100 99 82
f 83 84 101
f 101 100 83
f 84 85 102
f 102 101 84
f 86 87 104
f 104 103 86
f 87 88 105
f 105 104 87
f 88 89 106
f 106 105 88
f 89 90 107
f 107 106 89
f 90 91 108
f 108 107 90
f 91 92 109
f 109 108 91
f 92 93 110
f 110 109 92
f 93 94 111
f 111 110 93
f 94 95 112
f 112 111 94
f 95 96 113
f 113 112 95
f 96 97 114
f 114 113 96
f 97 98 115
f 115 114 97
f 98 99 116
f 116 115 98
f 99 100 117
f 117 116 99
f 100 101 118
f 118 117 100
f 101 102 119
f 119 118 101
f 103 104 121
f 121 120 103
f 104 105 122
f 122 121 104
f 105 106 123
f 123 122 105
f 106 107 124
f 124 123 106
f 107 108 125
f 125 124 107
f 108 109 126
f 126 125 108
f 109 110 127
f 127 126 109
f 110 111 128
f 128 127 110
f 111 112 129
f 129 128 111
f 112 113 130
f 130 129 112
f 113 114 131
f 131 130 113
f 114 115 132
f 132 131 114
f 115 116 133
f 133 132 115
f 116 117 134
f 134 133 116
f 117 118 135
f 135 134 117
f 118 119 136
f 136 135 118
f 120 121 138
f 138 137 120
f 121 122 139
f 139 138 121
f 122 123 140
f 140 139 122
f 123 124 141
f 141 140 123
f 124 125 142
f 142 141 124
f 125 126 143
f 143 142 125
f 126 127 144
f 144 143 126
f 127 128 145
f 145 144 127
f 128 129 146
f 146 145 128
f 129 130 147
f 147 146 129
f 130 131 148
f 148 147 130
f 131 132 149
f 149 148 131
f 132 133 150
f 150 149 132
f 133 134 151
f 151 150 133
f 134 135 152
f 152 151 134
f 135 136 153
f 153 152 135
f 137 138 155
f 155 154 137
f 138 139 156
f 156 155 138
f 139 140 157
f 157 156 139
f 140 141 158
f 158 157 140
f 141 142 159
f 159 158 141
f 142 143 160
f 160 159 142
f 143 144 161
f 161 160 143
f 144 145 162
f 162 161 144
f 145 146 163
f 163 162 145
f 146 147 164
f 164 163 146
f 147 148 165
f 165 164 147
f 148 149 166
f 166 165 148
f 149 150 167
f 167 166 149
f 150 151 168
f 168 167 150
f 151 152 169
f 169 168 151
f 152 153 170
f 170 169 152
f 154 155 172
f 172 171 154
f 155 156 173
f 173 172 155
f 156 157 174
f 174 173 156
f 157 158 175
f 175 174 157
f 158 159 176
f 176 175 158
f 159 160 177
f 177 176 159
f 160 161 178
f 178 177 160
f 161 162 179
f 179 178 161
f 162 163 180
f 180 179 162
f 163 164 181
f 181 180 163
f 164 165 182
f 182 181 164
f 165 166 183
f 183 182 165
f 166 167 184
f 184 183 166
f 167 168 185
f 185 184 167
f 168 169 186
f 186 185 168
f 169 170 187
f 187 186 169
f 171 172 189
f 189 188 171
f 172 173 190
f 190 189 172
f 173 174 191
f 191 190 173
f 174 175 192
f 192 191 174
f 175 176 193
f 193 192 175
f 176 177 194
f 194 193 176
f 177 178 195
f 195 194 177
f 178 179 196
f 196 195 178
f 179 180 197
f 197 196 179
f 180 181 198
f 198 197 180
f 181 182 199
f 199 198 181
f 182 183 200
f 200 199 182
f 183 184 201
f 201 200 183
f 184 185 202
f 202 201 184
f 185 186 203
f 203 202 185
f 186 187 204
f 204 203 186
f 188 189 206
f 206 205 188
f 189 190 207
f 207 206 189
f 190 191 208
f 208 207 190
f 191 192 209
f 209 208 191
f 192 193 210
f 210 209 192
f 193 194 211
f 211 210 193
f 194 195 212
f 212 211 194
f 195 196 213
f 213 212 195
f 196 197 214
f 214 213 196
f 197 198 215
f 215 214 197
f 198 199 216
f 216 215 198
f 199 200 217
f 217 216 199
f 200 201 218
f 218 217 200
f 201 202 219
f 219 218 201
f 202 203 220
f 220 219 202
f 203 204 221
f 221 220 203
f 205 206 223
f 223 222 205
f 206 207 224
f 224 223 206
f 207 208 225
f 225 224 207
f 208 209 226
f 226 225 208
f 209 210 227
f 227 226 209
f 210 211 228
f 228 227 210
f 211 212 229
f 229 228 211
f 212 213 230
f 230 229 212
f 213 214 231
f 231 230 213
f 214 215 232
f 232 231 214
f 215 216 233
f 233 232 215
f 216 217 234
f 234 233 216
f 217 218 235
f 235 234 217
f 218 219 236
f 236 235 218
f 219 220 237
f 237 236 219
f 220 221 238
f 238 237 220
f 222 223 240
f 240 239 222
f 223 224 241
f 241 240 223
f 224 225 242
f 242 241 224
f 225 226 243
f 243 242 225
f 226 227 244
f 244 243 226
f 227 228 245
f 245 244 227
f 228 229 246
f 246 245 228
f 229 230 247
f 247 246 229
f 230 231 248
f 248 247 230
f 231 232 249
f 249 248 231
f 232 233 250
f 250 249 232
f 233 234 251
f 251 250 233
f 234 235 252
f 252 251 234
f 235 236 253
f 253 252 235
f 236 237 254
f 254 253 236
f 237 238 255
f 255 254 237
f 239 240 257
f 257 256 239
f 240 241 258
f 258 257 240
f 241 242 259
f 259 258 241
f 242 243 260
f 260 259 242
f 243 244 261
f 261 260 243
f 244 245 262
f 262 261 244
f 245 246 263
f 263 262 245
f 246 247 264
f 264 263 246
f 247 248 265
f 265 264 247
f 248 249 266
f 266 265 248
f 249 250 267
f 267 266 249
f 250 251 268
f 268 267 250
f 251 252 269
f 269 268 251
f 252 253 270
f 270 269 252
f 253 254 271
f 271 270 253
f 254 255 272
f 272 271 254
f 256 257 274
f 274 273 256
f 257 258 275
f 275 274 257
f 258 259 276
f 276 275 258
f 259 260 277
f 277 276 259
f 260 261 278
f 278 277 260
f 261 262 279
f 279 278 261
f 262 263 280
f 280 279 262
f 263 264 281
f 281 280 263
f 264 265 282
f 282 281 264
f 265 266 283
f 283 282 265
f 266 267 284
f 284 283 266
f 267 268 285
f 285 284 267
f 268 269 286
f 286 285 268
f 269 270 287
f 287 286 269
f 270 271 288
f 288 287 270
f 271 272 289
f 289 288 271
