# Roads mesh for tecate_core_z14_x2884_y6620
v 188.802 0.050 -5402.056
v 181.514 0.050 -5405.354
v 170.849 0.050 -5381.792
v 178.137 0.050 -5378.493
f 1 2 3
f 3 4 1
v 177.730 0.050 -5377.792
v 171.257 0.050 -5382.493
v 160.125 0.050 -5367.164
v 166.598 0.050 -5362.463
f 5 6 7
f 7 8 5
v 166.407 0.050 -5362.220
v 160.316 0.050 -5367.407
v 150.041 0.050 -5355.342
v 156.132 0.050 -5350.155
f 9 10 11
f 11 12 9
v 156.169 0.050 -5350.199
v 150.004 0.050 -5355.298
v 139.730 0.050 -5342.876
v 145.894 0.050 -5337.777
f 13 14 15
f 15 16 13
v 145.610 0.050 -5337.468
v 140.014 0.050 -5343.185
v 119.464 0.050 -5323.072
v 125.060 0.050 -5317.355
f 17 18 19
f 19 20 17
v 125.060 0.050 -5317.354
v 119.465 0.050 -5323.073
v 99.772 0.050 -5303.806
v 105.367 0.050 -5298.087
f 21 22 23
f 23 24 21
v 105.342 0.050 -5298.063
v 99.797 0.050 -5303.830
v 66.401 0.050 -5271.718
v 71.946 0.050 -5265.951
f 25 26 27
f 27 28 25
v 71.863 0.050 -5265.874
v 66.485 0.050 -5271.796
v 29.237 0.050 -5237.966
v 34.616 0.050 -5232.044
f 29 30 31
f 31 32 29
v 34.677 0.050 -5232.101
v 29.176 0.050 -5237.909
v 9.394 0.050 -5219.170
v 14.896 0.050 -5213.363
f 33 34 35
f 35 36 33
v 14.897 0.050 -5213.363
v 9.393 0.050 -5219.170
v -3.364 0.050 -5207.078
v 2.139 0.050 -5201.272
f 37 38 39
f 39 40 37
v 2.411 0.050 -5201.555
v -3.635 0.050 -5206.795
v -14.767 0.050 -5193.950
v -8.721 0.050 -5188.711
f 41 42 43
f 43 44 41
v -8.679 0.050 -5188.760
v -14.809 0.050 -5193.901
v -19.918 0.050 -5187.809
v -13.789 0.050 -5182.668
f 45 46 47
f 47 48 45
v -13.786 0.050 -5182.671
v -19.921 0.050 -5187.806
v -30.229 0.050 -5175.490
v -24.095 0.050 -5170.355
f 49 50 51
f 51 52 49
v -23.907 0.050 -5170.598
v -30.417 0.050 -5175.247
v -43.263 0.050 -5157.262
v -36.753 0.050 -5152.612
f 53 54 55
f 55 56 53
v -37.180 0.050 -5152.109
v -42.836 0.050 -5157.766
v -55.248 0.050 -5145.358
v -49.592 0.050 -5139.700
f 57 58 59
f 59 60 57
v -49.249 0.050 -5140.092
v -55.592 0.050 -5144.966
v -64.153 0.050 -5133.826
v -57.809 0.050 -5128.952
f 61 62 63
f 63 64 61
v -57.367 0.050 -5129.675
v -64.595 0.050 -5133.103
v -72.309 0.050 -5116.836
v -65.081 0.050 -5113.408
f 65 66 67
f 67 68 65
v -64.850 0.050 -5114.021
v -72.541 0.050 -5116.222
v -75.112 0.050 -5107.236
v -67.421 0.050 -5105.035
f 69 70 71
f 71 72 69
v -67.784 0.050 -5104.169
v -74.750 0.050 -5108.103
v -80.316 0.050 -5098.245
v -73.350 0.050 -5094.311
f 73 74 75
f 75 76 73
v -73.719 0.050 -5093.767
v -79.947 0.050 -5098.789
v -90.644 0.050 -5085.521
v -84.417 0.050 -5080.500
f 77 78 79
f 79 80 77
v -84.894 0.050 -5080.002
v -90.167 0.050 -5086.019
v -97.013 0.050 -5080.020
v -91.740 0.050 -5074.003
f 81 82 83
f 83 84 81
v -92.086 0.050 -5073.732
v -96.667 0.050 -5080.291
v -105.239 0.050 -5074.304
v -100.658 0.050 -5067.746
f 85 86 87
f 87 88 85
v -101.096 0.050 -5067.480
v -104.800 0.050 -5074.570
v -114.641 0.050 -5069.430
v -110.937 0.050 -5062.339
f 89 90 91
f 91 92 89
v -110.034 0.050 -5062.984
v -115.543 0.050 -5068.785
v -124.115 0.050 -5060.645
v -118.606 0.050 -5054.844
f 93 94 95
f 95 96 93
v -118.032 0.050 -5055.525
v -124.689 0.050 -5059.963
v -131.535 0.050 -5049.696
v -124.879 0.050 -5045.258
f 97 98 99
f 99 100 97
v -124.853 0.050 -5045.297
v -131.560 0.050 -5049.657
v -137.126 0.050 -5041.094
v -130.419 0.050 -5036.734
f 101 102 103
f 103 104 101
v -130.676 0.050 -5036.382
v -136.869 0.050 -5041.446
v -144.573 0.050 -5032.024
v -138.379 0.050 -5026.960
f 105 106 107
f 107 108 105
v -138.340 0.050 -5027.009
v -144.612 0.050 -5031.974
v -152.750 0.050 -5021.694
v -146.477 0.050 -5016.729
f 109 110 111
f 111 112 109
v -146.108 0.050 -5017.284
v -153.118 0.050 -5021.138
v -157.827 0.050 -5012.575
v -150.817 0.050 -5008.721
f 113 114 115
f 115 116 113
v -150.363 0.050 -5010.079
v -158.282 0.050 -5011.217
v -159.573 0.050 -5002.231
v -151.654 0.050 -5001.093
f 117 118 119
f 119 120 117
v -151.651 0.050 -5002.205
v -159.576 0.050 -5001.119
v -158.285 0.050 -4991.697
v -150.359 0.050 -4992.784
f 121 122 123
f 123 124 121
v -150.558 0.050 -4993.595
v -158.086 0.050 -4990.886
v -154.234 0.050 -4980.182
v -146.707 0.050 -4982.891
f 125 126 127
f 127 128 125
v -147.374 0.050 -4984.069
v -153.567 0.050 -4979.005
v -145.864 0.050 -4969.583
v -139.671 0.050 -4974.647
f 129 130 131
f 131 132 129
v -141.260 0.050 -4975.820
v -144.274 0.050 -4968.410
v -132.708 0.050 -4963.705
v -129.694 0.050 -4971.116
f 133 134 135
f 135 136 133
v -130.778 0.050 -4971.388
v -131.624 0.050 -4963.433
v -111.498 0.050 -4961.292
v -110.652 0.050 -4969.247
f 137 138 139
f 139 140 137
v -110.869 0.050 -4969.264
v -111.280 0.050 -4961.275
v -94.582 0.050 -4960.416
v -94.171 0.050 -4968.406
f 141 142 143
f 143 144 141
v -94.528 0.050 -4968.408
v -94.225 0.050 -4960.414
v -71.538 0.050 -4961.273
v -71.841 0.050 -4969.267
f 145 146 147
f 147 148 145
v -71.967 0.050 -4969.260
v -71.413 0.050 -4961.279
v -40.588 0.050 -4963.420
v -41.143 0.050 -4971.401
f 149 150 151
f 151 152 149
v -41.150 0.050 -4971.400
v -40.580 0.050 -4963.421
v -10.602 0.050 -4965.561
v -11.172 0.050 -4973.541
f 153 154 155
f 155 156 153
v -11.554 0.050 -4973.495
v -10.220 0.050 -4965.607
v 17.610 0.050 -4970.312
v 16.276 0.050 -4978.200
f 157 158 159
f 159 160 157
v 16.209 0.050 -4978.188
v 17.677 0.050 -4970.324
v 36.078 0.050 -4973.759
v 34.610 0.050 -4981.623
f 161 162 163
f 163 164 161
v 34.197 0.050 -4981.523
v 36.491 0.050 -4973.859
v 49.337 0.050 -4977.705
v 47.043 0.050 -4985.369
f 165 166 167
f 167 168 165
v 47.219 0.050 -4985.417
v 49.161 0.050 -4977.656
v 64.579 0.050 -4981.515
v 62.637 0.050 -4989.276
f 169 170 171
f 171 172 169
v 63.443 0.050 -4989.392
v 63.772 0.050 -4981.399
v 74.047 0.050 -4981.822
v 73.718 0.050 -4989.815
f 173 174 175
f 175 176 173
v 73.786 0.050 -4989.817
v 73.980 0.050 -4981.819
v 91.958 0.050 -4982.255
v 91.764 0.050 -4990.253
f 177 178 179
f 179 180 177
v 91.861 0.050 -4990.254
v 91.861 0.050 -4982.254
v 136.389 0.050 -4982.254
v 136.389 0.050 -4990.254
f 181 182 183
f 183 184 181
v 136.389 0.050 -4990.254
v 136.389 0.050 -4982.254
v 168.927 0.050 -4982.254
v 168.927 0.050 -4990.254
f 185 186 187
f 187 188 185
v 168.996 0.050 -4990.254
v 168.858 0.050 -4982.255
v 194.128 0.050 -4981.819
v 194.266 0.050 -4989.818
f 189 190 191
f 191 192 189
v 194.343 0.050 -4989.815
v 194.051 0.050 -4981.821
v 205.606 0.050 -4981.398
v 205.898 0.050 -4989.393
f 193 194 195
f 195 196 193
v 206.487 0.050 -4989.327
v 205.017 0.050 -4981.463
v 211.874 0.050 -4980.182
v 213.344 0.050 -4988.045
f 197 198 199
f 199 200 197
v 213.906 0.050 -4987.897
v 211.312 0.050 -4980.330
v 227.576 0.050 -4974.753
v 230.170 0.050 -4982.321
f 201 202 203
f 203 204 201
v 230.593 0.050 -4982.148
v 227.153 0.050 -4974.926
v 245.131 0.050 -4966.363
v 248.571 0.050 -4973.585
f 205 206 207
f 207 208 205
v 248.351 0.050 -4973.682
v 245.351 0.050 -4966.266
v 281.318 0.050 -4951.717
v 284.318 0.050 -4959.133
f 209 210 211
f 211 212 209
v 284.326 0.050 -4959.130
v 281.311 0.050 -4951.720
v 318.135 0.050 -4936.735
v 321.150 0.050 -4944.145
f 213 214 215
f 215 216 213
v 321.068 0.050 -4944.177
v 318.217 0.050 -4936.703
v 336.195 0.050 -4929.844
v 339.047 0.050 -4937.319
f 217 218 219
f 219 220 217
v 338.276 0.050 -4937.528
v 336.965 0.050 -4929.636
v 341.340 0.050 -4928.909
v 342.651 0.050 -4936.801
f 221 222 223
f 223 224 221
v 342.650 0.050 -4936.801
v 341.342 0.050 -4928.909
v 347.242 0.050 -4927.931
v 348.550 0.050 -4935.823
f 225 226 227
f 227 228 225
v 348.197 0.050 -4935.866
v 347.594 0.050 -4927.888
v 364.726 0.050 -4926.593
v 365.329 0.050 -4934.571
f 229 230 231
f 231 232 229
v 365.809 0.050 -4934.505
v 364.247 0.050 -4926.659
v 372.807 0.050 -4924.954
v 374.369 0.050 -4932.800
f 233 234 235
f 235 236 233
v 373.588 0.050 -4932.877
v 373.588 0.050 -4924.877
v 385.577 0.050 -4924.877
v 385.577 0.050 -4932.877
f 237 238 239
f 239 240 237
v 385.577 0.050 -4932.877
v 385.577 0.050 -4924.877
v 391.577 0.050 -4924.877
v 391.577 0.050 -4932.877
f 241 242 243
f 243 244 241
v 391.890 0.050 -4932.865
v 391.265 0.050 -4924.890
v 396.831 0.050 -4924.454
v 397.456 0.050 -4932.429
f 245 246 247
f 247 248 245
v 398.696 0.050 -4932.128
v 395.591 0.050 -4924.755
v 403.717 0.050 -4921.332
v 406.822 0.050 -4928.705
f 249 250 251
f 251 252 249
v 408.502 0.050 -4927.375
v 402.037 0.050 -4922.663
v 405.466 0.050 -4917.959
v 411.931 0.050 -4922.670
f 253 254 255
f 255 256 253
v 412.466 0.050 -4921.657
v 404.930 0.050 -4918.972
v 407.068 0.050 -4912.973
v 414.604 0.050 -4915.658
f 257 258 259
f 259 260 257
v 414.799 0.050 -4914.858
v 406.873 0.050 -4913.772
v 408.164 0.050 -4904.350
v 416.090 0.050 -4905.437
f 261 262 263
f 263 264 261
v 416.041 0.050 -4905.719
v 408.213 0.050 -4904.068
v 409.927 0.050 -4895.941
v 417.755 0.050 -4897.592
f 265 266 267
f 267 268 265
v 417.704 0.050 -4897.805
v 409.978 0.050 -4895.728
v 412.973 0.050 -4884.589
v 420.699 0.050 -4886.665
f 269 270 271
f 271 272 269
v 420.532 0.050 -4887.156
v 413.139 0.050 -4884.098
v 418.271 0.050 -4871.690
v 425.664 0.050 -4874.747
f 273 274 275
f 275 276 273
v 425.448 0.050 -4875.191
v 418.488 0.050 -4871.246
v 425.768 0.050 -4858.402
v 432.728 0.050 -4862.347
f 277 278 279
f 279 280 277
v 432.303 0.050 -4862.957
v 426.193 0.050 -4857.792
v 435.611 0.050 -4846.652
v 441.720 0.050 -4851.817
f 281 282 283
f 283 284 281
v 442.048 0.050 -4851.369
v 435.283 0.050 -4847.100
v 447.706 0.050 -4827.411
v 454.472 0.050 -4831.680
f 285 286 287
f 287 288 285
v 454.537 0.050 -4831.573
v 447.641 0.050 -4827.518
v 456.201 0.050 -4812.956
v 463.098 0.050 -4817.011
f 289 290 291
f 291 292 289
v 463.042 0.050 -4817.103
v 456.257 0.050 -4812.864
v 464.817 0.050 -4799.161
v 471.602 0.050 -4803.400
f 293 294 295
f 295 296 293
v 471.198 0.050 -4803.939
v 465.221 0.050 -4798.622
v 475.496 0.050 -4787.072
v 481.473 0.050 -4792.390
f 297 298 299
f 299 300 297
v 480.986 0.050 -4792.853
v 475.984 0.050 -4786.609
v 484.544 0.050 -4779.751
v 489.546 0.050 -4785.995
f 301 302 303
f 303 304 301
v 488.596 0.050 -4786.560
v 485.494 0.050 -4779.186
v 493.632 0.050 -4775.763
v 496.733 0.050 -4783.138
f 305 306 307
f 307 308 305
v 496.408 0.050 -4783.258
v 493.957 0.050 -4775.643
v 505.946 0.050 -4771.784
v 508.397 0.050 -4779.400
f 309 310 311
f 311 312 309
v 508.373 0.050 -4779.407
v 505.970 0.050 -4771.777
v 514.107 0.050 -4769.213
v 516.511 0.050 -4776.844
f 313 314 315
f 315 316 313
v 516.632 0.050 -4776.803
v 513.986 0.050 -4769.253
v 522.547 0.050 -4766.254
v 525.192 0.050 -4773.804
f 317 318 319
f 319 320 317
v 524.262 0.050 -4774.009
v 523.477 0.050 -4766.048
v 527.763 0.050 -4765.625
v 528.548 0.050 -4773.587
f 321 322 323
f 323 324 321
v 528.379 0.050 -4773.600
v 527.932 0.050 -4765.612
v 536.893 0.050 -4765.110
v 537.340 0.050 -4773.098
f 325 326 327
f 327 328 325
v 965.923 0.050 -5144.726
v 958.168 0.050 -5142.763
v 960.372 0.050 -5134.055
v 968.127 0.050 -5136.018
f 329 330 331
f 331 332 329
v 967.974 0.050 -5136.496
v 960.525 0.050 -5133.577
v 966.492 0.050 -5118.353
v 973.940 0.050 -5121.273
f 333 334 335
f 335 336 333
v 973.825 0.050 -5121.539
v 966.608 0.050 -5118.087
v 973.176 0.050 -5104.357
v 980.392 0.050 -5107.809
f 337 338 339
f 339 340 337
v 980.375 0.050 -5107.846
v 973.193 0.050 -5104.321
v 980.963 0.050 -5088.490
v 988.145 0.050 -5092.015
f 341 342 343
f 343 344 341
v 988.132 0.050 -5092.041
v 980.976 0.050 -5088.464
v 985.752 0.050 -5078.910
v 992.908 0.050 -5082.486
f 345 346 347
f 347 348 345
v 993.105 0.050 -5082.021
v 985.555 0.050 -5079.375
v 987.648 0.050 -5073.402
v 995.198 0.050 -5076.048
f 349 350 351
f 351 352 349
v 995.423 0.050 -5074.725
v 987.423 0.050 -5074.725
v 987.423 0.050 -5070.549
v 995.423 0.050 -5070.549
f 353 354 355
f 355 356 353
v 995.391 0.050 -5070.051
v 987.454 0.050 -5071.048
v 986.853 0.050 -5066.264
v 994.790 0.050 -5065.267
f 357 358 359
f 359 360 357
v 994.389 0.050 -5063.958
v 987.253 0.050 -5067.574
v 975.609 0.050 -5044.594
v 982.745 0.050 -5040.978
f 361 362 363
f 363 364 361
v 983.099 0.050 -5041.996
v 975.256 0.050 -5043.575
v 974.354 0.050 -5039.095
v 982.197 0.050 -5037.517
f 365 366 367
f 367 368 365
v 982.276 0.050 -5038.306
v 974.276 0.050 -5038.306
v 974.276 0.050 -5034.117
v 982.276 0.050 -5034.117
f 369 370 371
f 371 372 369
v 981.601 0.050 -5036.340
v 974.950 0.050 -5031.894
v 977.343 0.050 -5028.313
v 983.995 0.050 -5032.758
f 373 374 375
f 375 376 373
v 982.584 0.050 -5034.048
v 978.754 0.050 -5027.024
v 985.322 0.050 -5023.443
v 989.152 0.050 -5030.467
f 377 378 379
f 379 380 377
v 988.560 0.050 -5030.729
v 985.914 0.050 -5023.180
v 990.890 0.050 -5021.436
v 993.536 0.050 -5028.985
f 381 382 383
f 383 384 381
v 993.538 0.050 -5028.985
v 990.888 0.050 -5021.436
v 1002.933 0.050 -5017.208
v 1005.583 0.050 -5024.756
f 385 386 387
f 387 388 385
v 1004.944 0.050 -5024.922
v 1003.572 0.050 -5017.041
v 1017.308 0.050 -5014.649
v 1018.681 0.050 -5022.531
f 389 390 391
f 391 392 389
v 1499.689 0.050 -5049.486
v 1491.689 0.050 -5049.431
v 1492.513 0.050 -4929.682
v 1500.512 0.050 -4929.737
f 393 394 395
f 395 396 393
v 1500.508 0.050 -4929.893
v 1492.517 0.050 -4929.527
v 1493.118 0.050 -4916.379
v 1501.109 0.050 -4916.744
f 397 398 399
f 399 400 397
v 1501.114 0.050 -4916.562
v 1493.114 0.050 -4916.562
v 1493.114 0.050 -4902.832
v 1501.114 0.050 -4902.832
f 401 402 403
f 403 404 401
v 1501.109 0.050 -4902.631
v 1493.119 0.050 -4903.033
v 1492.517 0.050 -4891.087
v 1500.507 0.050 -4890.685
f 405 406 407
f 407 408 405
v 1500.435 0.050 -4890.103
v 1492.590 0.050 -4891.670
v 1491.098 0.050 -4884.204
v 1498.943 0.050 -4882.636
f 409 410 411
f 411 412 409
v 1498.507 0.050 -4881.459
v 1491.534 0.050 -4885.381
v 1488.851 0.050 -4880.611
v 1495.824 0.050 -4876.689
f 413 414 415
f 415 416 413
v 1495.564 0.050 -4876.285
v 1489.112 0.050 -4881.015
v 1485.828 0.050 -4876.535
v 1492.280 0.050 -4871.805
f 417 418 419
f 419 420 417
v 1491.595 0.050 -4871.081
v 1486.513 0.050 -4877.259
v 1481.437 0.050 -4873.084
v 1486.519 0.050 -4866.905
f 421 422 423
f 423 424 421
v 1485.040 0.050 -4866.138
v 1482.916 0.050 -4873.851
v 1470.971 0.050 -4870.560
v 1473.096 0.050 -4862.848
f 425 426 427
f 427 428 425
v 1472.939 0.050 -4862.808
v 1471.128 0.050 -4870.600
v 1454.408 0.050 -4866.715
v 1456.218 0.050 -4858.923
f 429 430 431
f 431 432 429
v 1456.208 0.050 -4858.920
v 1454.418 0.050 -4866.718
v 1446.648 0.050 -4864.934
v 1448.438 0.050 -4857.137
f 433 434 435
f 435 436 433
v 1450.666 0.050 -4858.536
v 1444.420 0.050 -4863.534
v 1440.835 0.050 -4859.055
v 1447.082 0.050 -4854.056
f 437 438 439
f 439 440 437
v 1447.702 0.050 -4855.146
v 1440.215 0.050 -4857.965
v 1432.456 0.050 -4837.364
v 1439.943 0.050 -4834.545
f 441 442 443
f 443 444 441
v 1440.026 0.050 -4834.789
v 1432.373 0.050 -4837.120
v 1430.280 0.050 -4830.248
v 1437.933 0.050 -4827.918
f 445 446 447
f 447 448 445
v 1438.074 0.050 -4828.572
v 1430.140 0.050 -4829.594
v 1429.705 0.050 -4826.225
v 1437.640 0.050 -4825.202
f 449 450 451
f 451 452 449
v 1437.640 0.050 -4825.203
v 1429.705 0.050 -4826.224
v 1428.948 0.050 -4820.344
v 1436.883 0.050 -4819.322
f 453 454 455
f 455 456 453
v 1436.796 0.050 -4820.804
v 1429.035 0.050 -4818.862
v 1431.128 0.050 -4810.498
v 1438.889 0.050 -4812.439
f 457 458 459
f 459 460 457
v 1438.931 0.050 -4812.253
v 1431.086 0.050 -4810.684
v 1432.878 0.050 -4801.725
v 1440.723 0.050 -4803.294
f 461 462 463
f 463 464 461
v 1440.712 0.050 -4803.346
v 1432.889 0.050 -4801.672
v 1435.572 0.050 -4789.132
v 1443.395 0.050 -4790.806
f 465 466 467
f 467 468 465
v 1443.467 0.050 -4789.611
v 1435.500 0.050 -4790.327
v 1434.910 0.050 -4783.759
v 1442.877 0.050 -4783.044
f 469 470 471
f 471 472 469
v 1442.710 0.050 -4782.203
v 1435.077 0.050 -4784.600
v 1433.575 0.050 -4779.817
v 1441.207 0.050 -4777.419
f 473 474 475
f 475 476 473
v 1440.317 0.050 -4775.891
v 1434.464 0.050 -4781.345
v 1430.290 0.050 -4776.865
v 1436.143 0.050 -4771.411
f 477 478 479
f 479 480 477
v 1433.992 0.050 -4770.214
v 1432.440 0.050 -4778.062
v 1427.965 0.050 -4777.177
v 1429.517 0.050 -4769.329
f 481 482 483
f 483 484 481
v 1428.248 0.050 -4769.284
v 1429.234 0.050 -4777.223
v 1424.448 0.050 -4777.817
v 1423.461 0.050 -4769.878
f 485 486 487
f 487 488 485
v 1422.040 0.050 -4770.336
v 1425.869 0.050 -4777.360
v 1419.301 0.050 -4780.941
v 1415.472 0.050 -4773.917
f 489 490 491
f 491 492 489
v 1414.877 0.050 -4774.314
v 1419.896 0.050 -4780.543
v 1409.154 0.050 -4789.199
v 1404.135 0.050 -4782.969
f 493 494 495
f 495 496 493
v 1404.042 0.050 -4783.046
v 1409.246 0.050 -4789.122
v 1402.968 0.050 -4794.500
v 1397.764 0.050 -4788.424
f 497 498 499
f 499 500 497
v 1398.245 0.050 -4788.071
v 1402.487 0.050 -4794.854
v 1397.711 0.050 -4797.840
v 1393.469 0.050 -4791.057
f 501 502 503
f 503 504 501
v 1394.686 0.050 -4790.552
v 1396.494 0.050 -4798.345
v 1392.620 0.050 -4799.244
v 1390.812 0.050 -4791.451
f 505 506 507
f 507 508 505
v 1392.061 0.050 -4791.362
v 1391.371 0.050 -4799.332
v 1384.503 0.050 -4798.738
v 1385.193 0.050 -4790.767
f 509 510 511
f 511 512 509
v 1386.777 0.050 -4791.248
v 1382.919 0.050 -4798.257
v 1376.941 0.050 -4794.966
v 1380.799 0.050 -4787.958
f 513 514 515
f 515 516 513
v 1381.010 0.050 -4788.083
v 1376.730 0.050 -4794.841
v 1367.780 0.050 -4789.172
v 1372.060 0.050 -4782.414
f 517 518 519
f 519 520 517
v 1373.090 0.050 -4783.354
v 1366.750 0.050 -4788.232
v 1360.772 0.050 -4780.462
v 1367.112 0.050 -4775.584
f 521 522 523
f 523 524 521
v 1367.656 0.050 -4776.538
v 1360.228 0.050 -4779.509
v 1356.644 0.050 -4770.550
v 1364.071 0.050 -4767.578
f 525 526 527
f 527 528 525
v 1364.308 0.050 -4768.434
v 1356.408 0.050 -4769.694
v 1355.216 0.050 -4762.228
v 1363.117 0.050 -4760.968
f 529 530 531
f 531 532 529
v 1363.166 0.050 -4761.598
v 1355.166 0.050 -4761.598
v 1355.166 0.050 -4755.639
v 1363.166 0.050 -4755.639
f 533 534 535
f 535 536 533
v 1363.165 0.050 -4755.757
v 1355.168 0.050 -4755.520
v 1355.469 0.050 -4745.359
v 1363.465 0.050 -4745.595
f 537 538 539
f 539 540 537
v 1363.456 0.050 -4745.183
v 1355.478 0.050 -4745.771
v 1354.576 0.050 -4733.535
v 1362.555 0.050 -4732.947
f 541 542 543
f 543 544 541
v 1362.470 0.050 -4732.372
v 1354.661 0.050 -4734.109
v 1352.868 0.050 -4726.048
v 1360.678 0.050 -4724.312
f 545 546 547
f 547 548 545
v 1360.630 0.050 -4724.120
v 1352.916 0.050 -4726.240
v 1350.534 0.050 -4717.571
v 1358.248 0.050 -4715.452
f 549 550 551
f 551 552 549
v 1358.387 0.050 -4716.336
v 1350.395 0.050 -4716.687
v 1350.094 0.050 -4709.829
v 1358.086 0.050 -4709.478
f 553 554 555
f 555 556 553
v 1358.070 0.050 -4710.054
v 1350.110 0.050 -4709.253
v 1350.712 0.050 -4703.280
v 1358.671 0.050 -4704.081
f 557 558 559
f 559 560 557
v 1358.614 0.050 -4704.462
v 1350.768 0.050 -4702.899
v 1352.850 0.050 -4692.447
v 1360.696 0.050 -4694.010
f 561 562 563
f 563 564 561
v 1766.718 0.050 -4995.932
v 1771.438 0.050 -4989.473
v 1823.514 0.050 -5027.531
v 1818.793 0.050 -5033.990
f 565 566 567
f 567 568 565
v 1817.191 0.050 -5031.310
v 1825.116 0.050 -5030.211
v 1827.231 0.050 -5045.474
v 1819.306 0.050 -5046.572
f 569 570 571
f 571 572 569
v -621.601 0.050 -5522.002
v -614.491 0.050 -5512.335
v -604.249 0.050 -5519.868
v -611.359 0.050 -5529.534
f 573 574 575
f 575 576 573
v -609.824 0.050 -5530.351
v -605.785 0.050 -5519.051
v -593.362 0.050 -5523.491
v -597.401 0.050 -5534.791
f 577 578 579
f 579 580 577
v -597.403 0.050 -5534.790
v -593.359 0.050 -5523.492
v -580.290 0.050 -5528.170
v -584.334 0.050 -5539.468
f 581 582 583
f 583 584 581
v -582.033 0.050 -5539.813
v -582.592 0.050 -5527.826
v -472.163 0.050 -5522.672
v -471.604 0.050 -5534.659
f 585 586 587
f 587 588 585
v -472.609 0.050 -5534.621
v -471.157 0.050 -5522.710
v -400.692 0.050 -5531.299
v -402.144 0.050 -5543.211
f 589 590 591
f 591 592 589
v -401.319 0.050 -5543.254
v -401.517 0.050 -5531.256
v -345.523 0.050 -5530.331
v -345.325 0.050 -5542.329
f 593 594 595
f 595 596 593
v -344.478 0.050 -5542.255
v -346.370 0.050 -5530.405
v -314.088 0.050 -5525.251
v -312.196 0.050 -5537.101
f 597 598 599
f 599 600 597
v -311.898 0.050 -5537.046
v -314.386 0.050 -5525.307
v -136.052 0.050 -5487.512
v -133.564 0.050 -5499.251
f 601 602 603
f 603 604 601
v -133.488 0.050 -5499.234
v -136.128 0.050 -5487.528
v -85.143 0.050 -5476.031
v -82.504 0.050 -5487.737
f 605 606 607
f 607 608 605
v -82.178 0.050 -5487.654
v -85.469 0.050 -5476.114
v -59.977 0.050 -5468.846
v -56.686 0.050 -5480.386
f 609 610 611
f 611 612 609
v -56.728 0.050 -5480.398
v -59.935 0.050 -5468.834
v -48.024 0.050 -5465.531
v -44.817 0.050 -5477.094
f 613 614 615
f 615 616 613
v -44.394 0.050 -5476.960
v -48.447 0.050 -5465.665
v -4.253 0.050 -5449.807
v -0.200 0.050 -5461.102
f 617 618 619
f 619 620 617
v -0.026 0.050 -5461.037
v -4.426 0.050 -5449.872
v 51.567 0.050 -5427.803
v 55.967 0.050 -5438.968
f 621 622 623
f 623 624 621
v 55.107 0.050 -5439.234
v 52.428 0.050 -5427.537
v 111.873 0.050 -5413.926
v 114.551 0.050 -5425.623
f 625 626 627
f 627 628 625
v 114.581 0.050 -5425.616
v 111.843 0.050 -5413.932
v 120.303 0.050 -5411.950
v 123.041 0.050 -5423.634
f 629 630 631
f 631 632 629
v 122.972 0.050 -5423.649
v 120.372 0.050 -5411.934
v 183.858 0.050 -5397.847
v 186.457 0.050 -5409.562
f 633 634 635
f 635 636 633
v 186.458 0.050 -5409.562
v 183.858 0.050 -5397.847
v 347.241 0.050 -5361.586
v 349.841 0.050 -5373.301
f 637 638 639
f 639 640 637
v 350.046 0.050 -5373.252
v 347.037 0.050 -5361.635
v 353.160 0.050 -5360.049
v 356.168 0.050 -5371.666
f 641 642 643
f 643 644 641
v 356.205 0.050 -5371.656
v 353.123 0.050 -5360.059
v 360.581 0.050 -5358.077
v 363.663 0.050 -5369.674
f 645 646 647
f 647 648 645
v 363.933 0.050 -5369.596
v 360.311 0.050 -5358.155
v 363.651 0.050 -5357.098
v 367.273 0.050 -5368.538
f 649 650 651
f 651 652 649
v 367.661 0.050 -5368.401
v 363.263 0.050 -5357.236
v 388.755 0.050 -5347.192
v 393.153 0.050 -5358.357
f 653 654 655
f 655 656 653
v 393.783 0.050 -5358.066
v 388.125 0.050 -5347.484
v 497.129 0.050 -5289.193
v 502.787 0.050 -5299.775
f 657 658 659
f 659 660 657
v 502.693 0.050 -5299.825
v 497.223 0.050 -5289.144
v 558.426 0.050 -5257.799
v 563.897 0.050 -5268.479
f 661 662 663
f 663 664 661
v 563.846 0.050 -5268.505
v 558.477 0.050 -5257.773
v 585.951 0.050 -5244.030
v 591.319 0.050 -5254.762
f 665 666 667
f 667 668 665
v 591.065 0.050 -5254.882
v 586.206 0.050 -5243.910
v 607.601 0.050 -5234.435
v 612.460 0.050 -5245.407
f 669 670 671
f 671 672 669
v 611.982 0.050 -5245.595
v 608.080 0.050 -5234.247
v 636.132 0.050 -5224.600
v 640.034 0.050 -5235.948
f 673 674 675
f 675 676 673
v 639.640 0.050 -5236.069
v 636.526 0.050 -5224.480
v 714.227 0.050 -5203.600
v 717.341 0.050 -5215.189
f 677 678 679
f 679 680 677
v 717.329 0.050 -5215.193
v 714.240 0.050 -5203.597
v 758.879 0.050 -5191.704
v 761.968 0.050 -5203.299
f 681 682 683
f 683 684 681
v 761.970 0.050 -5203.299
v 758.877 0.050 -5191.704
v 856.783 0.050 -5165.592
v 859.875 0.050 -5177.187
f 685 686 687
f 687 688 685
v 859.874 0.050 -5177.187
v 856.784 0.050 -5165.592
v 960.500 0.050 -5137.947
v 963.591 0.050 -5149.542
f 689 690 691
f 691 692 689
v 963.591 0.050 -5149.542
v 960.499 0.050 -5137.947
v 1144.933 0.050 -5088.763
v 1148.025 0.050 -5100.357
f 693 694 695
f 695 696 693
v 1148.027 0.050 -5100.357
v 1144.932 0.050 -5088.763
v 1209.274 0.050 -5071.584
v 1212.370 0.050 -5083.178
f 697 698 699
f 699 700 697
v 1212.368 0.050 -5083.179
v 1209.277 0.050 -5071.584
v 1272.729 0.050 -5054.669
v 1275.820 0.050 -5066.264
f 701 702 703
f 703 704 701
v 1275.403 0.050 -5066.360
v 1273.146 0.050 -5054.574
v 1276.597 0.050 -5053.913
v 1278.853 0.050 -5065.699
f 705 706 707
f 707 708 705
v 1278.675 0.050 -5065.730
v 1276.775 0.050 -5053.882
v 1307.277 0.050 -5048.992
v 1309.176 0.050 -5060.841
f 709 710 711
f 711 712 709
v 1308.581 0.050 -5060.906
v 1307.872 0.050 -5048.927
v 1325.950 0.050 -5047.857
v 1326.660 0.050 -5059.836
f 713 714 715
f 715 716 713
v 1326.661 0.050 -5059.836
v 1325.949 0.050 -5047.857
v 1343.492 0.050 -5046.813
v 1344.205 0.050 -5058.792
f 717 718 719
f 719 720 717
v 1343.867 0.050 -5058.802
v 1343.830 0.050 -5046.802
v 1429.435 0.050 -5046.538
v 1429.472 0.050 -5058.538
f 721 722 723
f 723 724 721
v 1429.473 0.050 -5058.538
v 1429.434 0.050 -5046.538
v 1469.509 0.050 -5046.406
v 1469.548 0.050 -5058.406
f 725 726 727
f 727 728 725
v 1470.200 0.050 -5058.368
v 1468.857 0.050 -5046.443
v 1495.017 0.050 -5043.497
v 1496.360 0.050 -5055.421
f 729 730 731
f 731 732 729
v 1496.362 0.050 -5055.421
v 1495.016 0.050 -5043.497
v 1511.057 0.050 -5041.686
v 1512.403 0.050 -5053.611
f 733 734 735
f 735 736 733
v 1512.394 0.050 -5053.612
v 1511.065 0.050 -5041.685
v 1518.178 0.050 -5040.893
v 1519.508 0.050 -5052.819
f 737 738 739
f 739 740 737
v 1520.162 0.050 -5052.709
v 1517.524 0.050 -5041.002
v 1565.614 0.050 -5030.167
v 1568.252 0.050 -5041.873
f 741 742 743
f 743 744 741
v 1568.169 0.050 -5041.891
v 1565.698 0.050 -5030.148
v 1693.181 0.050 -5003.323
v 1695.652 0.050 -5015.066
f 745 746 747
f 747 748 745
v 1695.653 0.050 -5015.066
v 1693.179 0.050 -5003.323
v 1731.751 0.050 -4995.197
v 1734.225 0.050 -5006.939
f 749 750 751
f 751 752 749
v 1734.343 0.050 -5006.913
v 1731.634 0.050 -4995.223
v 1767.723 0.050 -4986.858
v 1770.433 0.050 -4998.548
f 753 754 755
f 755 756 753
v 1770.439 0.050 -4998.547
v 1767.718 0.050 -4986.859
v 1803.585 0.050 -4978.508
v 1806.306 0.050 -4990.195
f 757 758 759
f 759 760 757
v 1806.346 0.050 -4990.186
v 1803.545 0.050 -4978.517
v 1840.870 0.050 -4969.558
v 1843.671 0.050 -4981.226
f 761 762 763
f 763 764 761
v 1719.341 0.050 -4805.464
v 1720.965 0.050 -4813.297
v 1696.486 0.050 -4818.372
v 1694.862 0.050 -4810.538
f 765 766 767
f 767 768 765
v 1694.103 0.050 -4810.777
v 1697.246 0.050 -4818.133
v 1690.967 0.050 -4820.816
v 1687.824 0.050 -4813.459
f 769 770 771
f 771 772 769
v 1686.994 0.050 -4813.939
v 1691.797 0.050 -4820.336
v 1685.831 0.050 -4824.816
v 1681.027 0.050 -4818.418
f 773 774 775
f 775 776 773
v 1679.981 0.050 -4819.590
v 1686.877 0.050 -4823.644
v 1683.894 0.050 -4828.719
v 1676.997 0.050 -4824.664
f 777 778 779
f 779 780 777
v 1676.446 0.050 -4826.691
v 1684.446 0.050 -4826.691
v 1684.446 0.050 -4830.576
v 1676.446 0.050 -4830.576
f 781 782 783
f 783 784 781
v 1677.391 0.050 -4833.158
v 1683.500 0.050 -4827.994
v 1686.784 0.050 -4831.879
v 1680.675 0.050 -4837.043
f 785 786 787
f 787 788 785
v 1681.153 0.050 -4837.521
v 1686.306 0.050 -4831.401
v 1691.972 0.050 -4836.172
v 1686.820 0.050 -4842.292
f 789 790 791
f 791 792 789
v 1687.019 0.050 -4842.449
v 1691.773 0.050 -4836.014
v 1698.641 0.050 -4841.089
v 1693.887 0.050 -4847.523
f 793 794 795
f 795 796 793
v 1694.041 0.050 -4847.631
v 1698.487 0.050 -4840.980
v 1704.754 0.050 -4845.169
v 1700.309 0.050 -4851.820
f 797 798 799
f 799 800 797
v 1699.353 0.050 -4850.924
v 1705.710 0.050 -4846.066
v 1710.496 0.050 -4852.330
v 1704.140 0.050 -4857.187
f 801 802 803
f 803 804 801
v 1703.689 0.050 -4856.440
v 1710.948 0.050 -4853.077
v 1722.291 0.050 -4877.563
v 1715.032 0.050 -4880.926
f 805 806 807
f 807 808 805
v 1714.976 0.050 -4880.798
v 1722.347 0.050 -4877.690
v 1728.014 0.050 -4891.129
v 1720.642 0.050 -4894.237
f 809 810 811
f 811 812 809
v 1720.435 0.050 -4893.601
v 1728.221 0.050 -4891.765
v 1730.614 0.050 -4901.914
v 1722.828 0.050 -4903.750
f 813 814 815
f 815 816 813
v 1722.761 0.050 -4903.396
v 1730.681 0.050 -4902.268
v 1731.872 0.050 -4910.633
v 1723.952 0.050 -4911.761
f 817 818 819
f 819 820 817
v 1723.912 0.050 -4911.197
v 1731.912 0.050 -4911.197
v 1731.912 0.050 -4917.764
v 1723.912 0.050 -4917.764
f 821 822 823
f 823 824 821
v 1724.084 0.050 -4916.604
v 1731.740 0.050 -4918.924
v 1729.659 0.050 -4925.795
v 1722.002 0.050 -4923.476
f 825 826 827
f 827 828 825
v 1722.686 0.050 -4922.163
v 1728.975 0.050 -4927.108
v 1725.691 0.050 -4931.284
v 1719.402 0.050 -4926.339
f 829 830 831
f 831 832 829
v 1720.081 0.050 -4925.662
v 1725.013 0.050 -4931.961
v 1720.827 0.050 -4935.238
v 1715.895 0.050 -4928.939
f 833 834 835
f 835 836 833
v 1717.545 0.050 -4928.173
v 1719.177 0.050 -4936.004
v 1712.008 0.050 -4937.498
v 1710.376 0.050 -4929.666
f 837 838 839
f 839 840 837
v 1711.192 0.050 -4929.582
v 1711.192 0.050 -4937.582
v 1698.658 0.050 -4937.582
v 1698.658 0.050 -4929.582
f 841 842 843
f 843 844 841
v 1698.734 0.050 -4929.582
v 1698.581 0.050 -4937.581
v 1496.436 0.050 -4933.709
v 1496.589 0.050 -4925.711
f 845 846 847
f 847 848 845
v 1718.737 0.050 -4936.071
v 1717.985 0.050 -4928.106
v 1733.815 0.050 -4926.613
v 1734.566 0.050 -4934.578
f 849 850 851
f 851 852 849
v 1734.502 0.050 -4934.583
v 1733.879 0.050 -4926.607
v 1745.223 0.050 -4925.722
v 1745.845 0.050 -4933.698
f 853 854 855
f 855 856 853
v 1808.924 0.050 -4983.938
v 1800.967 0.050 -4984.764
v 1800.377 0.050 -4979.082
v 1808.334 0.050 -4978.256
f 857 858 859
f 859 860 857
v 1808.350 0.050 -4978.468
v 1800.360 0.050 -4978.870
v 1800.060 0.050 -4972.897
v 1808.050 0.050 -4972.495
f 861 862 863
f 863 864 861
v 1808.035 0.050 -4972.302
v 1800.074 0.050 -4973.090
v 1797.681 0.050 -4948.908
v 1805.642 0.050 -4948.120
f 865 866 867
f 867 868 865
v 1805.614 0.050 -4947.901
v 1797.709 0.050 -4949.127
v 1795.026 0.050 -4931.816
v 1802.931 0.050 -4930.591
f 869 870 871
f 871 872 869
v 1802.962 0.050 -4930.839
v 1794.995 0.050 -4931.568
v 1794.394 0.050 -4925.000
v 1802.361 0.050 -4924.271
f 873 874 875
f 875 876 873
v 1802.355 0.050 -4925.056
v 1794.400 0.050 -4924.215
v 1795.001 0.050 -4918.533
v 1802.956 0.050 -4919.374
f 877 878 879
f 879 880 877
v 1802.860 0.050 -4919.919
v 1795.097 0.050 -4917.988
v 1795.987 0.050 -4914.407
v 1803.751 0.050 -4916.338
f 881 882 883
f 883 884 881
v 1803.352 0.050 -4917.339
v 1796.386 0.050 -4913.405
v 1799.080 0.050 -4908.635
v 1806.046 0.050 -4912.569
f 885 886 887
f 887 888 885
v 1804.268 0.050 -4914.220
v 1800.858 0.050 -4906.984
v 1805.934 0.050 -4904.592
v 1809.344 0.050 -4911.829
f 889 890 891
f 891 892 889
v 1807.639 0.050 -4912.210
v 1807.639 0.050 -4904.210
v 1812.715 0.050 -4904.210
v 1812.715 0.050 -4912.210
f 893 894 895
f 895 896 893
v 1810.820 0.050 -4911.732
v 1814.611 0.050 -4904.688
v 1822.370 0.050 -4908.864
v 1818.579 0.050 -4915.908
f 897 898 899
f 899 900 897
v 1493.051 0.050 -4874.319
v 1485.057 0.050 -4874.021
v 1485.647 0.050 -4858.190
v 1493.641 0.050 -4858.488
f 901 902 903
f 903 904 901
v 1493.643 0.050 -4858.231
v 1485.646 0.050 -4858.448
v 1485.345 0.050 -4847.401
v 1493.342 0.050 -4847.184
f 905 906 907
f 907 908 905
v 1493.267 0.050 -4846.512
v 1485.420 0.050 -4848.072
v 1484.530 0.050 -4843.593
v 1492.376 0.050 -4842.033
f 909 910 911
f 911 912 909
v 1490.599 0.050 -4839.437
v 1486.307 0.050 -4846.188
v 1483.023 0.050 -4844.100
v 1487.315 0.050 -4837.349
f 913 914 915
f 915 916 913
v 1486.650 0.050 -4837.009
v 1483.688 0.050 -4844.440
v 1479.213 0.050 -4842.657
v 1482.175 0.050 -4835.225
f 917 918 919
f 919 920 917
v 1481.312 0.050 -4834.989
v 1480.076 0.050 -4842.893
v 1476.191 0.050 -4842.285
v 1477.427 0.050 -4834.381
f 921 922 923
f 923 924 921
v 1618.949 0.050 -4696.531
v 1624.299 0.050 -4702.479
v 1615.338 0.050 -4710.539
v 1609.988 0.050 -4704.592
f 925 926 927
f 927 928 925
v 1609.837 0.050 -4704.735
v 1615.490 0.050 -4710.396
v 1609.812 0.050 -4716.065
v 1604.160 0.050 -4710.404
f 929 930 931
f 931 932 929
v 1604.372 0.050 -4710.206
v 1609.600 0.050 -4716.262
v 1600.950 0.050 -4723.728
v 1595.723 0.050 -4717.672
f 933 934 935
f 935 936 933
v 1595.429 0.050 -4717.953
v 1601.244 0.050 -4723.448
v 1591.091 0.050 -4734.191
v 1585.277 0.050 -4728.696
f 937 938 939
f 939 940 937
v 1585.187 0.050 -4728.794
v 1591.181 0.050 -4734.093
v 1586.695 0.050 -4739.167
v 1580.701 0.050 -4733.868
f 941 942 943
f 943 944 941
v 1579.761 0.050 -4735.812
v 1587.635 0.050 -4737.224
v 1587.045 0.050 -4740.514
v 1579.171 0.050 -4739.102
f 945 946 947
f 947 948 945
v 1579.153 0.050 -4740.409
v 1587.063 0.050 -4739.207
v 1587.653 0.050 -4743.092
v 1579.743 0.050 -4744.294
f 949 950 951
f 951 952 949
v 1580.529 0.050 -4746.134
v 1586.866 0.050 -4741.252
v 1589.850 0.050 -4745.123
v 1583.513 0.050 -4750.006
f 953 954 955
f 955 956 953
v 1584.075 0.050 -4750.599
v 1589.287 0.050 -4744.530
v 1593.473 0.050 -4748.124
v 1588.261 0.050 -4754.194
f 957 958 959
f 959 960 957
v 1589.246 0.050 -4754.816
v 1592.488 0.050 -4747.502
v 1595.171 0.050 -4748.691
v 1591.929 0.050 -4756.005
f 961 962 963
f 963 964 961
v 1592.144 0.050 -4756.093
v 1594.956 0.050 -4748.603
v 1597.349 0.050 -4749.502
v 1594.537 0.050 -4756.992
f 965 966 967
f 967 968 965
v 1593.486 0.050 -4756.404
v 1598.400 0.050 -4750.090
v 1601.082 0.050 -4752.178
v 1596.169 0.050 -4758.491
f 969 970 971
f 971 972 969
v 1595.172 0.050 -4757.353
v 1602.079 0.050 -4753.316
v 1606.265 0.050 -4760.478
v 1599.358 0.050 -4764.515
f 973 974 975
f 975 976 973
v 1599.208 0.050 -4764.233
v 1606.415 0.050 -4760.760
v 1610.300 0.050 -4768.821
v 1603.093 0.050 -4772.294
f 977 978 979
f 979 980 977
v 1602.775 0.050 -4769.768
v 1610.618 0.050 -4771.347
v 1610.017 0.050 -4774.333
v 1602.174 0.050 -4772.754
f 981 982 983
f 983 984 981
v 1603.265 0.050 -4770.717
v 1608.925 0.050 -4776.371
v 1605.942 0.050 -4779.357
v 1600.282 0.050 -4773.703
f 985 986 987
f 987 988 985
v 1601.593 0.050 -4772.830
v 1604.631 0.050 -4780.231
v 1598.063 0.050 -4782.926
v 1595.025 0.050 -4775.525
f 989 990 991
f 991 992 989
v 1595.519 0.050 -4775.359
v 1597.569 0.050 -4783.092
v 1593.083 0.050 -4784.282
v 1591.033 0.050 -4776.549
f 993 994 995
f 995 996 993
v 1588.562 0.050 -4778.471
v 1595.554 0.050 -4782.359
v 1594.062 0.050 -4785.042
v 1587.070 0.050 -4781.154
f 997 998 999
f 999 1000 997
v 1586.578 0.050 -4783.406
v 1594.554 0.050 -4782.789
v 1594.855 0.050 -4786.674
v 1586.879 0.050 -4787.291
f 1001 1002 1003
f 1003 1004 1001
v 1587.694 0.050 -4789.419
v 1594.039 0.050 -4784.546
v 1597.023 0.050 -4788.431
v 1590.678 0.050 -4793.304
f 1005 1006 1007
f 1007 1008 1005
v 1591.114 0.050 -4793.785
v 1596.587 0.050 -4787.950
v 1601.362 0.050 -4792.430
v 1595.889 0.050 -4798.265
f 1009 1010 1011
f 1011 1012 1009
v 1597.601 0.050 -4799.214
v 1599.651 0.050 -4791.481
v 1604.137 0.050 -4792.670
v 1602.087 0.050 -4800.403
f 1013 1014 1015
f 1015 1016 1013
v 1603.297 0.050 -4800.532
v 1602.927 0.050 -4792.541
v 1609.194 0.050 -4792.250
v 1609.565 0.050 -4800.241
f 1017 1018 1019
f 1019 1020 1017
v 1609.379 0.050 -4800.246
v 1609.379 0.050 -4792.246
v 1614.455 0.050 -4792.246
v 1614.455 0.050 -4800.246
f 1021 1022 1023
f 1023 1024 1021
v 1612.146 0.050 -4799.512
v 1616.765 0.050 -4792.980
v 1618.858 0.050 -4794.460
v 1614.239 0.050 -4800.992
f 1025 1026 1027
f 1027 1028 1025
v 1612.594 0.050 -4798.326
v 1620.503 0.050 -4797.125
v 1621.093 0.050 -4801.010
v 1613.184 0.050 -4802.211
f 1029 1030 1031
f 1031 1032 1029
v 1613.520 0.050 -4803.317
v 1620.756 0.050 -4799.904
v 1623.149 0.050 -4804.979
v 1615.914 0.050 -4808.391
f 1033 1034 1035
f 1035 1036 1033
v 1617.646 0.050 -4810.213
v 1621.417 0.050 -4803.157
v 1625.892 0.050 -4805.549
v 1622.121 0.050 -4812.604
f 1037 1038 1039
f 1039 1040 1037
v 1622.216 0.050 -4812.654
v 1625.797 0.050 -4805.500
v 1628.780 0.050 -4806.993
v 1625.200 0.050 -4814.147
f 1041 1042 1043
f 1043 1044 1041
v 1624.460 0.050 -4813.668
v 1629.521 0.050 -4807.472
v 1632.804 0.050 -4810.155
v 1627.743 0.050 -4816.350
f 1045 1046 1047
f 1047 1048 1045
v 1626.772 0.050 -4815.185
v 1633.776 0.050 -4811.320
v 1637.071 0.050 -4817.293
v 1630.067 0.050 -4821.157
f 1049 1050 1051
f 1051 1052 1049
v 1630.183 0.050 -4821.355
v 1636.955 0.050 -4817.096
v 1640.528 0.050 -4822.778
v 1633.756 0.050 -4827.037
f 1053 1054 1055
f 1055 1056 1053
v 1634.548 0.050 -4827.952
v 1639.737 0.050 -4821.863
v 1641.830 0.050 -4823.647
v 1636.640 0.050 -4829.735
f 1057 1058 1059
f 1059 1060 1057
v 1637.800 0.050 -4830.425
v 1640.670 0.050 -4822.958
v 1644.555 0.050 -4824.451
v 1641.685 0.050 -4831.918
f 1061 1062 1063
f 1063 1064 1061
v 1642.484 0.050 -4832.133
v 1643.757 0.050 -4824.235
v 1651.215 0.050 -4825.438
v 1649.942 0.050 -4833.336
f 1065 1066 1067
f 1067 1068 1065
v 1650.419 0.050 -4833.384
v 1650.738 0.050 -4825.390
v 1680.605 0.050 -4826.579
v 1680.286 0.050 -4834.573
f 1069 1070 1071
f 1071 1072 1069
v 881.719 0.050 -4701.482
v 887.615 0.050 -4696.075
v 894.183 0.050 -4703.237
v 888.287 0.050 -4708.644
f 1073 1074 1075
f 1075 1076 1073
v 888.923 0.050 -4709.204
v 893.547 0.050 -4702.676
v 900.449 0.050 -4707.565
v 895.825 0.050 -4714.093
f 1077 1078 1079
f 1079 1080 1077
v 895.825 0.050 -4714.094
v 900.449 0.050 -4707.565
v 907.874 0.050 -4712.825
v 903.250 0.050 -4719.353
f 1081 1082 1083
f 1083 1084 1081
v 902.915 0.050 -4719.088
v 908.208 0.050 -4713.089
v 918.361 0.050 -4722.049
v 913.067 0.050 -4728.047
f 1085 1086 1087
f 1087 1088 1085
v 912.790 0.050 -4727.777
v 918.639 0.050 -4722.319
v 926.999 0.050 -4731.278
v 921.150 0.050 -4736.736
f 1089 1090 1091
f 1091 1092 1089
v 920.661 0.050 -4736.093
v 927.487 0.050 -4731.921
v 934.055 0.050 -4742.664
v 927.229 0.050 -4746.837
f 1093 1094 1095
f 1095 1096 1093
v 928.274 0.050 -4747.974
v 933.010 0.050 -4741.526
v 941.971 0.050 -4748.107
v 937.236 0.050 -4754.555
f 1097 1098 1099
f 1099 1100 1097
v 939.319 0.050 -4755.321
v 939.887 0.050 -4747.341
v 948.247 0.050 -4747.935
v 947.680 0.050 -4755.915
f 1101 1102 1103
f 1103 1104 1101
v 947.963 0.050 -4755.925
v 947.963 0.050 -4747.925
v 959.908 0.050 -4747.925
v 959.908 0.050 -4755.925
f 1105 1106 1107
f 1107 1108 1105
v 960.061 0.050 -4755.922
v 959.755 0.050 -4747.928
v 975.284 0.050 -4747.334
v 975.590 0.050 -4755.328
f 1109 1110 1111
f 1111 1112 1109
v 975.640 0.050 -4755.326
v 975.234 0.050 -4747.336
v 987.178 0.050 -4746.728
v 987.585 0.050 -4754.718
f 1113 1114 1115
f 1115 1116 1113
v 988.106 0.050 -4754.657
v 986.658 0.050 -4746.789
v 1009.344 0.050 -4742.613
v 1010.793 0.050 -4750.481
f 1117 1118 1119
f 1119 1120 1117
v 1010.352 0.050 -4750.537
v 1009.785 0.050 -4742.557
v 1026.505 0.050 -4741.368
v 1027.073 0.050 -4749.348
f 1121 1122 1123
f 1123 1124 1121
v 1026.349 0.050 -4749.334
v 1027.228 0.050 -4741.382
v 1037.982 0.050 -4742.571
v 1037.102 0.050 -4750.523
f 1125 1126 1127
f 1127 1128 1125
v 1036.673 0.050 -4750.452
v 1038.411 0.050 -4742.643
v 1049.154 0.050 -4745.035
v 1047.415 0.050 -4752.843
f 1129 1130 1131
f 1131 1132 1129
v 1047.224 0.050 -4752.796
v 1049.345 0.050 -4745.082
v 1073.234 0.050 -4751.650
v 1071.113 0.050 -4759.363
f 1133 1134 1135
f 1135 1136 1133
v 1071.021 0.050 -4759.337
v 1073.327 0.050 -4751.676
v 1093.520 0.050 -4757.755
v 1091.214 0.050 -4765.415
f 1137 1138 1139
f 1139 1140 1137
v 1090.989 0.050 -4765.340
v 1093.745 0.050 -4757.830
v 1103.898 0.050 -4761.556
v 1101.141 0.050 -4769.066
f 1141 1142 1143
f 1143 1144 1141
v 1101.111 0.050 -4769.055
v 1103.928 0.050 -4761.568
v 1108.704 0.050 -4763.365
v 1105.886 0.050 -4770.852
f 1145 1146 1147
f 1147 1148 1145
v 1106.454 0.050 -4771.019
v 1108.136 0.050 -4763.198
v 1111.576 0.050 -4763.938
v 1109.893 0.050 -4771.759
f 1149 1150 1151
f 1151 1152 1149
v 1110.598 0.050 -4771.846
v 1110.872 0.050 -4763.851
v 1115.492 0.050 -4764.009
v 1115.217 0.050 -4772.005
f 1153 1154 1155
f 1155 1156 1153
v 1115.664 0.050 -4771.995
v 1115.045 0.050 -4764.019
v 1124.752 0.050 -4763.266
v 1125.371 0.050 -4771.242
f 1157 1158 1159
f 1159 1160 1157
v 1125.361 0.050 -4771.243
v 1124.762 0.050 -4763.265
v 1136.562 0.050 -4762.380
v 1137.161 0.050 -4770.357
f 1161 1162 1163
f 1163 1164 1161
v 1137.093 0.050 -4770.362
v 1136.630 0.050 -4762.375
v 1144.389 0.050 -4761.926
v 1144.852 0.050 -4769.912
f 1165 1166 1167
f 1167 1168 1165
v 1144.224 0.050 -4769.899
v 1145.017 0.050 -4761.939
v 1150.984 0.050 -4762.534
v 1150.190 0.050 -4770.494
f 1169 1170 1171
f 1171 1172 1169
v 1149.513 0.050 -4770.367
v 1151.661 0.050 -4762.661
v 1156.448 0.050 -4763.995
v 1154.300 0.050 -4771.701
f 1173 1174 1175
f 1175 1176 1173
v 1154.179 0.050 -4771.666
v 1156.569 0.050 -4764.031
v 1163.281 0.050 -4766.132
v 1160.892 0.050 -4773.767
f 1177 1178 1179
f 1179 1180 1177
v 1160.540 0.050 -4773.638
v 1163.633 0.050 -4766.261
v 1171.103 0.050 -4769.392
v 1168.009 0.050 -4776.770
f 1181 1182 1183
f 1183 1184 1181
v 1167.847 0.050 -4776.698
v 1171.265 0.050 -4769.465
v 1182.308 0.050 -4774.684
v 1178.890 0.050 -4781.917
f 1185 1186 1187
f 1187 1188 1185
v 1179.044 0.050 -4781.986
v 1182.154 0.050 -4774.615
v 1184.847 0.050 -4775.752
v 1181.738 0.050 -4783.123
f 1189 1190 1191
f 1191 1192 1189
v 1181.741 0.050 -4783.124
v 1184.844 0.050 -4775.750
v 1187.828 0.050 -4777.006
v 1184.725 0.050 -4784.380
f 1193 1194 1195
f 1195 1196 1193
v 1185.937 0.050 -4784.678
v 1186.615 0.050 -4776.707
v 1190.188 0.050 -4777.011
v 1189.511 0.050 -4784.982
f 1197 1198 1199
f 1199 1200 1197
v 1190.531 0.050 -4784.938
v 1189.168 0.050 -4777.055
v 1192.608 0.050 -4776.460
v 1193.971 0.050 -4784.343
f 1201 1202 1203
f 1203 1204 1201
v 1194.420 0.050 -4784.239
v 1192.158 0.050 -4776.565
v 1200.363 0.050 -4774.147
v 1202.624 0.050 -4781.821
f 1205 1206 1207
f 1207 1208 1205
v 1202.619 0.050 -4781.822
v 1200.368 0.050 -4774.145
v 1222.175 0.050 -4767.750
v 1224.427 0.050 -4775.426
f 1209 1210 1211
f 1211 1212 1209
v 1224.476 0.050 -4775.412
v 1222.127 0.050 -4767.764
v 1246.906 0.050 -4760.153
v 1249.255 0.050 -4767.800
f 1213 1214 1215
f 1215 1216 1213
v 1249.176 0.050 -4767.824
v 1246.986 0.050 -4760.129
v 1262.214 0.050 -4755.795
v 1264.404 0.050 -4763.490
f 1217 1218 1219
f 1219 1220 1217
v 1264.387 0.050 -4763.494
v 1262.231 0.050 -4755.790
v 1272.384 0.050 -4752.949
v 1274.540 0.050 -4760.653
f 1221 1222 1223
f 1223 1224 1221
v 1275.537 0.050 -4760.221
v 1271.386 0.050 -4753.382
v 1276.351 0.050 -4750.369
v 1280.502 0.050 -4757.208
f 1225 1226 1227
f 1227 1228 1225
v 1280.506 0.050 -4757.206
v 1276.347 0.050 -4750.371
v 1278.997 0.050 -4748.759
v 1283.155 0.050 -4755.594
f 1229 1230 1231
f 1231 1232 1229
v 1283.667 0.050 -4755.224
v 1278.484 0.050 -4749.129
v 1281.468 0.050 -4746.592
v 1286.651 0.050 -4752.686
f 1233 1234 1235
f 1235 1236 1233
v 1287.365 0.050 -4751.892
v 1280.754 0.050 -4747.387
v 1285.229 0.050 -4740.820
v 1291.840 0.050 -4745.324
f 1237 1238 1239
f 1239 1240 1237
v 1292.234 0.050 -4744.592
v 1284.834 0.050 -4741.552
v 1287.228 0.050 -4735.725
v 1294.628 0.050 -4738.764
f 1241 1242 1243
f 1243 1244 1241
v 1294.560 0.050 -4738.920
v 1287.296 0.050 -4735.569
v 1289.978 0.050 -4729.754
v 1297.242 0.050 -4733.106
f 1245 1246 1247
f 1247 1248 1245
v 1297.337 0.050 -4732.885
v 1289.884 0.050 -4729.976
v 1293.613 0.050 -4720.422
v 1301.066 0.050 -4723.331
f 1249 1250 1251
f 1251 1252 1249
v 1300.761 0.050 -4723.949
v 1293.919 0.050 -4719.804
v 1296.457 0.050 -4715.615
v 1303.299 0.050 -4719.760
f 1253 1254 1255
f 1255 1256 1253
v 1302.979 0.050 -4720.214
v 1296.777 0.050 -4715.161
v 1300.061 0.050 -4711.131
v 1306.263 0.050 -4716.184
f 1257 1258 1259
f 1259 1260 1257
v 1305.883 0.050 -4716.589
v 1300.440 0.050 -4710.726
v 1302.689 0.050 -4708.638
v 1308.132 0.050 -4714.501
f 1261 1262 1263
f 1263 1264 1261
v 1307.756 0.050 -4714.809
v 1303.064 0.050 -4708.330
v 1309.031 0.050 -4704.009
v 1313.723 0.050 -4710.488
f 1265 1266 1267
f 1267 1268 1265
v 1313.378 0.050 -4710.712
v 1309.376 0.050 -4703.785
v 1321.020 0.050 -4697.059
v 1325.022 0.050 -4703.986
f 1269 1270 1271
f 1271 1272 1269
v 1276.332 0.050 -4757.196
v 1280.521 0.050 -4750.381
v 1286.154 0.050 -4753.843
v 1281.965 0.050 -4760.658
f 1273 1274 1275
f 1275 1276 1273
v 1282.091 0.050 -4760.733
v 1286.028 0.050 -4753.769
v 1294.232 0.050 -4758.407
v 1290.295 0.050 -4765.371
f 1277 1278 1279
f 1279 1280 1277
v 1290.667 0.050 -4765.556
v 1293.860 0.050 -4758.221
v 1308.944 0.050 -4764.789
v 1305.750 0.050 -4772.124
f 1281 1282 1283
f 1283 1284 1281
v 1305.106 0.050 -4771.770
v 1309.588 0.050 -4765.143
v 1314.219 0.050 -4768.275
v 1309.737 0.050 -4774.901
f 1285 1286 1287
f 1287 1288 1285
v 1308.894 0.050 -4774.136
v 1315.062 0.050 -4769.040
v 1317.900 0.050 -4772.476
v 1311.733 0.050 -4777.572
f 1289 1290 1291
f 1291 1292 1289
v 1311.447 0.050 -4777.178
v 1318.187 0.050 -4772.869
v 1320.569 0.050 -4776.596
v 1313.829 0.050 -4780.905
f 1293 1294 1295
f 1295 1296 1293
v 1313.397 0.050 -4779.993
v 1321.001 0.050 -4777.507
v 1323.394 0.050 -4784.828
v 1315.790 0.050 -4787.314
f 1297 1298 1299
f 1299 1300 1297
v 1315.743 0.050 -4787.158
v 1323.442 0.050 -4784.983
v 1327.026 0.050 -4797.669
v 1319.328 0.050 -4799.844
f 1301 1302 1303
f 1303 1304 1301
v 1319.546 0.050 -4800.435
v 1326.808 0.050 -4797.078
v 1332.329 0.050 -4809.024
v 1325.067 0.050 -4812.380
f 1305 1306 1307
f 1307 1308 1305
v 1325.334 0.050 -4812.866
v 1332.062 0.050 -4808.538
v 1336.092 0.050 -4814.801
v 1329.364 0.050 -4819.130
f 1309 1310 1311
f 1311 1312 1309
v 1329.984 0.050 -4819.876
v 1335.472 0.050 -4814.055
v 1337.855 0.050 -4816.302
v 1332.366 0.050 -4822.122
f 1313 1314 1315
f 1315 1316 1313
v 1333.082 0.050 -4822.660
v 1337.139 0.050 -4815.764
v 1342.215 0.050 -4818.751
v 1338.158 0.050 -4825.646
f 1317 1318 1319
f 1319 1320 1317
v 1338.417 0.050 -4825.786
v 1341.956 0.050 -4818.611
v 1353.155 0.050 -4824.135
v 1349.616 0.050 -4831.309
f 1321 1322 1323
f 1323 1324 1321
v 1349.675 0.050 -4831.338
v 1353.095 0.050 -4824.106
v 1361.311 0.050 -4827.991
v 1357.891 0.050 -4835.223
f 1325 1326 1327
f 1327 1328 1325
v 1358.389 0.050 -4835.419
v 1360.812 0.050 -4827.795
v 1367.380 0.050 -4829.883
v 1364.957 0.050 -4837.507
f 1329 1330 1331
f 1331 1332 1329
v 1366.248 0.050 -4837.694
v 1366.089 0.050 -4829.696
v 1373.403 0.050 -4829.550
v 1373.562 0.050 -4837.549
f 1333 1334 1335
f 1335 1336 1333
v 1373.482 0.050 -4837.549
v 1373.482 0.050 -4829.549
v 1383.189 0.050 -4829.549
v 1383.189 0.050 -4837.549
f 1337 1338 1339
f 1339 1340 1337
v 1383.332 0.050 -4837.547
v 1383.046 0.050 -4829.552
v 1391.551 0.050 -4829.248
v 1391.837 0.050 -4837.243
f 1341 1342 1343
f 1343 1344 1341
v 1392.331 0.050 -4837.195
v 1391.057 0.050 -4829.297
v 1400.319 0.050 -4827.803
v 1401.592 0.050 -4835.701
f 1345 1346 1347
f 1347 1348 1345
v 1402.207 0.050 -4835.551
v 1399.704 0.050 -4827.953
v 1411.938 0.050 -4823.923
v 1414.441 0.050 -4831.521
f 1349 1350 1351
f 1351 1352 1349
v 1413.887 0.050 -4831.661
v 1412.493 0.050 -4823.783
v 1422.645 0.050 -4821.986
v 1424.039 0.050 -4829.864
f 1353 1354 1355
f 1355 1356 1353
v 1423.621 0.050 -4829.915
v 1423.063 0.050 -4821.935
v 1429.486 0.050 -4821.485
v 1430.044 0.050 -4829.466
f 1357 1358 1359
f 1359 1360 1357
v 1429.522 0.050 -4829.468
v 1430.008 0.050 -4821.483
v 1433.916 0.050 -4821.721
v 1433.430 0.050 -4829.706
f 1361 1362 1363
f 1363 1364 1361
v 1178.500 0.050 -4697.954
v 1186.416 0.050 -4696.801
v 1187.908 0.050 -4707.042
v 1179.991 0.050 -4708.195
f 1365 1366 1367
f 1367 1368 1365
v 1180.052 0.050 -4708.518
v 1187.847 0.050 -4706.719
v 1189.061 0.050 -4711.978
v 1181.265 0.050 -4713.777
f 1369 1370 1371
f 1371 1372 1369
v 1181.655 0.050 -4714.800
v 1188.671 0.050 -4710.956
v 1191.632 0.050 -4716.360
v 1184.616 0.050 -4720.204
f 1373 1374 1375
f 1375 1376 1373
v 1184.483 0.050 -4719.939
v 1191.765 0.050 -4716.626
v 1195.138 0.050 -4724.039
v 1187.856 0.050 -4727.352
f 1377 1378 1379
f 1379 1380 1377
v 1187.531 0.050 -4726.214
v 1195.463 0.050 -4725.177
v 1197.756 0.050 -4742.712
v 1189.824 0.050 -4743.749
f 1381 1382 1383
f 1383 1384 1381
v 1189.864 0.050 -4743.996
v 1197.716 0.050 -4742.465
v 1199.898 0.050 -4753.657
v 1192.046 0.050 -4755.188
f 1385 1386 1387
f 1387 1388 1385
v 1192.113 0.050 -4755.476
v 1199.831 0.050 -4753.369
v 1204.762 0.050 -4771.433
v 1197.045 0.050 -4773.540
f 1389 1390 1391
f 1391 1392 1389
v 1196.926 0.050 -4772.913
v 1204.881 0.050 -4772.060
v 1205.471 0.050 -4777.557
v 1197.516 0.050 -4778.411
f 1393 1394 1395
f 1395 1396 1393
v 1197.504 0.050 -4778.272
v 1205.483 0.050 -4777.696
v 1206.240 0.050 -4788.174
v 1198.261 0.050 -4788.751
f 1397 1398 1399
f 1399 1400 1397
v 1198.257 0.050 -4788.698
v 1206.244 0.050 -4788.227
v 1207.090 0.050 -4802.591
v 1199.103 0.050 -4803.062
f 1401 1402 1403
f 1403 1404 1401
v 1199.104 0.050 -4803.064
v 1207.089 0.050 -4802.588
v 1207.435 0.050 -4808.376
v 1199.449 0.050 -4808.852
f 1405 1406 1407
f 1407 1408 1405
v 1199.444 0.050 -4808.761
v 1207.439 0.050 -4808.467
v 1207.884 0.050 -4820.558
v 1199.890 0.050 -4820.852
f 1409 1410 1411
f 1411 1412 1409
v 1199.887 0.050 -4820.705
v 1207.887 0.050 -4820.705
v 1207.887 0.050 -4836.523
v 1199.887 0.050 -4836.523
f 1413 1414 1415
f 1415 1416 1413
v 1199.897 0.050 -4836.803
v 1207.877 0.050 -4836.242
v 1208.623 0.050 -4846.853
v 1200.643 0.050 -4847.414
f 1417 1418 1419
f 1419 1420 1417
v 1200.677 0.050 -4847.729
v 1208.588 0.050 -4846.538
v 1209.935 0.050 -4855.484
v 1202.024 0.050 -4856.675
f 1421 1422 1423
f 1423 1424 1421
v 1202.040 0.050 -4856.770
v 1209.920 0.050 -4855.389
v 1212.458 0.050 -4869.872
v 1204.578 0.050 -4871.253
f 1425 1426 1427
f 1427 1428 1425
v 1204.598 0.050 -4871.357
v 1212.438 0.050 -4869.768
v 1214.375 0.050 -4879.322
v 1206.535 0.050 -4880.911
f 1429 1430 1431
f 1431 1432 1429
v 1206.499 0.050 -4880.711
v 1214.410 0.050 -4879.522
v 1215.757 0.050 -4888.481
v 1207.846 0.050 -4889.671
f 1433 1434 1435
f 1435 1436 1433
v 1207.803 0.050 -4889.179
v 1215.800 0.050 -4888.973
v 1216.101 0.050 -4900.614
v 1208.104 0.050 -4900.821
f 1437 1438 1439
f 1439 1440 1437
v 1208.117 0.050 -4901.055
v 1216.088 0.050 -4900.380
v 1216.834 0.050 -4909.194
v 1208.862 0.050 -4909.869
f 1441 1442 1443
f 1443 1444 1441
v 1208.887 0.050 -4910.091
v 1216.809 0.050 -4908.972
v 1218.601 0.050 -4921.658
v 1210.680 0.050 -4922.777
f 1445 1446 1447
f 1447 1448 1445
v 1210.678 0.050 -4922.761
v 1218.603 0.050 -4921.674
v 1219.650 0.050 -4929.298
v 1211.724 0.050 -4930.386
f 1449 1450 1451
f 1451 1452 1449
v 1211.689 0.050 -4929.978
v 1219.684 0.050 -4929.706
v 1219.974 0.050 -4938.203
v 1211.979 0.050 -4938.475
f 1453 1454 1455
f 1455 1456 1453
v 1211.976 0.050 -4938.369
v 1219.976 0.050 -4938.309
v 1220.132 0.050 -4958.923
v 1212.132 0.050 -4958.984
f 1457 1458 1459
f 1459 1460 1457
v 1212.134 0.050 -4958.821
v 1220.130 0.050 -4959.086
v 1219.685 0.050 -4972.512
v 1211.689 0.050 -4972.247
f 1461 1462 1463
f 1463 1464 1461
v 1211.687 0.050 -4972.379
v 1219.687 0.050 -4972.379
v 1219.687 0.050 -4991.487
v 1211.687 0.050 -4991.487
f 1465 1466 1467
f 1467 1468 1465
v 1211.701 0.050 -4991.144
v 1219.672 0.050 -4991.830
v 1218.926 0.050 -5000.499
v 1210.956 0.050 -4999.813
f 1469 1470 1471
f 1471 1472 1469
v 1211.019 0.050 -4999.369
v 1218.863 0.050 -5000.943
v 1217.516 0.050 -5007.656
v 1209.672 0.050 -5006.082
f 1473 1474 1475
f 1475 1476 1473
v 1209.812 0.050 -5005.565
v 1217.375 0.050 -5008.173
v 1214.236 0.050 -5017.277
v 1206.673 0.050 -5014.670
f 1477 1478 1479
f 1479 1480 1477
v 1206.698 0.050 -5014.600
v 1214.212 0.050 -5017.347
v 1210.338 0.050 -5027.945
v 1202.824 0.050 -5025.198
f 1481 1482 1483
f 1483 1484 1481
v 1202.744 0.050 -5025.440
v 1210.417 0.050 -5027.703
v 1208.169 0.050 -5035.328
v 1200.496 0.050 -5033.065
f 1485 1486 1487
f 1487 1488 1485
v 1200.402 0.050 -5033.452
v 1208.262 0.050 -5034.941
v 1207.216 0.050 -5040.464
v 1199.356 0.050 -5038.975
f 1489 1490 1491
f 1491 1492 1489
v 1199.287 0.050 -5039.639
v 1207.285 0.050 -5039.801
v 1207.140 0.050 -5046.963
v 1199.142 0.050 -5046.801
f 1493 1494 1495
f 1495 1496 1493
v 1199.180 0.050 -5047.437
v 1207.102 0.050 -5046.328
v 1208.294 0.050 -5054.838
v 1200.371 0.050 -5055.947
f 1497 1498 1499
f 1499 1500 1497
v 1200.431 0.050 -5056.275
v 1208.234 0.050 -5054.510
v 1210.326 0.050 -5063.760
v 1202.524 0.050 -5065.525
f 1501 1502 1503
f 1503 1504 1501
v 1202.644 0.050 -5065.948
v 1210.206 0.050 -5063.337
v 1214.603 0.050 -5076.076
v 1207.041 0.050 -5078.686
f 1505 1506 1507
f 1507 1508 1505
v 1320.455 0.050 -5014.862
v 1328.281 0.050 -5013.200
v 1329.327 0.050 -5018.129
v 1321.502 0.050 -5019.791
f 1509 1510 1511
f 1511 1512 1509
v 1321.458 0.050 -5019.550
v 1329.371 0.050 -5018.370
v 1330.261 0.050 -5024.343
v 1322.349 0.050 -5025.523
f 1513 1514 1515
f 1515 1516 1513
v 1322.305 0.050 -5024.933
v 1330.305 0.050 -5024.933
v 1330.305 0.050 -5031.051
v 1322.305 0.050 -5031.051
f 1517 1518 1519
f 1519 1520 1517
v 1322.305 0.050 -5031.051
v 1330.305 0.050 -5031.051
v 1330.305 0.050 -5034.936
v 1322.305 0.050 -5034.936
f 1521 1522 1523
f 1523 1524 1521
v 1322.305 0.050 -5034.936
v 1330.305 0.050 -5034.936
v 1330.305 0.050 -5053.846
v 1322.305 0.050 -5053.846
f 1525 1526 1527
f 1527 1528 1525
v 1316.667 0.050 -5035.934
v 1315.950 0.050 -5027.966
v 1325.947 0.050 -5027.067
v 1326.663 0.050 -5035.035
f 1529 1530 1531
f 1531 1532 1529
v 1180.864 0.050 -4782.615
v 1185.722 0.050 -4776.259
v 1191.099 0.050 -4780.369
v 1186.240 0.050 -4786.725
f 1533 1534 1535
f 1535 1536 1533
v 1186.150 0.050 -4786.654
v 1191.189 0.050 -4780.440
v 1196.844 0.050 -4785.025
v 1191.805 0.050 -4791.239
f 1537 1538 1539
f 1539 1540 1537
v 1191.738 0.050 -4791.183
v 1196.911 0.050 -4785.081
v 1200.418 0.050 -4788.054
v 1195.244 0.050 -4794.156
f 1541 1542 1543
f 1543 1544 1541
v 1194.543 0.050 -4793.383
v 1201.120 0.050 -4788.828
v 1202.611 0.050 -4790.982
v 1196.034 0.050 -4795.537
f 1545 1546 1547
f 1547 1548 1545
v 1195.679 0.050 -4794.910
v 1202.966 0.050 -4791.609
v 1204.313 0.050 -4794.582
v 1197.026 0.050 -4797.883
f 1549 1550 1551
f 1551 1552 1549
v 1196.916 0.050 -4797.614
v 1204.424 0.050 -4794.851
v 1206.850 0.050 -4801.445
v 1199.343 0.050 -4804.208
f 1553 1554 1555
f 1555 1556 1553
v 896.527 0.050 -4707.168
v 899.747 0.050 -4714.491
v 886.221 0.050 -4720.438
v 883.002 0.050 -4713.114
f 1557 1558 1559
f 1559 1560 1557
v 883.346 0.050 -4712.981
v 885.877 0.050 -4720.570
v 863.802 0.050 -4727.931
v 861.272 0.050 -4720.341
f 1561 1562 1563
f 1563 1564 1561
v 861.219 0.050 -4720.359
v 863.854 0.050 -4727.913
v 846.277 0.050 -4734.044
v 843.642 0.050 -4726.491
f 1565 1566 1567
f 1567 1568 1565
v 843.384 0.050 -4726.591
v 846.535 0.050 -4733.944
v 826.498 0.050 -4742.533
v 823.346 0.050 -4735.180
f 1569 1570 1571
f 1571 1572 1569
v 823.198 0.050 -4735.247
v 826.646 0.050 -4742.466
v 817.239 0.050 -4746.959
v 813.791 0.050 -4739.740
f 1573 1574 1575
f 1575 1576 1573
v 814.728 0.050 -4739.428
v 816.303 0.050 -4747.271
v 810.180 0.050 -4748.500
v 808.606 0.050 -4740.657
f 1577 1578 1579
f 1579 1580 1577
v 809.143 0.050 -4740.586
v 809.643 0.050 -4748.571
v 803.097 0.050 -4748.980
v 802.597 0.050 -4740.996
f 1581 1582 1583
f 1583 1584 1581
v 803.633 0.050 -4741.066
v 802.062 0.050 -4748.910
v 793.880 0.050 -4747.272
v 795.451 0.050 -4739.427
f 1585 1586 1587
f 1587 1588 1585
v 796.609 0.050 -4739.853
v 792.722 0.050 -4746.846
v 781.690 0.050 -4740.714
v 785.577 0.050 -4733.722
f 1589 1590 1591
f 1591 1592 1589
v 785.465 0.050 -4733.662
v 781.802 0.050 -4740.774
v 768.310 0.050 -4733.823
v 771.974 0.050 -4726.712
f 1593 1594 1595
f 1595 1596 1593
v 771.649 0.050 -4726.562
v 768.634 0.050 -4733.973
v 757.591 0.050 -4729.480
v 760.606 0.050 -4722.070
f 1597 1598 1599
f 1599 1600 1597
v 760.564 0.050 -4722.053
v 757.633 0.050 -4729.496
v 746.190 0.050 -4724.990
v 749.121 0.050 -4717.547
f 1601 1602 1603
f 1603 1604 1601
v 748.152 0.050 -4717.300
v 747.158 0.050 -4725.238
v 740.613 0.050 -4724.418
v 741.606 0.050 -4716.480
f 1605 1606 1607
f 1607 1608 1605
v 740.476 0.050 -4716.500
v 741.743 0.050 -4724.399
v 731.524 0.050 -4726.037
v 730.257 0.050 -4718.138
f 1609 1610 1611
f 1611 1612 1609
v 729.741 0.050 -4718.257
v 732.040 0.050 -4725.919
v 711.601 0.050 -4732.051
v 709.303 0.050 -4724.388
f 1613 1614 1615
f 1615 1616 1613
v 709.146 0.050 -4724.439
v 711.758 0.050 -4732.000
v 699.903 0.050 -4736.096
v 697.290 0.050 -4728.535
f 1617 1618 1619
f 1619 1620 1617
v 696.906 0.050 -4728.691
v 700.287 0.050 -4735.941
v 688.020 0.050 -4741.662
v 684.638 0.050 -4734.412
f 1621 1622 1623
f 1623 1624 1621
v 684.704 0.050 -4734.383
v 687.955 0.050 -4741.692
v 669.565 0.050 -4749.872
v 666.314 0.050 -4742.562
f 1625 1626 1627
f 1627 1628 1625
v 666.586 0.050 -4742.453
v 669.292 0.050 -4749.981
v 659.073 0.050 -4753.655
v 656.367 0.050 -4746.126
f 1629 1630 1631
f 1631 1632 1629
v 656.918 0.050 -4745.972
v 658.522 0.050 -4753.809
v 642.570 0.050 -4757.073
v 640.966 0.050 -4749.235
f 1633 1634 1635
f 1635 1636 1633
v 641.337 0.050 -4749.178
v 642.199 0.050 -4757.131
v 627.082 0.050 -4758.770
v 626.220 0.050 -4750.816
f 1637 1638 1639
f 1639 1640 1637
v 626.811 0.050 -4750.796
v 626.491 0.050 -4758.790
v 616.261 0.050 -4758.380
v 616.581 0.050 -4750.386
f 1641 1642 1643
f 1643 1644 1641
v 616.272 0.050 -4750.386
v 616.569 0.050 -4758.380
v 605.537 0.050 -4758.790
v 605.240 0.050 -4750.796
f 1645 1646 1647
f 1647 1648 1645
v 605.189 0.050 -4750.798
v 605.589 0.050 -4758.788
v 597.407 0.050 -4759.197
v 597.007 0.050 -4751.207
f 1649 1650 1651
f 1651 1652 1649
v 596.940 0.050 -4751.211
v 597.473 0.050 -4759.194
v 591.340 0.050 -4759.603
v 590.807 0.050 -4751.621
f 1653 1654 1655
f 1655 1656 1653
v 589.809 0.050 -4751.817
v 592.337 0.050 -4759.407
v 580.081 0.050 -4763.490
v 577.553 0.050 -4755.900
f 1657 1658 1659
f 1659 1660 1657
v 577.198 0.050 -4756.038
v 580.436 0.050 -4763.353
v 568.347 0.050 -4768.705
v 565.108 0.050 -4761.389
f 1661 1662 1663
f 1663 1664 1661
v 565.115 0.050 -4761.387
v 568.340 0.050 -4768.707
v 562.852 0.050 -4771.126
v 559.627 0.050 -4763.805
f 1665 1666 1667
f 1667 1668 1665
v 560.323 0.050 -4763.572
v 562.156 0.050 -4771.359
v 555.199 0.050 -4772.997
v 553.365 0.050 -4765.210
f 1669 1670 1671
f 1671 1672 1669
v 553.715 0.050 -4765.144
v 554.849 0.050 -4773.063
v 546.266 0.050 -4774.292
v 545.132 0.050 -4766.373
f 1673 1674 1675
f 1675 1676 1673
v 546.266 0.050 -4766.373
v 545.132 0.050 -4774.292
v 536.550 0.050 -4773.063
v 537.684 0.050 -4765.144
f 1677 1678 1679
f 1679 1680 1677
v 538.851 0.050 -4765.499
v 535.383 0.050 -4772.708
v 524.340 0.050 -4767.396
v 527.808 0.050 -4760.187
f 1681 1682 1683
f 1683 1684 1681
v 527.919 0.050 -4760.243
v 524.229 0.050 -4767.341
v 514.010 0.050 -4762.029
v 517.699 0.050 -4754.930
f 1685 1686 1687
f 1687 1688 1685
v 516.756 0.050 -4754.582
v 514.953 0.050 -4762.377
v 499.012 0.050 -4758.690
v 500.815 0.050 -4750.896
f 1689 1690 1691
f 1691 1692 1689
v 500.318 0.050 -4750.813
v 499.509 0.050 -4758.772
v 479.472 0.050 -4756.737
v 480.280 0.050 -4748.778
f 1693 1694 1695
f 1695 1696 1693
v 480.184 0.050 -4748.770
v 479.569 0.050 -4756.746
v 463.628 0.050 -4755.517
v 464.243 0.050 -4747.541
f 1697 1698 1699
f 1699 1700 1697
v 464.535 0.050 -4747.574
v 463.335 0.050 -4755.484
v 449.843 0.050 -4753.435
v 451.044 0.050 -4745.526
f 1701 1702 1703
f 1703 1704 1701
v 451.819 0.050 -4745.725
v 449.068 0.050 -4753.237
v 436.800 0.050 -4748.744
v 439.551 0.050 -4741.232
f 1705 1706 1707
f 1707 1708 1705
v 440.006 0.050 -4741.431
v 436.346 0.050 -4748.545
v 422.041 0.050 -4741.184
v 425.701 0.050 -4734.071
f 1709 1710 1711
f 1711 1712 1709
v 426.443 0.050 -4734.564
v 421.299 0.050 -4740.691
v 408.631 0.050 -4730.054
v 413.775 0.050 -4723.927
f 1713 1714 1715
f 1715 1716 1713
v 414.186 0.050 -4724.326
v 408.220 0.050 -4729.655
v 405.080 0.050 -4726.140
v 411.047 0.050 -4720.811
f 1717 1718 1719
f 1719 1720 1717
v 411.053 0.050 -4720.817
v 405.075 0.050 -4726.133
v 395.123 0.050 -4714.941
v 401.101 0.050 -4709.625
f 1721 1722 1723
f 1723 1724 1721
v 401.150 0.050 -4709.681
v 395.074 0.050 -4714.885
v 380.358 0.050 -4697.707
v 386.433 0.050 -4692.502
f 1725 1726 1727
f 1727 1728 1725
v 407.245 0.050 -4719.560
v 408.883 0.050 -4727.391
v 400.924 0.050 -4729.056
v 399.285 0.050 -4721.225
f 1729 1730 1731
f 1731 1732 1729
v 398.797 0.050 -4721.360
v 401.412 0.050 -4728.921
v 393.353 0.050 -4731.709
v 390.737 0.050 -4724.148
f 1733 1734 1735
f 1735 1736 1733
v 392.045 0.050 -4723.929
v 392.045 0.050 -4731.929
v 387.091 0.050 -4731.929
v 387.091 0.050 -4723.929
f 1737 1738 1739
f 1739 1740 1737
v 387.585 0.050 -4723.959
v 386.598 0.050 -4731.898
v 379.161 0.050 -4730.973
v 380.149 0.050 -4723.034
f 1741 1742 1743
f 1743 1744 1741
v 380.622 0.050 -4723.122
v 378.688 0.050 -4730.885
v 372.855 0.050 -4729.431
v 374.789 0.050 -4721.669
f 1745 1746 1747
f 1747 1748 1745
v 374.789 0.050 -4721.669
v 372.855 0.050 -4729.431
v 368.770 0.050 -4728.414
v 370.703 0.050 -4720.651
f 1749 1750 1751
f 1751 1752 1749
v 369.959 0.050 -4720.539
v 369.514 0.050 -4728.526
v 358.360 0.050 -4727.905
v 358.805 0.050 -4719.918
f 1753 1754 1755
f 1755 1756 1753
v 357.317 0.050 -4720.117
v 359.847 0.050 -4727.706
v 353.346 0.050 -4729.873
v 350.816 0.050 -4722.284
f 1757 1758 1759
f 1759 1760 1757
v 350.029 0.050 -4722.645
v 354.134 0.050 -4729.512
v 351.039 0.050 -4731.362
v 346.934 0.050 -4724.495
f 1761 1762 1763
f 1763 1764 1761
v 345.042 0.050 -4727.267
v 352.932 0.050 -4728.590
v 351.685 0.050 -4736.029
v 343.795 0.050 -4734.707
f 1765 1766 1767
f 1767 1768 1765
v 344.088 0.050 -4737.001
v 351.391 0.050 -4733.735
v 352.638 0.050 -4736.523
v 345.335 0.050 -4739.789
f 1769 1770 1771
f 1771 1772 1769
v 346.865 0.050 -4741.547
v 351.108 0.050 -4734.765
v 353.579 0.050 -4736.311
v 349.336 0.050 -4743.093
f 1773 1774 1775
f 1775 1776 1773
v 351.458 0.050 -4743.702
v 351.458 0.050 -4735.702
v 354.864 0.050 -4735.702
v 354.864 0.050 -4743.702
f 1777 1778 1779
f 1779 1780 1777
v 358.029 0.050 -4742.149
v 351.700 0.050 -4737.256
v 354.806 0.050 -4733.239
v 361.135 0.050 -4738.132
f 1781 1782 1783
f 1783 1784 1781
v 361.403 0.050 -4737.739
v 354.538 0.050 -4733.631
v 357.321 0.050 -4728.980
v 364.186 0.050 -4733.088
f 1785 1786 1787
f 1787 1788 1785
v 363.456 0.050 -4733.982
v 358.050 0.050 -4728.086
v 361.768 0.050 -4724.676
v 367.174 0.050 -4730.573
f 1789 1790 1791
f 1791 1792 1789
v 365.868 0.050 -4731.373
v 363.074 0.050 -4723.876
v 365.557 0.050 -4722.951
v 368.350 0.050 -4730.448
f 1793 1794 1795
f 1795 1796 1793
v 367.614 0.050 -4730.645
v 366.293 0.050 -4722.754
v 373.162 0.050 -4721.605
v 374.482 0.050 -4729.495
f 1797 1798 1799
f 1799 1800 1797
v 569.882 0.050 -4767.507
v 563.573 0.050 -4762.588
v 570.764 0.050 -4753.364
v 577.073 0.050 -4758.283
f 1801 1802 1803
f 1803 1804 1801
v 577.431 0.050 -4757.739
v 570.407 0.050 -4753.909
v 577.843 0.050 -4740.272
v 584.867 0.050 -4744.102
f 1805 1806 1807
f 1807 1808 1805
v 584.786 0.050 -4744.243
v 577.924 0.050 -4740.130
v 584.425 0.050 -4729.282
v 591.287 0.050 -4733.394
f 1809 1810 1811
f 1811 1812 1809
v 591.678 0.050 -4732.517
v 584.034 0.050 -4730.159
v 586.516 0.050 -4722.111
v 594.161 0.050 -4724.469
f 1813 1814 1815
f 1815 1816 1813
v 594.219 0.050 -4724.260
v 586.458 0.050 -4722.321
v 590.176 0.050 -4707.442
v 597.937 0.050 -4709.381
f 1817 1818 1819
f 1819 1820 1817
v 990.712 0.050 -5028.918
v 993.714 0.050 -5021.503
v 999.491 0.050 -5023.842
v 996.489 0.050 -5031.257
f 1821 1822 1823
f 1823 1824 1821
v 996.340 0.050 -5031.193
v 999.640 0.050 -5023.906
v 1008.891 0.050 -5028.095
v 1005.591 0.050 -5035.382
f 1825 1826 1827
f 1827 1828 1825
v 841.598 0.050 -5069.555
v 834.895 0.050 -5073.922
v 826.535 0.050 -5061.091
v 833.238 0.050 -5056.724
f 1829 1830 1831
f 1831 1832 1829
v 832.021 0.050 -5055.524
v 827.753 0.050 -5062.290
v 822.075 0.050 -5058.709
v 826.344 0.050 -5051.943
f 1833 1834 1835
f 1835 1836 1833
v 825.388 0.050 -5051.504
v 823.031 0.050 -5059.149
v 815.272 0.050 -5056.757
v 817.629 0.050 -5049.112
f 1837 1838 1839
f 1839 1840 1837
v 818.720 0.050 -5049.640
v 814.181 0.050 -5056.228
v 809.405 0.050 -5052.938
v 813.944 0.050 -5046.350
f 1841 1842 1843
f 1843 1844 1841
v 815.438 0.050 -5048.286
v 807.912 0.050 -5051.002
v 805.218 0.050 -5043.535
v 812.744 0.050 -5040.820
f 1845 1846 1847
f 1847 1848 1845
v 812.973 0.050 -5042.429
v 804.989 0.050 -5041.926
v 805.289 0.050 -5037.156
v 813.274 0.050 -5037.659
f 1849 1850 1851
f 1851 1852 1849
v 812.859 0.050 -5039.196
v 805.704 0.050 -5035.618
v 808.988 0.050 -5029.051
v 816.143 0.050 -5032.629
f 1853 1854 1855
f 1855 1856 1853
v 814.648 0.050 -5034.255
v 810.483 0.050 -5027.425
v 817.351 0.050 -5023.236
v 821.517 0.050 -5030.066
f 1857 1858 1859
f 1859 1860 1857
v 819.006 0.050 -5030.628
v 819.861 0.050 -5022.674
v 828.221 0.050 -5023.572
v 827.367 0.050 -5031.526
f 1861 1862 1863
f 1863 1864 1861
v 824.659 0.050 -5030.034
v 830.929 0.050 -5025.065
v 836.606 0.050 -5032.227
v 830.337 0.050 -5037.196
f 1865 1866 1867
f 1867 1868 1865
v 829.692 0.050 -5036.022
v 837.251 0.050 -5033.401
v 839.633 0.050 -5040.273
v 832.074 0.050 -5042.893
f 1869 1870 1871
f 1871 1872 1869
v 831.896 0.050 -5042.162
v 839.811 0.050 -5041.004
v 841.604 0.050 -5053.254
v 833.688 0.050 -5054.412
f 1873 1874 1875
f 1875 1876 1873
v 833.648 0.050 -5053.967
v 841.644 0.050 -5053.699
v 842.245 0.050 -5071.604
v 834.249 0.050 -5071.873
f 1877 1878 1879
f 1879 1880 1877
v 834.322 0.050 -5072.512
v 842.171 0.050 -5070.965
v 846.056 0.050 -5090.681
v 838.207 0.050 -5092.228
f 1881 1882 1883
f 1883 1884 1881
v 838.218 0.050 -5092.281
v 846.046 0.050 -5090.628
v 850.521 0.050 -5111.824
v 842.693 0.050 -5113.477
f 1885 1886 1887
f 1887 1888 1885
v 842.642 0.050 -5113.175
v 850.572 0.050 -5112.126
v 852.665 0.050 -5127.944
v 844.734 0.050 -5128.993
f 1889 1890 1891
f 1891 1892 1889
v 844.797 0.050 -5129.344
v 852.603 0.050 -5127.593
v 862.232 0.050 -5170.514
v 854.426 0.050 -5172.265
f 1893 1894 1895
f 1895 1896 1893
v 345.192 0.050 -4935.260
v 338.799 0.050 -4930.450
v 347.271 0.050 -4919.191
v 353.663 0.050 -4924.001
f 1897 1898 1899
f 1899 1900 1897
v 353.151 0.050 -4924.562
v 347.783 0.050 -4918.630
v 356.778 0.050 -4910.490
v 362.146 0.050 -4916.422
f 1901 1902 1903
f 1903 1904 1901
v 361.159 0.050 -4917.078
v 357.764 0.050 -4909.834
v 371.468 0.050 -4903.412
v 374.863 0.050 -4910.656
f 1905 1906 1907
f 1907 1908 1905
v 375.239 0.050 -4910.455
v 371.092 0.050 -4903.614
v 383.081 0.050 -4896.346
v 387.228 0.050 -4903.187
f 1909 1910 1911
f 1911 1912 1909
v 387.196 0.050 -4903.206
v 383.113 0.050 -4896.326
v 394.668 0.050 -4889.468
v 398.751 0.050 -4896.348
f 1913 1914 1915
f 1915 1916 1913
v 398.975 0.050 -4896.205
v 394.444 0.050 -4889.611
v 401.290 0.050 -4884.907
v 405.821 0.050 -4891.500
f 1917 1918 1919
f 1919 1920 1917
v 406.080 0.050 -4891.306
v 401.031 0.050 -4885.101
v 419.443 0.050 -4870.116
v 424.493 0.050 -4876.321
f 1921 1922 1923
f 1923 1924 1921
v 1752.601 0.050 -5243.512
v 1744.612 0.050 -5243.096
v 1747.039 0.050 -5196.474
v 1755.028 0.050 -5196.890
f 1925 1926 1927
f 1927 1928 1925
v 1755.033 0.050 -5196.735
v 1747.034 0.050 -5196.630
v 1747.635 0.050 -5150.604
v 1755.634 0.050 -5150.708
f 1929 1930 1931
f 1931 1932 1929
v 1755.605 0.050 -5150.175
v 1747.664 0.050 -5151.137
v 1742.821 0.050 -5111.176
v 1750.763 0.050 -5110.214
f 1933 1934 1935
f 1935 1936 1933
v 1750.469 0.050 -5109.119
v 1743.115 0.050 -5112.271
v 1721.319 0.050 -5061.408
v 1728.672 0.050 -5058.257
f 1937 1938 1939
f 1939 1940 1937
v 1728.420 0.050 -5057.765
v 1721.572 0.050 -5061.900
v 1690.992 0.050 -5011.262
v 1697.840 0.050 -5007.127
f 1941 1942 1943
f 1943 1944 1941
