# Roads mesh for tecate_core_z14_x2886_y6620
v 5537.355 0.050 -4980.058
v 5545.168 0.050 -4978.338
v 5548.396 0.050 -4993.006
v 5540.583 0.050 -4994.726
f 1 2 3
f 3 4 1
v 5540.761 0.050 -4995.314
v 5548.219 0.050 -4992.418
v 5579.054 0.050 -5071.837
v 5571.597 0.050 -5074.732
f 5 6 7
f 7 8 5
v 5575.511 0.050 -5077.280
v 5575.139 0.050 -5069.289
v 5609.203 0.050 -5067.703
v 5609.575 0.050 -5075.695
f 9 10 11
f 11 12 9
v 5612.267 0.050 -5074.477
v 5606.511 0.050 -5068.921
v 5651.930 0.050 -5021.877
v 5657.685 0.050 -5027.434
f 13 14 15
f 15 16 13
v 5658.675 0.050 -5023.636
v 5650.940 0.050 -5025.675
v 5626.561 0.050 -4933.174
v 5634.296 0.050 -4931.135
f 17 18 19
f 19 20 17
v 5630.338 0.050 -4928.156
v 5630.520 0.050 -4936.154
v 5560.834 0.050 -4937.739
v 5560.652 0.050 -4929.741
f 21 22 23
f 23 24 21
v 5557.066 0.050 -4932.165
v 5564.419 0.050 -4935.316
v 5544.938 0.050 -4980.773
v 5537.585 0.050 -4977.622
f 25 26 27
f 27 28 25
v 5065.638 0.050 -5267.990
v 5059.983 0.050 -5262.331
v 5077.572 0.050 -5244.756
v 5083.226 0.050 -5250.415
f 29 30 31
f 31 32 29
v 5084.196 0.050 -5248.844
v 5076.602 0.050 -5246.327
v 5085.841 0.050 -5218.444
v 5093.435 0.050 -5220.961
f 33 34 35
f 35 36 33
v 5093.264 0.050 -5221.391
v 5086.013 0.050 -5218.013
v 5184.196 0.050 -5007.241
v 5191.448 0.050 -5010.619
f 37 38 39
f 39 40 37
v 5191.334 0.050 -5010.845
v 5184.310 0.050 -5007.015
v 5211.472 0.050 -4957.197
v 5218.496 0.050 -4961.027
f 41 42 43
f 43 44 41
v 5217.214 0.050 -4962.433
v 5212.755 0.050 -4955.791
v 5226.336 0.050 -4946.673
v 5230.795 0.050 -4953.315
f 45 46 47
f 47 48 45
v 5229.602 0.050 -4953.857
v 5227.528 0.050 -4946.131
v 5246.230 0.050 -4941.109
v 5248.304 0.050 -4948.836
f 49 50 51
f 51 52 49
v 5247.017 0.050 -4948.965
v 5247.516 0.050 -4940.980
v 5255.977 0.050 -4941.509
v 5255.478 0.050 -4949.493
f 53 54 55
f 55 56 53
v 5253.858 0.050 -4949.037
v 5257.596 0.050 -4941.965
v 5272.847 0.050 -4950.025
v 5269.109 0.050 -4957.098
f 57 58 59
f 59 60 57
v 5267.571 0.050 -4955.657
v 5274.385 0.050 -4951.466
v 5294.868 0.050 -4984.766
v 5288.054 0.050 -4988.958
f 61 62 63
f 63 64 61
v 5288.790 0.050 -4989.840
v 5294.131 0.050 -4983.884
v 5299.141 0.050 -4988.377
v 5293.799 0.050 -4994.333
f 65 66 67
f 67 68 65
v 5295.083 0.050 -4995.107
v 5297.857 0.050 -4987.603
v 5304.648 0.050 -4990.114
v 5301.873 0.050 -4997.618
f 69 70 71
f 71 72 69
v 5303.261 0.050 -4997.866
v 5303.261 0.050 -4989.866
v 5544.490 0.050 -4989.866
v 5544.490 0.050 -4997.866
f 73 74 75
f 75 76 73
v 4828.184 0.050 -4706.346
v 4833.902 0.050 -4700.751
v 4846.704 0.050 -4713.833
v 4840.986 0.050 -4719.428
f 77 78 79
f 79 80 77
v 4841.615 0.050 -4719.951
v 4846.075 0.050 -4713.310
v 4865.556 0.050 -4726.392
v 4861.096 0.050 -4733.033
f 81 82 83
f 83 84 81
v 4861.576 0.050 -4733.309
v 4865.076 0.050 -4726.115
v 4878.657 0.050 -4732.723
v 4875.157 0.050 -4739.916
f 85 86 87
f 87 88 85
v 4875.496 0.050 -4740.063
v 4878.317 0.050 -4732.576
v 5025.259 0.050 -4787.944
v 5022.438 0.050 -4795.430
f 89 90 91
f 91 92 89
v 5021.866 0.050 -4795.161
v 5025.832 0.050 -4788.213
v 5046.203 0.050 -4799.841
v 5042.237 0.050 -4806.789
f 93 94 95
f 95 96 93
v 5041.464 0.050 -4806.214
v 5046.977 0.050 -4800.417
v 5066.569 0.050 -4819.049
v 5061.056 0.050 -4824.846
f 97 98 99
f 99 100 97
v 5060.477 0.050 -4824.155
v 5067.148 0.050 -4819.740
v 5078.168 0.050 -4836.390
v 5071.497 0.050 -4840.805
f 101 102 103
f 103 104 101
v 5071.106 0.050 -4840.051
v 5078.559 0.050 -4837.144
v 5086.240 0.050 -4856.833
v 5078.788 0.050 -4859.740
f 105 106 107
f 107 108 105
v 5078.908 0.050 -4860.018
v 5086.120 0.050 -4856.555
v 5134.544 0.050 -4957.380
v 5127.332 0.050 -4960.844
f 109 110 111
f 111 112 109
v 5127.843 0.050 -4961.645
v 5134.033 0.050 -4956.578
v 5164.535 0.050 -4993.843
v 5158.344 0.050 -4998.910
f 113 114 115
f 115 116 113
v 5159.721 0.050 -4999.988
v 5163.158 0.050 -4992.765
v 5189.541 0.050 -5005.318
v 5186.104 0.050 -5012.542
f 117 118 119
f 119 120 117
v 5185.021 0.050 -5011.786
v 5190.623 0.050 -5006.074
v 5292.480 0.050 -5105.976
v 5286.879 0.050 -5111.687
f 121 122 123
f 123 124 121
v 5286.661 0.050 -5111.456
v 5292.699 0.050 -5106.208
v 5307.170 0.050 -5122.858
v 5301.132 0.050 -5128.106
f 125 126 127
f 127 128 125
v 5300.877 0.050 -5127.780
v 5307.425 0.050 -5123.184
v 5321.896 0.050 -5143.799
v 5315.349 0.050 -5148.395
f 129 130 131
f 131 132 129
v 5315.121 0.050 -5148.030
v 5322.125 0.050 -5144.164
v 5343.275 0.050 -5182.486
v 5336.271 0.050 -5186.352
f 133 134 135
f 135 136 133
v 5336.121 0.050 -5186.050
v 5343.426 0.050 -5182.789
v 5362.128 0.050 -5224.679
v 5354.822 0.050 -5227.940
f 137 138 139
f 139 140 137
v 5354.814 0.050 -5227.920
v 5362.136 0.050 -5224.699
v 5379.168 0.050 -5263.418
v 5371.845 0.050 -5266.639
f 141 142 143
f 143 144 141
v 5371.650 0.050 -5266.088
v 5379.364 0.050 -5263.969
v 5382.704 0.050 -5276.127
v 5374.989 0.050 -5278.246
f 145 146 147
f 147 148 145
v 5374.882 0.050 -5277.720
v 5382.811 0.050 -5276.653
v 5387.152 0.050 -5308.897
v 5379.224 0.050 -5309.964
f 149 150 151
f 151 152 149
v 5379.210 0.050 -5309.007
v 5387.165 0.050 -5309.854
v 5375.254 0.050 -5421.783
v 5367.299 0.050 -5420.937
f 153 154 155
f 155 156 153
v 5367.321 0.050 -5421.955
v 5375.232 0.050 -5420.765
v 5388.813 0.050 -5511.023
v 5380.902 0.050 -5512.213
f 157 158 159
f 159 160 157
v 5380.997 0.050 -5512.665
v 5388.718 0.050 -5510.571
v 5397.178 0.050 -5541.758
v 5389.458 0.050 -5543.853
f 161 162 163
f 163 164 161
v 5389.645 0.050 -5544.390
v 5396.991 0.050 -5541.221
v 5406.342 0.050 -5562.894
v 5398.996 0.050 -5566.063
f 165 166 167
f 167 168 165
v 5399.150 0.050 -5566.381
v 5406.187 0.050 -5562.576
v 5478.434 0.050 -5696.181
v 5471.397 0.050 -5699.986
f 169 170 171
f 171 172 169
v 5471.226 0.050 -5699.629
v 5478.605 0.050 -5696.538
v 5488.735 0.050 -5720.722
v 5481.356 0.050 -5723.812
f 173 174 175
f 175 176 173
v 5481.624 0.050 -5724.339
v 5488.467 0.050 -5720.195
v 5496.148 0.050 -5732.882
v 5489.305 0.050 -5737.025
f 177 178 179
f 179 180 177
v 5490.091 0.050 -5737.963
v 5495.362 0.050 -5731.945
v 5518.294 0.050 -5752.032
v 5513.022 0.050 -5758.050
f 181 182 183
f 183 184 181
v 5514.326 0.050 -5758.813
v 5516.990 0.050 -5751.269
v 5592.576 0.050 -5777.964
v 5589.912 0.050 -5785.507
f 185 186 187
f 187 188 185
v 5590.420 0.050 -5785.650
v 5592.068 0.050 -5777.822
v 5623.460 0.050 -5784.429
v 5621.812 0.050 -5792.258
f 189 190 191
f 191 192 189
v 5622.033 0.050 -5792.298
v 5623.239 0.050 -5784.389
v 5709.066 0.050 -5797.472
v 5707.861 0.050 -5805.381
f 193 194 195
f 195 196 193
v 5708.025 0.050 -5805.402
v 5708.902 0.050 -5797.451
v 5907.874 0.050 -5819.388
v 5906.998 0.050 -5827.340
f 197 198 199
f 199 200 197
v 5907.031 0.050 -5827.343
v 5907.841 0.050 -5819.385
v 6044.274 0.050 -5833.261
v 6043.464 0.050 -5841.220
f 201 202 203
f 203 204 201
v 6042.543 0.050 -5841.014
v 6045.196 0.050 -5833.467
v 6068.127 0.050 -5841.528
v 6065.474 0.050 -5849.075
f 205 206 207
f 207 208 205
v 6064.966 0.050 -5848.856
v 6068.636 0.050 -5841.747
v 6081.437 0.050 -5848.355
v 6077.768 0.050 -5855.464
f 209 210 211
f 211 212 209
v 6077.238 0.050 -5855.136
v 6081.967 0.050 -5848.683
v 6121.819 0.050 -5877.889
v 6117.091 0.050 -5884.342
f 213 214 215
f 215 216 213
v 6116.661 0.050 -5883.977
v 6122.249 0.050 -5878.253
v 6134.161 0.050 -5889.883
v 6128.572 0.050 -5895.607
f 217 218 219
f 219 220 217
v 6128.228 0.050 -5895.226
v 6134.504 0.050 -5890.264
v 6158.326 0.050 -5920.395
v 6152.051 0.050 -5925.357
f 221 222 223
f 223 224 221
v 6151.473 0.050 -5924.357
v 6158.904 0.050 -5921.395
v 6177.606 0.050 -5968.310
v 6170.175 0.050 -5971.272
f 225 226 227
f 227 228 225
v 6170.023 0.050 -5970.814
v 6177.757 0.050 -5968.768
v 6252.453 0.050 -6251.054
v 6244.719 0.050 -6253.101
f 229 230 231
f 231 232 229
v 6244.657 0.050 -6252.831
v 6252.514 0.050 -6251.324
v 6259.305 0.050 -6286.743
v 6251.448 0.050 -6288.249
f 233 234 235
f 235 236 233
v 6251.376 0.050 -6287.477
v 6259.376 0.050 -6287.515
v 6257.706 0.050 -6632.851
v 6249.706 0.050 -6632.812
f 237 238 239
f 239 240 237
v 6249.759 0.050 -6633.476
v 6257.654 0.050 -6632.188
v 6265.224 0.050 -6678.577
v 6257.328 0.050 -6679.865
f 241 242 243
f 243 244 241
v 6257.475 0.050 -6680.466
v 6265.077 0.050 -6677.976
v 6273.649 0.050 -6704.144
v 6266.046 0.050 -6706.634
f 245 246 247
f 247 248 245
v 6266.198 0.050 -6707.027
v 6273.497 0.050 -6703.752
v 6300.659 0.050 -6764.283
v 6293.360 0.050 -6767.558
f 249 250 251
f 251 252 249
v 6293.729 0.050 -6768.208
v 6300.290 0.050 -6763.632
v 6320.662 0.050 -6792.840
v 6314.100 0.050 -6797.417
f 253 254 255
f 255 256 253
v 6314.322 0.050 -6797.705
v 6320.440 0.050 -6792.552
v 6346.712 0.050 -6823.742
v 6340.593 0.050 -6828.896
f 257 258 259
f 259 260 257
v 6341.138 0.050 -6829.430
v 6346.167 0.050 -6823.208
v 6367.429 0.050 -6840.389
v 6362.400 0.050 -6846.612
f 261 262 263
f 263 264 261
v 6362.779 0.050 -6846.883
v 6367.050 0.050 -6840.118
v 6395.102 0.050 -6857.828
v 6390.832 0.050 -6864.593
f 265 266 267
f 267 268 265
v 6391.443 0.050 -6864.909
v 6394.491 0.050 -6857.512
v 6486.218 0.050 -6895.312
v 6483.170 0.050 -6902.708
f 269 270 271
f 271 272 269
v 6482.514 0.050 -6902.364
v 6486.875 0.050 -6895.656
v 6496.225 0.050 -6901.736
v 6491.865 0.050 -6908.443
f 273 274 275
f 275 276 273
v 6491.049 0.050 -6907.740
v 6497.041 0.050 -6902.440
v 6506.392 0.050 -6913.013
v 6500.400 0.050 -6918.313
f 277 278 279
f 279 280 277
v 6499.684 0.050 -6917.154
v 6507.108 0.050 -6914.171
v 6529.149 0.050 -6969.020
v 6521.726 0.050 -6972.003
f 281 282 283
f 283 284 281
v 6521.473 0.050 -6971.042
v 6529.402 0.050 -6969.982
v 6544.653 0.050 -7084.042
v 6536.723 0.050 -7085.102
f 285 286 287
f 287 288 285
v 6536.807 0.050 -7085.539
v 6544.569 0.050 -7083.605
v 6558.752 0.050 -7140.543
v 6550.989 0.050 -7142.476
f 289 290 291
f 291 292 289
