# Buildings mesh for tecate_core_z14_x2882_y6621
v -3855.384 -75.431 -3409.655
v -3866.738 -75.431 -3398.451
v -3863.454 -75.431 -3388.158
v -3853.747 -75.431 -3385.463
v -3849.417 -75.431 -3371.140
v -3834.333 -75.431 -3375.461
v -3836.125 -75.431 -3381.592
v -3844.196 -75.431 -3379.491
v -3847.023 -75.431 -3386.361
v -3845.387 -75.431 -3390.391
v -3847.480 -75.431 -3396.363
v -3851.064 -75.431 -3395.623
v -3855.384 -75.431 -3409.655
v -3855.384 -71.431 -3409.655
v -3866.738 -71.431 -3398.451
v -3863.454 -71.431 -3388.158
v -3853.747 -71.431 -3385.463
v -3849.417 -71.431 -3371.140
v -3834.333 -71.431 -3375.461
v -3836.125 -71.431 -3381.592
v -3844.196 -71.431 -3379.491
v -3847.023 -71.431 -3386.361
v -3845.387 -71.431 -3390.391
v -3847.480 -71.431 -3396.363
v -3851.064 -71.431 -3395.623
v -3855.384 -71.431 -3409.655
f 1 2 15
f 15 14 1
f 2 3 16
f 16 15 2
f 3 4 17
f 17 16 3
f 4 5 18
f 18 17 4
f 5 6 19
f 19 18 5
f 6 7 20
f 20 19 6
f 7 8 21
f 21 20 7
f 8 9 22
f 22 21 8
f 9 10 23
f 23 22 9
f 10 11 24
f 24 23 10
f 11 12 25
f 25 24 11
f 12 13 26
f 26 25 12
v -3849.979 -71.431 -3389.831
f 14 15 27
f 15 16 27
f 16 17 27
f 17 18 27
f 18 19 27
f 19 20 27
f 20 21 27
f 21 22 27
f 22 23 27
f 23 24 27
f 24 25 27
f 25 26 27
