# Terrain mesh for tecate_core_z14_x2884_y6622
v -618.867 4.613 193.751
v -465.993 13.908 193.751
v -313.119 -0.756 193.751
v -160.245 -10.909 193.751
v -7.371 -16.255 193.751
v 145.503 -42.273 193.751
v 298.378 -59.658 193.751
v 451.252 -63.667 193.751
v 604.126 -81.412 193.751
v 757.000 -87.642 193.751
v 909.874 -77.201 193.751
v 1062.748 -81.660 193.751
v 1215.622 -80.905 193.751
v 1368.496 -67.738 193.751
v 1521.370 -74.553 193.751
v 1674.244 -82.018 193.751
v 1827.118 -76.879 193.751
v -618.867 34.470 40.892
v -465.993 38.156 40.892
v -313.119 25.446 40.892
v -160.245 12.072 40.892
v -7.371 -0.950 40.892
v 145.503 -26.270 40.892
v 298.378 -46.530 40.892
v 451.252 -57.878 40.892
v 604.126 -74.206 40.892
v 757.000 -81.427 40.892
v 909.874 -77.070 40.892
v 1062.748 -79.106 40.892
v 1215.622 -77.619 40.892
v 1368.496 -69.726 40.892
v 1521.370 -73.754 40.892
v 1674.244 -79.438 40.892
v 1827.118 -79.336 40.892
v -618.867 72.380 -111.969
v -465.993 59.155 -111.969
v -313.119 60.078 -111.969
v -160.245 42.599 -111.969
v -7.371 9.635 -111.969
v 145.503 -4.215 -111.969
v 298.378 -26.893 -111.969
v 451.252 -58.326 -111.969
v 604.126 -63.199 -111.969
v 757.000 -69.258 -111.969
v 909.874 -83.984 -111.969
v 1062.748 -74.311 -111.969
v 1215.622 -68.278 -111.969
v 1368.496 -78.915 -111.969
v 1521.370 -71.773 -111.969
v 1674.244 -70.342 -111.969
v 1827.118 -88.817 -111.969
v -618.867 107.627 -264.833
v -465.993 101.203 -264.833
v -313.119 89.140 -264.833
v -160.245 67.884 -264.833
v -7.371 39.835 -264.833
v 145.503 12.295 -264.833
v 298.378 -15.463 -264.833
v 451.252 -40.800 -264.833
v 604.126 -57.238 -264.833
v 757.000 -67.784 -264.833
v 909.874 -74.122 -264.833
v 1062.748 -73.421 -264.833
v 1215.622 -71.488 -264.833
v 1368.496 -72.124 -264.833
v 1521.370 -72.156 -264.833
v 1674.244 -75.275 -264.833
v 1827.118 -82.995 -264.833
v -618.867 144.881 -417.698
v -465.993 148.410 -417.698
v -313.119 119.474 -417.698
v -160.245 94.230 -417.698
v -7.371 74.254 -417.698
v 145.503 29.255 -417.698
v 298.378 -4.219 -417.698
v 451.252 -20.076 -417.698
v 604.126 -51.461 -417.698
v 757.000 -67.432 -417.698
v 909.874 -61.700 -417.698
v 1062.748 -72.919 -417.698
v 1215.622 -76.340 -417.698
v 1368.496 -63.066 -417.698
v 1521.370 -72.834 -417.698
v 1674.244 -82.131 -417.698
v 1827.118 -75.046 -417.698
v -618.867 190.519 -570.565
v -465.993 178.755 -570.565
v -313.119 160.459 -570.565
v -160.245 130.282 -570.565
v -7.371 91.575 -570.565
v 145.503 54.907 -570.565
v 298.378 17.884 -570.565
v 451.252 -16.579 -570.565
v 604.126 -39.172 -570.565
v 757.000 -54.997 -570.565
v 909.874 -66.359 -570.565
v 1062.748 -67.949 -570.565
v 1215.622 -67.770 -570.565
v 1368.496 -70.679 -570.565
v 1521.370 -70.950 -570.565
v 1674.244 -74.193 -570.565
v 1827.118 -83.168 -570.565
v -618.867 233.589 -723.434
v -465.993 211.709 -723.434
v -313.119 198.538 -723.434
v -160.245 163.712 -723.434
v -7.371 111.822 -723.434
v 145.503 78.351 -723.434
v 298.378 37.436 -723.434
v 451.252 -9.842 -723.434
v 604.126 -28.392 -723.434
v 757.000 -45.145 -723.434
v 909.874 -67.636 -723.434
v 1062.748 -63.943 -723.434
v 1215.622 -61.961 -723.434
v 1368.496 -74.926 -723.434
v 1521.370 -69.598 -723.434
v 1674.244 -69.267 -723.434
v 1827.118 -88.028 -723.434
v -618.867 266.359 -876.305
v -465.993 257.889 -876.305
v -313.119 224.572 -876.305
v -160.245 186.246 -876.305
v -7.371 146.306 -876.305
v 145.503 92.444 -876.305
v 298.378 45.916 -876.305
v 451.252 12.097 -876.305
v 604.126 -24.194 -876.305
v 757.000 -46.870 -876.305
v 909.874 -53.341 -876.305
v 1062.748 -64.239 -876.305
v 1215.622 -68.688 -876.305
v 1368.496 -63.788 -876.305
v 1521.370 -70.654 -876.305
v 1674.244 -78.065 -876.305
v 1827.118 -78.011 -876.305
v -618.867 296.591 -1029.178
v -465.993 289.250 -1029.178
v -313.119 250.155 -1029.178
v -160.245 208.581 -1029.178
v -7.371 167.958 -1029.178
v 145.503 107.440 -1029.178
v 298.378 57.146 -1029.178
v 451.252 23.381 -1029.178
v 604.126 -18.188 -1029.178
v 757.000 -43.550 -1029.178
v 909.874 -48.286 -1029.178
v 1062.748 -62.730 -1029.178
v 1215.622 -68.956 -1029.178
v 1368.496 -61.167 -1029.178
v 1521.370 -70.518 -1029.178
v 1674.244 -79.499 -1029.178
v 1827.118 -76.075 -1029.178
v -618.867 323.936 -1182.053
v -465.993 298.799 -1182.053
v -313.119 275.914 -1182.053
v -160.245 231.370 -1182.053
v -7.371 170.532 -1182.053
v 145.503 124.341 -1182.053
v 298.378 73.006 -1182.053
v 451.252 18.599 -1182.053
v 604.126 -9.187 -1182.053
v 757.000 -32.328 -1182.053
v 909.874 -57.321 -1182.053
v 1062.748 -58.385 -1182.053
v 1215.622 -59.262 -1182.053
v 1368.496 -71.606 -1182.053
v 1521.370 -68.536 -1182.053
v 1674.244 -69.611 -1182.053
v 1827.118 -86.551 -1182.053
v -618.867 335.460 -1334.930
v -465.993 312.344 -1334.930
v -313.119 285.445 -1334.930
v -160.245 239.665 -1334.930
v -7.371 180.224 -1334.930
v 145.503 129.775 -1334.930
v 298.378 76.804 -1334.930
v 451.252 24.168 -1334.930
v 604.126 -7.200 -1334.930
v 757.000 -31.757 -1334.930
v 909.874 -54.243 -1334.930
v 1062.748 -58.062 -1334.930
v 1215.622 -60.204 -1334.930
v 1368.496 -69.523 -1334.930
v 1521.370 -68.641 -1334.930
v 1674.244 -71.103 -1334.930
v 1827.118 -84.779 -1334.930
v -618.867 332.133 -1487.809
v -465.993 324.489 -1487.809
v -313.119 280.458 -1487.809
v -160.245 235.063 -1487.809
v -7.371 191.937 -1487.809
v 145.503 125.359 -1487.809
v 298.378 70.843 -1487.809
v 451.252 35.348 -1487.809
v 604.126 -10.818 -1487.809
v 757.000 -38.935 -1487.809
v 909.874 -43.521 -1487.809
v 1062.748 -60.698 -1487.809
v 1215.622 -68.410 -1487.809
v 1368.496 -59.196 -1487.809
v 1521.370 -70.197 -1487.809
v 1674.244 -80.215 -1487.809
v 1827.118 -74.858 -1487.809
v -618.867 324.188 -1640.690
v -465.993 309.428 -1640.690
v -313.119 274.684 -1640.690
v -160.245 230.131 -1640.690
v -7.371 180.083 -1640.690
v 145.503 122.627 -1640.690
v 298.378 69.958 -1640.690
v 451.252 26.951 -1640.690
v 604.126 -11.103 -1640.690
v 757.000 -36.828 -1640.690
v 909.874 -49.782 -1640.690
v 1062.748 -60.015 -1640.690
v 1215.622 -64.739 -1640.690
v 1368.496 -64.527 -1640.690
v 1521.370 -69.559 -1640.690
v 1674.244 -75.785 -1640.690
v 1827.118 -79.798 -1640.690
v -618.867 307.355 -1793.573
v -465.993 280.571 -1793.573
v -313.119 262.027 -1793.573
v -160.245 219.262 -1793.573
v -7.371 157.728 -1793.573
v 145.503 116.299 -1793.573
v 298.378 67.158 -1793.573
v 451.252 11.591 -1793.573
v 604.126 -12.286 -1793.573
v 757.000 -33.699 -1793.573
v 909.874 -60.838 -1793.573
v 1062.748 -59.050 -1793.573
v 1215.622 -58.571 -1793.573
v 1368.496 -73.743 -1793.573
v 1521.370 -68.509 -1793.573
v 1674.244 -68.213 -1793.573
v 1827.118 -88.281 -1793.573
v -618.867 274.348 -1946.458
v -465.993 261.314 -1946.458
v -313.119 232.009 -1946.458
v -160.245 192.817 -1946.458
v -7.371 147.633 -1946.458
v 145.503 97.269 -1946.458
v 298.378 50.357 -1946.458
v 451.252 11.205 -1946.458
v 604.126 -21.684 -1946.458
v 757.000 -43.869 -1946.458
v 909.874 -55.522 -1946.458
v 1062.748 -63.070 -1946.458
v 1215.622 -66.190 -1946.458
v 1368.496 -66.406 -1946.458
v 1521.370 -70.138 -1946.458
v 1674.244 -75.553 -1946.458
v 1827.118 -80.659 -1946.458
v -618.867 235.571 -2099.345
v -465.993 233.587 -2099.345
v -313.119 197.456 -2099.345
v -160.245 162.452 -2099.345
v -7.371 131.159 -2099.345
v 145.503 75.818 -2099.345
v 298.378 32.166 -2099.345
v 451.252 6.687 -2099.345
v 604.126 -31.757 -2099.345
v 757.000 -53.586 -2099.345
v 909.874 -52.969 -2099.345
v 1062.748 -66.984 -2099.345
v 1215.622 -72.446 -2099.345
v 1368.496 -61.261 -2099.345
v 1521.370 -71.547 -2099.345
v 1674.244 -81.143 -2099.345
v 1827.118 -75.021 -2099.345
v -618.867 199.545 -2252.234
v -465.993 184.845 -2252.234
v -313.119 168.553 -2252.234
v -160.245 137.400 -2252.234
v -7.371 95.081 -2252.234
v 145.503 59.965 -2252.234
v 298.378 22.229 -2252.234
v 451.252 -15.817 -2252.234
v 604.126 -36.758 -2252.234
v 757.000 -52.575 -2252.234
v 909.874 -67.217 -2252.234
v 1062.748 -66.981 -2252.234
v 1215.622 -66.121 -2252.234
v 1368.496 -72.125 -2252.234
v 1521.370 -70.586 -2252.234
v 1674.244 -72.676 -2252.234
v 1827.118 -84.717 -2252.234
f 1 2 19
f 19 18 1
f 2 3 20
f 20 19 2
f 3 4 21
f 21 20 3
f 4 5 22
f 22 21 4
f 5 6 23
f 23 22 5
f 6 7 24
f 24 23 6
f 7 8 25
f 25 24 7
f 8 9 26
f 26 25 8
f 9 10 27
f 27 26 9
f 10 11 28
f 28 27 10
f 11 12 29
f 29 28 11
f 12 13 30
f 30 29 12
f 13 14 31
f 31 30 13
f 14 15 32
f 32 31 14
f 15 16 33
f 33 32 15
f 16 17 34
f 34 33 16
f 18 19 36
f 36 35 18
f 19 20 37
f 37 36 19
f 20 21 38
f 38 37 20
f 21 22 39
f 39 38 21
f 22 23 40
f 40 39 22
f 23 24 41
f 41 40 23
f 24 25 42
f 42 41 24
f 25 26 43
f 43 42 25
f 26 27 44
f 44 43 26
f 27 28 45
f 45 44 27
f 28 29 46
f 46 45 28
f 29 30 47
f 47 46 29
f 30 31 48
f 48 47 30
f 31 32 49
f 49 48 31
f 32 33 50
f 50 49 32
f 33 34 51
f 51 50 33
f 35 36 53
f 53 52 35
f 36 37 54
f 54 53 36
f 37 38 55
f 55 54 37
f 38 39 56
f 56 55 38
f 39 40 57
f 57 56 39
f 40 41 58
f 58 57 40
f 41 42 59
f 59 58 41
f 42 43 60
f 60 59 42
f 43 44 61
f 61 60 43
f 44 45 62
f 62 61 44
f 45 46 63
f 63 62 45
f 46 47 64
f 64 63 46
f 47 48 65
f 65 64 47
f 48 49 66
f 66 65 48
f 49 50 67
f 67 66 49
f 50 51 68
f 68 67 50
f 52 53 70
f 70 69 52
f 53 54 71
f 71 70 53
f 54 55 72
f 72 71 54
f 55 56 73
f 73 72 55
f 56 57 74
f 74 73 56
f 57 58 75
f 75 74 57
f 58 59 76
f 76 75 58
f 59 60 77
f 77 76 59
f 60 61 78
f 78 77 60
f 61 62 79
f 79 78 61
f 62 63 80
f 80 79 62
f 63 64 81
f 81 80 63
f 64 65 82
f 82 81 64
f 65 66 83
f 83 82 65
f 66 67 84
f 84 83 66
f 67 68 85
f 85 84 67
f 69 70 87
f 87 86 69
f 70 71 88
f 88 87 70
f 71 72 89
f 89 88 71
f 72 73 90
f 90 89 72
f 73 74 91
f 91 90 73
f 74 75 92
f 92 91 74
f 75 76 93
f 93 92 75
f 76 77 94
f 94 93 76
f 77 78 95
f 95 94 77
f 78 79 96
f 96 95 78
f 79 80 97
f 97 96 79
f 80 81 98
f 98 97 80
f 81 82 99
f 99 98 81
f 82 83 100
f 100 99 82
f 83 84 101
f 101 100 83
f 84 85 102
f 102 101 84
f 86 87 104
f 104 103 86
f 87 88 105
f 105 104 87
f 88 89 106
f 106 105 88
f 89 90 107
f 107 106 89
f 90 91 108
f 108 107 90
f 91 92 109
f 109 108 91
f 92 93 110
f 110 109 92
f 93 94 111
f 111 110 93
f 94 95 112
f 112 111 94
f 95 96 113
f 113 112 95
f 96 97 114
f 114 113 96
f 97 98 115
f 115 114 97
f 98 99 116
f 116 115 98
f 99 100 117
f 117 116 99
f 100 101 118
f 118 117 100
f 101 102 119
f 119 118 101
f 103 104 121
f 121 120 103
f 104 105 122
f 122 121 104
f 105 106 123
f 123 122 105
f 106 107 124
f 124 123 106
f 107 108 125
f 125 124 107
f 108 109 126
f 126 125 108
f 109 110 127
f 127 126 109
f 110 111 128
f 128 127 110
f 111 112 129
f 129 128 111
f 112 113 130
f 130 129 112
f 113 114 131
f 131 130 113
f 114 115 132
f 132 131 114
f 115 116 133
f 133 132 115
f 116 117 134
f 134 133 116
f 117 118 135
f 135 134 117
f 118 119 136
f 136 135 118
f 120 121 138
f 138 137 120
f 121 122 139
f 139 138 121
f 122 123 140
f 140 139 122
f 123 124 141
f 141 140 123
f 124 125 142
f 142 141 124
f 125 126 143
f 143 142 125
f 126 127 144
f 144 143 126
f 127 128 145
f 145 144 127
f 128 129 146
f 146 145 128
f 129 130 147
f 147 146 129
f 130 131 148
f 148 147 130
f 131 132 149
f 149 148 131
f 132 133 150
f 150 149 132
f 133 134 151
f 151 150 133
f 134 135 152
f 152 151 134
f 135 136 153
f 153 152 135
f 137 138 155
f 155 154 137
f 138 139 156
f 156 155 138
f 139 140 157
f 157 156 139
f 140 141 158
f 158 157 140
f 141 142 159
f 159 158 141
f 142 143 160
f 160 159 142
f 143 144 161
f 161 160 143
f 144 145 162
f 162 161 144
f 145 146 163
f 163 162 145
f 146 147 164
f 164 163 146
f 147 148 165
f 165 164 147
f 148 149 166
f 166 165 148
f 149 150 167
f 167 166 149
f 150 151 168
f 168 167 150
f 151 152 169
f 169 168 151
f 152 153 170
f 170 169 152
f 154 155 172
f 172 171 154
f 155 156 173
f 173 172 155
f 156 157 174
f 174 173 156
f 157 158 175
f 175 174 157
f 158 159 176
f 176 175 158
f 159 160 177
f 177 176 159
f 160 161 178
f 178 177 160
f 161 162 179
f 179 178 161
f 162 163 180
f 180 179 162
f 163 164 181
f 181 180 163
f 164 165 182
f 182 181 164
f 165 166 183
f 183 182 165
f 166 167 184
f 184 183 166
f 167 168 185
f 185 184 167
f 168 169 186
f 186 185 168
f 169 170 187
f 187 186 169
f 171 172 189
f 189 188 171
f 172 173 190
f 190 189 172
f 173 174 191
f 191 190 173
f 174 175 192
f 192 191 174
f 175 176 193
f 193 192 175
f 176 177 194
f 194 193 176
f 177 178 195
f 195 194 177
f 178 179 196
f 196 195 178
f 179 180 197
f 197 196 179
f 180 181 198
f 198 197 180
f 181 182 199
f 199 198 181
f 182 183 200
f 200 199 182
f 183 184 201
f 201 200 183
f 184 185 202
f 202 201 184
f 185 186 203
f 203 202 185
f 186 187 204
f 204 203 186
f 188 189 206
f 206 205 188
f 189 190 207
f 207 206 189
f 190 191 208
f 208 207 190
f 191 192 209
f 209 208 191
f 192 193 210
f 210 209 192
f 193 194 211
f 211 210 193
f 194 195 212
f 212 211 194
f 195 196 213
f 213 212 195
f 196 197 214
f 214 213 196
f 197 198 215
f 215 214 197
f 198 199 216
f 216 215 198
f 199 200 217
f 217 216 199
f 200 201 218
f 218 217 200
f 201 202 219
f 219 218 201
f 202 203 220
f 220 219 202
f 203 204 221
f 221 220 203
f 205 206 223
f 223 222 205
f 206 207 224
f 224 223 206
f 207 208 225
f 225 224 207
f 208 209 226
f 226 225 208
f 209 210 227
f 227 226 209
f 210 211 228
f 228 227 210
f 211 212 229
f 229 228 211
f 212 213 230
f 230 229 212
f 213 214 231
f 231 230 213
f 214 215 232
f 232 231 214
f 215 216 233
f 233 232 215
f 216 217 234
f 234 233 216
f 217 218 235
f 235 234 217
f 218 219 236
f 236 235 218
f 219 220 237
f 237 236 219
f 220 221 238
f 238 237 220
f 222 223 240
f 240 239 222
f 223 224 241
f 241 240 223
f 224 225 242
f 242 241 224
f 225 226 243
f 243 242 225
f 226 227 244
f 244 243 226
f 227 228 245
f 245 244 227
f 228 229 246
f 246 245 228
f 229 230 247
f 247 246 229
f 230 231 248
f 248 247 230
f 231 232 249
f 249 248 231
f 232 233 250
f 250 249 232
f 233 234 251
f 251 250 233
f 234 235 252
f 252 251 234
f 235 236 253
f 253 252 235
f 236 237 254
f 254 253 236
f 237 238 255
f 255 254 237
f 239 240 257
f 257 256 239
f 240 241 258
f 258 257 240
f 241 242 259
f 259 258 241
f 242 243 260
f 260 259 242
f 243 244 261
f 261 260 243
f 244 245 262
f 262 261 244
f 245 246 263
f 263 262 245
f 246 247 264
f 264 263 246
f 247 248 265
f 265 264 247
f 248 249 266
f 266 265 248
f 249 250 267
f 267 266 249
f 250 251 268
f 268 267 250
f 251 252 269
f 269 268 251
f 252 253 270
f 270 269 252
f 253 254 271
f 271 270 253
f 254 255 272
f 272 271 254
f 256 257 274
f 274 273 256
f 257 258 275
f 275 274 257
f 258 259 276
f 276 275 258
f 259 260 277
f 277 276 259
f 260 261 278
f 278 277 260
f 261 262 279
f 279 278 261
f 262 263 280
f 280 279 262
f 263 264 281
f 281 280 263
f 264 265 282
f 282 281 264
f 265 266 283
f 283 282 265
f 266 267 284
f 284 283 266
f 267 268 285
f 285 284 267
f 268 269 286
f 286 285 268
f 269 270 287
f 287 286 269
f 270 271 288
f 288 287 270
f 271 272 289
f 289 288 271
