# Buildings and bardas mesh for tecate_core_z14_x2883_y6622
v -1995.335 -8.531 -1058.512
v -1984.882 -8.531 -1059.410
v -1983.090 -8.531 -1039.410
v -1993.543 -8.531 -1039.107
v -1995.335 -8.531 -1058.512
v -1995.335 -5.031 -1058.512
v -1984.882 -5.031 -1059.410
v -1983.090 -5.031 -1039.410
v -1993.543 -5.031 -1039.107
v -1995.335 -5.031 -1058.512
v -1990.437 -5.031 -1050.990
v -782.487 -6.040 -136.435
v -770.665 -6.040 -52.122
v -935.195 -6.040 -30.605
v -1012.573 -6.040 44.791
v -1029.115 -6.040 25.889
v -1040.147 -6.040 -0.911
v -1036.217 -6.040 -14.305
v -950.323 -6.040 -92.317
v -929.050 -6.040 -96.253
v -930.620 -6.040 -102.554
v -912.497 -6.040 -104.918
v -912.497 -6.040 -111.219
v -884.923 -6.040 -115.948
v -888.864 -6.040 -123.834
v -879.413 -6.040 -133.291
v -804.550 -6.040 -139.592
v -801.400 -6.040 -132.499
v -782.487 -6.040 -136.435
v -782.487 -2.540 -136.435
v -770.665 -2.540 -52.122
v -935.195 -2.540 -30.605
v -1012.573 -2.540 44.791
v -1029.115 -2.540 25.889
v -1040.147 -2.540 -0.911
v -1036.217 -2.540 -14.305
v -950.323 -2.540 -92.317
v -929.050 -2.540 -96.253
v -930.620 -2.540 -102.554
v -912.497 -2.540 -104.918
v -912.497 -2.540 -111.219
v -884.923 -2.540 -115.948
v -888.864 -2.540 -123.834
v -879.413 -2.540 -133.291
v -804.550 -2.540 -139.592
v -801.400 -2.540 -132.499
v -782.487 -2.540 -136.435
v -904.612 -2.540 -80.698
v -782.487 -1.940 -136.435
v -770.665 -1.940 -52.122
v -935.195 -1.940 -30.605
v -1012.573 -1.940 44.791
v -1029.115 -1.940 25.889
v -1040.147 -1.940 -0.911
v -1036.217 -1.940 -14.305
v -950.323 -1.940 -92.317
v -929.050 -1.940 -96.253
v -930.620 -1.940 -102.554
v -912.497 -1.940 -104.918
v -912.497 -1.940 -111.219
v -884.923 -1.940 -115.948
v -888.864 -1.940 -123.834
v -879.413 -1.940 -133.291
v -804.550 -1.940 -139.592
v -801.400 -1.940 -132.499
v -782.487 -1.940 -136.435
v -1193.267 -5.695 -1658.870
v -1171.537 -5.695 -1667.431
v -1166.127 -5.695 -1653.692
v -1187.857 -5.695 -1645.144
v -1193.267 -5.695 -1658.870
v -1193.267 -2.195 -1658.870
v -1171.537 -2.195 -1667.431
v -1166.127 -2.195 -1653.692
v -1187.857 -2.195 -1645.144
v -1193.267 -2.195 -1658.870
v -1182.411 -2.195 -1656.801
v -1085.287 -6.553 36.324
v -1057.034 -6.553 58.489
v -1063.001 -6.553 66.110
v -1097.209 -6.553 109.699
v -1125.473 -6.553 87.522
v -1085.287 -6.553 36.324
v -1085.287 -3.053 36.324
v -1057.034 -3.053 58.489
v -1063.001 -3.053 66.110
v -1097.209 -3.053 109.699
v -1125.473 -3.053 87.522
v -1085.287 -3.053 36.324
v -1085.549 -3.053 65.745
v -1105.302 -6.621 179.190
v -1089.395 -6.621 157.079
v -1079.231 -6.621 142.945
v -1081.213 -6.621 131.837
v -1111.058 -6.621 110.373
v -1113.551 -6.621 113.847
v -1138.164 -6.621 96.147
v -1166.328 -6.621 135.311
v -1105.302 -6.621 179.190
v -1105.302 -3.121 179.190
v -1089.395 -3.121 157.079
v -1079.231 -3.121 142.945
v -1081.213 -3.121 131.837
v -1111.058 -3.121 110.373
v -1113.551 -3.121 113.847
v -1138.164 -3.121 96.147
v -1166.328 -3.121 135.311
v -1105.302 -3.121 179.190
v -1109.949 -3.121 138.435
v -2790.891 -11.386 178.622
v -2789.889 -11.386 194.419
v -2773.158 -11.386 193.363
v -2774.160 -11.386 177.552
v -2778.980 -11.386 177.856
v -2790.891 -11.386 178.622
v -2790.891 -7.886 178.622
v -2789.889 -7.886 194.419
v -2773.158 -7.886 193.363
v -2774.160 -7.886 177.552
v -2778.980 -7.886 177.856
v -2790.891 -7.886 178.622
v -2782.995 -7.886 183.406
v -799.730 -5.693 -769.705
v -826.636 -5.693 -767.433
v -824.989 -5.693 -747.909
v -798.072 -5.693 -750.181
v -799.730 -5.693 -769.705
v -799.730 1.307 -769.705
v -826.636 1.307 -767.433
v -824.989 1.307 -747.909
v -798.072 1.307 -750.181
v -799.730 1.307 -769.705
v -809.831 1.307 -760.986
v -1845.566 -8.679 -55.874
v -1843.362 -8.679 -15.943
v -1817.936 -8.679 -15.943
v -1820.140 -8.679 -56.653
v -1845.566 -8.679 -55.874
v -1845.566 -5.179 -55.874
v -1843.362 -5.179 -15.943
v -1817.936 -5.179 -15.943
v -1820.140 -5.179 -56.653
v -1845.566 -5.179 -55.874
v -1834.514 -5.179 -40.057
v -910.449 -3.710 -2222.069
v -852.095 -3.710 -2224.051
v -849.613 -3.710 -2151.032
v -907.955 -3.710 -2149.037
v -910.449 -3.710 -2222.069
v -910.449 -0.210 -2222.069
v -852.095 -0.210 -2224.051
v -849.613 -0.210 -2151.032
v -907.955 -0.210 -2149.037
v -910.449 -0.210 -2222.069
v -886.112 -0.210 -2193.652
v -824.722 -5.561 -819.505
v -827.404 -5.561 -814.129
v -825.902 -5.561 -800.127
v -823.820 -5.561 -780.695
v -802.024 -5.561 -783.073
v -806.799 -5.561 -821.302
v -824.722 -5.561 -819.505
v -824.722 -2.061 -819.505
v -827.404 -2.061 -814.129
v -825.902 -2.061 -800.127
v -823.820 -2.061 -780.695
v -802.024 -2.061 -783.073
v -806.799 -2.061 -821.302
v -824.722 -2.061 -819.505
v -819.342 -2.061 -805.477
v -937.878 -5.727 -772.928
v -933.403 -5.727 -735.307
v -888.318 -5.727 -738.596
v -893.328 -5.727 -771.792
v -894.252 -5.727 -777.683
v -937.878 -5.727 -772.928
v -937.878 -2.227 -772.928
v -933.403 -2.227 -735.307
v -888.318 -2.227 -738.596
v -893.328 -2.227 -771.792
v -894.252 -2.227 -777.683
v -937.878 -2.227 -772.928
v -914.176 -2.227 -761.539
v -937.878 -1.627 -772.928
v -933.403 -1.627 -735.307
v -888.318 -1.627 -738.596
v -893.328 -1.627 -771.792
v -894.252 -1.627 -777.683
v -937.878 -1.627 -772.928
v -831.835 -5.362 -884.577
v -831.356 -5.362 -877.536
v -822.195 -5.362 -878.170
v -822.684 -5.362 -885.211
v -831.835 -5.362 -884.577
v -831.835 -1.862 -884.577
v -831.356 -1.862 -877.536
v -822.195 -1.862 -878.170
v -822.684 -1.862 -885.211
v -831.835 -1.862 -884.577
v -827.981 -1.862 -882.014
v -830.911 -5.394 -873.639
v -828.250 -5.394 -848.527
v -818.799 -5.394 -849.531
v -821.449 -5.394 -874.643
v -830.911 -5.394 -873.639
v -830.911 -1.894 -873.639
v -828.250 -1.894 -848.527
v -818.799 -1.894 -849.531
v -821.449 -1.894 -874.643
v -830.911 -1.894 -873.639
v -826.064 -1.894 -863.996
v -872.088 -5.586 -861.262
v -870.986 -5.586 -849.254
v -870.530 -5.586 -844.221
v -859.943 -5.586 -845.198
v -860.656 -5.586 -852.979
v -861.513 -5.586 -862.239
v -872.088 -5.586 -861.262
v -872.088 -2.086 -861.262
v -870.986 -2.086 -849.254
v -870.530 -2.086 -844.221
v -859.943 -2.086 -845.198
v -860.656 -2.086 -852.979
v -861.513 -2.086 -862.239
v -872.088 -2.086 -861.262
v -866.829 -2.086 -853.773
v -1206.737 -6.728 -778.634
v -1169.033 -6.728 -781.792
v -1168.075 -6.728 -770.458
v -1205.790 -6.728 -767.301
v -1206.737 -6.728 -778.634
v -1206.737 -3.228 -778.634
v -1169.033 -3.228 -781.792
v -1168.075 -3.228 -770.458
v -1205.790 -3.228 -767.301
v -1206.737 -3.228 -778.634
v -1191.274 -3.228 -775.364
v -1827.298 -8.839 -720.129
v -1826.330 -8.839 -701.847
v -1815.209 -8.839 -703.260
v -1815.131 -8.839 -705.426
v -1798.711 -8.839 -713.643
v -1797.665 -8.839 -711.926
v -1792.299 -8.839 -715.202
v -1797.888 -8.839 -724.911
v -1803.120 -8.839 -722.229
v -1816.623 -8.839 -721.053
v -1827.298 -8.839 -720.129
v -1827.298 -5.339 -720.129
v -1826.330 -5.339 -701.847
v -1815.209 -5.339 -703.260
v -1815.131 -5.339 -705.426
v -1798.711 -5.339 -713.643
v -1797.665 -5.339 -711.926
v -1792.299 -5.339 -715.202
v -1797.888 -5.339 -724.911
v -1803.120 -5.339 -722.229
v -1816.623 -5.339 -721.053
v -1827.298 -5.339 -720.129
v -1810.688 -5.339 -714.523
v -796.914 -5.413 -493.387
v -781.229 -5.413 -495.263
v -778.390 -5.413 -471.328
v -585.318 -5.413 -494.259
v -582.424 -5.413 -469.901
v -549.840 -5.413 -482.252
v -563.933 -5.413 -595.298
v -615.897 -5.413 -588.826
v -612.925 -5.413 -564.996
v -632.061 -5.413 -562.618
v -629.467 -5.413 -541.747
v -652.722 -5.413 -538.867
v -658.655 -5.413 -586.765
v -640.143 -5.413 -589.050
v -640.733 -5.413 -593.872
v -632.284 -5.413 -594.902
v -632.740 -5.413 -598.680
v -562.152 -5.413 -607.094
v -567.807 -5.413 -654.543
v -812.632 -5.413 -625.376
v -796.914 -5.413 -493.387
v -796.914 -1.913 -493.387
v -781.229 -1.913 -495.263
v -778.390 -1.913 -471.328
v -585.318 -1.913 -494.259
v -582.424 -1.913 -469.901
v -549.840 -1.913 -482.252
v -563.933 -1.913 -595.298
v -615.897 -1.913 -588.826
v -612.925 -1.913 -564.996
v -632.061 -1.913 -562.618
v -629.467 -1.913 -541.747
v -652.722 -1.913 -538.867
v -658.655 -1.913 -586.765
v -640.143 -1.913 -589.050
v -640.733 -1.913 -593.872
v -632.284 -1.913 -594.902
v -632.740 -1.913 -598.680
v -562.152 -1.913 -607.094
v -567.807 -1.913 -654.543
v -812.632 -1.913 -625.376
v -796.914 -1.913 -493.387
v -653.580 -1.913 -554.400
v -890.044 -4.320 -1952.297
v -883.075 -4.320 -1941.041
v -858.062 -4.320 -1956.511
v -865.030 -4.320 -1967.780
v -890.044 -4.320 -1952.297
v -890.044 -0.820 -1952.297
v -883.075 -0.820 -1941.041
v -858.062 -0.820 -1956.511
v -865.030 -0.820 -1967.780
v -890.044 -0.820 -1952.297
v -877.251 -0.820 -1953.985
v -668.941 -5.075 -1511.427
v -669.821 -5.075 -1480.990
v -620.484 -5.075 -1479.563
v -619.604 -5.075 -1510.000
v -668.941 -5.075 -1511.427
v -668.941 -1.575 -1511.427
v -669.821 -1.575 -1480.990
v -620.484 -1.575 -1479.563
v -619.604 -1.575 -1510.000
v -668.941 -1.575 -1511.427
v -649.558 -1.575 -1498.681
v -1873.919 -8.696 -511.180
v -1852.835 -8.696 -513.677
v -1850.675 -8.696 -496.663
v -1871.926 -8.696 -494.418
v -1873.919 -8.696 -511.180
v -1873.919 -5.196 -511.180
v -1852.835 -5.196 -513.677
v -1850.675 -5.196 -496.663
v -1871.926 -5.196 -494.418
v -1873.919 -5.196 -511.180
v -1864.655 -5.196 -505.424
v -882.363 -5.937 67.523
v -880.370 -5.937 85.091
v -847.442 -5.937 81.366
v -849.423 -5.937 63.799
v -882.363 -5.937 67.523
v -882.363 -2.437 67.523
v -880.370 -2.437 85.091
v -847.442 -2.437 81.366
v -849.423 -2.437 63.799
v -882.363 -2.437 67.523
v -868.392 -2.437 73.061
v -1996.282 -8.531 -1059.966
v -1983.927 -8.531 -1060.858
v -1982.161 -8.531 -1037.946
v -1993.981 -8.531 -1037.428
v -1996.282 -8.531 -1059.966
v -1996.282 -6.531 -1059.966
v -1983.927 -6.531 -1060.858
v -1982.161 -6.531 -1037.946
v -1993.981 -6.531 -1037.428
v -1996.282 -6.531 -1059.966
v -1195.115 -5.695 -1659.222
v -1170.193 -5.695 -1668.746
v -1164.280 -5.695 -1653.339
v -1188.653 -5.695 -1643.440
v -1195.115 -5.695 -1659.222
v -1195.115 -3.565 -1659.222
v -1170.193 -3.565 -1668.746
v -1164.280 -3.565 -1653.339
v -1188.653 -3.565 -1643.440
v -1195.115 -3.565 -1659.222
v -1085.266 -6.553 33.991
v -1054.773 -6.553 57.913
v -1060.668 -6.553 66.148
v -1097.808 -6.553 111.955
v -1127.522 -6.553 88.639
v -1085.266 -6.553 33.991
v -1085.266 -4.157 33.991
v -1054.773 -4.157 57.913
v -1060.668 -4.157 66.148
v -1097.808 -4.157 111.955
v -1127.522 -4.157 88.639
v -1085.266 -4.157 33.991
v -1105.116 -6.621 180.820
v -1088.179 -6.621 158.181
v -1077.608 -6.621 143.184
v -1079.614 -6.621 131.470
v -1111.122 -6.621 108.733
v -1113.789 -6.621 112.223
v -1139.075 -6.621 94.782
v -1167.966 -6.621 135.220
v -1105.116 -6.621 180.820
v -1105.116 -4.500 180.820
v -1088.179 -4.500 158.181
v -1077.608 -4.500 143.184
v -1079.614 -4.500 131.470
v -1111.122 -4.500 108.733
v -1113.789 -4.500 112.223
v -1139.075 -4.500 94.782
v -1167.966 -4.500 135.220
v -1105.116 -4.500 180.820
v -2792.821 -11.386 177.453
v -2791.087 -11.386 196.332
v -2771.572 -11.386 194.968
v -2772.278 -11.386 176.306
v -2777.657 -11.386 176.027
v -2792.821 -11.386 177.453
v -2792.821 -9.077 177.453
v -2791.087 -9.077 196.332
v -2771.572 -9.077 194.968
v -2772.278 -9.077 176.306
v -2777.657 -9.077 176.027
v -2792.821 -9.077 177.453
v -798.070 -5.693 -771.137
v -828.684 -5.693 -768.218
v -826.649 -5.693 -746.476
v -796.457 -5.693 -748.697
v -798.070 -5.693 -771.137
v -798.070 -3.242 -771.137
v -828.684 -3.242 -768.218
v -826.649 -3.242 -746.476
v -796.457 -3.242 -748.697
v -798.070 -3.242 -771.137
v -1846.703 -8.679 -57.501
v -1844.045 -8.679 -14.080
v -1816.812 -8.679 -14.308
v -1818.841 -8.679 -58.153
v -1846.703 -8.679 -57.501
v -1846.703 -6.632 -57.501
v -1844.045 -6.632 -14.080
v -1816.812 -6.632 -14.308
v -1818.841 -6.632 -58.153
v -1846.703 -6.632 -57.501
v -911.945 -3.710 -2223.816
v -850.380 -3.710 -2225.583
v -848.117 -3.710 -2149.285
v -908.967 -3.710 -2146.971
v -911.945 -3.710 -2223.816
v -911.945 -1.268 -2223.816
v -850.380 -1.268 -2225.583
v -848.117 -1.268 -2149.285
v -908.967 -1.268 -2146.971
v -911.945 -1.268 -2223.816
v -825.263 -5.561 -820.918
v -828.436 -5.561 -815.236
v -827.074 -5.561 -799.171
v -824.089 -5.561 -779.206
v -801.098 -5.561 -781.876
v -805.859 -5.561 -822.488
v -825.263 -5.561 -820.918
v -825.263 -3.326 -820.918
v -828.436 -3.326 -815.236
v -827.074 -3.326 -799.171
v -824.089 -3.326 -779.206
v -801.098 -3.326 -781.876
v -805.859 -3.326 -822.488
v -825.263 -3.326 -820.918
v -1828.838 -8.839 -720.648
v -1827.592 -8.839 -700.824
v -1815.814 -8.839 -701.752
v -1815.844 -8.839 -703.966
v -1797.091 -8.839 -713.524
v -1796.072 -8.839 -711.608
v -1790.676 -8.839 -715.261
v -1796.626 -8.839 -725.934
v -1801.981 -8.839 -723.388
v -1817.715 -8.839 -722.256
v -1828.838 -8.839 -720.648
v -1828.838 -6.675 -720.648
v -1827.592 -6.675 -700.824
v -1815.814 -6.675 -701.752
v -1815.844 -6.675 -703.966
v -1797.091 -6.675 -713.524
v -1796.072 -6.675 -711.608
v -1790.676 -6.675 -715.261
v -1796.626 -6.675 -725.934
v -1801.981 -6.675 -723.388
v -1817.715 -6.675 -722.256
v -1828.838 -6.675 -720.648
v -799.148 -5.413 -492.436
v -783.432 -5.413 -494.242
v -780.412 -5.413 -469.982
v -583.496 -5.413 -492.654
v -580.860 -5.413 -468.044
v -547.847 -5.413 -480.865
v -561.724 -5.413 -596.306
v -614.105 -5.413 -590.463
v -610.576 -5.413 -565.608
v -629.793 -5.413 -563.484
v -627.317 -5.413 -540.619
v -652.588 -5.413 -536.443
v -659.031 -5.413 -589.164
v -639.265 -5.413 -591.314
v -639.981 -5.413 -596.180
v -631.154 -5.413 -597.051
v -631.706 -5.413 -600.877
v -560.049 -5.413 -608.307
v -566.228 -5.413 -656.387
v -814.850 -5.413 -626.366
v -799.148 -5.413 -492.436
v -799.148 -3.099 -492.436
v -783.432 -3.099 -494.242
v -780.412 -3.099 -469.982
v -583.496 -3.099 -492.654
v -580.860 -3.099 -468.044
v -547.847 -3.099 -480.865
v -561.724 -3.099 -596.306
v -614.105 -3.099 -590.463
v -610.576 -3.099 -565.608
v -629.793 -3.099 -563.484
v -627.317 -3.099 -540.619
v -652.588 -3.099 -536.443
v -659.031 -3.099 -589.164
v -639.265 -3.099 -591.314
v -639.981 -3.099 -596.180
v -631.154 -3.099 -597.051
v -631.706 -3.099 -600.877
v -560.049 -3.099 -608.307
v -566.228 -3.099 -656.387
v -814.850 -3.099 -626.366
v -799.148 -3.099 -492.436
v -892.467 -4.320 -1951.977
v -884.078 -4.320 -1938.812
v -855.639 -4.320 -1956.830
v -863.410 -4.320 -1969.610
v -892.467 -4.320 -1951.977
v -892.467 -1.927 -1951.977
v -884.078 -1.927 -1938.812
v -855.639 -1.927 -1956.830
v -863.410 -1.927 -1969.610
v -892.467 -1.927 -1951.977
v -670.847 -5.075 -1512.680
v -671.539 -5.075 -1479.489
v -618.578 -5.075 -1478.310
v -617.471 -5.075 -1510.806
v -670.847 -5.075 -1512.680
v -670.847 -2.777 -1512.680
v -671.539 -2.777 -1479.489
v -618.578 -2.777 -1478.310
v -617.471 -2.777 -1510.806
v -670.847 -2.777 -1512.680
v -1875.419 -8.696 -512.112
v -1851.387 -8.696 -514.688
v -1849.179 -8.696 -495.726
v -1872.900 -8.696 -492.944
v -1875.419 -8.696 -512.112
v -1875.419 -6.234 -512.112
v -1851.387 -6.234 -514.688
v -1849.179 -6.234 -495.726
v -1872.900 -6.234 -492.944
v -1875.419 -6.234 -512.112
g building_0
f 1 2 7
f 7 6 1
f 2 3 8
f 8 7 2
f 3 4 9
f 9 8 3
f 4 5 10
f 10 9 4
f 6 7 11
f 7 8 11
f 8 9 11
f 9 10 11
g building_1
f 12 13 31
f 31 30 12
f 13 14 32
f 32 31 13
f 14 15 33
f 33 32 14
f 15 16 34
f 34 33 15
f 16 17 35
f 35 34 16
f 17 18 36
f 36 35 17
f 18 19 37
f 37 36 18
f 19 20 38
f 38 37 19
f 20 21 39
f 39 38 20
f 21 22 40
f 40 39 21
f 22 23 41
f 41 40 22
f 23 24 42
f 42 41 23
f 24 25 43
f 43 42 24
f 25 26 44
f 44 43 25
f 26 27 45
f 45 44 26
f 27 28 46
f 46 45 27
f 28 29 47
f 47 46 28
f 30 31 48
f 31 32 48
f 32 33 48
f 33 34 48
f 34 35 48
f 35 36 48
f 36 37 48
f 37 38 48
f 38 39 48
f 39 40 48
f 40 41 48
f 41 42 48
f 42 43 48
f 43 44 48
f 44 45 48
f 45 46 48
f 46 47 48
f 30 31 50
f 50 49 30
f 31 32 51
f 51 50 31
f 32 33 52
f 52 51 32
f 33 34 53
f 53 52 33
f 34 35 54
f 54 53 34
f 35 36 55
f 55 54 35
f 36 37 56
f 56 55 36
f 37 38 57
f 57 56 37
f 38 39 58
f 58 57 38
f 39 40 59
f 59 58 39
f 40 41 60
f 60 59 40
f 41 42 61
f 61 60 41
f 42 43 62
f 62 61 42
f 43 44 63
f 63 62 43
f 44 45 64
f 64 63 44
f 45 46 65
f 65 64 45
f 46 47 66
f 66 65 46
g building_2
f 67 68 73
f 73 72 67
f 68 69 74
f 74 73 68
f 69 70 75
f 75 74 69
f 70 71 76
f 76 75 70
f 72 73 77
f 73 74 77
f 74 75 77
f 75 76 77
g building_3
f 78 79 85
f 85 84 78
f 79 80 86
f 86 85 79
f 80 81 87
f 87 86 80
f 81 82 88
f 88 87 81
f 82 83 89
f 89 88 82
f 84 85 90
f 85 86 90
f 86 87 90
f 87 88 90
f 88 89 90
g building_4
f 91 92 101
f 101 100 91
f 92 93 102
f 102 101 92
f 93 94 103
f 103 102 93
f 94 95 104
f 104 103 94
f 95 96 105
f 105 104 95
f 96 97 106
f 106 105 96
f 97 98 107
f 107 106 97
f 98 99 108
f 108 107 98
f 100 101 109
f 101 102 109
f 102 103 109
f 103 104 109
f 104 105 109
f 105 106 109
f 106 107 109
f 107 108 109
g building_5
f 110 111 117
f 117 116 110
f 111 112 118
f 118 117 111
f 112 113 119
f 119 118 112
f 113 114 120
f 120 119 113
f 114 115 121
f 121 120 114
f 116 117 122
f 117 118 122
f 118 119 122
f 119 120 122
f 120 121 122
g building_6
f 123 124 129
f 129 128 123
f 124 125 130
f 130 129 124
f 125 126 131
f 131 130 125
f 126 127 132
f 132 131 126
f 128 129 133
f 129 130 133
f 130 131 133
f 131 132 133
g building_7
f 134 135 140
f 140 139 134
f 135 136 141
f 141 140 135
f 136 137 142
f 142 141 136
f 137 138 143
f 143 142 137
f 139 140 144
f 140 141 144
f 141 142 144
f 142 143 144
g building_8
f 145 146 151
f 151 150 145
f 146 147 152
f 152 151 146
f 147 148 153
f 153 152 147
f 148 149 154
f 154 153 148
f 150 151 155
f 151 152 155
f 152 153 155
f 153 154 155
g building_9
f 156 157 164
f 164 163 156
f 157 158 165
f 165 164 157
f 158 159 166
f 166 165 158
f 159 160 167
f 167 166 159
f 160 161 168
f 168 167 160
f 161 162 169
f 169 168 161
f 163 164 170
f 164 165 170
f 165 166 170
f 166 167 170
f 167 168 170
f 168 169 170
g building_10
f 171 172 178
f 178 177 171
f 172 173 179
f 179 178 172
f 173 174 180
f 180 179 173
f 174 175 181
f 181 180 174
f 175 176 182
f 182 181 175
f 177 178 183
f 178 179 183
f 179 180 183
f 180 181 183
f 181 182 183
f 177 178 185
f 185 184 177
f 178 179 186
f 186 185 178
f 179 180 187
f 187 186 179
f 180 181 188
f 188 187 180
f 181 182 189
f 189 188 181
g building_11
f 190 191 196
f 196 195 190
f 191 192 197
f 197 196 191
f 192 193 198
f 198 197 192
f 193 194 199
f 199 198 193
f 195 196 200
f 196 197 200
f 197 198 200
f 198 199 200
g building_12
f 201 202 207
f 207 206 201
f 202 203 208
f 208 207 202
f 203 204 209
f 209 208 203
f 204 205 210
f 210 209 204
f 206 207 211
f 207 208 211
f 208 209 211
f 209 210 211
g building_13
f 212 213 220
f 220 219 212
f 213 214 221
f 221 220 213
f 214 215 222
f 222 221 214
f 215 216 223
f 223 222 215
f 216 217 224
f 224 223 216
f 217 218 225
f 225 224 217
f 219 220 226
f 220 221 226
f 221 222 226
f 222 223 226
f 223 224 226
f 224 225 226
g building_14
f 227 228 233
f 233 232 227
f 228 229 234
f 234 233 228
f 229 230 235
f 235 234 229
f 230 231 236
f 236 235 230
f 232 233 237
f 233 234 237
f 234 235 237
f 235 236 237
g building_15
f 238 239 250
f 250 249 238
f 239 240 251
f 251 250 239
f 240 241 252
f 252 251 240
f 241 242 253
f 253 252 241
f 242 243 254
f 254 253 242
f 243 244 255
f 255 254 243
f 244 245 256
f 256 255 244
f 245 246 257
f 257 256 245
f 246 247 258
f 258 257 246
f 247 248 259
f 259 258 247
f 249 250 260
f 250 251 260
f 251 252 260
f 252 253 260
f 253 254 260
f 254 255 260
f 255 256 260
f 256 257 260
f 257 258 260
f 258 259 260
g building_16
f 261 262 283
f 283 282 261
f 262 263 284
f 284 283 262
f 263 264 285
f 285 284 263
f 264 265 286
f 286 285 264
f 265 266 287
f 287 286 265
f 266 267 288
f 288 287 266
f 267 268 289
f 289 288 267
f 268 269 290
f 290 289 268
f 269 270 291
f 291 290 269
f 270 271 292
f 292 291 270
f 271 272 293
f 293 292 271
f 272 273 294
f 294 293 272
f 273 274 295
f 295 294 273
f 274 275 296
f 296 295 274
f 275 276 297
f 297 296 275
f 276 277 298
f 298 297 276
f 277 278 299
f 299 298 277
f 278 279 300
f 300 299 278
f 279 280 301
f 301 300 279
f 280 281 302
f 302 301 280
f 282 283 303
f 283 284 303
f 284 285 303
f 285 286 303
f 286 287 303
f 287 288 303
f 288 289 303
f 289 290 303
f 290 291 303
f 291 292 303
f 292 293 303
f 293 294 303
f 294 295 303
f 295 296 303
f 296 297 303
f 297 298 303
f 298 299 303
f 299 300 303
f 300 301 303
f 301 302 303
g building_17
f 304 305 310
f 310 309 304
f 305 306 311
f 311 310 305
f 306 307 312
f 312 311 306
f 307 308 313
f 313 312 307
f 309 310 314
f 310 311 314
f 311 312 314
f 312 313 314
g building_18
f 315 316 321
f 321 320 315
f 316 317 322
f 322 321 316
f 317 318 323
f 323 322 317
f 318 319 324
f 324 323 318
f 320 321 325
f 321 322 325
f 322 323 325
f 323 324 325
g building_19
f 326 327 332
f 332 331 326
f 327 328 333
f 333 332 327
f 328 329 334
f 334 333 328
f 329 330 335
f 335 334 329
f 331 332 336
f 332 333 336
f 333 334 336
f 334 335 336
g building_20
f 337 338 343
f 343 342 337
f 338 339 344
f 344 343 338
f 339 340 345
f 345 344 339
f 340 341 346
f 346 345 340
f 342 343 347
f 343 344 347
f 344 345 347
f 345 346 347
g barda_21
f 348 349 354
f 354 353 348
f 349 350 355
f 355 354 349
f 350 351 356
f 356 355 350
f 351 352 357
f 357 356 351
g barda_22
f 358 359 364
f 364 363 358
f 359 360 365
f 365 364 359
f 360 361 366
f 366 365 360
f 361 362 367
f 367 366 361
g barda_23
f 368 369 375
f 375 374 368
f 369 370 376
f 376 375 369
f 370 371 377
f 377 376 370
f 371 372 378
f 378 377 371
f 372 373 379
f 379 378 372
g barda_24
f 380 381 390
f 390 389 380
f 381 382 391
f 391 390 381
f 382 383 392
f 392 391 382
f 383 384 393
f 393 392 383
f 384 385 394
f 394 393 384
f 385 386 395
f 395 394 385
f 386 387 396
f 396 395 386
f 387 388 397
f 397 396 387
g barda_25
f 398 399 405
f 405 404 398
f 399 400 406
f 406 405 399
f 400 401 407
f 407 406 400
f 401 402 408
f 408 407 401
f 402 403 409
f 409 408 402
g barda_26
f 410 411 416
f 416 415 410
f 411 412 417
f 417 416 411
f 412 413 418
f 418 417 412
f 413 414 419
f 419 418 413
g barda_27
f 420 421 426
f 426 425 420
f 421 422 427
f 427 426 421
f 422 423 428
f 428 427 422
f 423 424 429
f 429 428 423
g barda_28
f 430 431 436
f 436 435 430
f 431 432 437
f 437 436 431
f 432 433 438
f 438 437 432
f 433 434 439
f 439 438 433
g barda_29
f 440 441 448
f 448 447 440
f 441 442 449
f 449 448 441
f 442 443 450
f 450 449 442
f 443 444 451
f 451 450 443
f 444 445 452
f 452 451 444
f 445 446 453
f 453 452 445
g barda_30
f 454 455 466
f 466 465 454
f 455 456 467
f 467 466 455
f 456 457 468
f 468 467 456
f 457 458 469
f 469 468 457
f 458 459 470
f 470 469 458
f 459 460 471
f 471 470 459
f 460 461 472
f 472 471 460
f 461 462 473
f 473 472 461
f 462 463 474
f 474 473 462
f 463 464 475
f 475 474 463
g barda_31
f 476 477 498
f 498 497 476
f 477 478 499
f 499 498 477
f 478 479 500
f 500 499 478
f 479 480 501
f 501 500 479
f 480 481 502
f 502 501 480
f 481 482 503
f 503 502 481
f 482 483 504
f 504 503 482
f 483 484 505
f 505 504 483
f 484 485 506
f 506 505 484
f 485 486 507
f 507 506 485
f 486 487 508
f 508 507 486
f 487 488 509
f 509 508 487
f 488 489 510
f 510 509 488
f 489 490 511
f 511 510 489
f 490 491 512
f 512 511 490
f 491 492 513
f 513 512 491
f 492 493 514
f 514 513 492
f 493 494 515
f 515 514 493
f 494 495 516
f 516 515 494
f 495 496 517
f 517 516 495
g barda_32
f 518 519 524
f 524 523 518
f 519 520 525
f 525 524 519
f 520 521 526
f 526 525 520
f 521 522 527
f 527 526 521
g barda_33
f 528 529 534
f 534 533 528
f 529 530 535
f 535 534 529
f 530 531 536
f 536 535 530
f 531 532 537
f 537 536 531
g barda_34
f 538 539 544
f 544 543 538
f 539 540 545
f 545 544 539
f 540 541 546
f 546 545 540
f 541 542 547
f 547 546 541
