# Terrain mesh for tecate_core_z14_x2884_y6623
v -618.867 -80.032 2639.736
v -465.993 -85.298 2639.736
v -313.119 -70.796 2639.736
v -160.245 -71.876 2639.736
v -7.371 -87.179 2639.736
v 145.503 -82.236 2639.736
v 298.378 -87.645 2639.736
v 451.252 -104.342 2639.736
v 604.126 -96.065 2639.736
v 757.000 -91.958 2639.736
v 909.874 -99.602 2639.736
v 1062.748 -84.078 2639.736
v 1215.622 -74.133 2639.736
v 1368.496 -82.838 2639.736
v 1521.370 -73.808 2639.736
v 1674.244 -71.227 2639.736
v 1827.118 -89.708 2639.736
v -618.867 -83.175 2486.877
v -465.993 -77.370 2486.877
v -313.119 -75.014 2486.877
v -160.245 -75.736 2486.877
v -7.371 -79.316 2486.877
v 145.503 -85.780 2486.877
v 298.378 -92.204 2486.877
v 451.252 -96.602 2486.877
v 604.126 -98.811 2486.877
v 757.000 -97.190 2486.877
v 909.874 -92.035 2486.877
v 1062.748 -86.007 2486.877
v 1215.622 -80.014 2486.877
v 1368.496 -75.494 2486.877
v 1521.370 -74.927 2486.877
v 1674.244 -77.729 2486.877
v 1827.118 -82.638 2486.877
v -618.867 -86.026 2334.015
v -465.993 -70.081 2334.015
v -313.119 -78.854 2334.015
v -160.245 -79.251 2334.015
v -7.371 -72.096 2334.015
v 145.503 -89.012 2334.015
v 298.378 -96.368 2334.015
v 451.252 -89.505 2334.015
v 604.126 -101.321 2334.015
v 757.000 -101.979 2334.015
v 909.874 -85.101 2334.015
v 1062.748 -87.772 2334.015
v 1215.622 -85.399 2334.015
v 1368.496 -68.766 2334.015
v 1521.370 -75.952 2334.015
v 1674.244 -83.684 2334.015
v 1827.118 -76.162 2334.015
v -618.867 -81.799 2181.152
v -465.993 -80.274 2181.152
v -313.119 -73.246 2181.152
v -160.245 -74.124 2181.152
v -7.371 -82.246 2181.152
v 145.503 -84.329 2181.152
v 298.378 -90.380 2181.152
v 451.252 -99.539 2181.152
v 604.126 -97.716 2181.152
v 757.000 -95.147 2181.152
v 909.874 -94.938 2181.152
v 1062.748 -85.252 2181.152
v 1215.622 -77.738 2181.152
v 1368.496 -78.323 2181.152
v 1521.370 -74.493 2181.152
v 1674.244 -75.219 2181.152
v 1827.118 -85.365 2181.152
v -618.867 -80.057 2028.287
v -465.993 -83.987 2028.287
v -313.119 -71.004 2028.287
v -160.245 -72.078 2028.287
v -7.371 -85.988 2028.287
v 145.503 -82.486 2028.287
v 298.378 -88.060 2028.287
v 451.252 -103.286 2028.287
v 604.126 -96.323 2028.287
v 757.000 -92.545 2028.287
v 909.874 -98.639 2028.287
v 1062.748 -84.291 2028.287
v 1215.622 -74.839 2028.287
v 1368.496 -81.930 2028.287
v 1521.370 -73.940 2028.287
v 1674.244 -72.021 2028.287
v 1827.118 -88.840 2028.287
v -618.867 -84.378 1875.420
v -465.993 -72.103 1875.420
v -313.119 -76.939 1875.420
v -160.245 -77.520 1875.420
v -7.371 -74.290 1875.420
v 145.503 -87.533 1875.420
v 298.378 -94.625 1875.420
v 451.252 -91.863 1875.420
v 604.126 -100.286 1875.420
v 757.000 -100.168 1875.420
v 909.874 -87.525 1875.420
v 1062.748 -87.099 1875.420
v 1215.622 -83.443 1875.420
v 1368.496 -71.164 1875.420
v 1521.370 -75.576 1875.420
v 1674.244 -81.544 1875.420
v 1827.118 -78.482 1875.420
v -618.867 -83.846 1722.551
v -465.993 -71.515 1722.551
v -313.119 -76.494 1722.551
v -160.245 -77.132 1722.551
v -7.371 -73.876 1722.551
v 145.503 -87.275 1722.551
v 298.378 -94.438 1722.551
v 451.252 -91.635 1722.551
v 604.126 -100.187 1722.551
v 757.000 -100.125 1722.551
v 909.874 -87.410 1722.551
v 1062.748 -87.078 1722.551
v 1215.622 -83.467 1722.551
v 1368.496 -71.093 1722.551
v 1521.370 -75.577 1722.551
v 1674.244 -81.591 1722.551
v 1827.118 -78.424 1722.551
v -618.867 -78.269 1569.680
v -465.993 -82.222 1569.680
v -313.119 -69.479 1569.680
v -160.245 -70.745 1569.680
v -7.371 -84.789 1569.680
v 145.503 -81.583 1569.680
v 298.378 -87.369 1569.680
v 451.252 -102.690 1569.680
v 604.126 -95.951 1569.680
v 757.000 -92.309 1569.680
v 909.874 -98.404 1569.680
v 1062.748 -84.188 1569.680
v 1215.622 -74.807 1569.680
v 1368.496 -81.836 1569.680
v 1521.370 -73.923 1569.680
v 1674.244 -72.052 1569.680
v 1827.118 -88.784 1569.680
v -618.867 -78.266 1416.807
v -465.993 -77.052 1416.807
v -313.119 -70.196 1416.807
v -160.245 -71.453 1416.807
v -7.371 -80.116 1416.807
v 145.503 -82.499 1416.807
v 298.378 -88.934 1416.807
v 451.252 -98.573 1416.807
v 604.126 -96.931 1416.807
v 757.000 -94.566 1416.807
v 909.874 -94.667 1416.807
v 1062.748 -85.006 1416.807
v 1215.622 -77.536 1416.807
v 1368.496 -78.318 1416.807
v 1521.370 -74.433 1416.807
v 1674.244 -75.124 1416.807
v 1827.118 -85.426 1416.807
v -618.867 -80.046 1263.932
v -465.993 -64.444 1263.932
v -313.119 -73.715 1263.932
v -160.245 -74.755 1263.932
v -7.371 -68.326 1263.932
v 145.503 -85.945 1263.932
v 298.378 -93.975 1263.932
v 451.252 -87.724 1263.932
v 604.126 -100.025 1263.932
v 757.000 -101.075 1263.932
v 909.874 -84.511 1263.932
v 1062.748 -87.384 1263.932
v 1215.622 -85.153 1263.932
v 1368.496 -68.633 1263.932
v 1521.370 -75.869 1263.932
v 1674.244 -83.631 1263.932
v 1827.118 -76.147 1263.932
v -618.867 -73.554 1111.054
v -465.993 -68.161 1111.054
v -313.119 -66.765 1111.054
v -160.245 -68.522 1111.054
v -7.371 -73.124 1111.054
v 145.503 -80.871 1111.054
v 298.378 -88.396 1111.054
v 451.252 -93.626 1111.054
v 604.126 -96.754 1111.054
v 757.000 -95.797 1111.054
v 909.874 -90.984 1111.054
v 1062.748 -85.405 1111.054
v 1215.622 -79.691 1111.054
v 1368.496 -75.185 1111.054
v 1521.370 -74.808 1111.054
v 1674.244 -77.726 1111.054
v 1827.118 -82.523 1111.054
v -618.867 -64.988 958.176
v -465.993 -71.082 958.176
v -313.119 -57.873 958.176
v -160.245 -60.571 958.176
v -7.371 -77.661 958.176
v 145.503 -74.528 958.176
v 298.378 -81.636 958.176
v 451.252 -99.833 958.176
v 604.126 -92.813 958.176
v 757.000 -89.699 958.176
v 909.874 -98.090 958.176
v 1062.748 -83.107 958.176
v 1215.622 -73.532 958.176
v 1368.496 -82.479 958.176
v 1521.370 -73.603 958.176
v 1674.244 -71.115 958.176
v 1827.118 -89.647 958.176
v -618.867 -61.246 805.295
v -465.993 -53.995 805.295
v -313.119 -56.544 805.295
v -160.245 -59.621 805.295
v -7.371 -63.045 805.295
v 145.503 -75.014 805.295
v 298.378 -84.248 805.295
v 451.252 -87.918 805.295
v 604.126 -94.574 805.295
v 757.000 -95.056 805.295
v 909.874 -87.914 805.295
v 1062.748 -85.012 805.295
v 1215.622 -80.539 805.295
v 1368.496 -73.166 805.295
v 1521.370 -74.890 805.295
v 1674.244 -79.142 805.295
v 1827.118 -80.826 805.295
v -618.867 -52.425 652.412
v -465.993 -39.128 652.412
v -313.119 -49.877 652.412
v -160.245 -53.891 652.412
v -7.371 -51.560 652.412
v 145.503 -71.653 652.412
v 298.378 -82.704 652.412
v 451.252 -80.072 652.412
v 604.126 -93.906 652.412
v 757.000 -96.585 652.412
v 909.874 -82.305 652.412
v 1062.748 -85.478 652.412
v 1215.622 -83.637 652.412
v 1368.496 -68.509 652.412
v 1521.370 -75.416 652.412
v 1674.244 -82.958 652.412
v 1827.118 -76.546 652.412
v -618.867 -33.455 499.527
v -465.993 -36.841 499.527
v -313.119 -31.402 499.527
v -160.245 -37.485 499.527
v -7.371 -53.695 499.527
v 145.503 -59.158 499.527
v 298.378 -70.387 499.527
v 451.252 -86.844 499.527
v 604.126 -86.839 499.527
v 757.000 -86.905 499.527
v 909.874 -91.710 499.527
v 1062.748 -81.776 499.527
v 1215.622 -74.621 499.527
v 1368.496 -78.703 499.527
v 1521.370 -73.612 499.527
v 1674.244 -73.520 499.527
v 1827.118 -86.633 499.527
v -618.867 -14.277 346.640
v -465.993 -20.140 346.640
v -313.119 -14.728 346.640
v -160.245 -22.878 346.640
v -7.371 -42.846 346.640
v 145.503 -49.079 346.640
v 298.378 -62.295 346.640
v 451.252 -82.229 346.640
v 604.126 -82.424 346.640
v 757.000 -83.404 346.640
v 909.874 -90.812 346.640
v 1062.748 -80.314 346.640
v 1215.622 -73.105 346.640
v 1368.496 -79.214 346.640
v 1521.370 -73.210 346.640
v 1674.244 -72.532 346.640
v 1827.118 -87.480 346.640
v -618.867 4.613 193.751
v -465.993 13.908 193.751
v -313.119 -0.756 193.751
v -160.245 -10.909 193.751
v -7.371 -16.255 193.751
v 145.503 -42.273 193.751
v 298.378 -59.658 193.751
v 451.252 -63.667 193.751
v 604.126 -81.412 193.751
v 757.000 -87.642 193.751
v 909.874 -77.201 193.751
v 1062.748 -81.660 193.751
v 1215.622 -80.905 193.751
v 1368.496 -67.738 193.751
v 1521.370 -74.553 193.751
v 1674.244 -82.018 193.751
v 1827.118 -76.879 193.751
f 1 2 19
f 19 18 1
f 2 3 20
f 20 19 2
f 3 4 21
f 21 20 3
f 4 5 22
f 22 21 4
f 5 6 23
f 23 22 5
f 6 7 24
f 24 23 6
f 7 8 25
f 25 24 7
f 8 9 26
f 26 25 8
f 9 10 27
f 27 26 9
f 10 11 28
f 28 27 10
f 11 12 29
f 29 28 11
f 12 13 30
f 30 29 12
f 13 14 31
f 31 30 13
f 14 15 32
f 32 31 14
f 15 16 33
f 33 32 15
f 16 17 34
f 34 33 16
f 18 19 36
f 36 35 18
f 19 20 37
f 37 36 19
f 20 21 38
f 38 37 20
f 21 22 39
f 39 38 21
f 22 23 40
f 40 39 22
f 23 24 41
f 41 40 23
f 24 25 42
f 42 41 24
f 25 26 43
f 43 42 25
f 26 27 44
f 44 43 26
f 27 28 45
f 45 44 27
f 28 29 46
f 46 45 28
f 29 30 47
f 47 46 29
f 30 31 48
f 48 47 30
f 31 32 49
f 49 48 31
f 32 33 50
f 50 49 32
f 33 34 51
f 51 50 33
f 35 36 53
f 53 52 35
f 36 37 54
f 54 53 36
f 37 38 55
f 55 54 37
f 38 39 56
f 56 55 38
f 39 40 57
f 57 56 39
f 40 41 58
f 58 57 40
f 41 42 59
f 59 58 41
f 42 43 60
f 60 59 42
f 43 44 61
f 61 60 43
f 44 45 62
f 62 61 44
f 45 46 63
f 63 62 45
f 46 47 64
f 64 63 46
f 47 48 65
f 65 64 47
f 48 49 66
f 66 65 48
f 49 50 67
f 67 66 49
f 50 51 68
f 68 67 50
f 52 53 70
f 70 69 52
f 53 54 71
f 71 70 53
f 54 55 72
f 72 71 54
f 55 56 73
f 73 72 55
f 56 57 74
f 74 73 56
f 57 58 75
f 75 74 57
f 58 59 76
f 76 75 58
f 59 60 77
f 77 76 59
f 60 61 78
f 78 77 60
f 61 62 79
f 79 78 61
f 62 63 80
f 80 79 62
f 63 64 81
f 81 80 63
f 64 65 82
f 82 81 64
f 65 66 83
f 83 82 65
f 66 67 84
f 84 83 66
f 67 68 85
f 85 84 67
f 69 70 87
f 87 86 69
f 70 71 88
f 88 87 70
f 71 72 89
f 89 88 71
f 72 73 90
f 90 89 72
f 73 74 91
f 91 90 73
f 74 75 92
f 92 91 74
f 75 76 93
f 93 92 75
f 76 77 94
f 94 93 76
f 77 78 95
f 95 94 77
f 78 79 96
f 96 95 78
f 79 80 97
f 97 96 79
f 80 81 98
f 98 97 80
f 81 82 99
f 99 98 81
f 82 83 100
f 100 99 82
f 83 84 101
f 101 100 83
f 84 85 102
f 102 101 84
f 86 87 104
f 104 103 86
f 87 88 105
f 105 104 87
f 88 89 106
f 106 105 88
f 89 90 107
f 107 106 89
f 90 91 108
f 108 107 90
f 91 92 109
f 109 108 91
f 92 93 110
f 110 109 92
f 93 94 111
f 111 110 93
f 94 95 112
f 112 111 94
f 95 96 113
f 113 112 95
f 96 97 114
f 114 113 96
f 97 98 115
f 115 114 97
f 98 99 116
f 116 115 98
f 99 100 117
f 117 116 99
f 100 101 118
f 118 117 100
f 101 102 119
f 119 118 101
f 103 104 121
f 121 120 103
f 104 105 122
f 122 121 104
f 105 106 123
f 123 122 105
f 106 107 124
f 124 123 106
f 107 108 125
f 125 124 107
f 108 109 126
f 126 125 108
f 109 110 127
f 127 126 109
f 110 111 128
f 128 127 110
f 111 112 129
f 129 128 111
f 112 113 130
f 130 129 112
f 113 114 131
f 131 130 113
f 114 115 132
f 132 131 114
f 115 116 133
f 133 132 115
f 116 117 134
f 134 133 116
f 117 118 135
f 135 134 117
f 118 119 136
f 136 135 118
f 120 121 138
f 138 137 120
f 121 122 139
f 139 138 121
f 122 123 140
f 140 139 122
f 123 124 141
f 141 140 123
f 124 125 142
f 142 141 124
f 125 126 143
f 143 142 125
f 126 127 144
f 144 143 126
f 127 128 145
f 145 144 127
f 128 129 146
f 146 145 128
f 129 130 147
f 147 146 129
f 130 131 148
f 148 147 130
f 131 132 149
f 149 148 131
f 132 133 150
f 150 149 132
f 133 134 151
f 151 150 133
f 134 135 152
f 152 151 134
f 135 136 153
f 153 152 135
f 137 138 155
f 155 154 137
f 138 139 156
f 156 155 138
f 139 140 157
f 157 156 139
f 140 141 158
f 158 157 140
f 141 142 159
f 159 158 141
f 142 143 160
f 160 159 142
f 143 144 161
f 161 160 143
f 144 145 162
f 162 161 144
f 145 146 163
f 163 162 145
f 146 147 164
f 164 163 146
f 147 148 165
f 165 164 147
f 148 149 166
f 166 165 148
f 149 150 167
f 167 166 149
f 150 151 168
f 168 167 150
f 151 152 169
f 169 168 151
f 152 153 170
f 170 169 152
f 154 155 172
f 172 171 154
f 155 156 173
f 173 172 155
f 156 157 174
f 174 173 156
f 157 158 175
f 175 174 157
f 158 159 176
f 176 175 158
f 159 160 177
f 177 176 159
f 160 161 178
f 178 177 160
f 161 162 179
f 179 178 161
f 162 163 180
f 180 179 162
f 163 164 181
f 181 180 163
f 164 165 182
f 182 181 164
f 165 166 183
f 183 182 165
f 166 167 184
f 184 183 166
f 167 168 185
f 185 184 167
f 168 169 186
f 186 185 168
f 169 170 187
f 187 186 169
f 171 172 189
f 189 188 171
f 172 173 190
f 190 189 172
f 173 174 191
f 191 190 173
f 174 175 192
f 192 191 174
f 175 176 193
f 193 192 175
f 176 177 194
f 194 193 176
f 177 178 195
f 195 194 177
f 178 179 196
f 196 195 178
f 179 180 197
f 197 196 179
f 180 181 198
f 198 197 180
f 181 182 199
f 199 198 181
f 182 183 200
f 200 199 182
f 183 184 201
f 201 200 183
f 184 185 202
f 202 201 184
f 185 186 203
f 203 202 185
f 186 187 204
f 204 203 186
f 188 189 206
f 206 205 188
f 189 190 207
f 207 206 189
f 190 191 208
f 208 207 190
f 191 192 209
f 209 208 191
f 192 193 210
f 210 209 192
f 193 194 211
f 211 210 193
f 194 195 212
f 212 211 194
f 195 196 213
f 213 212 195
f 196 197 214
f 214 213 196
f 197 198 215
f 215 214 197
f 198 199 216
f 216 215 198
f 199 200 217
f 217 216 199
f 200 201 218
f 218 217 200
f 201 202 219
f 219 218 201
f 202 203 220
f 220 219 202
f 203 204 221
f 221 220 203
f 205 206 223
f 223 222 205
f 206 207 224
f 224 223 206
f 207 208 225
f 225 224 207
f 208 209 226
f 226 225 208
f 209 210 227
f 227 226 209
f 210 211 228
f 228 227 210
f 211 212 229
f 229 228 211
f 212 213 230
f 230 229 212
f 213 214 231
f 231 230 213
f 214 215 232
f 232 231 214
f 215 216 233
f 233 232 215
f 216 217 234
f 234 233 216
f 217 218 235
f 235 234 217
f 218 219 236
f 236 235 218
f 219 220 237
f 237 236 219
f 220 221 238
f 238 237 220
f 222 223 240
f 240 239 222
f 223 224 241
f 241 240 223
f 224 225 242
f 242 241 224
f 225 226 243
f 243 242 225
f 226 227 244
f 244 243 226
f 227 228 245
f 245 244 227
f 228 229 246
f 246 245 228
f 229 230 247
f 247 246 229
f 230 231 248
f 248 247 230
f 231 232 249
f 249 248 231
f 232 233 250
f 250 249 232
f 233 234 251
f 251 250 233
f 234 235 252
f 252 251 234
f 235 236 253
f 253 252 235
f 236 237 254
f 254 253 236
f 237 238 255
f 255 254 237
f 239 240 257
f 257 256 239
f 240 241 258
f 258 257 240
f 241 242 259
f 259 258 241
f 242 243 260
f 260 259 242
f 243 244 261
f 261 260 243
f 244 245 262
f 262 261 244
f 245 246 263
f 263 262 245
f 246 247 264
f 264 263 246
f 247 248 265
f 265 264 247
f 248 249 266
f 266 265 248
f 249 250 267
f 267 266 249
f 250 251 268
f 268 267 250
f 251 252 269
f 269 268 251
f 252 253 270
f 270 269 252
f 253 254 271
f 271 270 253
f 254 255 272
f 272 271 254
f 256 257 274
f 274 273 256
f 257 258 275
f 275 274 257
f 258 259 276
f 276 275 258
f 259 260 277
f 277 276 259
f 260 261 278
f 278 277 260
f 261 262 279
f 279 278 261
f 262 263 280
f 280 279 262
f 263 264 281
f 281 280 263
f 264 265 282
f 282 281 264
f 265 266 283
f 283 282 265
f 266 267 284
f 284 283 266
f 267 268 285
f 285 284 267
f 268 269 286
f 286 285 268
f 269 270 287
f 287 286 269
f 270 271 288
f 288 287 270
f 271 272 289
f 289 288 271
