# Roads mesh for tecate_core_z14_x2882_y6621
v -4054.916 -78.897 -3916.675
v -4046.916 -78.173 -3916.675
v -4046.916 -78.909 -3932.795
v -4054.916 -79.489 -3932.795
f 1 2 3
f 3 4 1
v -4054.723 -79.521 -3934.023
v -4047.109 -78.867 -3931.568
v -4040.207 -79.535 -3952.973
v -4047.821 -80.030 -3955.428
f 5 6 7
f 7 8 5
v -4047.823 -80.030 -3955.423
v -4040.206 -79.535 -3952.979
v -4030.076 -81.254 -3984.559
v -4037.693 -81.474 -3987.002
f 9 10 11
f 11 12 9
v -4037.884 -81.409 -3985.833
v -4029.885 -81.328 -3985.728
v -4029.105 -84.505 -4045.188
v -4037.105 -84.148 -4045.293
f 13 14 15
f 15 16 13
v -4036.908 -84.181 -4046.482
v -4029.303 -84.468 -4043.999
v -4025.852 -84.890 -4054.570
v -4033.457 -84.574 -4057.053
f 17 18 19
f 19 20 17
v -4033.192 -84.601 -4057.678
v -4026.116 -84.861 -4053.945
v -4004.854 -85.483 -4094.246
v -4011.930 -85.346 -4097.979
f 21 22 23
f 23 24 21
v -4011.022 -85.353 -4099.126
v -4005.762 -85.476 -4093.098
v -3998.192 -85.554 -4099.705
v -4003.453 -85.232 -4105.732
f 25 26 27
f 27 28 25
v -4002.932 -85.223 -4106.117
v -3998.713 -85.548 -4099.320
v -3967.209 -84.279 -4118.876
v -3971.429 -84.096 -4125.673
f 29 30 31
f 31 32 29
v -3972.801 -84.210 -4124.244
v -3965.838 -84.164 -4120.305
v -3924.204 -76.849 -4193.904
v -3931.167 -76.669 -4197.843
f 33 34 35
f 35 36 33
v -3931.596 -76.780 -4196.716
v -3923.775 -76.743 -4195.031
v -3918.766 -74.762 -4218.287
v -3926.587 -74.658 -4219.972
f 37 38 39
f 39 40 37
v -3926.494 -74.833 -4217.936
v -3918.858 -74.599 -4220.323
v -3947.690 0.050 -4312.554
v -3955.326 0.050 -4310.167
f 41 42 43
f 43 44 41
v -3955.137 0.050 -4309.679
v -3947.878 0.050 -4313.042
v -3974.261 0.050 -4369.993
v -3981.520 0.050 -4366.630
f 45 46 47
f 47 48 45
v -3981.891 0.050 -4368.312
v -3973.891 0.050 -4368.312
v -3973.891 0.050 -4377.429
v -3981.891 0.050 -4377.429
f 49 50 51
f 51 52 49
v -3981.718 0.050 -4378.591
v -3974.063 0.050 -4376.267
v -3952.801 0.050 -4446.300
v -3960.456 0.050 -4448.624
f 53 54 55
f 55 56 53
v -3960.086 0.050 -4449.474
v -3953.172 0.050 -4445.450
v -3944.711 0.050 -4459.985
v -3951.625 0.050 -4464.009
f 57 58 59
f 59 60 57
v -3951.309 0.050 -4464.474
v -3945.027 0.050 -4459.520
v -3927.105 0.050 -4482.248
v -3933.387 0.050 -4487.202
f 61 62 63
f 63 64 61
v -3933.722 0.050 -4486.704
v -3926.770 0.050 -4482.747
v -3909.849 0.050 -4512.478
v -3916.802 0.050 -4516.435
f 65 66 67
f 67 68 65
v -3917.085 0.050 -4515.822
v -3909.566 0.050 -4513.091
v -3895.985 0.050 -4550.486
v -3903.504 0.050 -4553.217
f 69 70 71
f 71 72 69
v -3903.695 0.050 -4552.479
v -3895.794 0.050 -4551.224
v -3893.234 0.050 -4567.345
v -3901.135 0.050 -4568.600
f 73 74 75
f 75 76 73
v -3901.180 0.050 -4568.145
v -3893.188 0.050 -4567.800
v -3891.518 0.050 -4606.517
v -3899.511 0.050 -4606.862
f 77 78 79
f 79 80 77
v -3899.362 0.050 -4605.595
v -3891.667 0.050 -4607.784
v -3897.567 0.050 -4628.530
v -3905.262 0.050 -4626.341
f 81 82 83
f 83 84 81
v -3904.563 0.050 -4624.969
v -3898.265 0.050 -4629.902
v -3904.165 0.050 -4637.434
v -3910.463 0.050 -4632.501
f 85 86 87
f 87 88 85
v -3909.935 0.050 -4631.946
v -3904.693 0.050 -4637.989
v -3919.165 0.050 -4650.542
v -3924.407 0.050 -4644.499
f 89 90 91
f 91 92 89
v -3923.531 0.050 -4643.922
v -3920.040 0.050 -4651.120
v -3956.553 0.050 -4668.827
v -3960.044 0.050 -4661.629
f 93 94 95
f 95 96 93
v -3960.693 0.050 -4662.024
v -3955.904 0.050 -4668.432
v -3961.915 0.050 -4672.924
v -3966.704 0.050 -4666.516
f 97 98 99
f 99 100 97
v -3967.456 0.050 -4667.251
v -3961.163 0.050 -4672.190
v -3968.733 0.050 -4681.836
v -3975.026 0.050 -4676.897
f 101 102 103
f 103 104 101
v -3975.583 0.050 -4677.855
v -3968.176 0.050 -4680.878
v -3971.627 0.050 -4689.335
v -3979.034 0.050 -4686.312
f 105 106 107
f 107 108 105
v -3979.274 0.050 -4687.155
v -3971.387 0.050 -4688.493
v -3974.726 0.050 -4708.182
v -3982.614 0.050 -4706.844
f 109 110 111
f 111 112 109
v -4214.633 0.050 -4577.321
v -4221.826 0.050 -4580.824
v -4237.076 0.050 -4549.507
v -4229.884 0.050 -4546.004
f 113 114 115
f 115 116 113
v -4230.097 0.050 -4545.622
v -4236.864 0.050 -4549.889
v -4252.114 0.050 -4525.708
v -4245.348 0.050 -4521.440
f 117 118 119
f 119 120 117
v -4245.769 0.050 -4520.885
v -4251.693 0.050 -4526.263
v -4276.405 0.050 -4499.042
v -4270.482 0.050 -4493.665
f 121 122 123
f 123 124 121
v -4270.837 0.050 -4493.320
v -4276.051 0.050 -4499.387
v -4300.653 0.050 -4478.245
v -4295.438 0.050 -4472.177
f 125 126 127
f 127 128 125
v -4295.737 0.050 -4471.944
v -4300.354 0.050 -4478.478
v -4319.055 0.050 -4465.264
v -4314.439 0.050 -4458.730
f 129 130 131
f 131 132 129
v -4313.791 0.050 -4459.303
v -4319.704 0.050 -4464.691
v -4325.604 0.050 -4458.217
v -4319.691 0.050 -4452.828
f 133 134 135
f 135 136 133
v -4318.798 0.050 -4454.433
v -4326.496 0.050 -4456.612
v -4360.448 0.050 -4336.631
v -4352.751 0.050 -4334.452
f 137 138 139
f 139 140 137
v -4352.600 0.050 -4335.542
v -4360.600 0.050 -4335.542
v -4360.600 0.050 -4313.343
v -4352.600 0.050 -4313.343
f 141 142 143
f 143 144 141
v -4352.754 0.050 -4314.443
v -4360.445 0.050 -4312.242
v -4354.545 0.050 -4291.629
v -4346.854 0.050 -4293.830
f 145 146 147
f 147 148 145
v -4347.232 0.050 -4294.722
v -4354.168 0.050 -4290.736
v -4331.236 -91.170 -4250.831
v -4324.300 0.050 -4254.817
f 149 150 151
f 151 152 149
v -4323.842 0.050 -4253.593
v -4331.693 -91.136 -4252.056
v -4326.573 -91.559 -4225.893
v -4318.722 -91.570 -4227.430
f 153 154 155
f 155 156 153
v -4318.711 -91.571 -4225.949
v -4326.583 -91.544 -4227.374
v -4331.704 -92.034 -4199.097
v -4323.832 -91.774 -4197.672
f 157 158 159
f 159 160 157
v -4323.768 -91.767 -4198.384
v -4331.768 -92.050 -4198.384
v -4331.768 -92.871 -4151.080
v -4323.768 -92.102 -4151.080
f 161 162 163
f 163 164 161
v -4324.533 -92.191 -4148.727
v -4331.003 -92.765 -4153.433
v -4355.604 -96.250 -4119.606
v -4349.135 -95.533 -4114.901
f 165 166 167
f 167 168 165
v -4348.557 -95.437 -4116.043
v -4356.182 -96.350 -4118.465
v -4358.742 -96.811 -4110.404
v -4351.118 -95.933 -4107.982
f 169 170 171
f 171 172 169
v -4350.933 -95.887 -4109.030
v -4358.926 -96.857 -4109.357
v -4360.596 -97.369 -4068.527
v -4352.603 -96.379 -4068.200
f 173 174 175
f 175 176 173
v -4352.922 -96.402 -4066.790
v -4360.277 -97.357 -4069.938
v -4363.728 -97.576 -4061.878
v -4356.373 -96.740 -4058.729
f 177 178 179
f 179 180 177
v -4356.751 -96.767 -4058.043
v -4363.350 -97.549 -4062.565
v -4383.722 -98.744 -4032.835
v -4377.122 -97.896 -4028.313
f 181 182 183
f 183 184 181
v -4376.522 -97.909 -4029.685
v -4384.322 -98.726 -4031.463
v -4392.003 -97.184 -3997.769
v -4384.203 -96.524 -3995.991
f 185 186 187
f 187 188 185
v -4384.604 -96.473 -3994.942
v -4391.602 -97.242 -3998.817
v -4394.163 -97.034 -3994.192
v -4387.164 -96.286 -3990.318
f 189 190 191
f 191 192 189
v -4388.456 -96.256 -3988.919
v -4392.870 -97.065 -3995.591
v -4406.451 -96.938 -3986.606
v -4402.037 -96.188 -3979.934
f 193 194 195
f 195 196 193
v -4400.539 -96.294 -3981.764
v -4407.950 -96.832 -3984.776
v -4415.631 -95.289 -3965.881
v -4408.220 -94.762 -3962.869
f 197 198 199
f 199 200 197
v -4408.232 -94.760 -3962.840
v -4415.619 -95.291 -3965.910
v -4419.738 -94.421 -3956.000
v -4412.351 -93.909 -3952.930
f 201 202 203
f 203 204 201
v -4413.789 -93.773 -3951.161
v -4418.300 -94.558 -3957.769
v -4435.331 -93.839 -3946.141
v -4430.821 -93.091 -3939.534
f 205 206 207
f 207 208 205
v -4429.750 -93.169 -3940.615
v -4436.402 -93.761 -3945.060
v -4444.083 -92.898 -3933.564
v -4437.431 -92.230 -3929.120
f 209 210 211
f 211 212 209
v -4437.029 -92.297 -3929.892
v -4444.485 -92.840 -3932.791
v -4447.825 -92.162 -3924.203
v -4440.369 -91.558 -3921.304
f 213 214 215
f 215 216 213
v -4440.101 -91.669 -3922.567
v -4448.092 -92.055 -3922.939
v -4451.543 -88.634 -3848.813
v -4443.552 -88.155 -3848.441
f 217 218 219
f 219 220 217
v -4444.136 -88.174 -3850.715
v -4450.960 -88.615 -3846.540
v -4430.588 -88.596 -3813.243
v -4423.764 -88.330 -3817.418
f 221 222 223
f 223 224 221
v -4424.236 -88.305 -3818.043
v -4430.116 -88.621 -3812.618
v -4424.995 -88.831 -3807.068
v -4419.116 -88.515 -3812.493
f 225 226 227
f 227 228 225
v -4419.867 -88.493 -3813.129
v -4424.244 -88.852 -3806.433
v -4390.292 -89.966 -3784.235
v -4385.914 -89.601 -3790.931
f 229 230 231
f 231 232 229
v -4386.979 -89.548 -3791.421
v -4389.227 -90.014 -3783.744
v -4380.656 -90.282 -3781.233
v -4378.407 -89.863 -3788.911
f 233 234 235
f 235 236 233
v -4379.531 -89.833 -3789.072
v -4379.531 -90.304 -3781.072
v -4368.511 -90.433 -3781.072
v -4368.511 -90.030 -3789.072
f 237 238 239
f 239 240 237
v -4369.788 -90.018 -3788.863
v -4367.234 -90.437 -3781.282
v -4284.857 -93.117 -3809.029
v -4287.411 -93.146 -3816.610
f 241 242 243
f 243 244 241
v -4286.660 -93.187 -3816.785
v -4285.609 -93.079 -3808.854
v -4262.677 -93.897 -3811.893
v -4263.728 -94.132 -3819.824
f 245 246 247
f 247 248 245
v -4264.881 -94.098 -3819.490
v -4261.525 -93.928 -3812.228
v -4234.363 -94.953 -3824.780
v -4237.719 -94.978 -3832.042
f 249 250 251
f 251 252 249
v -4236.322 -95.013 -3832.401
v -4235.759 -94.906 -3824.421
v -4200.137 -94.133 -3826.932
v -4200.700 -94.206 -3834.912
f 253 254 255
f 255 256 253
v -4201.472 -94.227 -3834.780
v -4199.365 -94.111 -3827.063
v -4188.233 -93.651 -3830.102
v -4190.340 -93.885 -3837.819
f 257 258 259
f 259 260 257
v -4190.891 -93.931 -3837.625
v -4187.682 -93.606 -3830.297
v -4155.399 -90.954 -3844.435
v -4158.608 -91.272 -3851.763
f 261 262 263
f 263 264 261
v -4157.148 -91.149 -3852.096
v -4156.860 -91.077 -3844.101
v -4101.757 -84.228 -3846.083
v -4102.044 -84.282 -3854.078
f 265 266 267
f 267 268 265
v -4103.587 -84.505 -3853.708
v -4100.214 -84.006 -3846.454
v -4072.940 -80.084 -3859.138
v -4076.314 -80.599 -3866.392
f 269 270 271
f 271 272 269
v -4075.062 -80.425 -3866.742
v -4074.193 -80.262 -3858.789
v -4065.732 -79.077 -3859.714
v -4066.602 -79.257 -3867.667
f 273 274 275
f 275 276 273
v -4065.456 -79.115 -3867.627
v -4066.878 -79.223 -3859.754
v -4061.757 -78.564 -3858.829
v -4060.335 -78.472 -3866.702
f 277 278 279
f 279 280 277
v -4058.835 -78.279 -3866.099
v -4063.257 -78.761 -3859.432
v -4055.688 -77.769 -3854.411
v -4051.266 -77.262 -3861.078
f 281 282 283
f 283 284 281
v -4050.343 -77.133 -3860.231
v -4056.610 -77.885 -3855.258
v -4042.138 -76.103 -3837.024
v -4035.872 -75.288 -3841.997
f 285 286 287
f 287 288 285
v -4035.091 -75.197 -3840.335
v -4042.919 -76.195 -3838.686
v -4042.140 -76.111 -3834.986
v -4034.312 -75.114 -3836.635
f 289 290 291
f 291 292 289
v -4034.330 -75.116 -3836.716
v -4042.122 -76.109 -3834.905
v -4041.231 -76.011 -3831.073
v -4033.439 -75.021 -3832.884
f 293 294 295
f 295 296 293
v -4033.502 -75.039 -3830.836
v -4041.169 -75.995 -3833.121
v -4043.729 -76.387 -3824.533
v -4036.062 -75.499 -3822.247
f 297 298 299
f 299 300 297
v -4036.410 -75.566 -3821.429
v -4043.382 -76.323 -3825.352
v -4169.841 -78.572 -3600.599
v -4162.869 -78.638 -3596.676
f 301 302 303
f 303 304 301
v -4356.335 -96.386 -4117.776
v -4348.404 -95.404 -4116.731
v -4346.734 -94.960 -4129.416
v -4354.665 -95.879 -4130.460
f 305 306 307
f 307 308 305
v -4354.397 -95.811 -4131.465
v -4347.002 -95.010 -4128.412
v -4335.982 -93.200 -4155.103
v -4343.376 -93.796 -4158.156
f 309 310 311
f 311 312 309
v -4343.668 -93.872 -4156.336
v -4335.690 -93.139 -4156.924
v -4336.469 -92.971 -4167.495
v -4344.447 -93.605 -4166.906
f 313 314 315
f 315 316 313
v -4344.183 -93.625 -4165.742
v -4336.733 -92.963 -4168.659
v -4346.975 -92.728 -4194.821
v -4354.424 -93.173 -4191.905
f 317 318 319
f 319 320 317
v -4353.632 -93.198 -4190.642
v -4347.768 -92.709 -4196.084
v -4356.228 -92.561 -4205.201
v -4362.092 -93.028 -4199.760
f 321 322 323
f 323 324 321
v -4360.767 -93.040 -4198.817
v -4357.553 -92.545 -4206.144
v -4367.794 -92.517 -4210.636
v -4371.008 -93.072 -4203.310
f 325 326 327
f 327 328 325
v -4369.401 -93.049 -4202.973
v -4369.401 -92.528 -4210.973
v -4386.322 -92.872 -4210.973
v -4386.322 -93.527 -4202.973
f 329 330 331
f 331 332 329
v -4384.923 -93.467 -4203.226
v -4387.720 -92.922 -4210.721
v -4413.213 -94.465 -4201.207
v -4410.415 -95.110 -4193.712
f 333 334 335
f 335 336 333
v -4412.471 -95.194 -4193.514
v -4411.157 -94.386 -4201.405
v -4423.069 -94.532 -4203.387
v -4424.382 -95.369 -4195.496
f 337 338 339
f 339 340 337
v -4426.526 -95.324 -4196.585
v -4420.925 -94.581 -4202.297
v -4428.606 -94.029 -4209.829
v -4434.207 -94.774 -4204.117
f 341 342 343
f 343 344 341
v -4435.294 -94.604 -4206.032
v -4427.519 -94.196 -4207.915
v -4430.079 -93.176 -4218.486
v -4437.854 -93.560 -4216.602
f 345 346 347
f 347 348 345
v -4437.733 -93.316 -4218.891
v -4430.200 -93.415 -4216.197
v -4397.027 0.050 -4308.957
v -4404.560 0.050 -4311.650
f 349 350 351
f 351 352 349
v -3970.319 -73.503 -3918.623
v -3977.893 -73.481 -3916.048
v -3967.652 -71.153 -3885.922
v -3960.077 -71.118 -3888.497
f 353 354 355
f 355 356 353
v -3959.916 -71.000 -3886.569
v -3967.813 -71.249 -3887.850
v -3973.045 -70.270 -3855.610
v -3965.148 -70.106 -3854.329
f 357 358 359
f 359 360 357
v -3966.308 -70.147 -3852.102
v -3971.885 -70.276 -3857.837
v -4007.619 -72.742 -3823.087
v -4002.041 -72.538 -3817.351
f 361 362 363
f 363 364 361
v -4001.421 -72.456 -3818.127
v -4008.239 -72.824 -3822.311
v -4062.229 -80.799 -3734.312
v -4055.411 -80.679 -3730.128
f 365 366 367
f 367 368 365
v -5542.742 0.050 -3900.931
v -5546.906 0.050 -3894.101
v -5471.954 0.050 -3848.409
v -5467.790 0.050 -3855.240
f 369 370 371
f 371 372 369
v -5468.451 0.050 -3855.564
v -5471.294 0.050 -3848.086
v -5393.727 0.050 -3818.594
v -5390.883 0.050 -3826.072
f 373 374 375
f 375 376 373
v -5390.460 0.050 -3825.882
v -5394.150 0.050 -3818.784
v -5375.571 0.050 -3809.125
v -5371.881 0.050 -3816.223
f 377 378 379
f 379 380 377
v -5371.510 0.050 -3816.005
v -5375.942 0.050 -3809.344
v -5311.822 0.050 -3766.679
v -5307.390 0.050 -3773.340
f 381 382 383
f 383 384 381
v -5307.483 0.050 -3773.399
v -5311.729 0.050 -3766.619
v -5279.446 0.050 -3746.403
v -5275.200 0.050 -3753.184
f 385 386 387
f 387 388 385
v -5275.638 0.050 -3753.421
v -5279.008 0.050 -3746.166
v -5258.525 0.050 -3736.652
v -5255.155 0.050 -3743.908
f 389 390 391
f 391 392 389
v -5255.741 0.050 -3744.126
v -5257.940 0.050 -3736.434
v -5212.188 0.050 -3723.353
v -5209.988 0.050 -3731.045
f 393 394 395
f 395 396 393
v -5210.656 0.050 -3731.176
v -5211.520 0.050 -3723.223
v -5097.395 0.050 -3710.829
v -5096.531 0.050 -3718.782
f 397 398 399
f 399 400 397
v -5096.006 0.050 -3718.689
v -5097.920 0.050 -3710.921
v -5073.519 0.050 -3704.910
v -5071.605 0.050 -3712.677
f 401 402 403
f 403 404 401
v -5070.267 0.050 -3712.069
v -5074.857 0.050 -3705.518
v -5048.308 0.050 -3686.914
v -5043.717 0.050 -3693.465
f 405 406 407
f 407 408 405
v -5042.809 0.050 -3692.586
v -5049.215 0.050 -3687.793
v -5014.617 0.050 -3641.548
v -5008.211 0.050 -3646.340
f 409 410 411
f 411 412 409
v -5008.814 0.050 -3646.984
v -5014.014 0.050 -3640.905
v -4994.801 0.050 -3624.468
v -4989.600 0.050 -3630.547
f 413 414 415
f 415 416 413
v -4990.839 0.050 -3631.269
v -4993.562 0.050 -3623.746
v -4952.541 -97.670 -3608.895
v -4949.818 -97.988 -3616.417
f 417 418 419
f 419 420 417
v -4950.641 -97.894 -3616.620
v -4951.718 -97.757 -3608.693
v -4911.732 -100.753 -3603.262
v -4910.655 -100.979 -3611.189
f 421 422 423
f 423 424 421
v -4911.046 -100.958 -3611.223
v -4911.340 -100.774 -3603.228
v -4896.980 -101.539 -3602.700
v -4896.686 -101.729 -3610.694
f 425 426 427
f 427 428 425
v -4897.731 -101.670 -3610.595
v -4895.935 -101.597 -3602.799
v -4869.552 -101.703 -3608.877
v -4871.348 -101.734 -3616.673
f 429 430 431
f 431 432 429
v -4872.383 -101.749 -3616.277
v -4868.518 -101.703 -3609.273
v -4855.827 -101.630 -3616.276
v -4859.693 -101.533 -3623.280
f 433 434 435
f 435 436 433
v -4860.184 -101.542 -3622.959
v -4855.336 -101.621 -3616.596
v -4810.251 -98.830 -3650.950
v -4815.100 -98.912 -3657.313
f 437 438 439
f 439 440 437
v -4814.291 -98.867 -3657.791
v -4811.060 -98.889 -3650.472
v -4784.366 -97.042 -3662.258
v -4787.597 -97.217 -3669.577
f 441 442 443
f 443 444 441
v -4786.024 -97.132 -3669.917
v -4785.939 -97.136 -3661.918
v -4761.114 -95.675 -3662.182
v -4761.199 -95.826 -3670.181
f 445 446 447
f 447 448 445
v -4760.223 -95.775 -3670.071
v -4762.091 -95.732 -3662.292
v -4677.800 -91.430 -3642.050
v -4675.932 -91.842 -3649.829
f 449 450 451
f 451 452 449
v -4675.159 -91.831 -3649.557
v -4678.573 -91.430 -3642.322
v -4660.650 -91.372 -3633.866
v -4657.236 -91.543 -3641.101
f 453 454 455
f 455 456 453
v -4655.750 -91.528 -3639.893
v -4662.136 -91.387 -3635.074
v -4644.748 -91.113 -3612.030
v -4638.362 -91.518 -3616.849
f 457 458 459
f 459 460 457
v -4637.997 -91.527 -3616.267
v -4645.114 -91.080 -3612.613
v -4617.328 -94.260 -3558.493
v -4610.211 -94.389 -3562.147
f 461 462 463
f 463 464 461
v -4610.601 -94.345 -3562.762
v -4616.938 -94.304 -3557.878
v -4603.101 -95.830 -3539.922
v -4596.764 -95.853 -3544.805
f 465 466 467
f 467 468 465
v -4597.187 -95.808 -3545.272
v -4602.679 -95.876 -3539.455
v -4588.964 -97.023 -3526.507
v -4583.472 -96.964 -3532.324
f 469 470 471
f 471 472 469
v -4584.004 -96.930 -3532.746
v -4588.433 -97.056 -3526.084
v -4566.236 -97.976 -3511.326
v -4561.806 -97.915 -3517.988
f 473 474 475
f 475 476 473
v -4562.986 -97.888 -3518.520
v -4565.057 -97.998 -3510.793
v -4534.299 -97.961 -3502.548
v -4532.228 -98.152 -3510.275
f 477 478 479
f 479 480 477
v -4532.876 -98.152 -3510.393
v -4533.651 -97.954 -3502.431
v -4513.279 -97.651 -3500.449
v -4512.505 -98.047 -3508.411
f 481 482 483
f 483 484 481
v -4513.010 -98.052 -3508.428
v -4512.774 -97.642 -3500.432
v -4427.837 -96.006 -3502.942
v -4428.074 -96.834 -3510.939
f 485 486 487
f 487 488 485
v -4429.181 -96.854 -3510.748
v -4426.730 -95.990 -3503.133
v -4400.458 -95.929 -3511.589
v -4402.910 -96.737 -3519.204
f 489 490 491
f 491 492 489
v -4403.672 -96.734 -3518.868
v -4399.696 -95.934 -3511.925
v -4377.544 -95.765 -3524.610
v -4381.519 -96.474 -3531.552
f 493 494 495
f 495 496 493
v -4382.290 -96.487 -3530.977
v -4376.772 -95.753 -3525.185
v -4359.852 -95.474 -3541.304
v -4365.370 -96.201 -3547.097
f 497 498 499
f 499 500 497
v -4365.722 -96.209 -3546.715
v -4359.500 -95.466 -3541.686
v -4330.557 -93.155 -3577.493
v -4336.779 -94.030 -3582.522
f 501 502 503
f 503 504 501
v -4336.427 -93.988 -3582.903
v -4330.908 -93.196 -3577.111
v -4315.657 -91.220 -3591.646
v -4321.177 -91.972 -3597.437
f 505 506 507
f 507 508 505
v -4320.240 -91.844 -3598.102
v -4316.594 -91.347 -3590.981
v -4298.783 -88.884 -3600.098
v -4302.428 -89.355 -3607.219
f 509 510 511
f 511 512 509
v -4301.590 -89.237 -3607.535
v -4299.622 -89.001 -3599.781
v -4283.481 -86.734 -3603.877
v -4285.448 -86.937 -3611.631
f 513 514 515
f 515 516 513
v -4284.563 -86.811 -3611.753
v -4284.366 -86.859 -3603.755
v -4268.225 -84.776 -3604.152
v -4268.421 -84.689 -3612.149
f 517 518 519
f 519 520 517
v -4267.679 -84.608 -3612.098
v -4268.968 -84.856 -3604.203
v -4251.156 -82.968 -3601.296
v -4249.868 -82.695 -3609.191
f 521 522 523
f 523 524 521
v -4249.281 -82.633 -3609.050
v -4251.743 -83.029 -3601.438
v -4210.889 -79.985 -3588.225
v -4208.427 -79.685 -3595.837
f 525 526 527
f 527 528 525
v -4209.450 -79.739 -3596.025
v -4209.865 -79.931 -3588.036
v -4192.054 -78.943 -3587.111
v -4191.639 -78.745 -3595.101
f 529 530 531
f 531 532 529
v -4192.980 -78.825 -3594.942
v -4190.713 -78.884 -3587.270
v -4165.221 -78.677 -3594.801
v -4167.488 -78.534 -3602.473
f 533 534 535
f 535 536 533
v -4168.244 -78.541 -3602.163
v -4164.465 -78.670 -3595.112
v -4161.014 -78.630 -3596.962
v -4164.793 -78.503 -3604.013
f 537 538 539
f 539 540 537
v -4165.006 -78.506 -3603.890
v -4160.802 -78.628 -3597.084
v -4149.892 -78.498 -3603.822
v -4154.096 -78.382 -3610.629
f 541 542 543
f 543 544 541
v -4155.189 -78.399 -3609.633
v -4148.800 -78.525 -3604.818
v -4093.920 -81.568 -3677.621
v -4100.308 -81.473 -3682.437
f 545 546 547
f 547 548 545
v -4100.339 -81.472 -3682.395
v -4093.889 -81.570 -3677.663
v -4055.595 -80.696 -3729.854
v -4062.045 -80.783 -3734.586
f 549 550 551
f 551 552 549
v -4062.047 -80.783 -3734.583
v -4055.593 -80.696 -3729.857
v -4023.087 -76.285 -3774.253
v -4029.542 -76.512 -3778.979
f 553 554 555
f 555 556 553
v -4029.337 -76.479 -3779.236
v -4023.293 -76.314 -3773.995
v -4003.700 -73.544 -3796.590
v -4009.744 -73.769 -3801.831
f 557 558 559
f 559 560 557
v -4009.140 -73.702 -3802.397
v -4004.304 -73.611 -3796.024
v -3898.440 -71.861 -3876.360
v -3903.276 -71.715 -3882.732
f 561 562 563
f 563 564 561
v -3903.260 -71.716 -3882.744
v -3898.455 -71.860 -3876.348
v -3859.048 -74.849 -3905.945
v -3863.853 -74.669 -3912.342
f 565 566 567
f 567 568 565
v -3863.451 -74.690 -3912.608
v -3859.450 -74.823 -3905.680
v -3830.619 -76.195 -3922.328
v -3834.619 -75.872 -3929.256
f 569 570 571
f 571 572 569
v -3834.170 -75.882 -3929.479
v -3831.068 -76.182 -3922.105
v -3804.685 -76.599 -3933.204
v -3807.787 -76.129 -3940.578
f 573 574 575
f 575 576 573
v -3807.259 -76.129 -3940.758
v -3805.213 -76.596 -3933.025
v -3771.260 -76.621 -3942.010
v -3773.307 -75.937 -3949.743
f 577 578 579
f 579 580 577
v -3772.937 -75.932 -3949.823
v -3771.631 -76.624 -3941.930
v -3753.263 -76.523 -3944.969
v -3754.569 -75.751 -3952.862
f 581 582 583
f 583 584 581
v -3754.019 -75.749 -3952.914
v -3753.813 -76.523 -3944.917
v -3712.736 -76.597 -3945.974
v -3712.942 -75.826 -3953.971
f 585 586 587
f 587 588 585
v -3712.526 -75.829 -3953.960
v -3713.152 -76.595 -3945.985
v -3622.316 -76.353 -3938.850
v -3621.689 -76.316 -3946.825
f 589 590 591
f 591 592 589
v -3622.149 -76.317 -3946.835
v -3621.856 -76.347 -3938.840
v -3593.024 -76.134 -3939.897
v -3593.317 -76.388 -3947.892
f 593 594 595
f 595 596 593
v -3593.874 -76.383 -3947.832
v -3592.467 -76.133 -3939.957
v -3547.382 -76.902 -3948.017
v -3548.790 -77.534 -3955.892
f 597 598 599
f 599 600 597
v -3549.160 -77.519 -3955.808
v -3547.013 -76.915 -3948.101
v -3523.301 -78.082 -3954.708
v -3525.449 -78.784 -3962.414
f 601 602 603
f 603 604 601
v -3525.826 -78.758 -3962.289
v -3522.925 -78.107 -3954.833
v -3442.441 -83.506 -3986.149
v -3445.342 -83.992 -3993.604
f 605 606 607
f 607 608 605
v -3445.349 -83.991 -3993.601
v -3442.433 -83.506 -3986.152
v -3410.707 -84.325 -3998.572
v -3413.623 -84.588 -4006.022
f 609 610 611
f 611 612 609
v -3413.258 -84.589 -4006.145
v -3411.072 -84.321 -3998.449
v -3377.119 -84.045 -4008.095
v -3379.306 -84.037 -4015.791
f 613 614 615
f 615 616 613
v -3378.576 -84.017 -4015.926
v -3377.849 -84.060 -4007.959
v -3338.776 -83.447 -4011.527
v -3339.503 -83.130 -4019.494
f 617 618 619
f 619 620 617
v -3338.765 -83.117 -4019.493
v -3339.514 -83.456 -4011.528
v -3307.232 -83.706 -4008.489
v -3306.482 -83.221 -4016.454
f 621 622 623
f 623 624 621
v -3305.846 -83.236 -4016.342
v -3307.868 -83.687 -4008.601
v -3279.036 -84.972 -4001.070
v -3277.014 -84.325 -4008.810
f 625 626 627
f 627 628 625
v -3276.275 -84.387 -4008.537
v -3279.775 -84.911 -4001.343
v -3060.876 -90.759 -3894.844
v -3057.376 -91.253 -3902.038
f 629 630 631
f 631 632 629
v -4947.626 -96.649 -2268.193
v -4942.265 -96.838 -2274.131
v -4963.761 -93.814 -2293.539
v -4969.122 -93.741 -2287.601
f 633 634 635
f 635 636 633
v -4970.357 -93.446 -2291.388
v -4962.526 -94.127 -2289.752
v -4959.843 -93.547 -2302.593
v -4967.674 -92.944 -2304.229
f 637 638 639
f 639 640 637
v -4967.101 -93.147 -2301.214
v -4960.416 -93.314 -2305.608
v -4967.284 -92.208 -2316.059
v -4973.969 -92.108 -2311.665
f 641 642 643
f 643 644 641
v -4974.083 -92.091 -2311.849
v -4967.170 -92.226 -2315.875
v -4975.987 0.050 -2331.015
v -4982.900 0.050 -2326.989
f 645 646 647
f 647 648 645
v -4983.117 0.050 -2327.419
v -4975.770 -90.938 -2330.585
v -4992.334 0.050 -2369.030
v -4999.681 0.050 -2365.865
f 649 650 651
f 651 652 649
v -4999.839 0.050 -2366.299
v -4992.176 0.050 -2368.596
v -4996.651 0.050 -2383.525
v -5004.314 0.050 -2381.228
f 653 654 655
f 655 656 653
v -5003.269 0.050 -2379.506
v -4997.696 0.050 -2385.246
v -5018.001 0.050 -2404.958
v -5023.574 0.050 -2399.218
f 657 658 659
f 659 660 657
v -5024.179 0.050 -2399.967
v -5017.396 0.050 -2404.209
v -5029.340 0.050 -2423.312
v -5036.124 0.050 -2419.071
f 661 662 663
f 663 664 661
v -5036.720 0.050 -2421.498
v -5028.744 0.050 -2420.885
v -5027.252 0.050 -2440.293
v -5035.228 0.050 -2440.906
f 665 666 667
f 667 668 665
v -5034.687 0.050 -2442.629
v -5027.793 0.050 -2438.570
v -5023.608 0.050 -2445.678
v -5030.501 0.050 -2449.737
f 669 670 671
f 671 672 669
v -5030.501 0.050 -2449.738
v -5023.608 0.050 -2445.677
v -5017.942 0.050 -2455.295
v -5024.835 0.050 -2459.356
f 673 674 675
f 675 676 673
v -5022.926 0.050 -2461.018
v -5019.851 0.050 -2453.633
v -5005.513 0.050 -2459.605
v -5008.588 0.050 -2466.990
f 677 678 679
f 679 680 677
v -5010.379 0.050 -2465.516
v -5003.722 0.050 -2461.078
v -4987.002 0.050 -2486.154
v -4993.658 0.050 -2490.592
f 681 682 683
f 683 684 681
v -4992.494 0.050 -2491.737
v -4988.166 0.050 -2485.009
v -4963.086 -87.605 -2501.140
v -4967.414 -87.955 -2507.868
f 685 686 687
f 687 688 685
v -4966.418 -87.967 -2508.330
v -4964.082 -87.597 -2500.679
v -4946.471 -87.664 -2506.056
v -4948.807 -88.112 -2513.707
f 689 690 691
f 691 692 689
v -4946.943 -88.109 -2513.820
v -4948.336 -87.677 -2505.942
v -4889.214 -88.010 -2495.492
v -4887.821 -88.645 -2503.370
f 693 694 695
f 695 696 693
v -4888.036 -88.634 -2503.402
v -4888.999 -88.021 -2495.460
v -4869.296 -89.117 -2493.069
v -4868.332 -89.675 -2501.010
f 697 698 699
f 699 700 697
v -4870.478 -89.523 -2500.677
v -4867.150 -89.275 -2493.402
v -4849.528 -90.926 -2501.461
v -4852.856 -91.064 -2508.736
f 701 702 703
f 703 704 701
v -4853.825 -90.971 -2508.110
v -4848.559 -91.048 -2502.088
v -4820.050 -94.522 -2527.018
v -4825.316 -94.459 -2533.040
f 705 706 707
f 707 708 705
v -4826.200 -94.349 -2531.934
v -4819.166 -94.629 -2528.124
v -4803.637 -96.426 -2556.793
v -4810.671 -96.336 -2560.604
f 709 710 711
f 711 712 709
v -4810.238 -96.372 -2561.246
v -4804.071 -96.394 -2556.150
v -4792.727 -96.936 -2569.877
v -4798.894 -96.952 -2574.973
f 713 714 715
f 715 716 713
v -4797.187 -96.986 -2576.181
v -4794.435 -96.895 -2568.670
v -4776.512 -97.107 -2575.236
v -4779.264 -97.034 -2582.747
f 717 718 719
f 719 720 717
v -4777.888 -97.027 -2582.992
v -4777.888 -97.100 -2574.992
v -4758.786 -97.191 -2574.992
v -4758.786 -96.924 -2582.992
f 721 722 723
f 723 724 721
v -4757.729 -96.922 -2582.849
v -4759.843 -97.183 -2575.134
v -4722.818 -98.073 -2564.987
v -4720.704 -97.484 -2572.703
f 725 726 727
f 727 728 725
v -4721.661 -97.469 -2572.844
v -4721.860 -98.093 -2564.846
v -4697.971 -98.391 -2564.252
v -4697.772 -97.628 -2572.249
f 729 730 731
f 731 732 729
v -4698.587 -97.630 -2572.186
v -4697.156 -98.393 -2564.315
v -4664.317 -97.983 -2570.287
v -4665.748 -97.167 -2578.158
f 733 734 735
f 735 736 733
v -4666.233 -97.177 -2578.038
v -4663.832 -97.973 -2570.407
v -4631.583 -97.181 -2580.553
v -4633.984 -96.498 -2588.184
f 737 738 739
f 739 740 737
v -4634.247 -96.502 -2588.091
v -4631.320 -97.175 -2580.646
v -4597.879 -96.788 -2593.792
v -4600.806 -96.255 -2601.237
f 741 742 743
f 743 744 741
v -4599.431 -96.289 -2601.514
v -4599.254 -96.766 -2593.515
v -4572.382 -97.498 -2594.110
v -4572.559 -97.277 -2602.108
f 745 746 747
f 747 748 745
v -4570.581 -97.364 -2601.635
v -4574.359 -97.427 -2594.583
v -4557.639 -97.977 -2585.626
v -4553.861 -98.007 -2592.677
f 749 750 751
f 751 752 749
v -4553.329 -98.021 -2592.336
v -4558.171 -97.966 -2585.967
v -4543.243 -98.074 -2574.618
v -4538.401 -98.185 -2580.987
f 753 754 755
f 755 756 753
v -4538.134 -98.184 -2580.764
v -4543.511 -98.077 -2574.841
v -4504.694 -95.853 -2539.605
v -4499.317 -95.959 -2545.529
f 757 758 759
f 759 760 757
v -4499.695 -95.993 -2545.832
v -4504.316 -95.819 -2539.302
v -4468.337 -92.160 -2513.843
v -4463.716 -92.425 -2520.373
f 761 762 763
f 763 764 761
v -3800.156 -73.935 -3250.343
v -3807.084 -73.844 -3246.343
v -3794.839 -72.163 -3225.137
v -3787.911 -72.143 -3229.137
f 765 766 767
f 767 768 765
v -3788.725 -72.248 -3230.134
v -3794.024 -72.060 -3224.140
v -3765.660 -69.388 -3199.063
v -3760.361 -69.664 -3205.057
f 769 770 771
f 771 772 769
v -3760.114 -69.643 -3204.819
v -3765.907 -69.409 -3199.301
v -3753.962 -68.305 -3186.762
v -3748.170 -68.528 -3192.280
f 773 774 775
f 775 776 773
v -3747.264 -68.400 -3190.765
v -3754.868 -68.421 -3188.278
v -3749.202 -67.656 -3170.956
v -3741.598 -67.529 -3173.443
f 777 778 779
f 779 780 777
v -3741.431 -67.464 -3171.699
v -3749.368 -67.719 -3172.701
v -3760.111 -69.732 -3087.613
v -3752.174 -69.649 -3086.611
f 781 782 783
f 783 784 781
v -3752.257 -69.537 -3088.063
v -3760.028 -69.841 -3086.162
v -3752.870 -72.146 -3056.897
v -3745.099 -71.881 -3058.797
f 785 786 787
f 787 788 785
v -3745.669 -71.758 -3060.085
v -3752.300 -72.265 -3055.609
v -3727.509 -75.985 -3018.879
v -3720.878 -75.558 -3023.355
f 789 790 791
f 791 792 789
v -3720.309 -75.689 -3022.072
v -3728.078 -75.851 -3020.162
v -3723.603 -77.673 -3001.956
v -3715.834 -77.490 -3003.865
f 793 794 795
f 795 796 793
v -3715.790 -77.633 -3002.159
v -3723.647 -77.525 -3003.662
v -3726.931 -79.040 -2986.486
v -3719.074 -79.108 -2984.984
f 797 798 799
f 799 800 797
v -3719.608 -79.229 -2983.619
v -3726.397 -78.916 -2987.850
v -3761.930 -81.581 -2930.827
v -3755.141 -81.870 -2926.596
f 801 802 803
f 803 804 801
v -3754.884 -81.869 -2927.079
v -3762.188 -81.582 -2930.343
v -3779.798 -80.836 -2890.931
v -3772.494 -81.063 -2887.668
f 805 806 807
f 807 808 805
v -3773.056 -81.029 -2886.760
v -3779.237 -80.893 -2891.839
v -3806.711 -78.014 -2858.399
v -3800.529 -78.143 -2853.321
f 809 810 811
f 811 812 809
v -3801.368 -78.073 -2852.554
v -3805.872 -78.085 -2859.166
v -3827.367 -76.485 -2844.527
v -3822.864 -76.479 -2837.915
f 813 814 815
f 815 816 813
v -3821.622 -76.580 -2839.273
v -3828.609 -76.385 -2843.169
v -3838.762 -75.612 -2824.963
v -3831.775 -75.698 -2821.067
f 817 818 819
f 819 820 817
v -3831.578 -75.714 -2821.471
v -3838.958 -75.601 -2824.559
v -3847.018 -75.272 -2805.296
v -3839.638 -75.215 -2802.208
f 821 822 823
f 823 824 821
v -3839.330 -75.237 -2803.610
v -3847.325 -75.264 -2803.894
v -3848.227 -75.147 -2778.513
v -3840.232 -74.842 -2778.229
f 825 826 827
f 827 828 825
v -3840.888 -74.837 -2776.173
v -3847.571 -75.133 -2780.570
v -3855.630 -75.479 -2768.323
v -3848.947 -75.120 -2763.925
f 829 830 831
f 831 832 829
v -3849.112 -75.129 -2763.694
v -3855.466 -75.469 -2768.554
v -3882.639 -78.121 -2733.027
v -3876.285 -77.635 -2728.167
f 833 834 835
f 835 836 833
v -3875.624 -77.553 -2729.469
v -3883.300 -78.224 -2731.725
v -3886.283 -78.731 -2721.579
v -3878.608 -78.001 -2719.322
f 837 838 839
f 839 840 837
v -3878.452 -77.963 -2720.676
v -3886.439 -78.775 -2720.225
v -3883.456 -78.894 -2667.378
v -3875.468 -77.990 -2667.828
f 841 842 843
f 843 844 841
v -3876.779 -78.102 -2664.636
v -3882.144 -78.774 -2670.570
v -3891.395 -79.700 -2662.207
v -3886.030 -79.007 -2656.273
f 845 846 847
f 847 848 845
v -3886.245 -79.028 -2656.092
v -3891.181 -79.680 -2662.388
v -3902.235 -80.699 -2653.721
v -3897.299 -80.043 -2647.425
f 849 850 851
f 851 852 849
v -3900.529 -80.363 -2646.646
v -3899.004 -80.377 -2654.500
v -3917.517 -82.038 -2658.093
v -3919.041 -81.939 -2650.240
f 853 854 855
f 855 856 853
v -3917.474 -81.816 -2650.248
v -3919.084 -82.164 -2658.085
v -3930.728 -83.030 -2655.693
v -3929.118 -82.657 -2647.857
f 857 858 859
f 859 860 857
v -3927.660 -82.562 -2648.477
v -3932.186 -83.128 -2655.073
v -3947.415 -83.785 -2644.623
v -3942.888 -83.346 -2638.027
f 861 862 863
f 863 864 861
v -3942.534 -83.338 -2638.300
v -3947.769 -83.788 -2644.350
v -3963.298 -83.543 -2630.913
v -3958.063 -82.939 -2624.863
f 865 866 867
f 867 868 865
v -3959.973 -82.937 -2623.951
v -3961.388 -83.544 -2631.825
v -3999.604 -83.770 -2624.955
v -3998.189 -83.254 -2617.081
f 869 870 871
f 871 872 869
v -3998.648 -83.250 -2617.026
v -3999.145 -83.775 -2625.010
v -4018.248 -83.644 -2623.821
v -4017.751 -83.191 -2615.837
f 873 874 875
f 875 876 873
v -4019.097 -83.200 -2615.983
v -4016.901 -83.639 -2623.676
v -4029.447 -83.692 -2627.256
v -4031.643 -83.253 -2619.563
f 877 878 879
f 879 880 877
v -4030.148 -83.283 -2619.429
v -4030.941 -83.652 -2627.390
v -4036.908 -83.438 -2626.795
v -4036.115 -83.110 -2618.835
f 881 882 883
f 883 884 881
v -4034.653 -83.165 -2619.273
v -4038.370 -83.374 -2626.357
v -4068.527 -82.182 -2610.529
v -4064.809 -82.078 -2603.446
f 885 886 887
f 887 888 885
v -4065.548 -82.064 -2603.147
v -4067.788 -82.203 -2610.827
v -4103.622 -81.640 -2600.377
v -4101.382 -81.826 -2592.697
f 889 890 891
f 891 892 889
v -4102.023 -81.829 -2592.566
v -4102.980 -81.643 -2600.508
v -4127.760 -81.762 -2597.522
v -4126.803 -82.161 -2589.580
f 893 894 895
f 895 896 893
v -4127.676 -82.172 -2589.571
v -4126.886 -81.758 -2597.531
v -4160.037 -81.836 -2600.821
v -4160.827 -82.503 -2592.860
f 897 898 899
f 899 900 897
v -4161.389 -82.511 -2592.957
v -4159.475 -81.831 -2600.725
v -4223.662 -82.896 -2616.539
v -4225.576 -83.531 -2608.771
f 901 902 903
f 903 904 901
v -4223.850 -83.446 -2608.730
v -4225.389 -82.984 -2616.580
v -4240.617 -84.243 -2613.595
v -4239.078 -84.676 -2605.744
f 905 906 907
f 907 908 905
v -4238.357 -84.602 -2605.958
v -4241.339 -84.317 -2613.381
v -4302.999 -90.467 -2588.609
v -4300.016 -90.420 -2581.186
f 909 910 911
f 911 912 909
v -4299.637 -90.392 -2581.362
v -4303.379 -90.498 -2588.433
v -4339.502 -92.530 -2569.315
v -4335.760 -92.189 -2562.244
f 913 914 915
f 915 916 913
v -4336.341 -92.204 -2561.993
v -4338.920 -92.511 -2569.566
v -4381.021 -93.186 -2555.232
v -4378.443 -92.555 -2547.659
f 917 918 919
f 919 920 917
v -4378.772 -92.554 -2547.562
v -4380.692 -93.185 -2555.328
v -4409.657 -93.260 -2548.168
v -4407.737 -92.521 -2540.401
f 921 922 923
f 923 924 921
v -4406.634 -92.536 -2540.857
v -4410.760 -93.245 -2547.712
v -4445.992 -92.201 -2526.507
v -4441.867 -91.367 -2519.653
f 925 926 927
f 927 928 925
v -4442.886 -91.372 -2519.218
v -4444.973 -92.199 -2526.941
v -4467.070 -92.628 -2520.970
v -4464.983 -91.962 -2513.247
f 929 930 931
f 931 932 929
v -4463.011 -91.947 -2514.480
v -4469.042 -92.612 -2519.736
v -4478.148 -92.357 -2509.285
v -4472.117 -91.740 -2504.030
f 933 934 935
f 935 936 933
v -4474.014 -91.763 -2502.817
v -4476.251 -92.337 -2510.498
v -4521.336 -95.223 -2497.366
v -4519.098 -94.805 -2489.685
f 937 938 939
f 939 940 937
v -4517.270 -94.676 -2490.821
v -4523.164 -95.365 -2496.230
v -4546.452 -97.550 -2470.850
v -4540.558 -96.858 -2465.441
f 941 942 943
f 943 944 941
v -4540.699 -96.874 -2465.295
v -4546.311 -97.535 -2470.996
v -4565.425 -99.742 -2452.183
v -4559.813 -99.107 -2446.482
f 945 946 947
f 947 948 945
v -4559.326 -99.050 -2447.062
v -4565.911 -99.791 -2451.603
v -4577.856 -100.977 -2434.283
v -4571.270 -100.296 -2429.741
f 949 950 951
f 951 952 949
v -4572.163 -100.384 -2428.812
v -4576.964 -100.889 -2435.212
v -4587.706 -101.951 -2427.153
v -4582.905 -101.354 -2420.753
f 953 954 955
f 955 956 953
v -4583.901 -101.440 -2420.208
v -4586.710 -101.852 -2427.698
v -4612.992 -103.819 -2417.843
v -4610.184 -103.399 -2410.352
f 957 958 959
f 959 960 957
v -4608.524 -103.353 -2411.526
v -4614.652 -103.867 -2416.668
v -4622.411 -103.919 -2407.420
v -4616.283 -103.411 -2402.278
f 961 962 963
f 963 964 961
v -4615.972 -103.412 -2402.702
v -4622.722 -103.917 -2406.997
v -4637.349 -103.266 -2384.008
v -4630.600 -102.693 -2379.714
f 965 966 967
f 967 968 965
v -4630.833 -102.678 -2379.385
v -4637.116 -103.281 -2384.338
v -4644.886 -102.801 -2374.482
v -4638.603 -102.211 -2369.529
f 969 970 971
f 971 972 969
v -4639.940 -102.168 -2368.436
v -4643.549 -102.842 -2375.575
v -4672.503 -101.564 -2360.937
v -4668.894 -100.864 -2353.797
f 973 974 975
f 975 976 973
v -4669.895 -100.826 -2353.449
v -4671.502 -101.602 -2361.285
v -4799.597 -96.633 -2335.021
v -4797.991 -96.826 -2327.184
f 977 978 979
f 979 980 977
v -4795.777 -96.843 -2328.477
v -4801.811 -96.603 -2333.728
v -4809.871 -96.721 -2324.467
v -4803.836 -96.942 -2319.216
f 981 982 983
f 983 984 981
v -4803.892 -96.944 -2319.152
v -4809.815 -96.720 -2324.530
v -4827.437 -97.452 -2305.123
v -4821.514 -97.671 -2299.745
f 985 986 987
f 987 988 985
v -4822.768 -97.720 -2298.816
v -4826.182 -97.399 -2306.051
v -4842.001 -97.891 -2298.587
v -4838.587 -98.284 -2291.352
f 989 990 991
f 991 992 989
v -4840.294 -98.333 -2290.969
v -4840.294 -97.853 -2298.969
v -4860.298 -97.817 -2298.969
v -4860.298 -98.418 -2290.969
f 993 994 995
f 995 996 993
v -4861.391 -98.393 -2291.122
v -4859.205 -97.846 -2298.817
v -4887.581 -96.660 -2306.876
v -4889.766 -97.335 -2299.180
f 997 998 999
f 999 1000 997
v -4888.782 -97.364 -2299.030
v -4888.564 -96.625 -2307.027
v -4910.361 -95.759 -2307.621
v -4910.579 -96.489 -2299.624
f 1001 1002 1003
f 1003 1004 1001
v -4912.574 -96.350 -2300.221
v -4908.365 -95.903 -2307.024
v -4943.598 -92.362 -2328.823
v -4947.807 -92.751 -2322.020
f 1005 1006 1007
f 1007 1008 1005
v -4947.669 -92.764 -2321.938
v -4943.736 -92.349 -2328.905
v -4962.248 -90.872 -2339.355
v -4966.181 -91.199 -2332.389
f 1009 1010 1011
f 1011 1012 1009
v -4963.221 -91.337 -2331.997
v -4965.208 -90.754 -2339.747
v -4976.852 0.050 -2336.761
v -4974.865 -91.064 -2329.012
f 1013 1014 1015
f 1015 1016 1013
v -4972.919 -91.075 -2330.173
v -4978.798 0.050 -2335.599
v -4982.383 0.050 -2331.715
v -4976.504 0.050 -2326.289
f 1017 1018 1019
f 1019 1020 1017
v -3133.558 -94.272 -2255.555
v -3127.407 -95.057 -2250.439
v -3123.166 -95.457 -2255.539
v -3129.316 -94.680 -2260.654
f 1021 1022 1023
f 1023 1024 1021
v -3129.639 -94.651 -2260.207
v -3122.843 -95.485 -2255.985
v -3117.968 -95.853 -2263.833
v -3124.763 -95.045 -2268.055
f 1025 1026 1027
f 1027 1028 1025
v -3125.330 -95.014 -2266.473
v -3117.400 -95.876 -2265.415
v -3116.977 -95.842 -2268.586
v -3124.907 -95.000 -2269.644
f 1029 1030 1031
f 1031 1032 1029
v -3124.828 -95.001 -2270.061
v -3117.056 -95.846 -2268.168
v -3115.141 -95.766 -2276.029
v -3122.914 -94.995 -2277.922
f 1033 1034 1035
f 1035 1036 1033
v -3122.881 -94.994 -2278.048
v -3115.174 -95.769 -2275.903
v -3111.990 -95.516 -2287.344
v -3119.697 -94.893 -2289.489
f 1037 1038 1039
f 1039 1040 1037
v -3119.373 -94.890 -2290.300
v -3112.315 -95.529 -2286.533
v -3109.142 -95.467 -2292.478
v -3116.200 -94.898 -2296.245
f 1041 1042 1043
f 1043 1044 1041
v -3116.018 -94.896 -2296.552
v -3109.324 -95.470 -2292.171
v -3105.295 -95.413 -2298.327
v -3111.988 -94.860 -2302.709
f 1045 1046 1047
f 1047 1048 1045
v -3111.360 -94.859 -2303.452
v -3105.922 -95.414 -2297.584
v -3099.978 -95.451 -2303.093
v -3105.416 -94.850 -2308.961
f 1049 1050 1051
f 1051 1052 1049
v -3105.231 -94.849 -2309.123
v -3100.163 -95.450 -2302.932
v -3095.499 -95.444 -2306.750
v -3100.566 -94.820 -2312.941
f 1053 1054 1055
f 1055 1056 1053
v -3100.709 -94.822 -2312.818
v -3095.356 -95.442 -2306.873
v -3091.115 -95.367 -2310.691
v -3096.468 -94.742 -2316.636
f 1057 1058 1059
f 1059 1060 1057
v -3097.514 -94.802 -2315.126
v -3090.068 -95.302 -2312.201
v -3088.153 -95.017 -2317.076
v -3095.600 -94.548 -2320.001
f 1061 1062 1063
f 1063 1064 1061
v -3095.877 -94.637 -2318.539
v -3087.877 -94.918 -2318.539
v -3087.877 -94.456 -2324.695
v -3095.877 -94.225 -2324.695
f 1065 1066 1067
f 1067 1068 1065
v -3095.872 -94.238 -2324.499
v -3087.881 -94.441 -2324.891
v -3089.585 -91.879 -2359.676
v -3097.575 -91.952 -2359.285
f 1069 1070 1071
f 1071 1072 1069
v -3097.458 -92.002 -2358.500
v -3089.702 -91.824 -2360.462
v -3094.155 -90.837 -2378.060
v -3101.910 -91.101 -2376.097
f 1073 1074 1075
f 1075 1076 1073
v -3101.883 -91.105 -2375.996
v -3094.182 -90.832 -2378.161
v -3098.000 -90.221 -2391.743
v -3105.702 -90.572 -2389.577
f 1077 1078 1079
f 1079 1080 1077
v -3105.612 -90.582 -2389.298
v -3098.090 -90.210 -2392.022
v -3102.542 -89.946 -2404.321
v -3110.065 -90.313 -2401.598
f 1081 1082 1083
f 1083 1084 1081
v -3109.831 -90.317 -2401.073
v -3102.776 -89.941 -2404.846
v -3107.652 -89.908 -2413.962
v -3114.707 -90.307 -2410.189
f 1085 1086 1087
f 1087 1088 1085
v -3114.163 -90.300 -2409.411
v -3108.196 -89.913 -2414.740
v -3113.506 -90.020 -2420.686
v -3119.473 -90.457 -2415.357
f 1089 1090 1091
f 1091 1092 1089
v -3119.209 -90.445 -2415.088
v -3113.770 -90.027 -2420.955
v -3122.464 -90.463 -2429.014
v -3127.903 -90.893 -2423.147
f 1093 1094 1095
f 1095 1096 1093
v -3128.087 -90.903 -2423.329
v -3122.280 -90.450 -2428.831
v -3126.098 -90.720 -2432.861
v -3131.905 -91.138 -2427.358
f 1097 1098 1099
f 1099 1100 1097
v -3132.170 -91.157 -2427.668
v -3125.833 -90.702 -2432.551
v -3131.555 -91.113 -2439.976
v -3137.892 -91.571 -2435.093
f 1101 1102 1103
f 1103 1104 1101
v -3137.746 -91.560 -2434.914
v -3131.701 -91.124 -2440.155
v -3137.223 -91.530 -2446.523
v -3143.267 -91.967 -2441.282
f 1105 1106 1107
f 1107 1108 1105
v -4336.687 -93.774 -2261.667
v -4329.357 -92.923 -2258.463
v -4320.095 -91.757 -2279.654
v -4327.426 -92.482 -2282.858
f 1109 1110 1111
f 1111 1112 1109
v -4326.107 -92.335 -2284.495
v -4321.414 -91.900 -2278.016
v -4307.388 -90.540 -2288.176
v -4312.081 -91.031 -2294.655
f 1113 1114 1115
f 1115 1116 1113
v -4311.209 -90.959 -2295.134
v -4308.259 -90.617 -2287.697
v -4290.938 -89.180 -2294.567
v -4293.887 -89.646 -2302.004
f 1117 1118 1119
f 1119 1120 1117
v -4293.645 -89.629 -2302.091
v -4291.181 -89.199 -2294.480
v -4259.833 -87.270 -2304.626
v -4262.297 -87.964 -2312.237
f 1121 1122 1123
f 1123 1124 1121
v -4263.445 -87.992 -2311.647
v -4258.685 -87.237 -2305.217
v -4242.555 -87.225 -2317.160
v -4247.315 -88.022 -2323.590
f 1125 1126 1127
f 1127 1128 1125
v -4248.709 -87.935 -2321.702
v -4241.161 -87.316 -2319.048
v -4235.495 -88.529 -2335.166
v -4243.042 -89.048 -2337.819
f 1129 1130 1131
f 1131 1132 1129
v -4243.263 -88.925 -2336.284
v -4235.274 -88.662 -2336.702
v -4236.165 -90.253 -2353.731
v -4244.154 -90.396 -2353.314
f 1133 1134 1135
f 1135 1136 1133
v -4244.137 -90.378 -2353.103
v -4236.181 -90.273 -2353.941
v -4237.974 -91.745 -2370.958
v -4245.930 -91.753 -2370.120
f 1137 1138 1139
f 1139 1140 1137
v -4245.791 -91.856 -2371.661
v -4238.112 -91.634 -2369.417
v -4236.019 -92.148 -2376.577
v -4243.698 -92.334 -2378.822
f 1141 1142 1143
f 1143 1144 1141
v -4240.354 -92.529 -2381.669
v -4239.363 -91.956 -2373.730
v -4222.643 -91.733 -2375.818
v -4223.634 -92.391 -2383.756
f 1145 1146 1147
f 1147 1148 1145
v -4226.001 -92.379 -2382.581
v -4220.277 -91.743 -2376.992
v -4207.442 -92.360 -2390.138
v -4213.166 -92.992 -2395.727
f 1149 1150 1151
f 1151 1152 1149
v -4213.585 -92.968 -2395.219
v -4207.022 -92.388 -2390.646
v -4195.378 -93.007 -2407.358
v -4201.941 -93.435 -2411.932
f 1153 1154 1155
f 1155 1156 1153
v -4198.137 -93.403 -2413.611
v -4199.182 -93.041 -2405.679
v -4183.353 -92.079 -2403.592
v -4182.307 -92.379 -2411.523
f 1157 1158 1159
f 1159 1160 1157
v -4181.467 -92.301 -2411.318
v -4184.193 -92.155 -2403.797
v -4163.599 -90.224 -2396.332
v -4160.873 -90.333 -2403.854
f 1161 1162 1163
f 1163 1164 1161
v -4159.948 -90.241 -2403.374
v -4164.524 -90.315 -2396.812
v -4151.677 -88.779 -2387.854
v -4147.102 -88.777 -2394.417
f 1165 1166 1167
f 1167 1168 1165
v -4145.595 -88.492 -2392.400
v -4153.184 -89.022 -2389.871
v -4143.934 -86.481 -2362.101
v -4136.344 -86.056 -2364.629
f 1169 1170 1171
f 1171 1172 1169
v -4136.893 -86.164 -2365.703
v -4143.385 -86.361 -2361.027
v -4132.631 -84.650 -2346.098
v -4126.140 -84.512 -2350.774
f 1173 1174 1175
f 1175 1176 1173
v -4126.162 -84.515 -2350.804
v -4132.609 -84.647 -2346.068
v -4121.867 -83.314 -2331.443
v -4115.419 -83.236 -2336.179
f 1177 1178 1179
f 1179 1180 1177
v -4115.585 -83.252 -2336.390
v -4121.701 -83.297 -2331.232
v -4108.855 -82.250 -2315.999
v -4102.739 -82.263 -2321.157
f 1181 1182 1183
f 1183 1184 1181
v -4103.515 -82.301 -2321.863
v -4108.079 -82.210 -2315.293
v -4090.468 -81.810 -2303.059
v -4085.904 -81.815 -2309.629
f 1185 1186 1187
f 1187 1188 1185
v -4085.308 -81.809 -2309.122
v -4091.064 -81.814 -2303.567
v -4074.645 -82.006 -2286.551
v -4068.888 -82.010 -2292.106
f 1189 1190 1191
f 1191 1192 1189
v -4068.808 -82.012 -2292.020
v -4074.725 -82.004 -2286.636
v -4059.786 -82.697 -2270.215
v -4053.868 -82.730 -2275.598
f 1193 1194 1195
f 1195 1196 1193
v -4053.716 -82.740 -2275.420
v -4059.939 -82.689 -2270.393
v -4048.596 -83.411 -2256.349
v -4042.372 -83.502 -2261.376
f 1197 1198 1199
f 1199 1200 1197
v -4042.526 -83.491 -2261.556
v -4048.441 -83.423 -2256.170
v -4045.458 -83.638 -2252.893
v -4039.543 -83.708 -2258.279
f 1201 1202 1203
f 1203 1204 1201
v -3518.131 -85.527 -2247.528
v -3510.492 -85.713 -2249.904
v -3516.158 -84.451 -2268.123
v -3523.797 -84.275 -2265.747
f 1205 1206 1207
f 1207 1208 1205
v -3523.585 -84.121 -2268.664
v -3516.371 -84.606 -2265.205
v -3502.345 -82.896 -2294.455
v -3509.558 -82.328 -2297.914
f 1209 1210 1211
f 1211 1212 1209
v -3509.636 -82.340 -2297.742
v -3502.267 -82.884 -2294.628
v -3496.590 -81.867 -2308.064
v -3503.959 -81.287 -2311.178
f 1213 1214 1215
f 1215 1216 1213
v -3503.234 -81.197 -2312.311
v -3497.315 -81.957 -2306.930
v -3482.387 -80.766 -2323.352
v -3488.306 -80.026 -2328.733
f 1217 1218 1219
f 1219 1220 1217
v -3487.230 -79.978 -2329.572
v -3483.463 -80.816 -2322.514
v -3474.502 -80.639 -2327.296
v -3478.269 -79.829 -2334.354
f 1221 1222 1223
f 1223 1224 1221
v -3473.384 -80.098 -2333.469
v -3479.387 -80.389 -2328.181
v -3468.344 -81.903 -2315.644
v -3462.341 -81.602 -2320.931
f 1225 1226 1227
f 1227 1228 1225
v -3461.503 -81.759 -2319.411
v -3469.181 -81.742 -2317.164
v -3465.597 -82.930 -2304.917
v -3457.919 -82.892 -2307.164
f 1229 1230 1231
f 1231 1232 1229
v -3458.546 -82.772 -2308.424
v -3464.970 -83.045 -2303.657
v -3451.233 -84.568 -2285.147
v -3444.809 -84.264 -2289.915
f 1233 1234 1235
f 1235 1236 1233
v -3445.791 -84.212 -2290.852
v -3450.251 -84.641 -2284.211
v -3429.356 -85.014 -2270.180
v -3424.897 -84.661 -2276.822
f 1237 1238 1239
f 1239 1240 1237
v -3424.829 -84.662 -2276.775
v -3429.424 -85.015 -2270.226
v -3412.403 -84.787 -2258.283
v -3407.808 -84.515 -2264.832
f 1241 1242 1243
f 1243 1244 1241
v -3407.887 -84.517 -2264.886
v -3412.325 -84.785 -2258.230
v -3394.413 -84.085 -2246.287
v -3389.975 -83.817 -2252.943
f 1245 1246 1247
f 1247 1248 1245
v -3479.673 -79.898 -2333.103
v -3473.097 -80.570 -2328.547
v -3444.132 -78.618 -2370.362
v -3450.708 -77.857 -2374.917
f 1249 1250 1251
f 1251 1252 1249
v -3450.728 -77.857 -2374.889
v -3444.112 -78.618 -2370.390
v -3403.503 -81.199 -2430.106
v -3410.118 -80.312 -2434.605
f 1253 1254 1255
f 1255 1256 1253
v -3409.918 -80.337 -2434.875
v -3403.704 -81.171 -2429.836
v -3367.870 -86.241 -2474.029
v -3374.084 -85.361 -2479.068
f 1257 1258 1259
f 1259 1260 1257
v -3374.069 -85.363 -2479.086
v -3367.885 -86.239 -2474.011
v -3329.669 -89.092 -2520.582
v -3335.853 -88.236 -2525.657
f 1261 1262 1263
f 1263 1264 1261
v -3334.596 -88.283 -2526.674
v -3330.926 -89.042 -2519.565
v -3293.901 -90.031 -2538.682
v -3297.571 -89.212 -2545.791
f 1265 1266 1267
f 1267 1268 1265
v -3297.350 -89.215 -2545.896
v -3294.121 -90.027 -2538.577
v -3253.512 -90.024 -2556.492
v -3256.741 -89.165 -2563.811
f 1269 1270 1271
f 1271 1272 1269
v -3255.821 -89.173 -2564.091
v -3254.432 -90.017 -2556.213
v -3213.834 -90.823 -2563.373
v -3215.223 -90.177 -2571.252
f 1273 1274 1275
f 1275 1276 1273
v -3212.525 -90.329 -2570.775
v -3216.532 -90.688 -2563.850
v -3193.834 -92.219 -2550.718
v -3189.827 -91.945 -2557.642
f 1277 1278 1279
f 1279 1280 1277
v -3192.590 -91.851 -2558.107
v -3191.071 -92.287 -2550.253
v -3154.046 -92.828 -2557.414
v -3155.565 -92.775 -2565.268
f 1281 1282 1283
f 1283 1284 1281
v -3156.732 -92.740 -2564.846
v -3152.879 -92.852 -2557.836
v -3128.989 -93.805 -2570.968
v -3132.843 -93.858 -2577.978
f 1285 1286 1287
f 1287 1288 1285
v -3133.712 -93.797 -2577.335
v -3128.121 -93.862 -2571.612
v -3076.769 -99.731 -2621.777
v -3082.360 -99.643 -2627.500
f 1289 1290 1291
f 1291 1292 1289
v -4148.108 -78.500 -3608.173
v -4155.881 -78.458 -3606.278
v -4145.172 -79.941 -3562.346
v -4137.399 -80.062 -3564.240
f 1293 1294 1295
f 1295 1296 1293
v -4139.349 -79.907 -3566.793
v -4143.221 -80.100 -3559.793
v -4100.675 -81.618 -3536.261
v -4096.803 -81.569 -3543.261
f 1297 1298 1299
f 1299 1300 1297
v -4097.680 -81.545 -3543.618
v -4099.798 -81.636 -3535.904
v -4053.634 -81.715 -3523.232
v -4051.516 -82.002 -3530.947
f 1301 1302 1303
f 1303 1304 1301
v -4050.999 -81.997 -3530.766
v -4054.151 -81.724 -3523.413
v -4003.467 -79.307 -3501.691
v -4000.315 -79.897 -3509.045
f 1305 1306 1307
f 1307 1308 1305
v -3999.758 -79.856 -3508.751
v -4004.025 -79.350 -3501.985
v -3962.391 -75.518 -3475.731
v -3958.124 -76.070 -3482.498
f 1309 1310 1311
f 1311 1312 1309
v -3957.470 -76.001 -3481.983
v -3963.046 -75.586 -3476.246
v -3930.462 -72.501 -3444.575
v -3924.886 -72.970 -3450.312
f 1313 1314 1315
f 1315 1316 1313
v -3924.402 -72.938 -3449.743
v -3930.947 -72.533 -3445.144
v -3907.414 -71.478 -3411.650
v -3900.869 -71.865 -3416.249
f 1317 1318 1319
f 1319 1320 1317
v -3900.607 -71.870 -3415.821
v -3907.676 -71.484 -3412.077
v -3891.379 -72.052 -3381.305
v -3884.309 -72.618 -3385.049
f 1321 1322 1323
f 1323 1324 1321
v -3884.498 -72.604 -3385.369
v -3891.190 -72.066 -3380.985
v -3856.793 -74.943 -3328.478
v -3850.101 -75.401 -3332.862
f 1325 1326 1327
f 1327 1328 1325
v -3849.791 -75.422 -3332.295
v -3857.102 -74.920 -3329.045
v -3839.001 -75.568 -3288.324
v -3831.691 -75.813 -3291.574
f 1329 1330 1331
f 1331 1332 1329
v -3832.165 -75.820 -3292.375
v -3838.527 -75.565 -3287.524
v -3806.801 -73.815 -3245.918
v -3800.439 -73.968 -3250.768
f 1333 1334 1335
f 1335 1336 1333
v -3837.074 -75.709 -3293.557
v -3833.618 -75.640 -3286.342
v -3821.840 -76.086 -3291.983
v -3825.297 -76.240 -3299.198
f 1337 1338 1339
f 1339 1340 1337
v -3827.408 -76.015 -3294.471
v -3819.729 -76.337 -3296.711
v -3828.089 -76.808 -3325.369
v -3835.769 -76.279 -3323.129
f 1341 1342 1343
f 1343 1344 1341
v -3835.886 -76.280 -3323.668
v -3827.971 -76.804 -3324.830
v -3833.938 -76.891 -3365.446
v -3841.853 -76.170 -3364.283
f 1345 1346 1347
f 1347 1348 1345
