# Buildings and bardas mesh for tecate_core_z14_x2883_y6624
v -700.556 4.754 2889.889
v -686.274 4.754 2881.266
v -667.227 4.754 2912.814
v -681.821 4.754 2921.187
v -700.556 4.754 2889.889
v -700.556 8.254 2889.889
v -686.274 8.254 2881.266
v -667.227 8.254 2912.814
v -681.821 8.254 2921.187
v -700.556 8.254 2889.889
v -687.287 8.254 2899.009
v -681.821 4.571 2921.187
v -649.148 4.571 2978.142
v -632.050 4.571 2968.344
v -644.774 4.571 2946.158
v -631.705 4.571 2938.658
v -614.973 4.571 2967.815
v -598.732 4.571 2958.506
v -636.213 4.571 2893.138
v -639.631 4.571 2895.106
v -647.968 4.571 2880.579
v -662.173 4.571 2888.727
v -653.034 4.571 2904.680
v -667.227 4.571 2912.814
v -681.821 4.571 2921.187
v -681.821 8.071 2921.187
v -649.148 8.071 2978.142
v -632.050 8.071 2968.344
v -644.774 8.071 2946.158
v -631.705 8.071 2938.658
v -614.973 8.071 2967.815
v -598.732 8.071 2958.506
v -636.213 8.071 2893.138
v -639.631 8.071 2895.106
v -647.968 8.071 2880.579
v -662.173 8.071 2888.727
v -653.034 8.071 2904.680
v -667.227 8.071 2912.814
v -681.821 8.071 2921.187
v -645.805 8.071 2926.789
v -757.318 3.252 2770.840
v -748.601 3.252 2785.828
v -756.338 3.252 2790.332
v -748.735 3.252 2803.432
v -696.337 3.252 2772.992
v -696.270 3.252 2773.125
v -700.511 3.252 2775.475
v -696.537 3.252 2782.646
v -729.621 3.252 2800.936
v -721.150 3.252 2816.268
v -711.543 3.252 2810.959
v -706.823 3.252 2819.503
v -739.317 3.252 2837.463
v -730.067 3.252 2854.194
v -695.780 3.252 2835.244
v -693.609 3.252 2839.153
v -685.839 3.252 2834.835
v -688.277 3.252 2830.437
v -672.425 3.252 2821.629
v -670.533 3.252 2825.023
v -662.752 3.252 2820.678
v -661.516 3.252 2822.884
v -637.182 3.252 2809.189
v -676.010 3.252 2740.150
v -683.791 3.252 2744.534
v -687.376 3.252 2738.169
v -680.162 3.252 2734.101
v -681.375 3.252 2731.962
v -701.714 3.252 2743.530
v -702.905 3.252 2741.444
v -705.999 3.252 2743.227
v -704.897 3.252 2745.155
v -715.161 3.252 2751.058
v -716.463 3.252 2748.786
v -721.061 3.252 2751.441
v -720.081 3.252 2753.131
v -728.041 3.252 2757.753
v -729.755 3.252 2754.795
v -737.859 3.252 2759.496
v -736.345 3.252 2762.124
v -743.525 3.252 2766.284
v -745.028 3.252 2763.696
v -757.318 3.252 2770.840
v -757.318 6.752 2770.840
v -748.601 6.752 2785.828
v -756.338 6.752 2790.332
v -748.735 6.752 2803.432
v -696.337 6.752 2772.992
v -696.270 6.752 2773.125
v -700.511 6.752 2775.475
v -696.537 6.752 2782.646
v -729.621 6.752 2800.936
v -721.150 6.752 2816.268
v -711.543 6.752 2810.959
v -706.823 6.752 2819.503
v -739.317 6.752 2837.463
v -730.067 6.752 2854.194
v -695.780 6.752 2835.244
v -693.609 6.752 2839.153
v -685.839 6.752 2834.835
v -688.277 6.752 2830.437
v -672.425 6.752 2821.629
v -670.533 6.752 2825.023
v -662.752 6.752 2820.678
v -661.516 6.752 2822.884
v -637.182 6.752 2809.189
v -676.010 6.752 2740.150
v -683.791 6.752 2744.534
v -687.376 6.752 2738.169
v -680.162 6.752 2734.101
v -681.375 6.752 2731.962
v -701.714 6.752 2743.530
v -702.905 6.752 2741.444
v -705.999 6.752 2743.227
v -704.897 6.752 2745.155
v -715.161 6.752 2751.058
v -716.463 6.752 2748.786
v -721.061 6.752 2751.441
v -720.081 6.752 2753.131
v -728.041 6.752 2757.753
v -729.755 6.752 2754.795
v -737.859 6.752 2759.496
v -736.345 6.752 2762.124
v -743.525 6.752 2766.284
v -745.028 6.752 2763.696
v -757.318 6.752 2770.840
v -708.883 6.752 2782.203
v -701.985 4.754 2888.907
v -686.175 4.754 2879.534
v -665.798 4.754 2913.798
v -681.406 4.754 2922.871
v -701.985 4.754 2888.907
v -701.985 6.754 2888.907
v -686.175 6.754 2879.534
v -665.798 6.754 2913.798
v -681.406 6.754 2922.871
v -701.985 6.754 2888.907
v -683.679 4.571 2920.898
v -649.271 4.571 2980.019
v -631.459 4.571 2970.129
v -644.674 4.571 2948.036
v -630.266 4.571 2939.869
v -613.843 4.571 2969.319
v -597.172 4.571 2959.556
v -635.698 4.571 2891.329
v -639.271 4.571 2893.259
v -648.056 4.571 2878.701
v -662.916 4.571 2886.999
v -653.618 4.571 2902.892
v -668.802 4.571 2911.787
v -683.679 4.571 2920.898
v -683.679 6.701 2920.898
v -649.271 6.701 2980.019
v -631.459 6.701 2970.129
v -644.674 6.701 2948.036
v -630.266 6.701 2939.869
v -613.843 6.701 2969.319
v -597.172 6.701 2959.556
v -635.698 6.701 2891.329
v -639.271 6.701 2893.259
v -648.056 6.701 2878.701
v -662.916 6.701 2886.999
v -653.618 6.701 2902.892
v -668.802 6.701 2911.787
v -683.679 6.701 2920.898
v -759.590 3.252 2770.307
v -750.925 3.252 2786.041
v -758.638 3.252 2790.726
v -750.795 3.252 2804.529
v -694.456 3.252 2771.611
v -694.376 3.252 2771.761
v -698.692 3.252 2774.013
v -694.205 3.252 2782.729
v -731.353 3.252 2802.500
v -721.941 3.252 2818.463
v -711.758 3.252 2813.283
v -706.694 3.252 2821.833
v -740.443 3.252 2839.507
v -730.725 3.252 2856.433
v -695.221 3.252 2837.510
v -693.005 3.252 2841.407
v -684.903 3.252 2836.973
v -687.361 3.252 2832.583
v -670.841 3.252 2823.343
v -668.976 3.252 2826.761
v -660.960 3.252 2822.173
v -659.746 3.252 2824.404
v -634.998 3.252 2810.011
v -674.573 3.252 2738.311
v -682.497 3.252 2742.592
v -686.351 3.252 2736.072
v -678.966 3.252 2732.098
v -680.255 3.252 2729.915
v -701.288 3.252 2741.236
v -702.566 3.252 2739.135
v -705.827 3.252 2740.899
v -704.648 3.252 2742.834
v -715.622 3.252 2748.770
v -716.980 3.252 2746.511
v -721.920 3.252 2749.271
v -720.920 3.252 2750.953
v -729.480 3.252 2755.916
v -731.169 3.252 2752.938
v -739.696 3.252 2758.057
v -738.229 3.252 2760.747
v -745.646 3.252 2765.310
v -747.105 3.252 2762.632
v -759.590 3.252 2770.307
v -759.590 5.649 2770.307
v -750.925 5.649 2786.041
v -758.638 5.649 2790.726
v -750.795 5.649 2804.529
v -694.456 5.649 2771.611
v -694.376 5.649 2771.761
v -698.692 5.649 2774.013
v -694.205 5.649 2782.729
v -731.353 5.649 2802.500
v -721.941 5.649 2818.463
v -711.758 5.649 2813.283
v -706.694 5.649 2821.833
v -740.443 5.649 2839.507
v -730.725 5.649 2856.433
v -695.221 5.649 2837.510
v -693.005 5.649 2841.407
v -684.903 5.649 2836.973
v -687.361 5.649 2832.583
v -670.841 5.649 2823.343
v -668.976 5.649 2826.761
v -660.960 5.649 2822.173
v -659.746 5.649 2824.404
v -634.998 5.649 2810.011
v -674.573 5.649 2738.311
v -682.497 5.649 2742.592
v -686.351 5.649 2736.072
v -678.966 5.649 2732.098
v -680.255 5.649 2729.915
v -701.288 5.649 2741.236
v -702.566 5.649 2739.135
v -705.827 5.649 2740.899
v -704.648 5.649 2742.834
v -715.622 5.649 2748.770
v -716.980 5.649 2746.511
v -721.920 5.649 2749.271
v -720.920 5.649 2750.953
v -729.480 5.649 2755.916
v -731.169 5.649 2752.938
v -739.696 5.649 2758.057
v -738.229 5.649 2760.747
v -745.646 5.649 2765.310
v -747.105 5.649 2762.632
v -759.590 5.649 2770.307
g building_0
f 1 2 7
f 7 6 1
f 2 3 8
f 8 7 2
f 3 4 9
f 9 8 3
f 4 5 10
f 10 9 4
f 6 7 11
f 7 8 11
f 8 9 11
f 9 10 11
g building_1
f 12 13 27
f 27 26 12
f 13 14 28
f 28 27 13
f 14 15 29
f 29 28 14
f 15 16 30
f 30 29 15
f 16 17 31
f 31 30 16
f 17 18 32
f 32 31 17
f 18 19 33
f 33 32 18
f 19 20 34
f 34 33 19
f 20 21 35
f 35 34 20
f 21 22 36
f 36 35 21
f 22 23 37
f 37 36 22
f 23 24 38
f 38 37 23
f 24 25 39
f 39 38 24
f 26 27 40
f 27 28 40
f 28 29 40
f 29 30 40
f 30 31 40
f 31 32 40
f 32 33 40
f 33 34 40
f 34 35 40
f 35 36 40
f 36 37 40
f 37 38 40
f 38 39 40
g building_2
f 41 42 85
f 85 84 41
f 42 43 86
f 86 85 42
f 43 44 87
f 87 86 43
f 44 45 88
f 88 87 44
f 45 46 89
f 89 88 45
f 46 47 90
f 90 89 46
f 47 48 91
f 91 90 47
f 48 49 92
f 92 91 48
f 49 50 93
f 93 92 49
f 50 51 94
f 94 93 50
f 51 52 95
f 95 94 51
f 52 53 96
f 96 95 52
f 53 54 97
f 97 96 53
f 54 55 98
f 98 97 54
f 55 56 99
f 99 98 55
f 56 57 100
f 100 99 56
f 57 58 101
f 101 100 57
f 58 59 102
f 102 101 58
f 59 60 103
f 103 102 59
f 60 61 104
f 104 103 60
f 61 62 105
f 105 104 61
f 62 63 106
f 106 105 62
f 63 64 107
f 107 106 63
f 64 65 108
f 108 107 64
f 65 66 109
f 109 108 65
f 66 67 110
f 110 109 66
f 67 68 111
f 111 110 67
f 68 69 112
f 112 111 68
f 69 70 113
f 113 112 69
f 70 71 114
f 114 113 70
f 71 72 115
f 115 114 71
f 72 73 116
f 116 115 72
f 73 74 117
f 117 116 73
f 74 75 118
f 118 117 74
f 75 76 119
f 119 118 75
f 76 77 120
f 120 119 76
f 77 78 121
f 121 120 77
f 78 79 122
f 122 121 78
f 79 80 123
f 123 122 79
f 80 81 124
f 124 123 80
f 81 82 125
f 125 124 81
f 82 83 126
f 126 125 82
f 84 85 127
f 85 86 127
f 86 87 127
f 87 88 127
f 88 89 127
f 89 90 127
f 90 91 127
f 91 92 127
f 92 93 127
f 93 94 127
f 94 95 127
f 95 96 127
f 96 97 127
f 97 98 127
f 98 99 127
f 99 100 127
f 100 101 127
f 101 102 127
f 102 103 127
f 103 104 127
f 104 105 127
f 105 106 127
f 106 107 127
f 107 108 127
f 108 109 127
f 109 110 127
f 110 111 127
f 111 112 127
f 112 113 127
f 113 114 127
f 114 115 127
f 115 116 127
f 116 117 127
f 117 118 127
f 118 119 127
f 119 120 127
f 120 121 127
f 121 122 127
f 122 123 127
f 123 124 127
f 124 125 127
f 125 126 127
g barda_3
f 128 129 134
f 134 133 128
f 129 130 135
f 135 134 129
f 130 131 136
f 136 135 130
f 131 132 137
f 137 136 131
g barda_4
f 138 139 153
f 153 152 138
f 139 140 154
f 154 153 139
f 140 141 155
f 155 154 140
f 141 142 156
f 156 155 141
f 142 143 157
f 157 156 142
f 143 144 158
f 158 157 143
f 144 145 159
f 159 158 144
f 145 146 160
f 160 159 145
f 146 147 161
f 161 160 146
f 147 148 162
f 162 161 147
f 148 149 163
f 163 162 148
f 149 150 164
f 164 163 149
f 150 151 165
f 165 164 150
g barda_5
f 166 167 210
f 210 209 166
f 167 168 211
f 211 210 167
f 168 169 212
f 212 211 168
f 169 170 213
f 213 212 169
f 170 171 214
f 214 213 170
f 171 172 215
f 215 214 171
f 172 173 216
f 216 215 172
f 173 174 217
f 217 216 173
f 174 175 218
f 218 217 174
f 175 176 219
f 219 218 175
f 176 177 220
f 220 219 176
f 177 178 221
f 221 220 177
f 178 179 222
f 222 221 178
f 179 180 223
f 223 222 179
f 180 181 224
f 224 223 180
f 181 182 225
f 225 224 181
f 182 183 226
f 226 225 182
f 183 184 227
f 227 226 183
f 184 185 228
f 228 227 184
f 185 186 229
f 229 228 185
f 186 187 230
f 230 229 186
f 187 188 231
f 231 230 187
f 188 189 232
f 232 231 188
f 189 190 233
f 233 232 189
f 190 191 234
f 234 233 190
f 191 192 235
f 235 234 191
f 192 193 236
f 236 235 192
f 193 194 237
f 237 236 193
f 194 195 238
f 238 237 194
f 195 196 239
f 239 238 195
f 196 197 240
f 240 239 196
f 197 198 241
f 241 240 197
f 198 199 242
f 242 241 198
f 199 200 243
f 243 242 199
f 200 201 244
f 244 243 200
f 201 202 245
f 245 244 201
f 202 203 246
f 246 245 202
f 203 204 247
f 247 246 203
f 204 205 248
f 248 247 204
f 205 206 249
f 249 248 205
f 206 207 250
f 250 249 206
f 207 208 251
f 251 250 207
