# Buildings and bardas mesh for tecate_core_z14_x2884_y6620
v 1236.682 54.624 -4995.042
v 1242.136 54.624 -4992.888
v 1244.596 54.624 -4999.138
v 1247.713 54.624 -4997.909
v 1248.392 54.624 -4999.654
v 1251.554 54.624 -4998.412
v 1250.908 54.624 -4996.760
v 1254.393 54.624 -4995.399
v 1250.764 54.624 -4986.188
v 1243.539 54.624 -4989.042
v 1242.626 54.624 -4986.730
v 1239.131 54.624 -4988.104
v 1239.587 54.624 -4989.254
v 1235.101 54.624 -4991.025
v 1236.682 54.624 -4995.042
v 1236.682 58.124 -4995.042
v 1242.136 58.124 -4992.888
v 1244.596 58.124 -4999.138
v 1247.713 58.124 -4997.909
v 1248.392 58.124 -4999.654
v 1251.554 58.124 -4998.412
v 1250.908 58.124 -4996.760
v 1254.393 58.124 -4995.399
v 1250.764 58.124 -4986.188
v 1243.539 58.124 -4989.042
v 1242.626 58.124 -4986.730
v 1239.131 58.124 -4988.104
v 1239.587 58.124 -4989.254
v 1235.101 58.124 -4991.025
v 1236.682 58.124 -4995.042
v 1244.254 58.124 -4993.372
v 1256.374 56.594 -5007.318
v 1257.376 56.594 -5011.917
v 1258.979 56.594 -5011.573
v 1258.801 56.594 -5010.754
v 1261.985 56.594 -5010.067
v 1262.196 56.594 -5011.005
v 1265.992 56.594 -5010.186
v 1264.957 56.594 -5005.455
v 1256.374 56.594 -5007.318
v 1256.374 60.094 -5007.318
v 1257.376 60.094 -5011.917
v 1258.979 60.094 -5011.573
v 1258.801 60.094 -5010.754
v 1261.985 60.094 -5010.067
v 1262.196 60.094 -5011.005
v 1265.992 60.094 -5010.186
v 1264.957 60.094 -5005.455
v 1256.374 60.094 -5007.318
v 1260.337 60.094 -5009.510
v 1241.335 57.560 -5041.253
v 1249.984 57.560 -5038.742
v 1250.563 57.560 -5040.751
v 1254.348 57.560 -5039.654
v 1253.758 57.560 -5037.592
v 1256.719 57.560 -5036.733
v 1257.988 57.560 -5041.134
v 1252.545 57.560 -5042.706
v 1254.148 57.560 -5048.204
v 1262.074 57.560 -5045.904
v 1262.708 57.560 -5048.098
v 1269.844 57.560 -5046.023
v 1266.727 57.560 -5035.306
v 1263.688 57.560 -5036.192
v 1261.072 57.560 -5027.179
v 1239.097 57.560 -5033.562
v 1241.335 57.560 -5041.253
v 1241.335 61.060 -5041.253
v 1249.984 61.060 -5038.742
v 1250.563 61.060 -5040.751
v 1254.348 61.060 -5039.654
v 1253.758 61.060 -5037.592
v 1256.719 61.060 -5036.733
v 1257.988 61.060 -5041.134
v 1252.545 61.060 -5042.706
v 1254.148 61.060 -5048.204
v 1262.074 61.060 -5045.904
v 1262.708 61.060 -5048.098
v 1269.844 61.060 -5046.023
v 1266.727 61.060 -5035.306
v 1263.688 61.060 -5036.192
v 1261.072 61.060 -5027.179
v 1239.097 61.060 -5033.562
v 1241.335 61.060 -5041.253
v 1255.172 61.060 -5040.017
v 1263.788 56.111 -4999.072
v 1273.862 56.111 -4997.698
v 1273.439 56.111 -4994.619
v 1263.365 56.111 -4995.993
v 1263.788 56.111 -4999.072
v 1263.788 59.611 -4999.072
v 1273.862 59.611 -4997.698
v 1273.439 59.611 -4994.619
v 1263.365 59.611 -4995.993
v 1263.788 59.611 -4999.072
v 1267.648 59.611 -4997.291
v 1268.319 54.710 -4971.401
v 1265.380 54.710 -4977.374
v 1271.925 54.710 -4980.598
v 1274.864 54.710 -4974.626
v 1268.319 54.710 -4971.401
v 1268.319 58.210 -4971.401
v 1265.380 58.210 -4977.374
v 1271.925 58.210 -4980.598
v 1274.864 58.210 -4974.626
v 1268.319 58.210 -4971.401
v 1269.761 58.210 -4975.080
v 1290.070 59.402 -5043.512
v 1301.124 59.402 -5042.468
v 1301.058 59.402 -5041.742
v 1302.249 59.402 -5041.623
v 1301.982 59.402 -5038.768
v 1300.668 59.402 -5038.887
v 1299.733 59.402 -5029.095
v 1292.286 59.402 -5029.809
v 1292.698 59.402 -5034.223
v 1289.213 59.402 -5034.566
v 1290.070 59.402 -5043.512
v 1290.070 62.902 -5043.512
v 1301.124 62.902 -5042.468
v 1301.058 62.902 -5041.742
v 1302.249 62.902 -5041.623
v 1301.982 62.902 -5038.768
v 1300.668 62.902 -5038.887
v 1299.733 62.902 -5029.095
v 1292.286 62.902 -5029.809
v 1292.698 62.902 -5034.223
v 1289.213 62.902 -5034.566
v 1290.070 62.902 -5043.512
v 1296.468 62.902 -5038.019
v 1318.635 58.837 -5028.104
v 1317.867 58.837 -5020.295
v 1311.767 58.837 -5020.889
v 1312.524 58.837 -5028.699
v 1318.635 58.837 -5028.104
v 1318.635 62.337 -5028.104
v 1317.867 62.337 -5020.295
v 1311.767 62.337 -5020.889
v 1312.524 62.337 -5028.699
v 1318.635 62.337 -5028.104
v 1315.885 62.337 -5025.218
v 1234.988 54.624 -4995.415
v 1240.445 54.624 -4992.501
v 1244.699 54.624 -5000.870
v 1248.765 54.624 -4999.289
v 1249.347 54.624 -5001.102
v 1252.981 54.624 -4999.397
v 1252.454 54.624 -4997.547
v 1256.093 54.624 -4995.739
v 1251.928 54.624 -4984.903
v 1243.256 54.624 -4987.331
v 1242.213 54.624 -4985.045
v 1237.921 54.624 -4986.861
v 1238.287 54.624 -4988.106
v 1233.421 54.624 -4990.594
v 1234.988 54.624 -4995.415
v 1234.988 56.624 -4995.415
v 1240.445 56.624 -4992.501
v 1244.699 56.624 -5000.870
v 1248.765 56.624 -4999.289
v 1249.347 56.624 -5001.102
v 1252.981 56.624 -4999.397
v 1252.454 56.624 -4997.547
v 1256.093 56.624 -4995.739
v 1251.928 56.624 -4984.903
v 1243.256 56.624 -4987.331
v 1242.213 56.624 -4985.045
v 1237.921 56.624 -4986.861
v 1238.287 56.624 -4988.106
v 1233.421 56.624 -4990.594
v 1234.988 56.624 -4995.415
v 1254.728 56.594 -5006.408
v 1255.916 56.594 -5013.103
v 1257.945 56.594 -5013.144
v 1257.339 56.594 -5011.937
v 1263.766 56.594 -5010.668
v 1263.662 56.594 -5012.183
v 1267.860 56.594 -5010.409
v 1266.370 56.594 -5004.214
v 1254.728 56.594 -5006.408
v 1254.728 58.724 -5006.408
v 1255.916 58.724 -5013.103
v 1257.945 58.724 -5013.144
v 1257.339 58.724 -5011.937
v 1263.766 58.724 -5010.668
v 1263.662 58.724 -5012.183
v 1267.860 58.724 -5010.409
v 1266.370 58.724 -5004.214
v 1254.728 58.724 -5006.408
v 1239.010 57.560 -5041.460
v 1247.718 57.560 -5038.185
v 1248.259 57.560 -5041.117
v 1252.212 57.560 -5038.713
v 1252.582 57.560 -5035.577
v 1257.714 57.560 -5034.622
v 1260.157 57.560 -5041.994
v 1250.914 57.560 -5044.375
v 1253.858 57.560 -5050.519
v 1263.849 57.560 -5047.419
v 1264.300 57.560 -5049.805
v 1272.003 57.560 -5046.907
v 1268.888 57.560 -5034.425
v 1265.816 57.560 -5035.235
v 1262.046 57.560 -5025.059
v 1236.932 57.560 -5032.692
v 1239.010 57.560 -5041.460
v 1239.010 59.957 -5041.460
v 1247.718 59.957 -5038.185
v 1248.259 59.957 -5041.117
v 1252.212 59.957 -5038.713
v 1252.582 59.957 -5035.577
v 1257.714 59.957 -5034.622
v 1260.157 59.957 -5041.994
v 1250.914 59.957 -5044.375
v 1253.858 59.957 -5050.519
v 1263.849 59.957 -5047.419
v 1264.300 59.957 -5049.805
v 1272.003 59.957 -5046.907
v 1268.888 59.957 -5034.425
v 1265.816 59.957 -5035.235
v 1262.046 59.957 -5025.059
v 1236.932 59.957 -5032.692
v 1239.010 59.957 -5041.460
v 1262.298 56.111 -4999.760
v 1275.500 56.111 -4997.805
v 1274.929 56.111 -4993.932
v 1261.795 56.111 -4995.518
v 1262.298 56.111 -4999.760
v 1262.298 58.232 -4999.760
v 1275.500 58.232 -4997.805
v 1274.929 58.232 -4993.932
v 1261.795 58.232 -4995.518
v 1262.298 58.232 -4999.760
v 1267.495 54.710 -4969.300
v 1263.380 54.710 -4978.421
v 1272.749 54.710 -4982.699
v 1277.112 54.710 -4974.425
v 1267.495 54.710 -4969.300
v 1267.495 57.019 -4969.300
v 1263.380 57.019 -4978.421
v 1272.749 57.019 -4982.699
v 1277.112 57.019 -4974.425
v 1267.495 57.019 -4969.300
v 1288.407 59.402 -5044.941
v 1302.710 59.402 -5043.983
v 1302.761 59.402 -5043.123
v 1304.110 59.402 -5042.783
v 1304.154 59.402 -5039.064
v 1302.815 59.402 -5039.331
v 1300.486 59.402 -5027.036
v 1291.290 59.402 -5027.855
v 1291.152 59.402 -5032.667
v 1287.233 59.402 -5033.624
v 1288.407 59.402 -5044.941
v 1288.407 61.852 -5044.941
v 1302.710 61.852 -5043.983
v 1302.761 61.852 -5043.123
v 1304.110 61.852 -5042.783
v 1304.154 61.852 -5039.064
v 1302.815 61.852 -5039.331
v 1300.486 61.852 -5027.036
v 1291.290 61.852 -5027.855
v 1291.152 61.852 -5032.667
v 1287.233 61.852 -5033.624
v 1288.407 61.852 -5044.941
v 1320.004 58.837 -5029.541
v 1318.608 58.837 -5018.453
v 1310.399 58.837 -5019.451
v 1311.145 58.837 -5030.127
v 1320.004 58.837 -5029.541
v 1320.004 60.884 -5029.541
v 1318.608 60.884 -5018.453
v 1310.399 60.884 -5019.451
v 1311.145 60.884 -5030.127
v 1320.004 60.884 -5029.541
g building_0
f 1 2 17
f 17 16 1
f 2 3 18
f 18 17 2
f 3 4 19
f 19 18 3
f 4 5 20
f 20 19 4
f 5 6 21
f 21 20 5
f 6 7 22
f 22 21 6
f 7 8 23
f 23 22 7
f 8 9 24
f 24 23 8
f 9 10 25
f 25 24 9
f 10 11 26
f 26 25 10
f 11 12 27
f 27 26 11
f 12 13 28
f 28 27 12
f 13 14 29
f 29 28 13
f 14 15 30
f 30 29 14
f 16 17 31
f 17 18 31
f 18 19 31
f 19 20 31
f 20 21 31
f 21 22 31
f 22 23 31
f 23 24 31
f 24 25 31
f 25 26 31
f 26 27 31
f 27 28 31
f 28 29 31
f 29 30 31
g building_1
f 32 33 42
f 42 41 32
f 33 34 43
f 43 42 33
f 34 35 44
f 44 43 34
f 35 36 45
f 45 44 35
f 36 37 46
f 46 45 36
f 37 38 47
f 47 46 37
f 38 39 48
f 48 47 38
f 39 40 49
f 49 48 39
f 41 42 50
f 42 43 50
f 43 44 50
f 44 45 50
f 45 46 50
f 46 47 50
f 47 48 50
f 48 49 50
g building_2
f 51 52 69
f 69 68 51
f 52 53 70
f 70 69 52
f 53 54 71
f 71 70 53
f 54 55 72
f 72 71 54
f 55 56 73
f 73 72 55
f 56 57 74
f 74 73 56
f 57 58 75
f 75 74 57
f 58 59 76
f 76 75 58
f 59 60 77
f 77 76 59
f 60 61 78
f 78 77 60
f 61 62 79
f 79 78 61
f 62 63 80
f 80 79 62
f 63 64 81
f 81 80 63
f 64 65 82
f 82 81 64
f 65 66 83
f 83 82 65
f 66 67 84
f 84 83 66
f 68 69 85
f 69 70 85
f 70 71 85
f 71 72 85
f 72 73 85
f 73 74 85
f 74 75 85
f 75 76 85
f 76 77 85
f 77 78 85
f 78 79 85
f 79 80 85
f 80 81 85
f 81 82 85
f 82 83 85
f 83 84 85
g building_3
f 86 87 92
f 92 91 86
f 87 88 93
f 93 92 87
f 88 89 94
f 94 93 88
f 89 90 95
f 95 94 89
f 91 92 96
f 92 93 96
f 93 94 96
f 94 95 96
g building_4
f 97 98 103
f 103 102 97
f 98 99 104
f 104 103 98
f 99 100 105
f 105 104 99
f 100 101 106
f 106 105 100
f 102 103 107
f 103 104 107
f 104 105 107
f 105 106 107
g building_5
f 108 109 120
f 120 119 108
f 109 110 121
f 121 120 109
f 110 111 122
f 122 121 110
f 111 112 123
f 123 122 111
f 112 113 124
f 124 123 112
f 113 114 125
f 125 124 113
f 114 115 126
f 126 125 114
f 115 116 127
f 127 126 115
f 116 117 128
f 128 127 116
f 117 118 129
f 129 128 117
f 119 120 130
f 120 121 130
f 121 122 130
f 122 123 130
f 123 124 130
f 124 125 130
f 125 126 130
f 126 127 130
f 127 128 130
f 128 129 130
g building_6
f 131 132 137
f 137 136 131
f 132 133 138
f 138 137 132
f 133 134 139
f 139 138 133
f 134 135 140
f 140 139 134
f 136 137 141
f 137 138 141
f 138 139 141
f 139 140 141
g barda_7
f 142 143 158
f 158 157 142
f 143 144 159
f 159 158 143
f 144 145 160
f 160 159 144
f 145 146 161
f 161 160 145
f 146 147 162
f 162 161 146
f 147 148 163
f 163 162 147
f 148 149 164
f 164 163 148
f 149 150 165
f 165 164 149
f 150 151 166
f 166 165 150
f 151 152 167
f 167 166 151
f 152 153 168
f 168 167 152
f 153 154 169
f 169 168 153
f 154 155 170
f 170 169 154
f 155 156 171
f 171 170 155
g barda_8
f 172 173 182
f 182 181 172
f 173 174 183
f 183 182 173
f 174 175 184
f 184 183 174
f 175 176 185
f 185 184 175
f 176 177 186
f 186 185 176
f 177 178 187
f 187 186 177
f 178 179 188
f 188 187 178
f 179 180 189
f 189 188 179
g barda_9
f 190 191 208
f 208 207 190
f 191 192 209
f 209 208 191
f 192 193 210
f 210 209 192
f 193 194 211
f 211 210 193
f 194 195 212
f 212 211 194
f 195 196 213
f 213 212 195
f 196 197 214
f 214 213 196
f 197 198 215
f 215 214 197
f 198 199 216
f 216 215 198
f 199 200 217
f 217 216 199
f 200 201 218
f 218 217 200
f 201 202 219
f 219 218 201
f 202 203 220
f 220 219 202
f 203 204 221
f 221 220 203
f 204 205 222
f 222 221 204
f 205 206 223
f 223 222 205
g barda_10
f 224 225 230
f 230 229 224
f 225 226 231
f 231 230 225
f 226 227 232
f 232 231 226
f 227 228 233
f 233 232 227
g barda_11
f 234 235 240
f 240 239 234
f 235 236 241
f 241 240 235
f 236 237 242
f 242 241 236
f 237 238 243
f 243 242 237
g barda_12
f 244 245 256
f 256 255 244
f 245 246 257
f 257 256 245
f 246 247 258
f 258 257 246
f 247 248 259
f 259 258 247
f 248 249 260
f 260 259 248
f 249 250 261
f 261 260 249
f 250 251 262
f 262 261 250
f 251 252 263
f 263 262 251
f 252 253 264
f 264 263 252
f 253 254 265
f 265 264 253
g barda_13
f 266 267 272
f 272 271 266
f 267 268 273
f 273 272 267
f 268 269 274
f 274 273 268
f 269 270 275
f 275 274 269
