# Buildings and bardas mesh for tecate_core_z14_x2884_y6624
v -31.336 5.150 2691.605
v 0.178 5.150 2670.727
v 9.240 5.150 2677.422
v -2.182 5.150 2712.497
v -31.336 5.150 2691.605
v -31.336 8.650 2691.605
v 0.178 8.650 2670.727
v 9.240 8.650 2677.422
v -2.182 8.650 2712.497
v -31.336 8.650 2691.605
v -11.087 8.650 2688.771
v -43.615 5.662 2707.333
v -31.181 5.662 2714.742
v -26.160 5.662 2717.383
v -23.522 5.662 2720.724
v -14.193 5.662 2731.487
v -21.852 5.662 2752.537
v -23.767 5.662 2751.586
v -24.000 5.662 2755.165
v -38.361 5.662 2747.043
v -46.008 5.662 2741.299
v -57.730 5.662 2730.774
v -63.474 5.662 2724.554
v -43.615 5.662 2707.333
v -43.615 9.162 2707.333
v -31.181 9.162 2714.742
v -26.160 9.162 2717.383
v -23.522 9.162 2720.724
v -14.193 9.162 2731.487
v -21.852 9.162 2752.537
v -23.767 9.162 2751.586
v -24.000 9.162 2755.165
v -38.361 9.162 2747.043
v -46.008 9.162 2741.299
v -57.730 9.162 2730.774
v -63.474 9.162 2724.554
v -43.615 9.162 2707.333
v -35.191 9.162 2730.920
v -57.296 6.556 2747.241
v -46.109 6.556 2755.112
v -60.124 6.556 2772.808
v -70.699 6.556 2764.818
v -57.296 6.556 2747.241
v -57.296 10.056 2747.241
v -46.109 10.056 2755.112
v -60.124 10.056 2772.808
v -70.699 10.056 2764.818
v -57.296 10.056 2747.241
v -58.305 10.056 2757.444
v -33.054 5.150 2691.846
v 1.097 5.150 2669.255
v 10.754 5.150 2676.576
v -1.572 5.150 2714.121
v -33.054 5.150 2691.846
v -33.054 7.150 2691.846
v 1.097 7.150 2669.255
v 10.754 7.150 2676.576
v -1.572 7.150 2714.121
v -33.054 7.150 2691.846
v -44.248 5.662 2705.562
v -30.728 5.662 2712.916
v -25.116 5.662 2715.818
v -22.105 5.662 2719.486
v -12.313 5.662 2731.537
v -20.864 5.662 2754.137
v -22.857 5.662 2753.232
v -23.212 5.662 2756.872
v -38.724 5.662 2748.889
v -47.366 5.662 2742.601
v -59.611 5.662 2730.761
v -65.309 5.662 2724.141
v -44.248 5.662 2705.562
v -44.248 7.792 2705.562
v -30.728 7.792 2712.916
v -25.116 7.792 2715.818
v -22.105 7.792 2719.486
v -12.313 7.792 2731.537
v -20.864 7.792 2754.137
v -22.857 7.792 2753.232
v -23.212 7.792 2756.872
v -38.724 7.792 2748.889
v -47.366 7.792 2742.601
v -59.611 7.792 2730.761
v -65.309 7.792 2724.141
v -44.248 7.792 2705.562
v -57.067 6.556 2744.919
v -43.816 6.556 2754.674
v -60.398 6.556 2775.125
v -72.705 6.556 2766.011
v -57.067 6.556 2744.919
v -57.067 8.953 2744.919
v -43.816 8.953 2754.674
v -60.398 8.953 2775.125
v -72.705 8.953 2766.011
v -57.067 8.953 2744.919
g building_0
f 1 2 7
f 7 6 1
f 2 3 8
f 8 7 2
f 3 4 9
f 9 8 3
f 4 5 10
f 10 9 4
f 6 7 11
f 7 8 11
f 8 9 11
f 9 10 11
g building_1
f 12 13 26
f 26 25 12
f 13 14 27
f 27 26 13
f 14 15 28
f 28 27 14
f 15 16 29
f 29 28 15
f 16 17 30
f 30 29 16
f 17 18 31
f 31 30 17
f 18 19 32
f 32 31 18
f 19 20 33
f 33 32 19
f 20 21 34
f 34 33 20
f 21 22 35
f 35 34 21
f 22 23 36
f 36 35 22
f 23 24 37
f 37 36 23
f 25 26 38
f 26 27 38
f 27 28 38
f 28 29 38
f 29 30 38
f 30 31 38
f 31 32 38
f 32 33 38
f 33 34 38
f 34 35 38
f 35 36 38
f 36 37 38
g building_2
f 39 40 45
f 45 44 39
f 40 41 46
f 46 45 40
f 41 42 47
f 47 46 41
f 42 43 48
f 48 47 42
f 44 45 49
f 45 46 49
f 46 47 49
f 47 48 49
g barda_3
f 50 51 56
f 56 55 50
f 51 52 57
f 57 56 51
f 52 53 58
f 58 57 52
f 53 54 59
f 59 58 53
g barda_4
f 60 61 74
f 74 73 60
f 61 62 75
f 75 74 61
f 62 63 76
f 76 75 62
f 63 64 77
f 77 76 63
f 64 65 78
f 78 77 64
f 65 66 79
f 79 78 65
f 66 67 80
f 80 79 66
f 67 68 81
f 81 80 67
f 68 69 82
f 82 81 68
f 69 70 83
f 83 82 69
f 70 71 84
f 84 83 70
f 71 72 85
f 85 84 71
g barda_5
f 86 87 92
f 92 91 86
f 87 88 93
f 93 92 87
f 88 89 94
f 94 93 88
f 89 90 95
f 95 94 89
