# Buildings mesh for tecate_core_z14_x2883_y6621
v -931.510 -2.699 -2306.714
v -929.362 -2.699 -2247.091
v -856.704 -2.699 -2249.720
v -858.863 -2.699 -2309.343
v -931.510 -2.699 -2306.714
v -931.510 1.301 -2306.714
v -929.362 1.301 -2247.091
v -856.704 1.301 -2249.720
v -858.863 1.301 -2309.343
v -931.510 1.301 -2306.714
f 1 2 7
f 7 6 1
f 2 3 8
f 8 7 2
f 3 4 9
f 9 8 3
f 4 5 10
f 10 9 4
v -901.590 1.301 -2283.917
f 6 7 11
f 7 8 11
f 8 9 11
f 9 10 11
v -925.521 -1.826 -2408.548
v -922.772 -1.826 -2335.198
v -864.607 -1.826 -2337.378
v -867.346 -1.826 -2410.728
v -925.521 -1.826 -2408.548
v -925.521 2.174 -2408.548
v -922.772 2.174 -2335.198
v -864.607 2.174 -2337.378
v -867.346 2.174 -2410.728
v -925.521 2.174 -2408.548
f 12 13 18
f 18 17 12
f 13 14 19
f 19 18 13
f 14 15 20
f 20 19 14
f 15 16 21
f 21 20 15
v -901.154 2.174 -2380.080
f 17 18 22
f 18 19 22
f 19 20 22
f 20 21 22
v -1773.509 29.162 -4713.922
v -1776.971 29.162 -4704.130
v -1776.815 29.162 -4704.077
v -1779.097 29.162 -4697.615
v -1780.845 29.162 -4698.250
v -1782.103 29.162 -4694.669
v -1785.142 29.162 -4695.752
v -1785.954 29.162 -4693.453
v -1790.374 29.162 -4695.025
v -1789.706 29.162 -4696.915
v -1794.960 29.162 -4698.791
v -1792.355 29.162 -4706.178
v -1789.628 29.162 -4705.213
v -1785.097 29.162 -4718.058
v -1773.509 29.162 -4713.922
v -1773.509 33.162 -4713.922
v -1776.971 33.162 -4704.130
v -1776.815 33.162 -4704.077
v -1779.097 33.162 -4697.615
v -1780.845 33.162 -4698.250
v -1782.103 33.162 -4694.669
v -1785.142 33.162 -4695.752
v -1785.954 33.162 -4693.453
v -1790.374 33.162 -4695.025
v -1789.706 33.162 -4696.915
v -1794.960 33.162 -4698.791
v -1792.355 33.162 -4706.178
v -1789.628 33.162 -4705.213
v -1785.097 33.162 -4718.058
v -1773.509 33.162 -4713.922
f 23 24 39
f 39 38 23
f 24 25 40
f 40 39 24
f 25 26 41
f 41 40 25
f 26 27 42
f 42 41 26
f 27 28 43
f 43 42 27
f 28 29 44
f 44 43 28
f 29 30 45
f 45 44 29
f 30 31 46
f 46 45 30
f 31 32 47
f 47 46 31
f 32 33 48
f 48 47 32
f 33 34 49
f 49 48 33
f 34 35 50
f 50 49 34
f 35 36 51
f 51 50 35
f 36 37 52
f 52 51 36
v -1783.738 33.162 -4702.398
f 38 39 53
f 39 40 53
f 40 41 53
f 41 42 53
f 42 43 53
f 43 44 53
f 44 45 53
f 45 46 53
f 46 47 53
f 47 48 53
f 48 49 53
f 49 50 53
f 50 51 53
f 51 52 53
