# Terrain mesh for tecate_core_z14_x2883_y6622
v -3064.852 -12.158 193.751
v -2911.978 -11.757 193.751
v -2759.104 -11.317 193.751
v -2606.230 -10.887 193.751
v -2453.355 -10.435 193.751
v -2300.481 -9.983 193.751
v -2147.607 -9.554 193.751
v -1994.733 -9.113 193.751
v -1841.859 -8.713 193.751
v -1688.985 -8.276 193.751
v -1536.111 -7.859 193.751
v -1383.237 -7.407 193.751
v -1230.363 -6.960 193.751
v -1077.489 -6.517 193.751
v -924.615 -6.073 193.751
v -771.741 -5.666 193.751
v -618.867 -5.232 193.751
v -3064.852 -12.170 40.892
v -2911.978 -11.737 40.892
v -2759.104 -11.304 40.892
v -2606.230 -10.870 40.892
v -2453.355 -10.435 40.892
v -2300.481 -10.001 40.892
v -2147.607 -9.567 40.892
v -1994.733 -9.134 40.892
v -1841.859 -8.701 40.892
v -1688.985 -8.268 40.892
v -1536.111 -7.834 40.892
v -1383.237 -7.400 40.892
v -1230.363 -6.966 40.892
v -1077.489 -6.531 40.892
v -924.615 -6.098 40.892
v -771.741 -5.665 40.892
v -618.867 -5.232 40.892
v -3064.852 -12.172 -111.969
v -2911.978 -11.738 -111.969
v -2759.104 -11.312 -111.969
v -2606.230 -10.873 -111.969
v -2453.355 -10.435 -111.969
v -2300.481 -9.998 -111.969
v -2147.607 -9.559 -111.969
v -1994.733 -9.133 -111.969
v -1841.859 -8.698 -111.969
v -1688.985 -8.276 -111.969
v -1536.111 -7.838 -111.969
v -1383.237 -7.404 -111.969
v -1230.363 -6.964 -111.969
v -1077.489 -6.525 -111.969
v -924.615 -6.095 -111.969
v -771.741 -5.659 -111.969
v -618.867 -5.238 -111.969
v -3064.852 -12.141 -264.833
v -2911.978 -11.783 -264.833
v -2759.104 -11.325 -264.833
v -2606.230 -10.906 -264.833
v -2453.355 -10.436 -264.833
v -2300.481 -9.964 -264.833
v -2147.607 -9.546 -264.833
v -1994.733 -9.088 -264.833
v -1841.859 -8.731 -264.833
v -1688.985 -8.278 -264.833
v -1536.111 -7.887 -264.833
v -1383.237 -7.410 -264.833
v -1230.363 -6.954 -264.833
v -1077.489 -6.507 -264.833
v -924.615 -6.045 -264.833
v -771.741 -5.673 -264.833
v -618.867 -5.225 -264.833
v -3064.852 -12.188 -417.698
v -2911.978 -11.764 -417.698
v -2759.104 -11.421 -417.698
v -2606.230 -10.927 -417.698
v -2453.355 -10.435 -417.698
v -2300.481 -9.944 -417.698
v -2147.607 -9.450 -417.698
v -1994.733 -9.106 -417.698
v -1841.859 -8.681 -417.698
v -1688.985 -8.376 -417.698
v -1536.111 -7.904 -417.698
v -1383.237 -7.460 -417.698
v -1230.363 -6.938 -417.698
v -1077.489 -6.432 -417.698
v -924.615 -6.035 -417.698
v -771.741 -5.600 -417.698
v -618.867 -5.306 -417.698
v -3064.852 -12.170 -570.565
v -2911.978 -11.820 -570.565
v -2759.104 -11.500 -570.565
v -2606.230 -10.990 -570.565
v -2453.355 -10.435 -570.565
v -2300.481 -9.882 -570.565
v -2147.607 -9.371 -570.565
v -1994.733 -9.049 -570.565
v -1841.859 -8.699 -570.565
v -1688.985 -8.440 -570.565
v -1536.111 -7.988 -570.565
v -1383.237 -7.499 -570.565
v -1230.363 -6.913 -570.565
v -1077.489 -6.360 -570.565
v -924.615 -5.954 -570.565
v -771.741 -5.576 -570.565
v -618.867 -5.338 -570.565
v -3064.852 -11.971 -723.434
v -2911.978 -12.064 -723.434
v -2759.104 -11.480 -723.434
v -2606.230 -11.137 -723.434
v -2453.355 -10.438 -723.434
v -2300.481 -9.732 -723.434
v -2147.607 -9.391 -723.434
v -1994.733 -8.809 -723.434
v -1841.859 -8.902 -723.434
v -1688.985 -8.365 -723.434
v -1536.111 -8.219 -723.434
v -1383.237 -7.483 -723.434
v -1230.363 -6.876 -723.434
v -1077.489 -6.336 -723.434
v -924.615 -5.715 -723.434
v -771.741 -5.708 -723.434
v -618.867 -5.207 -723.434
v -3064.852 -12.348 -876.305
v -2911.978 -11.762 -876.305
v -2759.104 -11.893 -876.305
v -2606.230 -11.088 -876.305
v -2453.355 -10.434 -876.305
v -2300.481 -9.788 -876.305
v -2147.607 -8.977 -876.305
v -1994.733 -9.103 -876.305
v -1841.859 -8.515 -876.305
v -1688.985 -8.835 -876.305
v -1536.111 -8.076 -876.305
v -1383.237 -7.701 -876.305
v -1230.363 -6.844 -876.305
v -1077.489 -6.053 -876.305
v -924.615 -5.892 -876.305
v -771.741 -5.287 -876.305
v -618.867 -5.658 -876.305
v -3064.852 -11.935 -1029.178
v -2911.978 -12.237 -1029.178
v -2759.104 -11.779 -1029.178
v -2606.230 -11.349 -1029.178
v -2453.355 -10.438 -1029.178
v -2300.481 -9.521 -1029.178
v -2147.607 -9.092 -1029.178
v -1994.733 -8.636 -1029.178
v -1841.859 -8.937 -1029.178
v -1688.985 -8.616 -1029.178
v -1536.111 -8.497 -1029.178
v -1383.237 -7.633 -1029.178
v -1230.363 -6.788 -1029.178
v -1077.489 -6.067 -1029.178
v -924.615 -5.449 -1029.178
v -771.741 -5.595 -1029.178
v -618.867 -5.347 -1029.178
v -3064.852 -11.852 -1182.053
v -2911.978 -12.404 -1182.053
v -2759.104 -11.925 -1182.053
v -2606.230 -11.504 -1182.053
v -2453.355 -10.439 -1182.053
v -2300.481 -9.364 -1182.053
v -2147.607 -8.946 -1182.053
v -1994.733 -8.470 -1182.053
v -1841.859 -9.020 -1182.053
v -1688.985 -8.721 -1182.053
v -1536.111 -8.714 -1182.053
v -1383.237 -7.704 -1182.053
v -1230.363 -6.731 -1182.053
v -1077.489 -5.922 -1182.053
v -924.615 -5.237 -1182.053
v -771.741 -5.579 -1182.053
v -618.867 -5.376 -1182.053
v -3064.852 -12.588 -1334.930
v -2911.978 -11.792 -1334.930
v -2759.104 -12.676 -1334.930
v -2606.230 -11.375 -1334.930
v -2453.355 -10.431 -1334.930
v -2300.481 -9.507 -1334.930
v -2147.607 -8.194 -1334.930
v -1994.733 -9.066 -1334.930
v -1841.859 -8.266 -1334.930
v -1688.985 -9.589 -1334.930
v -1536.111 -8.392 -1334.930
v -1383.237 -8.101 -1334.930
v -1230.363 -6.683 -1334.930
v -1077.489 -5.418 -1334.930
v -924.615 -5.623 -1334.930
v -771.741 -4.783 -1334.930
v -618.867 -6.225 -1334.930
v -3064.852 -11.330 -1487.809
v -2911.978 -13.119 -1487.809
v -2759.104 -12.053 -1487.809
v -2606.230 -12.000 -1487.809
v -2453.355 -10.445 -1487.809
v -2300.481 -8.862 -1487.809
v -2147.607 -8.819 -1487.809
v -1994.733 -7.763 -1487.809
v -1841.859 -9.550 -1487.809
v -1688.985 -8.682 -1487.809
v -1536.111 -9.460 -1487.809
v -1383.237 -7.755 -1487.809
v -1230.363 -6.587 -1487.809
v -1077.489 -5.702 -1487.809
v -924.615 -4.478 -1487.809
v -771.741 -5.845 -1487.809
v -618.867 -5.130 -1487.809
v -3064.852 -12.161 -1640.690
v -2911.978 -12.439 -1640.690
v -2759.104 -12.926 -1640.690
v -2606.230 -11.870 -1640.690
v -2453.355 -10.436 -1640.690
v -2300.481 -9.007 -1640.690
v -2147.607 -7.945 -1640.690
v -1994.733 -8.424 -1640.690
v -1841.859 -8.699 -1640.690
v -1688.985 -9.686 -1640.690
v -1536.111 -9.117 -1640.690
v -1383.237 -8.216 -1640.690
v -1230.363 -6.526 -1640.690
v -1077.489 -5.110 -1640.690
v -924.615 -4.895 -1640.690
v -771.741 -4.934 -1640.690
v -618.867 -6.103 -1640.690
v -3064.852 -12.510 -1793.573
v -2911.978 -12.236 -1793.573
v -2759.104 -13.490 -1793.573
v -2606.230 -11.936 -1793.573
v -2453.355 -10.432 -1793.573
v -2300.481 -8.949 -1793.573
v -2147.607 -7.381 -1793.573
v -1994.733 -8.618 -1793.573
v -1841.859 -8.339 -1793.573
v -1688.985 -10.280 -1793.573
v -1536.111 -9.126 -1793.573
v -1383.237 -8.508 -1793.573
v -1230.363 -6.447 -1793.573
v -1077.489 -4.690 -1793.573
v -924.615 -4.926 -1793.573
v -771.741 -4.462 -1793.573
v -618.867 -6.618 -1793.573
v -3064.852 -10.575 -1946.458
v -2911.978 -14.255 -1946.458
v -2759.104 -12.475 -1946.458
v -2606.230 -12.863 -1946.458
v -2453.355 -10.454 -1946.458
v -2300.481 -7.990 -1946.458
v -2147.607 -8.398 -1946.458
v -1994.733 -6.638 -1946.458
v -1841.859 -10.317 -1946.458
v -1688.985 -8.834 -1946.458
v -1536.111 -10.727 -1946.458
v -1383.237 -7.947 -1946.458
v -1230.363 -6.315 -1946.458
v -1077.489 -5.176 -1946.458
v -924.615 -3.206 -1946.458
v -771.741 -6.121 -1946.458
v -618.867 -4.902 -1946.458
v -3064.852 -12.876 -2099.345
v -2911.978 -12.041 -2099.345
v -2759.104 -14.445 -2099.345
v -2606.230 -12.138 -2099.345
v -2453.355 -10.352 -2099.345
v -2300.481 -8.606 -2099.345
v -2147.607 -6.273 -2099.345
v -1994.733 -8.650 -2099.345
v -1841.859 -7.807 -2099.345
v -1688.985 -11.234 -2099.345
v -1536.111 -9.312 -2099.345
v -1383.237 -8.963 -2099.345
v -1230.363 -6.186 -2099.345
v -1077.489 -3.804 -2099.345
v -924.615 -4.656 -2099.345
v -771.741 -3.645 -2099.345
v -618.867 -7.366 -2099.345
v -3064.852 -11.213 -2252.234
v -2911.978 -13.198 -2252.234
v -2759.104 -13.585 -2252.234
v -2606.230 -12.567 -2252.234
v -2453.355 -10.051 -2252.234
v -2300.481 -7.524 -2252.234
v -2147.607 -6.503 -2252.234
v -1994.733 -6.887 -2252.234
v -1841.859 -8.866 -2252.234
v -1688.985 -10.054 -2252.234
v -1536.111 -10.237 -2252.234
v -1383.237 -8.337 -2252.234
v -1230.363 -5.734 -2252.234
v -1077.489 -3.685 -2252.234
v -924.615 -3.023 -2252.234
v -771.741 -4.410 -2252.234
v -618.867 -5.943 -2252.234
f 1 2 19
f 19 18 1
f 2 3 20
f 20 19 2
f 3 4 21
f 21 20 3
f 4 5 22
f 22 21 4
f 5 6 23
f 23 22 5
f 6 7 24
f 24 23 6
f 7 8 25
f 25 24 7
f 8 9 26
f 26 25 8
f 9 10 27
f 27 26 9
f 10 11 28
f 28 27 10
f 11 12 29
f 29 28 11
f 12 13 30
f 30 29 12
f 13 14 31
f 31 30 13
f 14 15 32
f 32 31 14
f 15 16 33
f 33 32 15
f 16 17 34
f 34 33 16
f 18 19 36
f 36 35 18
f 19 20 37
f 37 36 19
f 20 21 38
f 38 37 20
f 21 22 39
f 39 38 21
f 22 23 40
f 40 39 22
f 23 24 41
f 41 40 23
f 24 25 42
f 42 41 24
f 25 26 43
f 43 42 25
f 26 27 44
f 44 43 26
f 27 28 45
f 45 44 27
f 28 29 46
f 46 45 28
f 29 30 47
f 47 46 29
f 30 31 48
f 48 47 30
f 31 32 49
f 49 48 31
f 32 33 50
f 50 49 32
f 33 34 51
f 51 50 33
f 35 36 53
f 53 52 35
f 36 37 54
f 54 53 36
f 37 38 55
f 55 54 37
f 38 39 56
f 56 55 38
f 39 40 57
f 57 56 39
f 40 41 58
f 58 57 40
f 41 42 59
f 59 58 41
f 42 43 60
f 60 59 42
f 43 44 61
f 61 60 43
f 44 45 62
f 62 61 44
f 45 46 63
f 63 62 45
f 46 47 64
f 64 63 46
f 47 48 65
f 65 64 47
f 48 49 66
f 66 65 48
f 49 50 67
f 67 66 49
f 50 51 68
f 68 67 50
f 52 53 70
f 70 69 52
f 53 54 71
f 71 70 53
f 54 55 72
f 72 71 54
f 55 56 73
f 73 72 55
f 56 57 74
f 74 73 56
f 57 58 75
f 75 74 57
f 58 59 76
f 76 75 58
f 59 60 77
f 77 76 59
f 60 61 78
f 78 77 60
f 61 62 79
f 79 78 61
f 62 63 80
f 80 79 62
f 63 64 81
f 81 80 63
f 64 65 82
f 82 81 64
f 65 66 83
f 83 82 65
f 66 67 84
f 84 83 66
f 67 68 85
f 85 84 67
f 69 70 87
f 87 86 69
f 70 71 88
f 88 87 70
f 71 72 89
f 89 88 71
f 72 73 90
f 90 89 72
f 73 74 91
f 91 90 73
f 74 75 92
f 92 91 74
f 75 76 93
f 93 92 75
f 76 77 94
f 94 93 76
f 77 78 95
f 95 94 77
f 78 79 96
f 96 95 78
f 79 80 97
f 97 96 79
f 80 81 98
f 98 97 80
f 81 82 99
f 99 98 81
f 82 83 100
f 100 99 82
f 83 84 101
f 101 100 83
f 84 85 102
f 102 101 84
f 86 87 104
f 104 103 86
f 87 88 105
f 105 104 87
f 88 89 106
f 106 105 88
f 89 90 107
f 107 106 89
f 90 91 108
f 108 107 90
f 91 92 109
f 109 108 91
f 92 93 110
f 110 109 92
f 93 94 111
f 111 110 93
f 94 95 112
f 112 111 94
f 95 96 113
f 113 112 95
f 96 97 114
f 114 113 96
f 97 98 115
f 115 114 97
f 98 99 116
f 116 115 98
f 99 100 117
f 117 116 99
f 100 101 118
f 118 117 100
f 101 102 119
f 119 118 101
f 103 104 121
f 121 120 103
f 104 105 122
f 122 121 104
f 105 106 123
f 123 122 105
f 106 107 124
f 124 123 106
f 107 108 125
f 125 124 107
f 108 109 126
f 126 125 108
f 109 110 127
f 127 126 109
f 110 111 128
f 128 127 110
f 111 112 129
f 129 128 111
f 112 113 130
f 130 129 112
f 113 114 131
f 131 130 113
f 114 115 132
f 132 131 114
f 115 116 133
f 133 132 115
f 116 117 134
f 134 133 116
f 117 118 135
f 135 134 117
f 118 119 136
f 136 135 118
f 120 121 138
f 138 137 120
f 121 122 139
f 139 138 121
f 122 123 140
f 140 139 122
f 123 124 141
f 141 140 123
f 124 125 142
f 142 141 124
f 125 126 143
f 143 142 125
f 126 127 144
f 144 143 126
f 127 128 145
f 145 144 127
f 128 129 146
f 146 145 128
f 129 130 147
f 147 146 129
f 130 131 148
f 148 147 130
f 131 132 149
f 149 148 131
f 132 133 150
f 150 149 132
f 133 134 151
f 151 150 133
f 134 135 152
f 152 151 134
f 135 136 153
f 153 152 135
f 137 138 155
f 155 154 137
f 138 139 156
f 156 155 138
f 139 140 157
f 157 156 139
f 140 141 158
f 158 157 140
f 141 142 159
f 159 158 141
f 142 143 160
f 160 159 142
f 143 144 161
f 161 160 143
f 144 145 162
f 162 161 144
f 145 146 163
f 163 162 145
f 146 147 164
f 164 163 146
f 147 148 165
f 165 164 147
f 148 149 166
f 166 165 148
f 149 150 167
f 167 166 149
f 150 151 168
f 168 167 150
f 151 152 169
f 169 168 151
f 152 153 170
f 170 169 152
f 154 155 172
f 172 171 154
f 155 156 173
f 173 172 155
f 156 157 174
f 174 173 156
f 157 158 175
f 175 174 157
f 158 159 176
f 176 175 158
f 159 160 177
f 177 176 159
f 160 161 178
f 178 177 160
f 161 162 179
f 179 178 161
f 162 163 180
f 180 179 162
f 163 164 181
f 181 180 163
f 164 165 182
f 182 181 164
f 165 166 183
f 183 182 165
f 166 167 184
f 184 183 166
f 167 168 185
f 185 184 167
f 168 169 186
f 186 185 168
f 169 170 187
f 187 186 169
f 171 172 189
f 189 188 171
f 172 173 190
f 190 189 172
f 173 174 191
f 191 190 173
f 174 175 192
f 192 191 174
f 175 176 193
f 193 192 175
f 176 177 194
f 194 193 176
f 177 178 195
f 195 194 177
f 178 179 196
f 196 195 178
f 179 180 197
f 197 196 179
f 180 181 198
f 198 197 180
f 181 182 199
f 199 198 181
f 182 183 200
f 200 199 182
f 183 184 201
f 201 200 183
f 184 185 202
f 202 201 184
f 185 186 203
f 203 202 185
f 186 187 204
f 204 203 186
f 188 189 206
f 206 205 188
f 189 190 207
f 207 206 189
f 190 191 208
f 208 207 190
f 191 192 209
f 209 208 191
f 192 193 210
f 210 209 192
f 193 194 211
f 211 210 193
f 194 195 212
f 212 211 194
f 195 196 213
f 213 212 195
f 196 197 214
f 214 213 196
f 197 198 215
f 215 214 197
f 198 199 216
f 216 215 198
f 199 200 217
f 217 216 199
f 200 201 218
f 218 217 200
f 201 202 219
f 219 218 201
f 202 203 220
f 220 219 202
f 203 204 221
f 221 220 203
f 205 206 223
f 223 222 205
f 206 207 224
f 224 223 206
f 207 208 225
f 225 224 207
f 208 209 226
f 226 225 208
f 209 210 227
f 227 226 209
f 210 211 228
f 228 227 210
f 211 212 229
f 229 228 211
f 212 213 230
f 230 229 212
f 213 214 231
f 231 230 213
f 214 215 232
f 232 231 214
f 215 216 233
f 233 232 215
f 216 217 234
f 234 233 216
f 217 218 235
f 235 234 217
f 218 219 236
f 236 235 218
f 219 220 237
f 237 236 219
f 220 221 238
f 238 237 220
f 222 223 240
f 240 239 222
f 223 224 241
f 241 240 223
f 224 225 242
f 242 241 224
f 225 226 243
f 243 242 225
f 226 227 244
f 244 243 226
f 227 228 245
f 245 244 227
f 228 229 246
f 246 245 228
f 229 230 247
f 247 246 229
f 230 231 248
f 248 247 230
f 231 232 249
f 249 248 231
f 232 233 250
f 250 249 232
f 233 234 251
f 251 250 233
f 234 235 252
f 252 251 234
f 235 236 253
f 253 252 235
f 236 237 254
f 254 253 236
f 237 238 255
f 255 254 237
f 239 240 257
f 257 256 239
f 240 241 258
f 258 257 240
f 241 242 259
f 259 258 241
f 242 243 260
f 260 259 242
f 243 244 261
f 261 260 243
f 244 245 262
f 262 261 244
f 245 246 263
f 263 262 245
f 246 247 264
f 264 263 246
f 247 248 265
f 265 264 247
f 248 249 266
f 266 265 248
f 249 250 267
f 267 266 249
f 250 251 268
f 268 267 250
f 251 252 269
f 269 268 251
f 252 253 270
f 270 269 252
f 253 254 271
f 271 270 253
f 254 255 272
f 272 271 254
f 256 257 274
f 274 273 256
f 257 258 275
f 275 274 257
f 258 259 276
f 276 275 258
f 259 260 277
f 277 276 259
f 260 261 278
f 278 277 260
f 261 262 279
f 279 278 261
f 262 263 280
f 280 279 262
f 263 264 281
f 281 280 263
f 264 265 282
f 282 281 264
f 265 266 283
f 283 282 265
f 266 267 284
f 284 283 266
f 267 268 285
f 285 284 267
f 268 269 286
f 286 285 268
f 269 270 287
f 287 286 269
f 270 271 288
f 288 287 270
f 271 272 289
f 289 288 271
