# Buildings mesh for tecate_core_z14_x2884_y6623
v 456.978 -102.293 1998.291
v 474.522 -102.293 1995.385
v 476.470 -102.293 2010.877
v 458.937 -102.293 2014.060
v 456.978 -102.293 1998.291
v 456.978 -98.293 1998.291
v 474.522 -98.293 1995.385
v 476.470 -98.293 2010.877
v 458.937 -98.293 2014.060
v 456.978 -98.293 1998.291
f 1 2 7
f 7 6 1
f 2 3 8
f 8 7 2
f 3 4 9
f 9 8 3
f 4 5 10
f 10 9 4
v 464.777 -98.293 2003.381
f 6 7 11
f 7 8 11
f 8 9 11
f 9 10 11
v 384.475 -98.446 2106.241
v 399.025 -98.446 2120.346
v 384.464 -98.446 2135.362
v 369.915 -98.446 2121.244
v 384.475 -98.446 2106.241
v 384.475 -94.446 2106.241
v 399.025 -94.446 2120.346
v 384.464 -94.446 2135.362
v 369.915 -94.446 2121.244
v 384.475 -94.446 2106.241
f 12 13 18
f 18 17 12
f 13 14 19
f 19 18 13
f 14 15 20
f 20 19 14
f 15 16 21
f 21 20 15
v 384.471 -94.446 2117.887
f 17 18 22
f 18 19 22
f 19 20 22
f 20 21 22
v -89.111 -55.602 726.346
v -11.611 -55.602 693.510
v 9.406 -55.602 742.116
v -37.448 -55.602 763.566
v -28.687 -55.602 783.721
v -61.092 -55.602 792.478
v -89.111 -55.602 726.346
v -89.111 -51.602 726.346
v -11.611 -51.602 693.510
v 9.406 -51.602 742.116
v -37.448 -51.602 763.566
v -28.687 -51.602 783.721
v -61.092 -51.602 792.478
v -89.111 -51.602 726.346
f 23 24 31
f 31 30 23
f 24 25 32
f 32 31 24
f 25 26 33
f 33 32 25
f 26 27 34
f 34 33 26
f 27 28 35
f 35 34 27
f 28 29 36
f 36 35 28
v -43.951 -51.602 746.869
f 30 31 37
f 31 32 37
f 32 33 37
f 33 34 37
f 34 35 37
f 35 36 37
v 51.519 -58.131 646.833
v 70.098 -58.131 645.222
v 71.612 -58.131 653.714
v 52.320 -58.131 656.105
v 51.519 -58.131 646.833
v 51.519 -54.131 646.833
v 70.098 -54.131 645.222
v 71.612 -54.131 653.714
v 52.320 -54.131 656.105
v 51.519 -54.131 646.833
f 38 39 44
f 44 43 38
f 39 40 45
f 45 44 39
f 40 41 46
f 46 45 40
f 41 42 47
f 47 46 41
v 59.413 -54.131 649.741
f 43 44 48
f 44 45 48
f 45 46 48
f 46 47 48
