# Buildings and bardas mesh for tecate_core_z14_x2882_y6622
v -4529.523 -15.981 -931.961
v -4510.421 -15.981 -931.551
v -4510.755 -15.981 -915.871
v -4529.857 -15.981 -916.281
v -4529.523 -15.981 -931.961
v -4529.523 -12.481 -931.961
v -4510.421 -12.481 -931.551
v -4510.755 -12.481 -915.871
v -4529.857 -12.481 -916.281
v -4529.523 -12.481 -931.961
v -4522.016 -12.481 -925.525
v -4515.842 -15.902 -960.375
v -4516.076 -15.902 -952.317
v -4503.530 -15.902 -951.960
v -4503.296 -15.902 -960.005
v -4515.842 -15.902 -960.375
v -4515.842 -12.402 -960.375
v -4516.076 -12.402 -952.317
v -4503.530 -12.402 -951.960
v -4503.296 -12.402 -960.005
v -4515.842 -12.402 -960.375
v -4510.917 -12.402 -957.007
v -4342.740 -15.530 -1160.943
v -4341.917 -15.530 -1147.971
v -4338.688 -15.530 -1148.169
v -4338.577 -15.530 -1146.346
v -4335.738 -15.530 -1146.518
v -4335.627 -15.530 -1144.747
v -4329.137 -15.530 -1145.157
v -4329.360 -15.530 -1148.816
v -4324.306 -15.530 -1149.133
v -4325.130 -15.530 -1162.053
v -4342.740 -15.530 -1160.943
v -4342.740 -12.030 -1160.943
v -4341.917 -12.030 -1147.971
v -4338.688 -12.030 -1148.169
v -4338.577 -12.030 -1146.346
v -4335.738 -12.030 -1146.518
v -4335.627 -12.030 -1144.747
v -4329.137 -12.030 -1145.157
v -4329.360 -12.030 -1148.816
v -4324.306 -12.030 -1149.133
v -4325.130 -12.030 -1162.053
v -4342.740 -12.030 -1160.943
v -4334.905 -12.030 -1150.981
v -4530.840 -15.981 -933.090
v -4508.882 -15.981 -932.351
v -4509.438 -15.981 -914.742
v -4530.979 -15.981 -914.958
v -4530.840 -15.981 -933.090
v -4530.840 -13.981 -933.090
v -4508.882 -13.981 -932.351
v -4509.438 -13.981 -914.742
v -4530.979 -13.981 -914.958
v -4530.840 -13.981 -933.090
v -4517.395 -15.902 -961.437
v -4517.468 -15.902 -951.052
v -4501.977 -15.902 -950.900
v -4501.546 -15.902 -960.694
v -4517.395 -15.902 -961.437
v -4517.395 -13.771 -961.437
v -4517.468 -13.771 -951.052
v -4501.977 -13.771 -950.900
v -4501.546 -13.771 -960.694
v -4517.395 -13.771 -961.437
v -4344.183 -15.530 -1162.777
v -4344.061 -15.530 -1147.050
v -4340.561 -15.530 -1146.777
v -4340.026 -15.530 -1144.517
v -4336.166 -15.530 -1144.224
v -4335.895 -15.530 -1142.429
v -4327.495 -15.530 -1143.499
v -4327.186 -15.530 -1147.967
v -4322.007 -15.530 -1148.732
v -4323.585 -15.530 -1163.802
v -4344.183 -15.530 -1162.777
v -4344.183 -13.133 -1162.777
v -4344.061 -13.133 -1147.050
v -4340.561 -13.133 -1146.777
v -4340.026 -13.133 -1144.517
v -4336.166 -13.133 -1144.224
v -4335.895 -13.133 -1142.429
v -4327.495 -13.133 -1143.499
v -4327.186 -13.133 -1147.967
v -4322.007 -13.133 -1148.732
v -4323.585 -13.133 -1163.802
v -4344.183 -13.133 -1162.777
g building_0
f 1 2 7
f 7 6 1
f 2 3 8
f 8 7 2
f 3 4 9
f 9 8 3
f 4 5 10
f 10 9 4
f 6 7 11
f 7 8 11
f 8 9 11
f 9 10 11
g building_1
f 12 13 18
f 18 17 12
f 13 14 19
f 19 18 13
f 14 15 20
f 20 19 14
f 15 16 21
f 21 20 15
f 17 18 22
f 18 19 22
f 19 20 22
f 20 21 22
g building_2
f 23 24 35
f 35 34 23
f 24 25 36
f 36 35 24
f 25 26 37
f 37 36 25
f 26 27 38
f 38 37 26
f 27 28 39
f 39 38 27
f 28 29 40
f 40 39 28
f 29 30 41
f 41 40 29
f 30 31 42
f 42 41 30
f 31 32 43
f 43 42 31
f 32 33 44
f 44 43 32
f 34 35 45
f 35 36 45
f 36 37 45
f 37 38 45
f 38 39 45
f 39 40 45
f 40 41 45
f 41 42 45
f 42 43 45
f 43 44 45
g barda_3
f 46 47 52
f 52 51 46
f 47 48 53
f 53 52 47
f 48 49 54
f 54 53 48
f 49 50 55
f 55 54 49
g barda_4
f 56 57 62
f 62 61 56
f 57 58 63
f 63 62 57
f 58 59 64
f 64 63 58
f 59 60 65
f 65 64 59
g barda_5
f 66 67 78
f 78 77 66
f 67 68 79
f 79 78 67
f 68 69 80
f 80 79 68
f 69 70 81
f 81 80 69
f 70 71 82
f 82 81 70
f 71 72 83
f 83 82 71
f 72 73 84
f 84 83 72
f 73 74 85
f 85 84 73
f 74 75 86
f 86 85 74
f 75 76 87
f 87 86 75
