# Buildings and bardas mesh for tecate_core_z14_x2882_y6623
v -3219.259 -12.311 689.825
v -3211.924 -12.311 697.592
v -3199.456 -12.311 685.836
v -3206.781 -12.311 678.070
v -3219.259 -12.311 689.825
v -3219.259 -8.811 689.825
v -3211.924 -8.811 697.592
v -3199.456 -8.811 685.836
v -3206.781 -8.811 678.070
v -3219.259 -8.811 689.825
v -3211.336 -8.811 688.230
v -3214.840 -12.358 666.315
v -3221.920 -12.358 673.791
v -3216.955 -12.358 678.506
v -3214.295 -12.358 681.029
v -3207.204 -12.358 673.553
v -3209.942 -12.358 670.951
v -3214.840 -12.358 666.315
v -3214.840 -8.858 666.315
v -3221.920 -8.858 673.791
v -3216.955 -8.858 678.506
v -3214.295 -8.858 681.029
v -3207.204 -8.858 673.553
v -3209.942 -8.858 670.951
v -3214.840 -8.858 666.315
v -3214.285 -8.858 672.923
v -3738.687 -14.149 1397.718
v -3726.765 -14.149 1417.595
v -3666.474 -14.149 1381.420
v -3677.874 -14.149 1362.415
v -3695.362 -14.149 1372.901
v -3698.980 -14.149 1366.892
v -3686.467 -14.149 1359.390
v -3694.994 -14.149 1345.166
v -3703.867 -14.149 1350.488
v -3710.390 -14.149 1339.619
v -3728.858 -14.149 1350.700
v -3710.713 -14.149 1380.944
v -3738.687 -14.149 1397.718
v -3738.687 -10.649 1397.718
v -3726.765 -10.649 1417.595
v -3666.474 -10.649 1381.420
v -3677.874 -10.649 1362.415
v -3695.362 -10.649 1372.901
v -3698.980 -10.649 1366.892
v -3686.467 -10.649 1359.390
v -3694.994 -10.649 1345.166
v -3703.867 -10.649 1350.488
v -3710.390 -10.649 1339.619
v -3728.858 -10.649 1350.700
v -3710.713 -10.649 1380.944
v -3738.687 -10.649 1397.718
v -3706.009 -10.649 1370.997
v -3397.760 -13.062 243.754
v -3375.508 -13.062 241.270
v -3378.201 -13.062 217.231
v -3400.443 -13.062 219.714
v -3397.760 -13.062 243.754
v -3397.760 -9.562 243.754
v -3375.508 -9.562 241.270
v -3378.201 -9.562 217.231
v -3400.443 -9.562 219.714
v -3397.760 -9.562 243.754
v -3389.935 -9.562 233.144
v -3398.790 -13.062 245.149
v -3373.996 -13.062 242.122
v -3377.172 -13.062 215.835
v -3401.512 -13.062 218.348
v -3398.790 -13.062 245.149
v -3398.790 -11.062 245.149
v -3373.996 -11.062 242.122
v -3377.172 -11.062 215.835
v -3401.512 -11.062 218.348
v -3398.790 -11.062 245.149
g building_0
f 1 2 7
f 7 6 1
f 2 3 8
f 8 7 2
f 3 4 9
f 9 8 3
f 4 5 10
f 10 9 4
f 6 7 11
f 7 8 11
f 8 9 11
f 9 10 11
g building_1
f 12 13 20
f 20 19 12
f 13 14 21
f 21 20 13
f 14 15 22
f 22 21 14
f 15 16 23
f 23 22 15
f 16 17 24
f 24 23 16
f 17 18 25
f 25 24 17
f 19 20 26
f 20 21 26
f 21 22 26
f 22 23 26
f 23 24 26
f 24 25 26
g building_2
f 27 28 41
f 41 40 27
f 28 29 42
f 42 41 28
f 29 30 43
f 43 42 29
f 30 31 44
f 44 43 30
f 31 32 45
f 45 44 31
f 32 33 46
f 46 45 32
f 33 34 47
f 47 46 33
f 34 35 48
f 48 47 34
f 35 36 49
f 49 48 35
f 36 37 50
f 50 49 36
f 37 38 51
f 51 50 37
f 38 39 52
f 52 51 38
f 40 41 53
f 41 42 53
f 42 43 53
f 43 44 53
f 44 45 53
f 45 46 53
f 46 47 53
f 47 48 53
f 48 49 53
f 49 50 53
f 50 51 53
f 51 52 53
g building_3
f 54 55 60
f 60 59 54
f 55 56 61
f 61 60 55
f 56 57 62
f 62 61 56
f 57 58 63
f 63 62 57
f 59 60 64
f 60 61 64
f 61 62 64
f 62 63 64
g barda_4
f 65 66 71
f 71 70 65
f 66 67 72
f 72 71 66
f 67 68 73
f 73 72 67
f 68 69 74
f 74 73 68
