# Terrain mesh for tecate_core_z14_x2885_y6621
v 1827.118 -0.216 -2252.234
v 1979.992 -0.207 -2252.234
v 2132.866 1.930 -2252.234
v 2285.740 4.462 -2252.234
v 2438.614 6.439 -2252.234
v 2591.488 6.789 -2252.234
v 2744.362 5.317 -2252.234
v 2897.237 3.779 -2252.234
v 3050.111 2.708 -2252.234
v 3202.985 3.887 -2252.234
v 3355.859 6.056 -2252.234
v 3508.733 8.730 -2252.234
v 3661.607 10.101 -2252.234
v 3814.481 9.622 -2252.234
v 3967.355 8.140 -2252.234
v 4120.229 6.350 -2252.234
v 4273.103 6.410 -2252.234
v 1827.118 1.216 -2405.093
v 1979.992 -1.085 -2405.093
v 2132.866 3.153 -2405.093
v 2285.740 4.794 -2405.093
v 2438.614 7.272 -2405.093
v 2591.488 8.272 -2405.093
v 2744.362 5.026 -2405.093
v 2897.237 5.283 -2405.093
v 3050.111 1.678 -2405.093
v 3202.985 5.274 -2405.093
v 3355.859 5.800 -2405.093
v 3508.733 9.896 -2405.093
v 3661.607 11.187 -2405.093
v 3814.481 9.882 -2405.093
v 3967.355 9.619 -2405.093
v 4120.229 5.429 -2405.093
v 4273.103 7.836 -2405.093
v 1827.118 -1.898 -2557.954
v 1979.992 2.497 -2557.954
v 2132.866 1.394 -2557.954
v 2285.740 6.913 -2557.954
v 2438.614 8.765 -2557.954
v 2591.488 7.764 -2557.954
v 2744.362 8.759 -2557.954
v 2897.237 2.499 -2557.954
v 3050.111 5.647 -2557.954
v 3202.985 2.407 -2557.954
v 3355.859 8.859 -2557.954
v 3508.733 9.963 -2557.954
v 3661.607 12.030 -2557.954
v 3814.481 12.686 -2557.954
v 3967.355 7.668 -2557.954
v 4120.229 9.415 -2557.954
v 4273.103 4.560 -2557.954
v 1827.118 2.632 -2710.818
v 1979.992 -0.278 -2710.818
v 2132.866 4.881 -2710.818
v 2285.740 6.917 -2710.818
v 2438.614 9.932 -2710.818
v 2591.488 11.046 -2710.818
v 2744.362 6.893 -2710.818
v 2897.237 6.981 -2710.818
v 3050.111 2.420 -2710.818
v 3202.985 6.736 -2710.818
v 3355.859 7.396 -2710.818
v 3508.733 12.418 -2710.818
v 3661.607 13.954 -2710.818
v 3814.481 12.220 -2710.818
v 3967.355 11.682 -2710.818
v 4120.229 6.362 -2710.818
v 4273.103 9.164 -2710.818
v 1827.118 2.150 -2863.683
v 1979.992 1.820 -2863.683
v 2132.866 5.070 -2863.683
v 2285.740 8.856 -2863.683
v 2438.614 11.794 -2863.683
v 2591.488 12.114 -2863.683
v 2744.362 9.416 -2863.683
v 2897.237 6.734 -2863.683
v 3050.111 4.656 -2863.683
v 3202.985 6.373 -2863.683
v 3355.859 9.547 -2863.683
v 3508.733 13.640 -2863.683
v 3661.607 15.582 -2863.683
v 3814.481 14.517 -2863.683
v 3967.355 11.905 -2863.683
v 4120.229 8.671 -2863.683
v 4273.103 8.584 -2863.683
v 1827.118 0.586 -3016.550
v 1979.992 5.301 -3016.550
v 2132.866 4.614 -3016.550
v 2285.740 11.472 -3016.550
v 2438.614 14.035 -3016.550
v 2591.488 12.834 -3016.550
v 2744.362 13.226 -3016.550
v 2897.237 5.482 -3016.550
v 3050.111 8.423 -3016.550
v 3202.985 5.009 -3016.550
v 3355.859 12.783 -3016.550
v 3508.733 14.752 -3016.550
v 3661.607 17.343 -3016.550
v 3814.481 17.705 -3016.550
v 3967.355 11.368 -3016.550
v 4120.229 12.490 -3016.550
v 4273.103 6.878 -3016.550
v 1827.118 7.761 -3169.419
v 1979.992 1.452 -3169.419
v 2132.866 10.143 -3169.419
v 2285.740 11.621 -3169.419
v 2438.614 15.858 -3169.419
v 2591.488 17.860 -3169.419
v 2744.362 10.571 -3169.419
v 2897.237 12.532 -3169.419
v 3050.111 3.896 -3169.419
v 3202.985 11.869 -3169.419
v 3355.859 10.791 -3169.419
v 3508.733 18.566 -3169.419
v 3661.607 20.301 -3169.419
v 3814.481 17.098 -3169.419
v 3967.355 17.640 -3169.419
v 4120.229 8.194 -3169.419
v 4273.103 14.181 -3169.419
v 1827.118 4.083 -3322.290
v 1979.992 7.787 -3322.290
v 2132.866 8.418 -3322.290
v 2285.740 15.570 -3322.290
v 2438.614 18.792 -3322.290
v 2591.488 17.814 -3322.290
v 2744.362 16.952 -3322.290
v 2897.237 9.296 -3322.290
v 3050.111 10.814 -3322.290
v 3202.985 8.549 -3322.290
v 3355.859 16.221 -3322.290
v 3508.733 19.411 -3322.290
v 3661.607 22.255 -3322.290
v 3814.481 22.025 -3322.290
v 3967.355 15.574 -3322.290
v 4120.229 15.106 -3322.290
v 4273.103 10.277 -3322.290
v 1827.118 7.374 -3475.163
v 1979.992 9.219 -3475.163
v 2132.866 11.390 -3475.163
v 2285.740 17.561 -3475.163
v 2438.614 21.019 -3475.163
v 2591.488 20.588 -3475.163
v 2744.362 18.481 -3475.163
v 2897.237 12.536 -3475.163
v 3050.111 12.134 -3475.163
v 3202.985 11.781 -3475.163
v 3355.859 17.893 -3475.163
v 3508.733 22.000 -3475.163
v 3661.607 24.668 -3475.163
v 3814.481 23.862 -3475.163
v 3967.355 18.640 -3475.163
v 4120.229 16.447 -3475.163
v 4273.103 13.601 -3475.163
v 1827.118 14.115 -3628.038
v 1979.992 8.057 -3628.038
v 2132.866 16.770 -3628.038
v 2285.740 18.775 -3628.038
v 2438.614 23.234 -3628.038
v 2591.488 25.127 -3628.038
v 2744.362 17.730 -3628.038
v 2897.237 19.058 -3628.038
v 3050.111 10.500 -3628.038
v 3202.985 18.267 -3628.038
v 3355.859 17.755 -3628.038
v 3508.733 25.752 -3628.038
v 3661.607 27.677 -3628.038
v 3814.481 24.419 -3628.038
v 3967.355 24.421 -3628.038
v 4120.229 14.897 -3628.038
v 4273.103 20.476 -3628.038
v 1827.118 10.169 -3780.915
v 1979.992 16.849 -3780.915
v 2132.866 15.017 -3780.915
v 2285.740 23.738 -3780.915
v 2438.614 26.583 -3780.915
v 2591.488 24.730 -3780.915
v 2744.362 25.860 -3780.915
v 2897.237 15.464 -3780.915
v 3050.111 20.055 -3780.915
v 3202.985 14.730 -3780.915
v 3355.859 24.898 -3780.915
v 3508.733 26.623 -3780.915
v 3661.607 29.747 -3780.915
v 3814.481 30.440 -3780.915
v 3967.355 22.021 -3780.915
v 4120.229 24.315 -3780.915
v 4273.103 16.313 -3780.915
v 1827.118 18.131 -3933.794
v 1979.992 15.544 -3933.794
v 2132.866 21.384 -3933.794
v 2285.740 25.219 -3933.794
v 2438.614 29.238 -3933.794
v 2591.488 30.110 -3933.794
v 2744.362 25.037 -3933.794
v 2897.237 23.170 -3933.794
v 3050.111 18.195 -3933.794
v 3202.985 22.395 -3933.794
v 3355.859 24.793 -3933.794
v 3508.733 31.081 -3933.794
v 3661.607 33.332 -3933.794
v 3814.481 31.151 -3933.794
v 3967.355 28.859 -3933.794
v 4120.229 22.555 -3933.794
v 4273.103 24.433 -3933.794
v 1827.118 21.562 -4086.675
v 1979.992 18.730 -4086.675
v 2132.866 24.773 -4086.675
v 2285.740 28.479 -4086.675
v 2438.614 32.529 -4086.675
v 2591.488 33.473 -4086.675
v 2744.362 28.236 -4086.675
v 2897.237 26.595 -4086.675
v 3050.111 21.366 -4086.675
v 3202.985 25.819 -4086.675
v 3355.859 28.011 -4086.675
v 3508.733 34.419 -4086.675
v 3661.607 36.648 -4086.675
v 3814.481 34.390 -4086.675
v 3967.355 32.261 -4086.675
v 4120.229 25.729 -4086.675
v 4273.103 27.869 -4086.675
v 1827.118 20.127 -4239.558
v 1979.992 26.705 -4239.558
v 2132.866 24.957 -4239.558
v 2285.740 33.624 -4239.558
v 2438.614 36.482 -4239.558
v 2591.488 34.659 -4239.558
v 2744.362 35.720 -4239.558
v 2897.237 25.420 -4239.558
v 3050.111 29.904 -4239.558
v 3202.985 24.685 -4239.558
v 3355.859 34.766 -4239.558
v 3508.733 36.542 -4239.558
v 3661.607 39.657 -4239.558
v 3814.481 40.318 -4239.558
v 3967.355 31.967 -4239.558
v 4120.229 34.165 -4239.558
v 4273.103 26.272 -4239.558
v 1827.118 30.602 -4392.443
v 1979.992 24.575 -4392.443
v 2132.866 33.262 -4392.443
v 2285.740 35.283 -4392.443
v 2438.614 39.738 -4392.443
v 2591.488 41.622 -4392.443
v 2744.362 34.246 -4392.443
v 2897.237 35.546 -4392.443
v 3050.111 27.020 -4392.443
v 3202.985 34.755 -4392.443
v 3355.859 34.269 -4392.443
v 3508.733 42.250 -4392.443
v 3661.607 44.178 -4392.443
v 3814.481 40.930 -4392.443
v 3967.355 40.912 -4392.443
v 4120.229 31.417 -4392.443
v 4273.103 36.962 -4392.443
v 1827.118 30.613 -4545.330
v 1979.992 32.204 -4545.330
v 2132.866 34.585 -4545.330
v 2285.740 40.623 -4545.330
v 2438.614 44.112 -4545.330
v 2591.488 43.756 -4545.330
v 2744.362 41.479 -4545.330
v 2897.237 35.768 -4545.330
v 3050.111 35.104 -4545.330
v 3202.985 35.011 -4545.330
v 3355.859 40.911 -4545.330
v 3508.733 45.143 -4545.330
v 3661.607 47.787 -4545.330
v 3814.481 46.902 -4545.330
v 3967.355 41.848 -4545.330
v 4120.229 39.420 -4545.330
v 4273.103 36.844 -4545.330
v 1827.118 33.661 -4698.219
v 1979.992 37.609 -4698.219
v 2132.866 38.038 -4698.219
v 2285.740 45.319 -4698.219
v 2438.614 48.510 -4698.219
v 2591.488 47.460 -4698.219
v 2744.362 46.761 -4698.219
v 2897.237 38.881 -4698.219
v 3050.111 40.650 -4698.219
v 3202.985 38.135 -4698.219
v 3355.859 46.011 -4698.219
v 3508.733 49.082 -4698.219
v 3661.607 51.949 -4698.219
v 3814.481 51.794 -4698.219
v 3967.355 45.182 -4698.219
v 4120.229 44.940 -4698.219
v 4273.103 39.851 -4698.219
f 1 2 19
f 19 18 1
f 2 3 20
f 20 19 2
f 3 4 21
f 21 20 3
f 4 5 22
f 22 21 4
f 5 6 23
f 23 22 5
f 6 7 24
f 24 23 6
f 7 8 25
f 25 24 7
f 8 9 26
f 26 25 8
f 9 10 27
f 27 26 9
f 10 11 28
f 28 27 10
f 11 12 29
f 29 28 11
f 12 13 30
f 30 29 12
f 13 14 31
f 31 30 13
f 14 15 32
f 32 31 14
f 15 16 33
f 33 32 15
f 16 17 34
f 34 33 16
f 18 19 36
f 36 35 18
f 19 20 37
f 37 36 19
f 20 21 38
f 38 37 20
f 21 22 39
f 39 38 21
f 22 23 40
f 40 39 22
f 23 24 41
f 41 40 23
f 24 25 42
f 42 41 24
f 25 26 43
f 43 42 25
f 26 27 44
f 44 43 26
f 27 28 45
f 45 44 27
f 28 29 46
f 46 45 28
f 29 30 47
f 47 46 29
f 30 31 48
f 48 47 30
f 31 32 49
f 49 48 31
f 32 33 50
f 50 49 32
f 33 34 51
f 51 50 33
f 35 36 53
f 53 52 35
f 36 37 54
f 54 53 36
f 37 38 55
f 55 54 37
f 38 39 56
f 56 55 38
f 39 40 57
f 57 56 39
f 40 41 58
f 58 57 40
f 41 42 59
f 59 58 41
f 42 43 60
f 60 59 42
f 43 44 61
f 61 60 43
f 44 45 62
f 62 61 44
f 45 46 63
f 63 62 45
f 46 47 64
f 64 63 46
f 47 48 65
f 65 64 47
f 48 49 66
f 66 65 48
f 49 50 67
f 67 66 49
f 50 51 68
f 68 67 50
f 52 53 70
f 70 69 52
f 53 54 71
f 71 70 53
f 54 55 72
f 72 71 54
f 55 56 73
f 73 72 55
f 56 57 74
f 74 73 56
f 57 58 75
f 75 74 57
f 58 59 76
f 76 75 58
f 59 60 77
f 77 76 59
f 60 61 78
f 78 77 60
f 61 62 79
f 79 78 61
f 62 63 80
f 80 79 62
f 63 64 81
f 81 80 63
f 64 65 82
f 82 81 64
f 65 66 83
f 83 82 65
f 66 67 84
f 84 83 66
f 67 68 85
f 85 84 67
f 69 70 87
f 87 86 69
f 70 71 88
f 88 87 70
f 71 72 89
f 89 88 71
f 72 73 90
f 90 89 72
f 73 74 91
f 91 90 73
f 74 75 92
f 92 91 74
f 75 76 93
f 93 92 75
f 76 77 94
f 94 93 76
f 77 78 95
f 95 94 77
f 78 79 96
f 96 95 78
f 79 80 97
f 97 96 79
f 80 81 98
f 98 97 80
f 81 82 99
f 99 98 81
f 82 83 100
f 100 99 82
f 83 84 101
f 101 100 83
f 84 85 102
f 102 101 84
f 86 87 104
f 104 103 86
f 87 88 105
f 105 104 87
f 88 89 106
f 106 105 88
f 89 90 107
f 107 106 89
f 90 91 108
f 108 107 90
f 91 92 109
f 109 108 91
f 92 93 110
f 110 109 92
f 93 94 111
f 111 110 93
f 94 95 112
f 112 111 94
f 95 96 113
f 113 112 95
f 96 97 114
f 114 113 96
f 97 98 115
f 115 114 97
f 98 99 116
f 116 115 98
f 99 100 117
f 117 116 99
f 100 101 118
f 118 117 100
f 101 102 119
f 119 118 101
f 103 104 121
f 121 120 103
f 104 105 122
f 122 121 104
f 105 106 123
f 123 122 105
f 106 107 124
f 124 123 106
f 107 108 125
f 125 124 107
f 108 109 126
f 126 125 108
f 109 110 127
f 127 126 109
f 110 111 128
f 128 127 110
f 111 112 129
f 129 128 111
f 112 113 130
f 130 129 112
f 113 114 131
f 131 130 113
f 114 115 132
f 132 131 114
f 115 116 133
f 133 132 115
f 116 117 134
f 134 133 116
f 117 118 135
f 135 134 117
f 118 119 136
f 136 135 118
f 120 121 138
f 138 137 120
f 121 122 139
f 139 138 121
f 122 123 140
f 140 139 122
f 123 124 141
f 141 140 123
f 124 125 142
f 142 141 124
f 125 126 143
f 143 142 125
f 126 127 144
f 144 143 126
f 127 128 145
f 145 144 127
f 128 129 146
f 146 145 128
f 129 130 147
f 147 146 129
f 130 131 148
f 148 147 130
f 131 132 149
f 149 148 131
f 132 133 150
f 150 149 132
f 133 134 151
f 151 150 133
f 134 135 152
f 152 151 134
f 135 136 153
f 153 152 135
f 137 138 155
f 155 154 137
f 138 139 156
f 156 155 138
f 139 140 157
f 157 156 139
f 140 141 158
f 158 157 140
f 141 142 159
f 159 158 141
f 142 143 160
f 160 159 142
f 143 144 161
f 161 160 143
f 144 145 162
f 162 161 144
f 145 146 163
f 163 162 145
f 146 147 164
f 164 163 146
f 147 148 165
f 165 164 147
f 148 149 166
f 166 165 148
f 149 150 167
f 167 166 149
f 150 151 168
f 168 167 150
f 151 152 169
f 169 168 151
f 152 153 170
f 170 169 152
f 154 155 172
f 172 171 154
f 155 156 173
f 173 172 155
f 156 157 174
f 174 173 156
f 157 158 175
f 175 174 157
f 158 159 176
f 176 175 158
f 159 160 177
f 177 176 159
f 160 161 178
f 178 177 160
f 161 162 179
f 179 178 161
f 162 163 180
f 180 179 162
f 163 164 181
f 181 180 163
f 164 165 182
f 182 181 164
f 165 166 183
f 183 182 165
f 166 167 184
f 184 183 166
f 167 168 185
f 185 184 167
f 168 169 186
f 186 185 168
f 169 170 187
f 187 186 169
f 171 172 189
f 189 188 171
f 172 173 190
f 190 189 172
f 173 174 191
f 191 190 173
f 174 175 192
f 192 191 174
f 175 176 193
f 193 192 175
f 176 177 194
f 194 193 176
f 177 178 195
f 195 194 177
f 178 179 196
f 196 195 178
f 179 180 197
f 197 196 179
f 180 181 198
f 198 197 180
f 181 182 199
f 199 198 181
f 182 183 200
f 200 199 182
f 183 184 201
f 201 200 183
f 184 185 202
f 202 201 184
f 185 186 203
f 203 202 185
f 186 187 204
f 204 203 186
f 188 189 206
f 206 205 188
f 189 190 207
f 207 206 189
f 190 191 208
f 208 207 190
f 191 192 209
f 209 208 191
f 192 193 210
f 210 209 192
f 193 194 211
f 211 210 193
f 194 195 212
f 212 211 194
f 195 196 213
f 213 212 195
f 196 197 214
f 214 213 196
f 197 198 215
f 215 214 197
f 198 199 216
f 216 215 198
f 199 200 217
f 217 216 199
f 200 201 218
f 218 217 200
f 201 202 219
f 219 218 201
f 202 203 220
f 220 219 202
f 203 204 221
f 221 220 203
f 205 206 223
f 223 222 205
f 206 207 224
f 224 223 206
f 207 208 225
f 225 224 207
f 208 209 226
f 226 225 208
f 209 210 227
f 227 226 209
f 210 211 228
f 228 227 210
f 211 212 229
f 229 228 211
f 212 213 230
f 230 229 212
f 213 214 231
f 231 230 213
f 214 215 232
f 232 231 214
f 215 216 233
f 233 232 215
f 216 217 234
f 234 233 216
f 217 218 235
f 235 234 217
f 218 219 236
f 236 235 218
f 219 220 237
f 237 236 219
f 220 221 238
f 238 237 220
f 222 223 240
f 240 239 222
f 223 224 241
f 241 240 223
f 224 225 242
f 242 241 224
f 225 226 243
f 243 242 225
f 226 227 244
f 244 243 226
f 227 228 245
f 245 244 227
f 228 229 246
f 246 245 228
f 229 230 247
f 247 246 229
f 230 231 248
f 248 247 230
f 231 232 249
f 249 248 231
f 232 233 250
f 250 249 232
f 233 234 251
f 251 250 233
f 234 235 252
f 252 251 234
f 235 236 253
f 253 252 235
f 236 237 254
f 254 253 236
f 237 238 255
f 255 254 237
f 239 240 257
f 257 256 239
f 240 241 258
f 258 257 240
f 241 242 259
f 259 258 241
f 242 243 260
f 260 259 242
f 243 244 261
f 261 260 243
f 244 245 262
f 262 261 244
f 245 246 263
f 263 262 245
f 246 247 264
f 264 263 246
f 247 248 265
f 265 264 247
f 248 249 266
f 266 265 248
f 249 250 267
f 267 266 249
f 250 251 268
f 268 267 250
f 251 252 269
f 269 268 251
f 252 253 270
f 270 269 252
f 253 254 271
f 271 270 253
f 254 255 272
f 272 271 254
f 256 257 274
f 274 273 256
f 257 258 275
f 275 274 257
f 258 259 276
f 276 275 258
f 259 260 277
f 277 276 259
f 260 261 278
f 278 277 260
f 261 262 279
f 279 278 261
f 262 263 280
f 280 279 262
f 263 264 281
f 281 280 263
f 264 265 282
f 282 281 264
f 265 266 283
f 283 282 265
f 266 267 284
f 284 283 266
f 267 268 285
f 285 284 267
f 268 269 286
f 286 285 268
f 269 270 287
f 287 286 269
f 270 271 288
f 288 287 270
f 271 272 289
f 289 288 271
