# Buildings and bardas mesh for tecate_core_z14_x2885_y6622
v 4271.039 8.607 -271.392
v 4268.780 8.607 -260.600
v 4261.533 8.607 -262.251
v 4257.737 8.607 -263.110
v 4259.997 8.607 -273.902
v 4271.039 8.607 -271.392
v 4271.039 12.107 -271.392
v 4268.780 12.107 -260.600
v 4261.533 12.107 -262.251
v 4257.737 12.107 -263.110
v 4259.997 12.107 -273.902
v 4271.039 12.107 -271.392
v 4265.021 12.107 -267.108
v 4271.039 12.707 -271.392
v 4268.780 12.707 -260.600
v 4261.533 12.707 -262.251
v 4257.737 12.707 -263.110
v 4259.997 12.707 -273.902
v 4271.039 12.707 -271.392
v 4261.533 8.583 -262.251
v 4259.618 8.583 -252.582
v 4250.122 8.583 -254.484
v 4250.757 8.583 -259.227
v 4255.510 8.583 -258.592
v 4257.737 8.583 -263.110
v 4261.533 8.583 -262.251
v 4261.533 12.083 -262.251
v 4259.618 12.083 -252.582
v 4250.122 12.083 -254.484
v 4250.757 12.083 -259.227
v 4255.510 12.083 -258.592
v 4257.737 12.083 -263.110
v 4261.533 12.083 -262.251
v 4256.687 12.083 -258.928
v 4261.533 12.683 -262.251
v 4259.618 12.683 -252.582
v 4250.122 12.683 -254.484
v 4250.757 12.683 -259.227
v 4255.510 12.683 -258.592
v 4257.737 12.683 -263.110
v 4261.533 12.683 -262.251
v 4254.431 8.587 -308.668
v 4249.354 8.587 -280.599
v 4268.012 8.587 -277.019
v 4273.388 8.587 -305.538
v 4254.431 8.587 -308.668
v 4254.431 12.087 -308.668
v 4249.354 12.087 -280.599
v 4268.012 12.087 -277.019
v 4273.388 12.087 -305.538
v 4254.431 12.087 -308.668
v 4259.923 12.087 -296.099
v 4254.431 12.687 -308.668
v 4249.354 12.687 -280.599
v 4268.012 12.687 -277.019
v 4273.388 12.687 -305.538
v 4254.431 12.687 -308.668
v 4166.121 8.300 -399.654
v 4132.035 8.300 -199.389
v 4181.750 8.300 -190.156
v 4214.411 8.300 -400.367
v 4166.121 8.300 -399.654
v 4166.121 11.800 -399.654
v 4132.035 11.800 -199.389
v 4181.750 11.800 -190.156
v 4214.411 11.800 -400.367
v 4166.121 11.800 -399.654
v 4172.088 11.800 -317.844
v 4166.121 12.400 -399.654
v 4132.035 12.400 -199.389
v 4181.750 12.400 -190.156
v 4214.411 12.400 -400.367
v 4166.121 12.400 -399.654
v 3925.359 7.920 -328.126
v 3933.675 7.920 -326.725
v 3946.087 7.920 -399.839
v 3986.863 7.920 -392.917
v 3988.600 7.920 -403.154
v 4006.266 7.920 -400.156
v 4003.349 7.920 -382.944
v 4009.951 7.920 -381.821
v 4011.654 7.920 -391.860
v 4049.614 7.920 -385.414
v 4048.790 7.920 -380.593
v 4055.191 7.920 -379.496
v 4058.720 7.920 -400.288
v 4069.061 7.920 -398.531
v 4066.089 7.920 -381.015
v 4076.831 7.920 -379.193
v 4079.514 7.920 -394.991
v 4118.443 7.920 -388.386
v 4107.934 7.920 -326.448
v 4099.652 7.920 -327.848
v 4098.784 7.920 -322.776
v 4062.594 7.920 -328.918
v 4070.264 7.920 -374.133
v 4057.028 7.920 -376.379
v 4049.391 7.920 -331.401
v 4048.512 7.920 -326.197
v 4047.098 7.920 -317.888
v 4096.312 7.920 -309.540
v 4094.476 7.920 -298.748
v 4103.381 7.920 -297.242
v 4087.841 7.920 -205.664
v 4029.443 7.920 -215.570
v 4032.014 7.920 -230.774
v 3985.449 7.920 -238.673
v 3988.989 7.920 -259.570
v 3994.667 7.920 -258.606
v 4007.880 7.920 -336.500
v 3976.265 7.920 -341.863
v 3963.018 7.920 -263.744
v 3923.021 7.920 -270.534
v 3930.580 7.920 -315.062
v 3923.455 7.920 -316.277
v 3925.359 7.920 -328.126
v 3925.359 11.420 -328.126
v 3933.675 11.420 -326.725
v 3946.087 11.420 -399.839
v 3986.863 11.420 -392.917
v 3988.600 11.420 -403.154
v 4006.266 11.420 -400.156
v 4003.349 11.420 -382.944
v 4009.951 11.420 -381.821
v 4011.654 11.420 -391.860
v 4049.614 11.420 -385.414
v 4048.790 11.420 -380.593
v 4055.191 11.420 -379.496
v 4058.720 11.420 -400.288
v 4069.061 11.420 -398.531
v 4066.089 11.420 -381.015
v 4076.831 11.420 -379.193
v 4079.514 11.420 -394.991
v 4118.443 11.420 -388.386
v 4107.934 11.420 -326.448
v 4099.652 11.420 -327.848
v 4098.784 11.420 -322.776
v 4062.594 11.420 -328.918
v 4070.264 11.420 -374.133
v 4057.028 11.420 -376.379
v 4049.391 11.420 -331.401
v 4048.512 11.420 -326.197
v 4047.098 11.420 -317.888
v 4096.312 11.420 -309.540
v 4094.476 11.420 -298.748
v 4103.381 11.420 -297.242
v 4087.841 11.420 -205.664
v 4029.443 11.420 -215.570
v 4032.014 11.420 -230.774
v 3985.449 11.420 -238.673
v 3988.989 11.420 -259.570
v 3994.667 11.420 -258.606
v 4007.880 11.420 -336.500
v 3976.265 11.420 -341.863
v 3963.018 11.420 -263.744
v 3923.021 11.420 -270.534
v 3930.580 11.420 -315.062
v 3923.455 11.420 -316.277
v 3925.359 11.420 -328.126
v 4026.453 11.420 -335.208
v 3925.359 12.020 -328.126
v 3933.675 12.020 -326.725
v 3946.087 12.020 -399.839
v 3986.863 12.020 -392.917
v 3988.600 12.020 -403.154
v 4006.266 12.020 -400.156
v 4003.349 12.020 -382.944
v 4009.951 12.020 -381.821
v 4011.654 12.020 -391.860
v 4049.614 12.020 -385.414
v 4048.790 12.020 -380.593
v 4055.191 12.020 -379.496
v 4058.720 12.020 -400.288
v 4069.061 12.020 -398.531
v 4066.089 12.020 -381.015
v 4076.831 12.020 -379.193
v 4079.514 12.020 -394.991
v 4118.443 12.020 -388.386
v 4107.934 12.020 -326.448
v 4099.652 12.020 -327.848
v 4098.784 12.020 -322.776
v 4062.594 12.020 -328.918
v 4070.264 12.020 -374.133
v 4057.028 12.020 -376.379
v 4049.391 12.020 -331.401
v 4048.512 12.020 -326.197
v 4047.098 12.020 -317.888
v 4096.312 12.020 -309.540
v 4094.476 12.020 -298.748
v 4103.381 12.020 -297.242
v 4087.841 12.020 -205.664
v 4029.443 12.020 -215.570
v 4032.014 12.020 -230.774
v 3985.449 12.020 -238.673
v 3988.989 12.020 -259.570
v 3994.667 12.020 -258.606
v 4007.880 12.020 -336.500
v 3976.265 12.020 -341.863
v 3963.018 12.020 -263.744
v 3923.021 12.020 -270.534
v 3930.580 12.020 -315.062
v 3923.455 12.020 -316.277
v 3925.359 12.020 -328.126
v 2206.196 2.787 -543.134
v 2209.614 2.787 -525.169
v 2244.579 2.787 -531.827
v 2241.162 2.787 -549.792
v 2206.196 2.787 -543.134
v 2206.196 6.287 -543.134
v 2209.614 6.287 -525.169
v 2244.579 6.287 -531.827
v 2241.162 6.287 -549.792
v 2206.196 6.287 -543.134
v 2221.550 6.287 -538.611
v 3923.455 7.612 -316.277
v 3919.849 7.612 -294.984
v 3896.271 7.612 -298.986
v 3897.095 7.612 -303.860
v 3880.709 7.612 -306.634
v 3882.401 7.612 -316.607
v 3873.039 7.612 -318.192
v 3872.549 7.612 -315.313
v 3828.266 7.612 -322.815
v 3842.971 7.612 -409.495
v 3877.536 7.612 -403.630
v 3875.354 7.612 -390.790
v 3886.887 7.612 -388.835
v 3887.789 7.612 -394.106
v 3893.188 7.612 -393.181
v 3894.045 7.612 -398.254
v 3929.077 7.612 -392.309
v 3927.964 7.612 -385.731
v 3933.597 7.612 -384.780
v 3924.023 7.612 -328.363
v 3925.359 7.612 -328.126
v 3923.455 7.612 -316.277
v 3923.455 11.112 -316.277
v 3919.849 11.112 -294.984
v 3896.271 11.112 -298.986
v 3897.095 11.112 -303.860
v 3880.709 11.112 -306.634
v 3882.401 11.112 -316.607
v 3873.039 11.112 -318.192
v 3872.549 11.112 -315.313
v 3828.266 11.112 -322.815
v 3842.971 11.112 -409.495
v 3877.536 11.112 -403.630
v 3875.354 11.112 -390.790
v 3886.887 11.112 -388.835
v 3887.789 11.112 -394.106
v 3893.188 11.112 -393.181
v 3894.045 11.112 -398.254
v 3929.077 11.112 -392.309
v 3927.964 11.112 -385.731
v 3933.597 11.112 -384.780
v 3924.023 11.112 -328.363
v 3925.359 11.112 -328.126
v 3923.455 11.112 -316.277
v 3895.222 11.112 -350.343
v 3923.455 11.712 -316.277
v 3919.849 11.712 -294.984
v 3896.271 11.712 -298.986
v 3897.095 11.712 -303.860
v 3880.709 11.712 -306.634
v 3882.401 11.712 -316.607
v 3873.039 11.712 -318.192
v 3872.549 11.712 -315.313
v 3828.266 11.712 -322.815
v 3842.971 11.712 -409.495
v 3877.536 11.712 -403.630
v 3875.354 11.712 -390.790
v 3886.887 11.712 -388.835
v 3887.789 11.712 -394.106
v 3893.188 11.712 -393.181
v 3894.045 11.712 -398.254
v 3929.077 11.712 -392.309
v 3927.964 11.712 -385.731
v 3933.597 11.712 -384.780
v 3924.023 11.712 -328.363
v 3925.359 11.712 -328.126
v 3923.455 11.712 -316.277
v 2751.773 4.157 -1520.899
v 2750.849 4.157 -1544.915
v 2776.375 4.157 -1545.893
v 2777.299 4.157 -1521.876
v 2751.773 4.157 -1520.899
v 2751.773 7.657 -1520.899
v 2750.849 7.657 -1544.915
v 2776.375 7.657 -1545.893
v 2777.299 7.657 -1521.876
v 2751.773 7.657 -1520.899
v 2761.614 7.657 -1530.896
v 2750.557 4.157 -1519.662
v 2749.793 4.157 -1546.291
v 2777.592 4.157 -1547.129
v 2778.802 4.157 -1521.011
v 2750.557 4.157 -1519.662
v 2750.557 6.157 -1519.662
v 2749.793 6.157 -1546.291
v 2777.592 6.157 -1547.129
v 2778.802 6.157 -1521.011
v 2750.557 6.157 -1519.662
g building_0
f 1 2 8
f 8 7 1
f 2 3 9
f 9 8 2
f 3 4 10
f 10 9 3
f 4 5 11
f 11 10 4
f 5 6 12
f 12 11 5
f 7 8 13
f 8 9 13
f 9 10 13
f 10 11 13
f 11 12 13
f 7 8 15
f 15 14 7
f 8 9 16
f 16 15 8
f 9 10 17
f 17 16 9
f 10 11 18
f 18 17 10
f 11 12 19
f 19 18 11
g building_1
f 20 21 28
f 28 27 20
f 21 22 29
f 29 28 21
f 22 23 30
f 30 29 22
f 23 24 31
f 31 30 23
f 24 25 32
f 32 31 24
f 25 26 33
f 33 32 25
f 27 28 34
f 28 29 34
f 29 30 34
f 30 31 34
f 31 32 34
f 32 33 34
f 27 28 36
f 36 35 27
f 28 29 37
f 37 36 28
f 29 30 38
f 38 37 29
f 30 31 39
f 39 38 30
f 31 32 40
f 40 39 31
f 32 33 41
f 41 40 32
g building_2
f 42 43 48
f 48 47 42
f 43 44 49
f 49 48 43
f 44 45 50
f 50 49 44
f 45 46 51
f 51 50 45
f 47 48 52
f 48 49 52
f 49 50 52
f 50 51 52
f 47 48 54
f 54 53 47
f 48 49 55
f 55 54 48
f 49 50 56
f 56 55 49
f 50 51 57
f 57 56 50
g building_3
f 58 59 64
f 64 63 58
f 59 60 65
f 65 64 59
f 60 61 66
f 66 65 60
f 61 62 67
f 67 66 61
f 63 64 68
f 64 65 68
f 65 66 68
f 66 67 68
f 63 64 70
f 70 69 63
f 64 65 71
f 71 70 64
f 65 66 72
f 72 71 65
f 66 67 73
f 73 72 66
g building_4
f 74 75 118
f 118 117 74
f 75 76 119
f 119 118 75
f 76 77 120
f 120 119 76
f 77 78 121
f 121 120 77
f 78 79 122
f 122 121 78
f 79 80 123
f 123 122 79
f 80 81 124
f 124 123 80
f 81 82 125
f 125 124 81
f 82 83 126
f 126 125 82
f 83 84 127
f 127 126 83
f 84 85 128
f 128 127 84
f 85 86 129
f 129 128 85
f 86 87 130
f 130 129 86
f 87 88 131
f 131 130 87
f 88 89 132
f 132 131 88
f 89 90 133
f 133 132 89
f 90 91 134
f 134 133 90
f 91 92 135
f 135 134 91
f 92 93 136
f 136 135 92
f 93 94 137
f 137 136 93
f 94 95 138
f 138 137 94
f 95 96 139
f 139 138 95
f 96 97 140
f 140 139 96
f 97 98 141
f 141 140 97
f 98 99 142
f 142 141 98
f 99 100 143
f 143 142 99
f 100 101 144
f 144 143 100
f 101 102 145
f 145 144 101
f 102 103 146
f 146 145 102
f 103 104 147
f 147 146 103
f 104 105 148
f 148 147 104
f 105 106 149
f 149 148 105
f 106 107 150
f 150 149 106
f 107 108 151
f 151 150 107
f 108 109 152
f 152 151 108
f 109 110 153
f 153 152 109
f 110 111 154
f 154 153 110
f 111 112 155
f 155 154 111
f 112 113 156
f 156 155 112
f 113 114 157
f 157 156 113
f 114 115 158
f 158 157 114
f 115 116 159
f 159 158 115
f 117 118 160
f 118 119 160
f 119 120 160
f 120 121 160
f 121 122 160
f 122 123 160
f 123 124 160
f 124 125 160
f 125 126 160
f 126 127 160
f 127 128 160
f 128 129 160
f 129 130 160
f 130 131 160
f 131 132 160
f 132 133 160
f 133 134 160
f 134 135 160
f 135 136 160
f 136 137 160
f 137 138 160
f 138 139 160
f 139 140 160
f 140 141 160
f 141 142 160
f 142 143 160
f 143 144 160
f 144 145 160
f 145 146 160
f 146 147 160
f 147 148 160
f 148 149 160
f 149 150 160
f 150 151 160
f 151 152 160
f 152 153 160
f 153 154 160
f 154 155 160
f 155 156 160
f 156 157 160
f 157 158 160
f 158 159 160
f 117 118 162
f 162 161 117
f 118 119 163
f 163 162 118
f 119 120 164
f 164 163 119
f 120 121 165
f 165 164 120
f 121 122 166
f 166 165 121
f 122 123 167
f 167 166 122
f 123 124 168
f 168 167 123
f 124 125 169
f 169 168 124
f 125 126 170
f 170 169 125
f 126 127 171
f 171 170 126
f 127 128 172
f 172 171 127
f 128 129 173
f 173 172 128
f 129 130 174
f 174 173 129
f 130 131 175
f 175 174 130
f 131 132 176
f 176 175 131
f 132 133 177
f 177 176 132
f 133 134 178
f 178 177 133
f 134 135 179
f 179 178 134
f 135 136 180
f 180 179 135
f 136 137 181
f 181 180 136
f 137 138 182
f 182 181 137
f 138 139 183
f 183 182 138
f 139 140 184
f 184 183 139
f 140 141 185
f 185 184 140
f 141 142 186
f 186 185 141
f 142 143 187
f 187 186 142
f 143 144 188
f 188 187 143
f 144 145 189
f 189 188 144
f 145 146 190
f 190 189 145
f 146 147 191
f 191 190 146
f 147 148 192
f 192 191 147
f 148 149 193
f 193 192 148
f 149 150 194
f 194 193 149
f 150 151 195
f 195 194 150
f 151 152 196
f 196 195 151
f 152 153 197
f 197 196 152
f 153 154 198
f 198 197 153
f 154 155 199
f 199 198 154
f 155 156 200
f 200 199 155
f 156 157 201
f 201 200 156
f 157 158 202
f 202 201 157
f 158 159 203
f 203 202 158
g building_5
f 204 205 210
f 210 209 204
f 205 206 211
f 211 210 205
f 206 207 212
f 212 211 206
f 207 208 213
f 213 212 207
f 209 210 214
f 210 211 214
f 211 212 214
f 212 213 214
g building_6
f 215 216 238
f 238 237 215
f 216 217 239
f 239 238 216
f 217 218 240
f 240 239 217
f 218 219 241
f 241 240 218
f 219 220 242
f 242 241 219
f 220 221 243
f 243 242 220
f 221 222 244
f 244 243 221
f 222 223 245
f 245 244 222
f 223 224 246
f 246 245 223
f 224 225 247
f 247 246 224
f 225 226 248
f 248 247 225
f 226 227 249
f 249 248 226
f 227 228 250
f 250 249 227
f 228 229 251
f 251 250 228
f 229 230 252
f 252 251 229
f 230 231 253
f 253 252 230
f 231 232 254
f 254 253 231
f 232 233 255
f 255 254 232
f 233 234 256
f 256 255 233
f 234 235 257
f 257 256 234
f 235 236 258
f 258 257 235
f 237 238 259
f 238 239 259
f 239 240 259
f 240 241 259
f 241 242 259
f 242 243 259
f 243 244 259
f 244 245 259
f 245 246 259
f 246 247 259
f 247 248 259
f 248 249 259
f 249 250 259
f 250 251 259
f 251 252 259
f 252 253 259
f 253 254 259
f 254 255 259
f 255 256 259
f 256 257 259
f 257 258 259
f 237 238 261
f 261 260 237
f 238 239 262
f 262 261 238
f 239 240 263
f 263 262 239
f 240 241 264
f 264 263 240
f 241 242 265
f 265 264 241
f 242 243 266
f 266 265 242
f 243 244 267
f 267 266 243
f 244 245 268
f 268 267 244
f 245 246 269
f 269 268 245
f 246 247 270
f 270 269 246
f 247 248 271
f 271 270 247
f 248 249 272
f 272 271 248
f 249 250 273
f 273 272 249
f 250 251 274
f 274 273 250
f 251 252 275
f 275 274 251
f 252 253 276
f 276 275 252
f 253 254 277
f 277 276 253
f 254 255 278
f 278 277 254
f 255 256 279
f 279 278 255
f 256 257 280
f 280 279 256
f 257 258 281
f 281 280 257
g building_7
f 282 283 288
f 288 287 282
f 283 284 289
f 289 288 283
f 284 285 290
f 290 289 284
f 285 286 291
f 291 290 285
f 287 288 292
f 288 289 292
f 289 290 292
f 290 291 292
g barda_8
f 293 294 299
f 299 298 293
f 294 295 300
f 300 299 294
f 295 296 301
f 301 300 295
f 296 297 302
f 302 301 296
